%TF.GenerationSoftware,KiCad,Pcbnew,7.0.9-7.0.9~ubuntu22.04.1*%
%TF.CreationDate,2023-12-11T18:25:33-06:00*%
%TF.ProjectId,ultrasonic_microphone,756c7472-6173-46f6-9e69-635f6d696372,rev?*%
%TF.SameCoordinates,Original*%
%TF.FileFunction,Legend,Top*%
%TF.FilePolarity,Positive*%
%FSLAX46Y46*%
G04 Gerber Fmt 4.6, Leading zero omitted, Abs format (unit mm)*
G04 Created by KiCad (PCBNEW 7.0.9-7.0.9~ubuntu22.04.1) date 2023-12-11 18:25:33*
%MOMM*%
%LPD*%
G01*
G04 APERTURE LIST*
%ADD10C,0.150000*%
%ADD11C,0.100000*%
%ADD12C,0.152400*%
%ADD13C,0.120000*%
G04 APERTURE END LIST*
D10*
X141478095Y-38084819D02*
X141478095Y-38894342D01*
X141478095Y-38894342D02*
X141525714Y-38989580D01*
X141525714Y-38989580D02*
X141573333Y-39037200D01*
X141573333Y-39037200D02*
X141668571Y-39084819D01*
X141668571Y-39084819D02*
X141859047Y-39084819D01*
X141859047Y-39084819D02*
X141954285Y-39037200D01*
X141954285Y-39037200D02*
X142001904Y-38989580D01*
X142001904Y-38989580D02*
X142049523Y-38894342D01*
X142049523Y-38894342D02*
X142049523Y-38084819D01*
X143001904Y-38084819D02*
X142525714Y-38084819D01*
X142525714Y-38084819D02*
X142478095Y-38561009D01*
X142478095Y-38561009D02*
X142525714Y-38513390D01*
X142525714Y-38513390D02*
X142620952Y-38465771D01*
X142620952Y-38465771D02*
X142859047Y-38465771D01*
X142859047Y-38465771D02*
X142954285Y-38513390D01*
X142954285Y-38513390D02*
X143001904Y-38561009D01*
X143001904Y-38561009D02*
X143049523Y-38656247D01*
X143049523Y-38656247D02*
X143049523Y-38894342D01*
X143049523Y-38894342D02*
X143001904Y-38989580D01*
X143001904Y-38989580D02*
X142954285Y-39037200D01*
X142954285Y-39037200D02*
X142859047Y-39084819D01*
X142859047Y-39084819D02*
X142620952Y-39084819D01*
X142620952Y-39084819D02*
X142525714Y-39037200D01*
X142525714Y-39037200D02*
X142478095Y-38989580D01*
X138938095Y-73114819D02*
X138938095Y-73924342D01*
X138938095Y-73924342D02*
X138985714Y-74019580D01*
X138985714Y-74019580D02*
X139033333Y-74067200D01*
X139033333Y-74067200D02*
X139128571Y-74114819D01*
X139128571Y-74114819D02*
X139319047Y-74114819D01*
X139319047Y-74114819D02*
X139414285Y-74067200D01*
X139414285Y-74067200D02*
X139461904Y-74019580D01*
X139461904Y-74019580D02*
X139509523Y-73924342D01*
X139509523Y-73924342D02*
X139509523Y-73114819D01*
X139938095Y-73210057D02*
X139985714Y-73162438D01*
X139985714Y-73162438D02*
X140080952Y-73114819D01*
X140080952Y-73114819D02*
X140319047Y-73114819D01*
X140319047Y-73114819D02*
X140414285Y-73162438D01*
X140414285Y-73162438D02*
X140461904Y-73210057D01*
X140461904Y-73210057D02*
X140509523Y-73305295D01*
X140509523Y-73305295D02*
X140509523Y-73400533D01*
X140509523Y-73400533D02*
X140461904Y-73543390D01*
X140461904Y-73543390D02*
X139890476Y-74114819D01*
X139890476Y-74114819D02*
X140509523Y-74114819D01*
X137125991Y-71379027D02*
X137125991Y-71617122D01*
X136887896Y-71521884D02*
X137125991Y-71617122D01*
X137125991Y-71617122D02*
X137364086Y-71521884D01*
X136983134Y-71807598D02*
X137125991Y-71617122D01*
X137125991Y-71617122D02*
X137268848Y-71807598D01*
X135159835Y-63929818D02*
X135159835Y-64739341D01*
X135159835Y-64739341D02*
X135202692Y-64834579D01*
X135202692Y-64834579D02*
X135245550Y-64882199D01*
X135245550Y-64882199D02*
X135331264Y-64929818D01*
X135331264Y-64929818D02*
X135502692Y-64929818D01*
X135502692Y-64929818D02*
X135588407Y-64882199D01*
X135588407Y-64882199D02*
X135631264Y-64834579D01*
X135631264Y-64834579D02*
X135674121Y-64739341D01*
X135674121Y-64739341D02*
X135674121Y-63929818D01*
X136574121Y-64929818D02*
X136059835Y-64929818D01*
X136316978Y-64929818D02*
X136316978Y-63929818D01*
X136316978Y-63929818D02*
X136231264Y-64072675D01*
X136231264Y-64072675D02*
X136145549Y-64167913D01*
X136145549Y-64167913D02*
X136059835Y-64215532D01*
X133190050Y-62243137D02*
X133190050Y-62481232D01*
X132951955Y-62385994D02*
X133190050Y-62481232D01*
X133190050Y-62481232D02*
X133428145Y-62385994D01*
X133047193Y-62671708D02*
X133190050Y-62481232D01*
X133190050Y-62481232D02*
X133332907Y-62671708D01*
X132439580Y-53982857D02*
X132487200Y-54030476D01*
X132487200Y-54030476D02*
X132534819Y-54173333D01*
X132534819Y-54173333D02*
X132534819Y-54268571D01*
X132534819Y-54268571D02*
X132487200Y-54411428D01*
X132487200Y-54411428D02*
X132391961Y-54506666D01*
X132391961Y-54506666D02*
X132296723Y-54554285D01*
X132296723Y-54554285D02*
X132106247Y-54601904D01*
X132106247Y-54601904D02*
X131963390Y-54601904D01*
X131963390Y-54601904D02*
X131772914Y-54554285D01*
X131772914Y-54554285D02*
X131677676Y-54506666D01*
X131677676Y-54506666D02*
X131582438Y-54411428D01*
X131582438Y-54411428D02*
X131534819Y-54268571D01*
X131534819Y-54268571D02*
X131534819Y-54173333D01*
X131534819Y-54173333D02*
X131582438Y-54030476D01*
X131582438Y-54030476D02*
X131630057Y-53982857D01*
X132534819Y-53030476D02*
X132534819Y-53601904D01*
X132534819Y-53316190D02*
X131534819Y-53316190D01*
X131534819Y-53316190D02*
X131677676Y-53411428D01*
X131677676Y-53411428D02*
X131772914Y-53506666D01*
X131772914Y-53506666D02*
X131820533Y-53601904D01*
X131534819Y-52697142D02*
X131534819Y-52078095D01*
X131534819Y-52078095D02*
X131915771Y-52411428D01*
X131915771Y-52411428D02*
X131915771Y-52268571D01*
X131915771Y-52268571D02*
X131963390Y-52173333D01*
X131963390Y-52173333D02*
X132011009Y-52125714D01*
X132011009Y-52125714D02*
X132106247Y-52078095D01*
X132106247Y-52078095D02*
X132344342Y-52078095D01*
X132344342Y-52078095D02*
X132439580Y-52125714D01*
X132439580Y-52125714D02*
X132487200Y-52173333D01*
X132487200Y-52173333D02*
X132534819Y-52268571D01*
X132534819Y-52268571D02*
X132534819Y-52554285D01*
X132534819Y-52554285D02*
X132487200Y-52649523D01*
X132487200Y-52649523D02*
X132439580Y-52697142D01*
X146637142Y-61089580D02*
X146589523Y-61137200D01*
X146589523Y-61137200D02*
X146446666Y-61184819D01*
X146446666Y-61184819D02*
X146351428Y-61184819D01*
X146351428Y-61184819D02*
X146208571Y-61137200D01*
X146208571Y-61137200D02*
X146113333Y-61041961D01*
X146113333Y-61041961D02*
X146065714Y-60946723D01*
X146065714Y-60946723D02*
X146018095Y-60756247D01*
X146018095Y-60756247D02*
X146018095Y-60613390D01*
X146018095Y-60613390D02*
X146065714Y-60422914D01*
X146065714Y-60422914D02*
X146113333Y-60327676D01*
X146113333Y-60327676D02*
X146208571Y-60232438D01*
X146208571Y-60232438D02*
X146351428Y-60184819D01*
X146351428Y-60184819D02*
X146446666Y-60184819D01*
X146446666Y-60184819D02*
X146589523Y-60232438D01*
X146589523Y-60232438D02*
X146637142Y-60280057D01*
X147589523Y-61184819D02*
X147018095Y-61184819D01*
X147303809Y-61184819D02*
X147303809Y-60184819D01*
X147303809Y-60184819D02*
X147208571Y-60327676D01*
X147208571Y-60327676D02*
X147113333Y-60422914D01*
X147113333Y-60422914D02*
X147018095Y-60470533D01*
X148446666Y-60518152D02*
X148446666Y-61184819D01*
X148208571Y-60137200D02*
X147970476Y-60851485D01*
X147970476Y-60851485D02*
X148589523Y-60851485D01*
X133977142Y-42679580D02*
X133929523Y-42727200D01*
X133929523Y-42727200D02*
X133786666Y-42774819D01*
X133786666Y-42774819D02*
X133691428Y-42774819D01*
X133691428Y-42774819D02*
X133548571Y-42727200D01*
X133548571Y-42727200D02*
X133453333Y-42631961D01*
X133453333Y-42631961D02*
X133405714Y-42536723D01*
X133405714Y-42536723D02*
X133358095Y-42346247D01*
X133358095Y-42346247D02*
X133358095Y-42203390D01*
X133358095Y-42203390D02*
X133405714Y-42012914D01*
X133405714Y-42012914D02*
X133453333Y-41917676D01*
X133453333Y-41917676D02*
X133548571Y-41822438D01*
X133548571Y-41822438D02*
X133691428Y-41774819D01*
X133691428Y-41774819D02*
X133786666Y-41774819D01*
X133786666Y-41774819D02*
X133929523Y-41822438D01*
X133929523Y-41822438D02*
X133977142Y-41870057D01*
X134929523Y-42774819D02*
X134358095Y-42774819D01*
X134643809Y-42774819D02*
X134643809Y-41774819D01*
X134643809Y-41774819D02*
X134548571Y-41917676D01*
X134548571Y-41917676D02*
X134453333Y-42012914D01*
X134453333Y-42012914D02*
X134358095Y-42060533D01*
X135834285Y-41774819D02*
X135358095Y-41774819D01*
X135358095Y-41774819D02*
X135310476Y-42251009D01*
X135310476Y-42251009D02*
X135358095Y-42203390D01*
X135358095Y-42203390D02*
X135453333Y-42155771D01*
X135453333Y-42155771D02*
X135691428Y-42155771D01*
X135691428Y-42155771D02*
X135786666Y-42203390D01*
X135786666Y-42203390D02*
X135834285Y-42251009D01*
X135834285Y-42251009D02*
X135881904Y-42346247D01*
X135881904Y-42346247D02*
X135881904Y-42584342D01*
X135881904Y-42584342D02*
X135834285Y-42679580D01*
X135834285Y-42679580D02*
X135786666Y-42727200D01*
X135786666Y-42727200D02*
X135691428Y-42774819D01*
X135691428Y-42774819D02*
X135453333Y-42774819D01*
X135453333Y-42774819D02*
X135358095Y-42727200D01*
X135358095Y-42727200D02*
X135310476Y-42679580D01*
X145139580Y-68746666D02*
X145187200Y-68794285D01*
X145187200Y-68794285D02*
X145234819Y-68937142D01*
X145234819Y-68937142D02*
X145234819Y-69032380D01*
X145234819Y-69032380D02*
X145187200Y-69175237D01*
X145187200Y-69175237D02*
X145091961Y-69270475D01*
X145091961Y-69270475D02*
X144996723Y-69318094D01*
X144996723Y-69318094D02*
X144806247Y-69365713D01*
X144806247Y-69365713D02*
X144663390Y-69365713D01*
X144663390Y-69365713D02*
X144472914Y-69318094D01*
X144472914Y-69318094D02*
X144377676Y-69270475D01*
X144377676Y-69270475D02*
X144282438Y-69175237D01*
X144282438Y-69175237D02*
X144234819Y-69032380D01*
X144234819Y-69032380D02*
X144234819Y-68937142D01*
X144234819Y-68937142D02*
X144282438Y-68794285D01*
X144282438Y-68794285D02*
X144330057Y-68746666D01*
X144234819Y-68413332D02*
X144234819Y-67794285D01*
X144234819Y-67794285D02*
X144615771Y-68127618D01*
X144615771Y-68127618D02*
X144615771Y-67984761D01*
X144615771Y-67984761D02*
X144663390Y-67889523D01*
X144663390Y-67889523D02*
X144711009Y-67841904D01*
X144711009Y-67841904D02*
X144806247Y-67794285D01*
X144806247Y-67794285D02*
X145044342Y-67794285D01*
X145044342Y-67794285D02*
X145139580Y-67841904D01*
X145139580Y-67841904D02*
X145187200Y-67889523D01*
X145187200Y-67889523D02*
X145234819Y-67984761D01*
X145234819Y-67984761D02*
X145234819Y-68270475D01*
X145234819Y-68270475D02*
X145187200Y-68365713D01*
X145187200Y-68365713D02*
X145139580Y-68413332D01*
X136724819Y-70286666D02*
X136248628Y-70619999D01*
X136724819Y-70858094D02*
X135724819Y-70858094D01*
X135724819Y-70858094D02*
X135724819Y-70477142D01*
X135724819Y-70477142D02*
X135772438Y-70381904D01*
X135772438Y-70381904D02*
X135820057Y-70334285D01*
X135820057Y-70334285D02*
X135915295Y-70286666D01*
X135915295Y-70286666D02*
X136058152Y-70286666D01*
X136058152Y-70286666D02*
X136153390Y-70334285D01*
X136153390Y-70334285D02*
X136201009Y-70381904D01*
X136201009Y-70381904D02*
X136248628Y-70477142D01*
X136248628Y-70477142D02*
X136248628Y-70858094D01*
X136724819Y-69334285D02*
X136724819Y-69905713D01*
X136724819Y-69619999D02*
X135724819Y-69619999D01*
X135724819Y-69619999D02*
X135867676Y-69715237D01*
X135867676Y-69715237D02*
X135962914Y-69810475D01*
X135962914Y-69810475D02*
X136010533Y-69905713D01*
X136724819Y-76366666D02*
X136248628Y-76699999D01*
X136724819Y-76938094D02*
X135724819Y-76938094D01*
X135724819Y-76938094D02*
X135724819Y-76557142D01*
X135724819Y-76557142D02*
X135772438Y-76461904D01*
X135772438Y-76461904D02*
X135820057Y-76414285D01*
X135820057Y-76414285D02*
X135915295Y-76366666D01*
X135915295Y-76366666D02*
X136058152Y-76366666D01*
X136058152Y-76366666D02*
X136153390Y-76414285D01*
X136153390Y-76414285D02*
X136201009Y-76461904D01*
X136201009Y-76461904D02*
X136248628Y-76557142D01*
X136248628Y-76557142D02*
X136248628Y-76938094D01*
X135820057Y-75985713D02*
X135772438Y-75938094D01*
X135772438Y-75938094D02*
X135724819Y-75842856D01*
X135724819Y-75842856D02*
X135724819Y-75604761D01*
X135724819Y-75604761D02*
X135772438Y-75509523D01*
X135772438Y-75509523D02*
X135820057Y-75461904D01*
X135820057Y-75461904D02*
X135915295Y-75414285D01*
X135915295Y-75414285D02*
X136010533Y-75414285D01*
X136010533Y-75414285D02*
X136153390Y-75461904D01*
X136153390Y-75461904D02*
X136724819Y-76033332D01*
X136724819Y-76033332D02*
X136724819Y-75414285D01*
X140154819Y-59586666D02*
X139678628Y-59919999D01*
X140154819Y-60158094D02*
X139154819Y-60158094D01*
X139154819Y-60158094D02*
X139154819Y-59777142D01*
X139154819Y-59777142D02*
X139202438Y-59681904D01*
X139202438Y-59681904D02*
X139250057Y-59634285D01*
X139250057Y-59634285D02*
X139345295Y-59586666D01*
X139345295Y-59586666D02*
X139488152Y-59586666D01*
X139488152Y-59586666D02*
X139583390Y-59634285D01*
X139583390Y-59634285D02*
X139631009Y-59681904D01*
X139631009Y-59681904D02*
X139678628Y-59777142D01*
X139678628Y-59777142D02*
X139678628Y-60158094D01*
X139154819Y-59253332D02*
X139154819Y-58586666D01*
X139154819Y-58586666D02*
X140154819Y-59015237D01*
X148153333Y-78304819D02*
X147820000Y-77828628D01*
X147581905Y-78304819D02*
X147581905Y-77304819D01*
X147581905Y-77304819D02*
X147962857Y-77304819D01*
X147962857Y-77304819D02*
X148058095Y-77352438D01*
X148058095Y-77352438D02*
X148105714Y-77400057D01*
X148105714Y-77400057D02*
X148153333Y-77495295D01*
X148153333Y-77495295D02*
X148153333Y-77638152D01*
X148153333Y-77638152D02*
X148105714Y-77733390D01*
X148105714Y-77733390D02*
X148058095Y-77781009D01*
X148058095Y-77781009D02*
X147962857Y-77828628D01*
X147962857Y-77828628D02*
X147581905Y-77828628D01*
X149010476Y-77638152D02*
X149010476Y-78304819D01*
X148772381Y-77257200D02*
X148534286Y-77971485D01*
X148534286Y-77971485D02*
X149153333Y-77971485D01*
X133424819Y-60126666D02*
X132948628Y-60459999D01*
X133424819Y-60698094D02*
X132424819Y-60698094D01*
X132424819Y-60698094D02*
X132424819Y-60317142D01*
X132424819Y-60317142D02*
X132472438Y-60221904D01*
X132472438Y-60221904D02*
X132520057Y-60174285D01*
X132520057Y-60174285D02*
X132615295Y-60126666D01*
X132615295Y-60126666D02*
X132758152Y-60126666D01*
X132758152Y-60126666D02*
X132853390Y-60174285D01*
X132853390Y-60174285D02*
X132901009Y-60221904D01*
X132901009Y-60221904D02*
X132948628Y-60317142D01*
X132948628Y-60317142D02*
X132948628Y-60698094D01*
X132424819Y-59269523D02*
X132424819Y-59459999D01*
X132424819Y-59459999D02*
X132472438Y-59555237D01*
X132472438Y-59555237D02*
X132520057Y-59602856D01*
X132520057Y-59602856D02*
X132662914Y-59698094D01*
X132662914Y-59698094D02*
X132853390Y-59745713D01*
X132853390Y-59745713D02*
X133234342Y-59745713D01*
X133234342Y-59745713D02*
X133329580Y-59698094D01*
X133329580Y-59698094D02*
X133377200Y-59650475D01*
X133377200Y-59650475D02*
X133424819Y-59555237D01*
X133424819Y-59555237D02*
X133424819Y-59364761D01*
X133424819Y-59364761D02*
X133377200Y-59269523D01*
X133377200Y-59269523D02*
X133329580Y-59221904D01*
X133329580Y-59221904D02*
X133234342Y-59174285D01*
X133234342Y-59174285D02*
X132996247Y-59174285D01*
X132996247Y-59174285D02*
X132901009Y-59221904D01*
X132901009Y-59221904D02*
X132853390Y-59269523D01*
X132853390Y-59269523D02*
X132805771Y-59364761D01*
X132805771Y-59364761D02*
X132805771Y-59555237D01*
X132805771Y-59555237D02*
X132853390Y-59650475D01*
X132853390Y-59650475D02*
X132901009Y-59698094D01*
X132901009Y-59698094D02*
X132996247Y-59745713D01*
X151899580Y-72789166D02*
X151947200Y-72836785D01*
X151947200Y-72836785D02*
X151994819Y-72979642D01*
X151994819Y-72979642D02*
X151994819Y-73074880D01*
X151994819Y-73074880D02*
X151947200Y-73217737D01*
X151947200Y-73217737D02*
X151851961Y-73312975D01*
X151851961Y-73312975D02*
X151756723Y-73360594D01*
X151756723Y-73360594D02*
X151566247Y-73408213D01*
X151566247Y-73408213D02*
X151423390Y-73408213D01*
X151423390Y-73408213D02*
X151232914Y-73360594D01*
X151232914Y-73360594D02*
X151137676Y-73312975D01*
X151137676Y-73312975D02*
X151042438Y-73217737D01*
X151042438Y-73217737D02*
X150994819Y-73074880D01*
X150994819Y-73074880D02*
X150994819Y-72979642D01*
X150994819Y-72979642D02*
X151042438Y-72836785D01*
X151042438Y-72836785D02*
X151090057Y-72789166D01*
X151328152Y-71932023D02*
X151994819Y-71932023D01*
X150947200Y-72170118D02*
X151661485Y-72408213D01*
X151661485Y-72408213D02*
X151661485Y-71789166D01*
X150219580Y-40245357D02*
X150267200Y-40292976D01*
X150267200Y-40292976D02*
X150314819Y-40435833D01*
X150314819Y-40435833D02*
X150314819Y-40531071D01*
X150314819Y-40531071D02*
X150267200Y-40673928D01*
X150267200Y-40673928D02*
X150171961Y-40769166D01*
X150171961Y-40769166D02*
X150076723Y-40816785D01*
X150076723Y-40816785D02*
X149886247Y-40864404D01*
X149886247Y-40864404D02*
X149743390Y-40864404D01*
X149743390Y-40864404D02*
X149552914Y-40816785D01*
X149552914Y-40816785D02*
X149457676Y-40769166D01*
X149457676Y-40769166D02*
X149362438Y-40673928D01*
X149362438Y-40673928D02*
X149314819Y-40531071D01*
X149314819Y-40531071D02*
X149314819Y-40435833D01*
X149314819Y-40435833D02*
X149362438Y-40292976D01*
X149362438Y-40292976D02*
X149410057Y-40245357D01*
X150314819Y-39292976D02*
X150314819Y-39864404D01*
X150314819Y-39578690D02*
X149314819Y-39578690D01*
X149314819Y-39578690D02*
X149457676Y-39673928D01*
X149457676Y-39673928D02*
X149552914Y-39769166D01*
X149552914Y-39769166D02*
X149600533Y-39864404D01*
X149314819Y-38959642D02*
X149314819Y-38292976D01*
X149314819Y-38292976D02*
X150314819Y-38721547D01*
X135014642Y-47759580D02*
X134967023Y-47807200D01*
X134967023Y-47807200D02*
X134824166Y-47854819D01*
X134824166Y-47854819D02*
X134728928Y-47854819D01*
X134728928Y-47854819D02*
X134586071Y-47807200D01*
X134586071Y-47807200D02*
X134490833Y-47711961D01*
X134490833Y-47711961D02*
X134443214Y-47616723D01*
X134443214Y-47616723D02*
X134395595Y-47426247D01*
X134395595Y-47426247D02*
X134395595Y-47283390D01*
X134395595Y-47283390D02*
X134443214Y-47092914D01*
X134443214Y-47092914D02*
X134490833Y-46997676D01*
X134490833Y-46997676D02*
X134586071Y-46902438D01*
X134586071Y-46902438D02*
X134728928Y-46854819D01*
X134728928Y-46854819D02*
X134824166Y-46854819D01*
X134824166Y-46854819D02*
X134967023Y-46902438D01*
X134967023Y-46902438D02*
X135014642Y-46950057D01*
X135967023Y-47854819D02*
X135395595Y-47854819D01*
X135681309Y-47854819D02*
X135681309Y-46854819D01*
X135681309Y-46854819D02*
X135586071Y-46997676D01*
X135586071Y-46997676D02*
X135490833Y-47092914D01*
X135490833Y-47092914D02*
X135395595Y-47140533D01*
X136538452Y-47283390D02*
X136443214Y-47235771D01*
X136443214Y-47235771D02*
X136395595Y-47188152D01*
X136395595Y-47188152D02*
X136347976Y-47092914D01*
X136347976Y-47092914D02*
X136347976Y-47045295D01*
X136347976Y-47045295D02*
X136395595Y-46950057D01*
X136395595Y-46950057D02*
X136443214Y-46902438D01*
X136443214Y-46902438D02*
X136538452Y-46854819D01*
X136538452Y-46854819D02*
X136728928Y-46854819D01*
X136728928Y-46854819D02*
X136824166Y-46902438D01*
X136824166Y-46902438D02*
X136871785Y-46950057D01*
X136871785Y-46950057D02*
X136919404Y-47045295D01*
X136919404Y-47045295D02*
X136919404Y-47092914D01*
X136919404Y-47092914D02*
X136871785Y-47188152D01*
X136871785Y-47188152D02*
X136824166Y-47235771D01*
X136824166Y-47235771D02*
X136728928Y-47283390D01*
X136728928Y-47283390D02*
X136538452Y-47283390D01*
X136538452Y-47283390D02*
X136443214Y-47331009D01*
X136443214Y-47331009D02*
X136395595Y-47378628D01*
X136395595Y-47378628D02*
X136347976Y-47473866D01*
X136347976Y-47473866D02*
X136347976Y-47664342D01*
X136347976Y-47664342D02*
X136395595Y-47759580D01*
X136395595Y-47759580D02*
X136443214Y-47807200D01*
X136443214Y-47807200D02*
X136538452Y-47854819D01*
X136538452Y-47854819D02*
X136728928Y-47854819D01*
X136728928Y-47854819D02*
X136824166Y-47807200D01*
X136824166Y-47807200D02*
X136871785Y-47759580D01*
X136871785Y-47759580D02*
X136919404Y-47664342D01*
X136919404Y-47664342D02*
X136919404Y-47473866D01*
X136919404Y-47473866D02*
X136871785Y-47378628D01*
X136871785Y-47378628D02*
X136824166Y-47331009D01*
X136824166Y-47331009D02*
X136728928Y-47283390D01*
X141909580Y-63666666D02*
X141957200Y-63714285D01*
X141957200Y-63714285D02*
X142004819Y-63857142D01*
X142004819Y-63857142D02*
X142004819Y-63952380D01*
X142004819Y-63952380D02*
X141957200Y-64095237D01*
X141957200Y-64095237D02*
X141861961Y-64190475D01*
X141861961Y-64190475D02*
X141766723Y-64238094D01*
X141766723Y-64238094D02*
X141576247Y-64285713D01*
X141576247Y-64285713D02*
X141433390Y-64285713D01*
X141433390Y-64285713D02*
X141242914Y-64238094D01*
X141242914Y-64238094D02*
X141147676Y-64190475D01*
X141147676Y-64190475D02*
X141052438Y-64095237D01*
X141052438Y-64095237D02*
X141004819Y-63952380D01*
X141004819Y-63952380D02*
X141004819Y-63857142D01*
X141004819Y-63857142D02*
X141052438Y-63714285D01*
X141052438Y-63714285D02*
X141100057Y-63666666D01*
X141100057Y-63285713D02*
X141052438Y-63238094D01*
X141052438Y-63238094D02*
X141004819Y-63142856D01*
X141004819Y-63142856D02*
X141004819Y-62904761D01*
X141004819Y-62904761D02*
X141052438Y-62809523D01*
X141052438Y-62809523D02*
X141100057Y-62761904D01*
X141100057Y-62761904D02*
X141195295Y-62714285D01*
X141195295Y-62714285D02*
X141290533Y-62714285D01*
X141290533Y-62714285D02*
X141433390Y-62761904D01*
X141433390Y-62761904D02*
X142004819Y-63333332D01*
X142004819Y-63333332D02*
X142004819Y-62714285D01*
X146124819Y-72286666D02*
X145648628Y-72619999D01*
X146124819Y-72858094D02*
X145124819Y-72858094D01*
X145124819Y-72858094D02*
X145124819Y-72477142D01*
X145124819Y-72477142D02*
X145172438Y-72381904D01*
X145172438Y-72381904D02*
X145220057Y-72334285D01*
X145220057Y-72334285D02*
X145315295Y-72286666D01*
X145315295Y-72286666D02*
X145458152Y-72286666D01*
X145458152Y-72286666D02*
X145553390Y-72334285D01*
X145553390Y-72334285D02*
X145601009Y-72381904D01*
X145601009Y-72381904D02*
X145648628Y-72477142D01*
X145648628Y-72477142D02*
X145648628Y-72858094D01*
X145124819Y-71953332D02*
X145124819Y-71334285D01*
X145124819Y-71334285D02*
X145505771Y-71667618D01*
X145505771Y-71667618D02*
X145505771Y-71524761D01*
X145505771Y-71524761D02*
X145553390Y-71429523D01*
X145553390Y-71429523D02*
X145601009Y-71381904D01*
X145601009Y-71381904D02*
X145696247Y-71334285D01*
X145696247Y-71334285D02*
X145934342Y-71334285D01*
X145934342Y-71334285D02*
X146029580Y-71381904D01*
X146029580Y-71381904D02*
X146077200Y-71429523D01*
X146077200Y-71429523D02*
X146124819Y-71524761D01*
X146124819Y-71524761D02*
X146124819Y-71810475D01*
X146124819Y-71810475D02*
X146077200Y-71905713D01*
X146077200Y-71905713D02*
X146029580Y-71953332D01*
D11*
%TO.C,U5*%
X140379006Y-39784822D02*
G75*
G03*
X140379006Y-39784822I-111729J0D01*
G01*
D10*
X140240000Y-46805000D02*
X144240000Y-46805000D01*
X142240000Y-39555000D02*
X144240000Y-39555000D01*
D12*
%TO.C,U2*%
X137972800Y-75387200D02*
X141427200Y-75387200D01*
X141427200Y-75387200D02*
X141427200Y-75183639D01*
X141427200Y-71932800D02*
X137972800Y-71932800D01*
X137972800Y-71932800D02*
X137972800Y-72136361D01*
X137972800Y-75183639D02*
X137972800Y-75387200D01*
X141427200Y-72136361D02*
X141427200Y-71932800D01*
%TO.C,U1*%
X136848850Y-62900199D02*
X134842250Y-62900199D01*
X134842250Y-66049799D02*
X136848850Y-66049799D01*
D13*
%TO.C,C13*%
X140920000Y-57060000D02*
X140920000Y-49620000D01*
X140920000Y-57060000D02*
X133480000Y-57060000D01*
X140920000Y-49620000D02*
X133480000Y-49620000D01*
X133480000Y-57060000D02*
X133480000Y-49620000D01*
%TO.C,C14*%
X151000000Y-59600000D02*
X151000000Y-52160000D01*
X151000000Y-59600000D02*
X143560000Y-59600000D01*
X151000000Y-52160000D02*
X143560000Y-52160000D01*
X143560000Y-59600000D02*
X143560000Y-52160000D01*
%TO.C,C15*%
X134881252Y-41375000D02*
X134358748Y-41375000D01*
X134881252Y-39905000D02*
X134358748Y-39905000D01*
%TO.C,C3*%
X141330000Y-69291252D02*
X141330000Y-67868748D01*
X143150000Y-69291252D02*
X143150000Y-67868748D01*
%TO.C,R1*%
X133885000Y-69892936D02*
X133885000Y-70347064D01*
X135355000Y-69892936D02*
X135355000Y-70347064D01*
%TO.C,R2*%
X135355000Y-74972936D02*
X135355000Y-75427064D01*
X133885000Y-74972936D02*
X133885000Y-75427064D01*
%TO.C,R7*%
X136425000Y-59647064D02*
X136425000Y-59192936D01*
X137895000Y-59647064D02*
X137895000Y-59192936D01*
%TO.C,R4*%
X148547064Y-76935000D02*
X148092936Y-76935000D01*
X148547064Y-75465000D02*
X148092936Y-75465000D01*
%TO.C,R6*%
X133885000Y-60187064D02*
X133885000Y-59732936D01*
X135355000Y-60187064D02*
X135355000Y-59732936D01*
%TO.C,C4*%
X150595000Y-72361248D02*
X150595000Y-72883752D01*
X149125000Y-72361248D02*
X149125000Y-72883752D01*
%TO.C,C17*%
X146585000Y-39863752D02*
X146585000Y-39341248D01*
X148055000Y-39863752D02*
X148055000Y-39341248D01*
%TO.C,C18*%
X135918752Y-46455000D02*
X135396248Y-46455000D01*
X135918752Y-44985000D02*
X135396248Y-44985000D01*
%TO.C,C2*%
X140610000Y-65328748D02*
X140610000Y-66751252D01*
X138790000Y-65328748D02*
X138790000Y-66751252D01*
%TO.C,R3*%
X146585000Y-72347064D02*
X146585000Y-71892936D01*
X148055000Y-72347064D02*
X148055000Y-71892936D01*
%TD*%
M02*
