%TF.GenerationSoftware,KiCad,Pcbnew,7.0.9-7.0.9~ubuntu22.04.1*%
%TF.CreationDate,2023-12-17T20:48:01-06:00*%
%TF.ProjectId,ultrasonic_microphone,756c7472-6173-46f6-9e69-635f6d696372,rev?*%
%TF.SameCoordinates,Original*%
%TF.FileFunction,Copper,L4,Bot*%
%TF.FilePolarity,Positive*%
%FSLAX46Y46*%
G04 Gerber Fmt 4.6, Leading zero omitted, Abs format (unit mm)*
G04 Created by KiCad (PCBNEW 7.0.9-7.0.9~ubuntu22.04.1) date 2023-12-17 20:48:01*
%MOMM*%
%LPD*%
G01*
G04 APERTURE LIST*
G04 Aperture macros list*
%AMRoundRect*
0 Rectangle with rounded corners*
0 $1 Rounding radius*
0 $2 $3 $4 $5 $6 $7 $8 $9 X,Y pos of 4 corners*
0 Add a 4 corners polygon primitive as box body*
4,1,4,$2,$3,$4,$5,$6,$7,$8,$9,$2,$3,0*
0 Add four circle primitives for the rounded corners*
1,1,$1+$1,$2,$3*
1,1,$1+$1,$4,$5*
1,1,$1+$1,$6,$7*
1,1,$1+$1,$8,$9*
0 Add four rect primitives between the rounded corners*
20,1,$1+$1,$2,$3,$4,$5,0*
20,1,$1+$1,$4,$5,$6,$7,0*
20,1,$1+$1,$6,$7,$8,$9,0*
20,1,$1+$1,$8,$9,$2,$3,0*%
G04 Aperture macros list end*
%TA.AperFunction,ComponentPad*%
%ADD10C,1.500000*%
%TD*%
%TA.AperFunction,ComponentPad*%
%ADD11C,6.400000*%
%TD*%
%TA.AperFunction,ConnectorPad*%
%ADD12C,6.400000*%
%TD*%
%TA.AperFunction,ComponentPad*%
%ADD13C,3.600000*%
%TD*%
%TA.AperFunction,SMDPad,CuDef*%
%ADD14R,0.450000X0.660400*%
%TD*%
%TA.AperFunction,SMDPad,CuDef*%
%ADD15R,0.660400X0.450000*%
%TD*%
%TA.AperFunction,SMDPad,CuDef*%
%ADD16RoundRect,0.250000X0.475000X-0.337500X0.475000X0.337500X-0.475000X0.337500X-0.475000X-0.337500X0*%
%TD*%
%TA.AperFunction,SMDPad,CuDef*%
%ADD17RoundRect,0.250000X-0.475000X0.337500X-0.475000X-0.337500X0.475000X-0.337500X0.475000X0.337500X0*%
%TD*%
%TA.AperFunction,ComponentPad*%
%ADD18O,1.700000X1.700000*%
%TD*%
%TA.AperFunction,ComponentPad*%
%ADD19R,1.700000X1.700000*%
%TD*%
%TA.AperFunction,SMDPad,CuDef*%
%ADD20RoundRect,0.250000X-0.337500X-0.475000X0.337500X-0.475000X0.337500X0.475000X-0.337500X0.475000X0*%
%TD*%
%TA.AperFunction,SMDPad,CuDef*%
%ADD21RoundRect,0.250000X-0.650000X0.412500X-0.650000X-0.412500X0.650000X-0.412500X0.650000X0.412500X0*%
%TD*%
%TA.AperFunction,SMDPad,CuDef*%
%ADD22RoundRect,0.250000X-0.412500X-0.650000X0.412500X-0.650000X0.412500X0.650000X-0.412500X0.650000X0*%
%TD*%
%TA.AperFunction,ViaPad*%
%ADD23C,0.800000*%
%TD*%
%TA.AperFunction,Conductor*%
%ADD24C,0.250000*%
%TD*%
%TA.AperFunction,Conductor*%
%ADD25C,1.000000*%
%TD*%
G04 APERTURE END LIST*
D10*
%TO.P,TP22,1,1*%
%TO.N,Net-(J3-Pin_1)*%
X129540000Y-76200000D03*
%TD*%
%TO.P,TP21,1,1*%
%TO.N,Net-(U4-REGCAPA)*%
X136688230Y-56250138D03*
%TD*%
%TO.P,TP25,1,1*%
%TO.N,Net-(U5-V1P8ANA)*%
X157480000Y-50800000D03*
%TD*%
%TO.P,TP24,1,1*%
%TO.N,Net-(U5-V1P8DIG)*%
X160020000Y-46913934D03*
%TD*%
D11*
%TO.P,GND,1*%
%TO.N,GND*%
X124460000Y-33020000D03*
%TD*%
D12*
%TO.P,REF\u002A\u002A,1*%
%TO.N,N/C*%
X162560000Y-33020000D03*
D13*
X162560000Y-33020000D03*
%TD*%
D12*
%TO.P,REF\u002A\u002A,1*%
%TO.N,N/C*%
X162560000Y-73660000D03*
D13*
X162560000Y-73660000D03*
%TD*%
%TO.P,REF\u002A\u002A,1*%
%TO.N,N/C*%
X124460000Y-73660000D03*
D12*
X124460000Y-73660000D03*
%TD*%
D14*
%TO.P,U5,1,\u002ACS/SCL*%
%TO.N,ACCEL_CS\u002A*%
X144925100Y-44732363D03*
%TO.P,U5,2,SCLK/VSSIO*%
%TO.N,SCLK_SPI*%
X145675098Y-44732363D03*
%TO.P,U5,3,MOSI/SDA*%
%TO.N,MOSI_SPI*%
X146425100Y-44732363D03*
%TO.P,U5,4,MISO/ASEL*%
%TO.N,MISO_SPI*%
X147175098Y-44732363D03*
D15*
%TO.P,U5,5,VDDIO*%
%TO.N,+3.3V*%
X147675699Y-45607962D03*
%TO.P,U5,6,VSSIO*%
%TO.N,GND*%
X147675699Y-46357963D03*
%TO.P,U5,7,RESERVED*%
X147675699Y-47107964D03*
D14*
%TO.P,U5,8,V1P8DIG*%
%TO.N,Net-(U5-V1P8DIG)*%
X147175098Y-47983563D03*
%TO.P,U5,9,VSS*%
%TO.N,GND*%
X146425100Y-47983563D03*
%TO.P,U5,10,V1P8ANA*%
%TO.N,Net-(U5-V1P8ANA)*%
X145675098Y-47983563D03*
%TO.P,U5,11,VSUPPLY*%
%TO.N,+3.3V*%
X144925100Y-47983563D03*
D15*
%TO.P,U5,12,INT1*%
%TO.N,INT1*%
X144424499Y-47107964D03*
%TO.P,U5,13,INT2*%
%TO.N,MCLK*%
X144424499Y-46357963D03*
%TO.P,U5,14,DRDY*%
%TO.N,ACCEL_DRDY*%
X144424499Y-45607962D03*
%TD*%
D16*
%TO.P,R5,1*%
%TO.N,REF*%
X142240000Y-68115000D03*
%TO.P,R5,2*%
%TO.N,Net-(J3-Pin_1)*%
X142240000Y-66040000D03*
%TD*%
D17*
%TO.P,C26,1*%
%TO.N,+3.3V*%
X147585965Y-49694145D03*
%TO.P,C26,2*%
%TO.N,GND*%
X147585965Y-51769145D03*
%TD*%
%TO.P,C10,1*%
%TO.N,Net-(U4-REGCAPA)*%
X138932683Y-50046251D03*
%TO.P,C10,2*%
%TO.N,GND*%
X138932683Y-52121251D03*
%TD*%
%TO.P,C28,1*%
%TO.N,+3.3V*%
X145606277Y-50800000D03*
%TO.P,C28,2*%
%TO.N,GND*%
X145606277Y-52875000D03*
%TD*%
D18*
%TO.P,J2,19,CLK*%
%TO.N,unconnected-(J2-CLK-Pad19)*%
X132080000Y-76200000D03*
%TO.P,J2,18,SD0*%
%TO.N,unconnected-(J2-SD0-Pad18)*%
X132080000Y-73660000D03*
%TO.P,J2,17,SD1*%
%TO.N,unconnected-(J2-SD1-Pad17)*%
X132080000Y-71120000D03*
%TO.P,J2,16,P15*%
%TO.N,unconnected-(J2-P15-Pad16)*%
X132080000Y-68580000D03*
%TO.P,J2,15,P2*%
%TO.N,G2*%
X132080000Y-66040000D03*
%TO.P,J2,14,P0*%
%TO.N,MCLK*%
X132080000Y-63500000D03*
%TO.P,J2,13,P4*%
%TO.N,unconnected-(J2-P4-Pad13)*%
X132080000Y-60960000D03*
%TO.P,J2,12,P16*%
%TO.N,unconnected-(J2-P16-Pad12)*%
X132080000Y-58420000D03*
%TO.P,J2,11,P17*%
%TO.N,unconnected-(J2-P17-Pad11)*%
X132080000Y-55880000D03*
%TO.P,J2,10,P5*%
%TO.N,ADC_CS\u002A*%
X132080000Y-53340000D03*
%TO.P,J2,9,P18*%
%TO.N,SCLK_SPI*%
X132080000Y-50800000D03*
%TO.P,J2,8,P19*%
%TO.N,MISO_SPI*%
X132080000Y-48260000D03*
%TO.P,J2,7,GND*%
%TO.N,GND*%
X132080000Y-45720000D03*
%TO.P,J2,6,P21*%
%TO.N,INT1*%
X132080000Y-43180000D03*
%TO.P,J2,5,RX*%
%TO.N,unconnected-(J2-RX-Pad5)*%
X132080000Y-40640000D03*
%TO.P,J2,4,TX*%
%TO.N,unconnected-(J2-TX-Pad4)*%
X132080000Y-38100000D03*
%TO.P,J2,3,P22*%
%TO.N,unconnected-(J2-P22-Pad3)*%
X132080000Y-35560000D03*
%TO.P,J2,2,P23*%
%TO.N,MOSI_SPI*%
X132080000Y-33020000D03*
D19*
%TO.P,J2,1,GND*%
%TO.N,unconnected-(J2-GND-Pad1)*%
X132080000Y-30480000D03*
%TD*%
D17*
%TO.P,C16,1*%
%TO.N,Net-(U4-REGCAPA)*%
X136392683Y-50046251D03*
%TO.P,C16,2*%
%TO.N,GND*%
X136392683Y-52121251D03*
%TD*%
%TO.P,C27,1*%
%TO.N,Net-(U5-V1P8ANA)*%
X149579668Y-49602411D03*
%TO.P,C27,2*%
%TO.N,GND*%
X149579668Y-51677411D03*
%TD*%
D20*
%TO.P,C25,1*%
%TO.N,Net-(U5-V1P8DIG)*%
X149659480Y-45401947D03*
%TO.P,C25,2*%
%TO.N,GND*%
X151734480Y-45401947D03*
%TD*%
D21*
%TO.P,C15,1*%
%TO.N,Net-(C11-Pad1)*%
X135275746Y-73205320D03*
%TO.P,C15,2*%
%TO.N,Net-(J3-Pin_1)*%
X135275746Y-76330320D03*
%TD*%
D16*
%TO.P,C22,1*%
%TO.N,+3.3V*%
X148742287Y-43186882D03*
%TO.P,C22,2*%
%TO.N,GND*%
X148742287Y-41111882D03*
%TD*%
D20*
%TO.P,C24,1*%
%TO.N,Net-(U5-V1P8DIG)*%
X149592521Y-47678534D03*
%TO.P,C24,2*%
%TO.N,GND*%
X151667521Y-47678534D03*
%TD*%
D19*
%TO.P,J3,1,Pin_1*%
%TO.N,Net-(J3-Pin_1)*%
X146045000Y-66745000D03*
D18*
%TO.P,J3,2,Pin_2*%
%TO.N,GND*%
X148585000Y-66745000D03*
%TD*%
D21*
%TO.P,C12,1*%
%TO.N,Net-(C11-Pad1)*%
X142895746Y-73205320D03*
%TO.P,C12,2*%
%TO.N,Net-(J3-Pin_1)*%
X142895746Y-76330320D03*
%TD*%
D22*
%TO.P,C17,1*%
%TO.N,Net-(J3-Pin_1)*%
X146735000Y-63500000D03*
%TO.P,C17,2*%
%TO.N,GND*%
X149860000Y-63500000D03*
%TD*%
D19*
%TO.P,J1,1,3.3V*%
%TO.N,+3.3V*%
X154940000Y-30480000D03*
D18*
%TO.P,J1,2,EN*%
%TO.N,unconnected-(J1-EN-Pad2)*%
X154940000Y-33020000D03*
%TO.P,J1,3,SVP*%
%TO.N,unconnected-(J1-SVP-Pad3)*%
X154940000Y-35560000D03*
%TO.P,J1,4,SVN*%
%TO.N,unconnected-(J1-SVN-Pad4)*%
X154940000Y-38100000D03*
%TO.P,J1,5,P34*%
%TO.N,ADC_DRDY\u002A*%
X154940000Y-40640000D03*
%TO.P,J1,6,P35*%
%TO.N,ACCEL_DRDY*%
X154940000Y-43180000D03*
%TO.P,J1,7,P32*%
%TO.N,ACCEL_CS\u002A*%
X154940000Y-45720000D03*
%TO.P,J1,8,P33*%
%TO.N,ADC_SYNC*%
X154940000Y-48260000D03*
%TO.P,J1,9,P25*%
%TO.N,unconnected-(J1-P25-Pad9)*%
X154940000Y-50800000D03*
%TO.P,J1,10,P26*%
%TO.N,AMP_OUT*%
X154940000Y-53340000D03*
%TO.P,J1,11,P27*%
%TO.N,VGND*%
X154940000Y-55880000D03*
%TO.P,J1,12,P14*%
%TO.N,REF*%
X154940000Y-58420000D03*
%TO.P,J1,13,P12*%
%TO.N,G1*%
X154940000Y-60960000D03*
%TO.P,J1,14,GND*%
%TO.N,unconnected-(J1-GND-Pad14)*%
X154940000Y-63500000D03*
%TO.P,J1,15,P13*%
%TO.N,G0*%
X154940000Y-66040000D03*
%TO.P,J1,16,SD2*%
%TO.N,unconnected-(J1-SD2-Pad16)*%
X154940000Y-68580000D03*
%TO.P,J1,17,SD3*%
%TO.N,unconnected-(J1-SD3-Pad17)*%
X154940000Y-71120000D03*
%TO.P,J1,18,CMD*%
%TO.N,unconnected-(J1-CMD-Pad18)*%
X154940000Y-73660000D03*
%TO.P,J1,19,5V*%
%TO.N,+5V*%
X154940000Y-76200000D03*
%TD*%
D22*
%TO.P,C13,2*%
%TO.N,Net-(J3-Pin_1)*%
X138177030Y-70810900D03*
%TO.P,C13,1*%
%TO.N,Net-(C11-Pad1)*%
X135052030Y-70810900D03*
%TD*%
D21*
%TO.P,C11,1*%
%TO.N,Net-(C11-Pad1)*%
X140355746Y-73205320D03*
%TO.P,C11,2*%
%TO.N,Net-(J3-Pin_1)*%
X140355746Y-76330320D03*
%TD*%
D16*
%TO.P,C19,1*%
%TO.N,+3.3V*%
X150778353Y-43203249D03*
%TO.P,C19,2*%
%TO.N,GND*%
X150778353Y-41128249D03*
%TD*%
D17*
%TO.P,C29,1*%
%TO.N,Net-(U5-V1P8ANA)*%
X151632193Y-49619209D03*
%TO.P,C29,2*%
%TO.N,GND*%
X151632193Y-51694209D03*
%TD*%
D21*
%TO.P,C14,1*%
%TO.N,Net-(C11-Pad1)*%
X137815746Y-73205320D03*
%TO.P,C14,2*%
%TO.N,Net-(J3-Pin_1)*%
X137815746Y-76330320D03*
%TD*%
D23*
%TO.N,GND*%
X137417582Y-54093489D03*
%TO.N,MISO_SPI*%
X129540000Y-45720000D03*
%TO.N,MOSI_SPI*%
X141803624Y-39578289D03*
%TO.N,ADC_DRDY\u002A*%
X139892868Y-41174424D03*
%TO.N,MOSI_SPI*%
X139700000Y-38100000D03*
%TO.N,REF*%
X135998352Y-68920918D03*
%TO.N,GND*%
X152813219Y-46129976D03*
X147290193Y-53831803D03*
X144780000Y-63500000D03*
X152341757Y-54929598D03*
%TO.N,Net-(U1-IN)*%
X133356597Y-64729076D03*
X136882534Y-66670015D03*
%TO.N,GND*%
X145344112Y-71156781D03*
%TO.N,G2*%
X136999540Y-62307849D03*
%TO.N,+5V*%
X144766735Y-54851801D03*
%TO.N,GND*%
X137201285Y-47043106D03*
X152183694Y-41772518D03*
X134549282Y-66450024D03*
X153366736Y-49511862D03*
%TO.N,+3.3V*%
X152400000Y-43180000D03*
X143665901Y-70279671D03*
X145036632Y-41616872D03*
X144565026Y-49285049D03*
X142240000Y-63500000D03*
X137160000Y-48260000D03*
%TO.N,REF*%
X141325449Y-50347438D03*
X151051005Y-61546519D03*
%TO.N,Net-(U4-REGCAPA)*%
X138649680Y-46851402D03*
%TO.N,Net-(C11-Pad1)*%
X144780000Y-76200000D03*
%TO.N,VGND*%
X139700000Y-60960000D03*
X142402922Y-50271635D03*
%TO.N,MCLK*%
X140123478Y-42595610D03*
%TO.N,ACCEL_CS\u002A*%
X144248069Y-43837913D03*
%TO.N,MOSI_SPI*%
X142240000Y-35560000D03*
%TO.N,MISO_SPI*%
X144304062Y-39148529D03*
%TO.N,SCLK_SPI*%
X141509811Y-40679983D03*
%TD*%
D24*
%TO.N,VGND*%
X142240000Y-55880000D02*
X142240000Y-50434557D01*
X139700000Y-58420000D02*
X142240000Y-55880000D01*
X139700000Y-60960000D02*
X139700000Y-58420000D01*
D25*
%TO.N,REF*%
X140155635Y-62060000D02*
X139244365Y-62060000D01*
X151051005Y-61546519D02*
X140669116Y-61546519D01*
X140669116Y-61546519D02*
X140155635Y-62060000D01*
X139244365Y-62060000D02*
X138600000Y-61415635D01*
X135998352Y-68920918D02*
X136965083Y-68920918D01*
X136965083Y-68920918D02*
X138600000Y-67286001D01*
X138600000Y-67286001D02*
X138600000Y-61415635D01*
%TO.N,Net-(U4-REGCAPA)*%
X136688230Y-56250138D02*
X134967683Y-54529591D01*
X134967683Y-54529591D02*
X134967683Y-50746251D01*
X134967683Y-50746251D02*
X135667683Y-50046251D01*
X135667683Y-50046251D02*
X136392683Y-50046251D01*
D24*
%TO.N,G2*%
X136999540Y-62307849D02*
X137707534Y-63015843D01*
X137707534Y-63015843D02*
X137707534Y-67011741D01*
X137707534Y-67011741D02*
X137224260Y-67495015D01*
X137224260Y-67495015D02*
X133535015Y-67495015D01*
X133535015Y-67495015D02*
X132080000Y-66040000D01*
D25*
%TO.N,Net-(C11-Pad1)*%
X135052030Y-70810900D02*
X135052030Y-72981604D01*
X135052030Y-72981604D02*
X135275746Y-73205320D01*
%TO.N,Net-(J3-Pin_1)*%
X138177030Y-70810900D02*
X139031600Y-70810900D01*
X139031600Y-70810900D02*
X139700000Y-70142500D01*
X141720430Y-70142500D02*
X142957601Y-71379671D01*
X142957601Y-71379671D02*
X143483027Y-71379671D01*
X143483027Y-71379671D02*
X145980000Y-73876644D01*
X145980000Y-73876644D02*
X145980000Y-76697056D01*
X145980000Y-76697056D02*
X145277056Y-77400000D01*
X143965426Y-77400000D02*
X142895746Y-76330320D01*
X145277056Y-77400000D02*
X143965426Y-77400000D01*
%TO.N,Net-(C11-Pad1)*%
X144780000Y-76200000D02*
X144780000Y-75089574D01*
X144780000Y-75089574D02*
X142895746Y-73205320D01*
D24*
%TO.N,Net-(J3-Pin_1)*%
X133445000Y-77375000D02*
X134620000Y-76200000D01*
X130715000Y-77375000D02*
X129540000Y-76200000D01*
X133445000Y-77375000D02*
X130715000Y-77375000D01*
%TO.N,MCLK*%
X128815000Y-60235000D02*
X132080000Y-63500000D01*
%TO.N,MISO_SPI*%
X129540000Y-45720000D02*
X132080000Y-48260000D01*
%TO.N,ADC_DRDY\u002A*%
X139892868Y-41174424D02*
X139892868Y-39827344D01*
X139892868Y-39827344D02*
X142070212Y-37650000D01*
X142070212Y-37650000D02*
X151950000Y-37650000D01*
X151950000Y-37650000D02*
X154940000Y-40640000D01*
%TO.N,ACCEL_DRDY*%
X144424499Y-45607962D02*
X140617868Y-41801331D01*
X142256608Y-38100000D02*
X149860000Y-38100000D01*
X140617868Y-41801331D02*
X140617868Y-39738740D01*
X140617868Y-39738740D02*
X142256608Y-38100000D01*
X149860000Y-38100000D02*
X154940000Y-43180000D01*
%TO.N,MCLK*%
X140123478Y-42595610D02*
X139532868Y-42005000D01*
X139532868Y-42005000D02*
X131593299Y-42005000D01*
X131593299Y-42005000D02*
X128815000Y-44783299D01*
X128815000Y-44783299D02*
X128815000Y-60235000D01*
%TO.N,MOSI_SPI*%
X139700000Y-38100000D02*
X142240000Y-35560000D01*
%TO.N,SCLK_SPI*%
X145675098Y-44152163D02*
X142162935Y-40640000D01*
X142162935Y-40640000D02*
X141549794Y-40640000D01*
X141549794Y-40640000D02*
X141509811Y-40679983D01*
%TO.N,MOSI_SPI*%
X146425100Y-44152163D02*
X144311632Y-42038695D01*
X144311632Y-42038695D02*
X144240664Y-42038695D01*
X144240664Y-42038695D02*
X141768708Y-39566739D01*
%TO.N,INT1*%
X140407563Y-43905000D02*
X132805000Y-43905000D01*
X132805000Y-43905000D02*
X132080000Y-43180000D01*
D25*
%TO.N,Net-(U1-IN)*%
X136882534Y-66670015D02*
X134941595Y-64729076D01*
X134941595Y-64729076D02*
X133356597Y-64729076D01*
D24*
%TO.N,VGND*%
X150098481Y-60721519D02*
X154940000Y-55880000D01*
X139938481Y-60721519D02*
X150098481Y-60721519D01*
D25*
%TO.N,GND*%
X148585000Y-66745000D02*
X148585000Y-64775000D01*
X148585000Y-64775000D02*
X149860000Y-63500000D01*
%TO.N,Net-(J3-Pin_1)*%
X146045000Y-66745000D02*
X146045000Y-64190000D01*
X146045000Y-64190000D02*
X146735000Y-63500000D01*
X142240000Y-66040000D02*
X145340000Y-66040000D01*
X145340000Y-66040000D02*
X146045000Y-66745000D01*
X141515000Y-66040000D02*
X142240000Y-66040000D01*
X141720430Y-70142500D02*
X139700000Y-70142500D01*
X139700000Y-70142500D02*
X139700000Y-67855000D01*
X139700000Y-67855000D02*
X141515000Y-66040000D01*
%TO.N,Net-(C11-Pad1)*%
X140355746Y-73205320D02*
X142895746Y-73205320D01*
X140355746Y-73205320D02*
X137815746Y-73205320D01*
X135275746Y-73205320D02*
X137815746Y-73205320D01*
%TO.N,Net-(J3-Pin_1)*%
X140355746Y-76330320D02*
X142895746Y-76330320D01*
X137815746Y-76330320D02*
X140355746Y-76330320D01*
X135275746Y-76330320D02*
X137815746Y-76330320D01*
D24*
%TO.N,GND*%
X148327580Y-47107964D02*
X148746980Y-46688564D01*
X147675699Y-47107964D02*
X148327580Y-47107964D01*
X148746980Y-46688564D02*
X148746980Y-44681847D01*
X148746980Y-44681847D02*
X149076880Y-44351947D01*
X149076880Y-44351947D02*
X150684480Y-44351947D01*
X150684480Y-44351947D02*
X151734480Y-45401947D01*
D25*
X151734480Y-45401947D02*
X152190260Y-45401947D01*
X152190260Y-45401947D02*
X152865754Y-46077441D01*
D24*
%TO.N,Net-(U5-V1P8ANA)*%
X151632193Y-49619209D02*
X152249846Y-50236862D01*
X152249846Y-50236862D02*
X153841437Y-50236862D01*
X153841437Y-50236862D02*
X154453299Y-49625000D01*
X154453299Y-49625000D02*
X156305000Y-49625000D01*
X156305000Y-49625000D02*
X157480000Y-50800000D01*
%TO.N,Net-(U5-V1P8DIG)*%
X152535521Y-46913934D02*
X160020000Y-46913934D01*
X149592521Y-47678534D02*
X150819108Y-46451947D01*
X150819108Y-46451947D02*
X152073534Y-46451947D01*
X152073534Y-46451947D02*
X152535521Y-46913934D01*
%TO.N,Net-(U4-REGCAPA)*%
X136392683Y-50212523D02*
X136392683Y-50046251D01*
D25*
%TO.N,GND*%
X150778353Y-41128249D02*
X148758654Y-41128249D01*
X148758654Y-41128249D02*
X148742287Y-41111882D01*
X150778353Y-41128249D02*
X151539425Y-41128249D01*
X151539425Y-41128249D02*
X152183694Y-41772518D01*
%TO.N,REF*%
X138600000Y-57450284D02*
X138600000Y-56155000D01*
X138676035Y-57526319D02*
X138600000Y-57450284D01*
X138600000Y-57602354D02*
X138676035Y-57526319D01*
D24*
%TO.N,INT1*%
X143610527Y-47107964D02*
X140407563Y-43905000D01*
%TO.N,GND*%
X146720499Y-47107964D02*
X147675699Y-47107964D01*
X146425100Y-47983563D02*
X146425100Y-47403363D01*
D25*
X149579668Y-51677411D02*
X151615395Y-51677411D01*
X151615395Y-51677411D02*
X151632193Y-51694209D01*
X146480110Y-52875000D02*
X147585965Y-51769145D01*
X136392683Y-52121251D02*
X138932683Y-52121251D01*
D24*
X146425100Y-47403363D02*
X146720499Y-47107964D01*
D25*
X149487934Y-51769145D02*
X149579668Y-51677411D01*
D24*
X147675699Y-46357963D02*
X147675699Y-47107964D01*
D25*
X145606277Y-52875000D02*
X146480110Y-52875000D01*
X147585965Y-51769145D02*
X149487934Y-51769145D01*
%TO.N,+3.3V*%
X145606277Y-50800000D02*
X146712132Y-49694145D01*
D24*
X147725098Y-43963811D02*
X148502027Y-43186882D01*
D25*
X150761986Y-43186882D02*
X150778353Y-43203249D01*
D24*
X148502027Y-43186882D02*
X148742287Y-43186882D01*
D25*
X145606277Y-50326300D02*
X144565026Y-49285049D01*
D24*
X147675699Y-45607962D02*
X147725098Y-45558563D01*
D25*
X152400000Y-43180000D02*
X150801602Y-43180000D01*
D24*
X144565026Y-49285049D02*
X144565026Y-48343637D01*
D25*
X148742287Y-43186882D02*
X150761986Y-43186882D01*
X150801602Y-43180000D02*
X150778353Y-43203249D01*
X146712132Y-49694145D02*
X147585965Y-49694145D01*
D24*
X147725098Y-45558563D02*
X147725098Y-43963811D01*
D25*
X145606277Y-50800000D02*
X145606277Y-50326300D01*
D24*
X144565026Y-48343637D02*
X144925100Y-47983563D01*
D25*
%TO.N,REF*%
X138600000Y-61415635D02*
X138600000Y-57602354D01*
X141302922Y-53452078D02*
X141302922Y-50347438D01*
X151222500Y-67217500D02*
X151668302Y-66771698D01*
X151668302Y-62163816D02*
X151668302Y-66771698D01*
X151222500Y-67217500D02*
X150145000Y-68295000D01*
X138600000Y-56155000D02*
X141302922Y-53452078D01*
X142420000Y-68295000D02*
X142240000Y-68115000D01*
X150145000Y-68295000D02*
X142420000Y-68295000D01*
D24*
X141325449Y-50323803D02*
X141325449Y-50347438D01*
D25*
X151051005Y-61546519D02*
X151668302Y-62163816D01*
%TO.N,Net-(U4-REGCAPA)*%
X138932683Y-50046251D02*
X138932683Y-47134405D01*
X138932683Y-47134405D02*
X138649680Y-46851402D01*
X136392683Y-50046251D02*
X138932683Y-50046251D01*
D24*
%TO.N,VGND*%
X139700000Y-60960000D02*
X139938481Y-60721519D01*
X142402922Y-50295270D02*
X142402922Y-50271635D01*
X142240000Y-50434557D02*
X142402922Y-50271635D01*
%TO.N,AMP_OUT*%
X154492500Y-53787500D02*
X154940000Y-53340000D01*
%TO.N,MCLK*%
X140123478Y-42595610D02*
X143885831Y-46357963D01*
X143885831Y-46357963D02*
X144424499Y-46357963D01*
%TO.N,Net-(U5-V1P8ANA)*%
X145675098Y-48563763D02*
X145839869Y-48728534D01*
D25*
X151615395Y-49602411D02*
X151632193Y-49619209D01*
D24*
X145839869Y-48728534D02*
X148705791Y-48728534D01*
X145675098Y-47983563D02*
X145675098Y-48563763D01*
X148705791Y-48728534D02*
X149579668Y-49602411D01*
D25*
X149579668Y-49602411D02*
X151615395Y-49602411D01*
%TO.N,Net-(U5-V1P8DIG)*%
X149659480Y-47611575D02*
X149592521Y-47678534D01*
D24*
X147480127Y-47678534D02*
X147175098Y-47983563D01*
X149592521Y-47678534D02*
X147480127Y-47678534D01*
D25*
X149659480Y-45401947D02*
X149659480Y-47611575D01*
D24*
%TO.N,INT1*%
X144424499Y-47107964D02*
X143610527Y-47107964D01*
%TO.N,ACCEL_CS\u002A*%
X144248069Y-43837913D02*
X144248069Y-44055332D01*
X144248069Y-44055332D02*
X144925100Y-44732363D01*
%TO.N,MOSI_SPI*%
X146425100Y-44732363D02*
X146425100Y-44152163D01*
%TO.N,MISO_SPI*%
X147175098Y-42019565D02*
X147175098Y-44732363D01*
X144304062Y-39148529D02*
X147175098Y-42019565D01*
%TO.N,SCLK_SPI*%
X145675098Y-44732363D02*
X145675098Y-44152163D01*
%TD*%
%TA.AperFunction,Conductor*%
%TO.N,GND*%
G36*
X148653850Y-62566704D02*
G01*
X148699605Y-62619508D01*
X148709549Y-62688666D01*
X148708064Y-62696973D01*
X148707994Y-62697297D01*
X148697500Y-62800013D01*
X148697500Y-63250000D01*
X149986000Y-63250000D01*
X150053039Y-63269685D01*
X150098794Y-63322489D01*
X150110000Y-63374000D01*
X150110000Y-64899999D01*
X150322472Y-64899999D01*
X150322486Y-64899998D01*
X150425195Y-64889506D01*
X150504797Y-64863128D01*
X150574625Y-64860726D01*
X150634668Y-64896457D01*
X150665861Y-64958977D01*
X150667802Y-64980834D01*
X150667802Y-66305915D01*
X150648117Y-66372954D01*
X150631483Y-66393596D01*
X150586981Y-66438098D01*
X150065305Y-66959773D01*
X150003982Y-66993258D01*
X149976786Y-66991313D01*
X149976786Y-66995000D01*
X149018686Y-66995000D01*
X149044493Y-66954844D01*
X149085000Y-66816889D01*
X149085000Y-66673111D01*
X149044493Y-66535156D01*
X149018686Y-66495000D01*
X149915636Y-66495000D01*
X149915635Y-66494999D01*
X149858432Y-66281513D01*
X149858429Y-66281507D01*
X149758600Y-66067422D01*
X149758599Y-66067420D01*
X149623113Y-65873926D01*
X149623108Y-65873920D01*
X149456082Y-65706894D01*
X149262578Y-65571399D01*
X149048492Y-65471570D01*
X149048486Y-65471567D01*
X148835000Y-65414364D01*
X148835000Y-66309498D01*
X148727315Y-66260320D01*
X148620763Y-66245000D01*
X148549237Y-66245000D01*
X148442685Y-66260320D01*
X148335000Y-66309498D01*
X148335000Y-65414364D01*
X148334999Y-65414364D01*
X148121513Y-65471567D01*
X148121507Y-65471570D01*
X147907422Y-65571399D01*
X147907420Y-65571400D01*
X147713926Y-65706886D01*
X147591865Y-65828947D01*
X147530542Y-65862431D01*
X147460850Y-65857447D01*
X147404917Y-65815575D01*
X147388002Y-65784598D01*
X147381026Y-65765895D01*
X147338796Y-65652669D01*
X147338795Y-65652668D01*
X147338793Y-65652664D01*
X147252547Y-65537455D01*
X147252544Y-65537452D01*
X147137335Y-65451206D01*
X147137332Y-65451205D01*
X147137331Y-65451204D01*
X147126161Y-65447038D01*
X147070231Y-65405166D01*
X147045816Y-65339701D01*
X147045500Y-65330858D01*
X147045500Y-65024499D01*
X147065185Y-64957460D01*
X147117989Y-64911705D01*
X147169500Y-64900499D01*
X147197502Y-64900499D01*
X147197508Y-64900499D01*
X147300297Y-64889999D01*
X147466834Y-64834814D01*
X147616156Y-64742712D01*
X147740212Y-64618656D01*
X147832314Y-64469334D01*
X147887499Y-64302797D01*
X147898000Y-64200009D01*
X147898000Y-63750000D01*
X148697501Y-63750000D01*
X148697501Y-64199986D01*
X148707994Y-64302697D01*
X148763141Y-64469119D01*
X148763143Y-64469124D01*
X148855184Y-64618345D01*
X148979154Y-64742315D01*
X149128375Y-64834356D01*
X149128380Y-64834358D01*
X149294802Y-64889505D01*
X149294809Y-64889506D01*
X149397519Y-64899999D01*
X149609999Y-64899999D01*
X149610000Y-64899998D01*
X149610000Y-63750000D01*
X148697501Y-63750000D01*
X147898000Y-63750000D01*
X147897999Y-62799992D01*
X147897423Y-62794358D01*
X147889420Y-62716008D01*
X147887499Y-62697203D01*
X147887497Y-62697197D01*
X147887450Y-62696976D01*
X147887460Y-62696830D01*
X147886811Y-62690468D01*
X147887945Y-62690352D01*
X147892665Y-62627302D01*
X147934721Y-62571507D01*
X148000266Y-62547306D01*
X148008703Y-62547019D01*
X148586811Y-62547019D01*
X148653850Y-62566704D01*
G37*
%TD.AperFunction*%
%TA.AperFunction,Conductor*%
G36*
X134542851Y-65749261D02*
G01*
X134563493Y-65765895D01*
X135455432Y-66657834D01*
X135488917Y-66719157D01*
X135483933Y-66788849D01*
X135442061Y-66844782D01*
X135376597Y-66869199D01*
X135367751Y-66869515D01*
X133845467Y-66869515D01*
X133778428Y-66849830D01*
X133757786Y-66833196D01*
X133420237Y-66495647D01*
X133386752Y-66434324D01*
X133388143Y-66375872D01*
X133388925Y-66372954D01*
X133415063Y-66275408D01*
X133435659Y-66040000D01*
X133420294Y-65864383D01*
X133434060Y-65795884D01*
X133482675Y-65745701D01*
X133543822Y-65729576D01*
X134475812Y-65729576D01*
X134542851Y-65749261D01*
G37*
%TD.AperFunction*%
%TA.AperFunction,Conductor*%
G36*
X141705051Y-62566704D02*
G01*
X141750806Y-62619508D01*
X141760750Y-62688666D01*
X141731725Y-62752222D01*
X141710897Y-62771337D01*
X141634129Y-62827111D01*
X141507466Y-62967785D01*
X141412821Y-63131715D01*
X141412818Y-63131722D01*
X141354327Y-63311740D01*
X141354326Y-63311744D01*
X141334540Y-63500000D01*
X141354326Y-63688256D01*
X141354327Y-63688259D01*
X141412818Y-63868277D01*
X141412821Y-63868284D01*
X141507467Y-64032216D01*
X141613158Y-64149597D01*
X141634129Y-64172888D01*
X141787265Y-64284148D01*
X141787270Y-64284151D01*
X141960192Y-64361142D01*
X141960197Y-64361144D01*
X142145354Y-64400500D01*
X142145355Y-64400500D01*
X142334644Y-64400500D01*
X142334646Y-64400500D01*
X142519803Y-64361144D01*
X142692730Y-64284151D01*
X142845871Y-64172888D01*
X142972533Y-64032216D01*
X143067179Y-63868284D01*
X143125674Y-63688256D01*
X143145460Y-63500000D01*
X143125674Y-63311744D01*
X143067179Y-63131716D01*
X142972533Y-62967784D01*
X142845871Y-62827112D01*
X142839070Y-62822171D01*
X142769103Y-62771337D01*
X142726437Y-62716008D01*
X142720458Y-62646394D01*
X142753063Y-62584599D01*
X142813902Y-62550242D01*
X142841988Y-62547019D01*
X145461297Y-62547019D01*
X145528336Y-62566704D01*
X145574091Y-62619508D01*
X145584035Y-62688666D01*
X145582549Y-62696980D01*
X145582500Y-62697204D01*
X145572000Y-62799983D01*
X145572000Y-63196716D01*
X145552315Y-63263755D01*
X145535681Y-63284397D01*
X145346531Y-63473547D01*
X145281946Y-63534942D01*
X145246899Y-63585294D01*
X145244062Y-63589056D01*
X145205302Y-63636592D01*
X145205299Y-63636597D01*
X145189392Y-63667047D01*
X145185324Y-63673761D01*
X145165702Y-63701954D01*
X145141509Y-63758330D01*
X145139488Y-63762584D01*
X145111091Y-63816951D01*
X145111090Y-63816952D01*
X145101640Y-63849975D01*
X145099007Y-63857371D01*
X145085459Y-63888943D01*
X145073113Y-63949019D01*
X145071990Y-63953595D01*
X145055113Y-64012577D01*
X145055113Y-64012579D01*
X145052503Y-64046841D01*
X145051414Y-64054608D01*
X145045980Y-64081052D01*
X145044500Y-64088258D01*
X145044500Y-64149597D01*
X145044321Y-64154306D01*
X145039662Y-64215474D01*
X145041707Y-64231527D01*
X145044003Y-64249560D01*
X145044500Y-64257388D01*
X145044500Y-64915500D01*
X145024815Y-64982539D01*
X144972011Y-65028294D01*
X144920500Y-65039500D01*
X143104866Y-65039500D01*
X143039768Y-65021038D01*
X143034338Y-65017688D01*
X143034335Y-65017686D01*
X143034334Y-65017686D01*
X142867797Y-64962501D01*
X142867795Y-64962500D01*
X142765010Y-64952000D01*
X141714998Y-64952000D01*
X141714980Y-64952001D01*
X141612203Y-64962500D01*
X141612200Y-64962501D01*
X141445668Y-65017685D01*
X141445656Y-65017691D01*
X141423892Y-65031115D01*
X141381083Y-65047556D01*
X141380493Y-65047663D01*
X141378377Y-65048042D01*
X141373689Y-65048709D01*
X141312564Y-65054925D01*
X141312555Y-65054927D01*
X141279781Y-65065210D01*
X141272154Y-65067082D01*
X141238350Y-65073141D01*
X141181384Y-65095894D01*
X141176948Y-65097473D01*
X141118414Y-65115840D01*
X141118412Y-65115841D01*
X141088385Y-65132506D01*
X141081293Y-65135874D01*
X141049383Y-65148621D01*
X140998154Y-65182383D01*
X140994126Y-65184824D01*
X140940502Y-65214588D01*
X140940499Y-65214590D01*
X140914427Y-65236970D01*
X140908160Y-65241695D01*
X140879482Y-65260598D01*
X140879475Y-65260603D01*
X140836116Y-65303962D01*
X140832661Y-65307164D01*
X140786106Y-65347132D01*
X140786105Y-65347133D01*
X140765076Y-65374300D01*
X140759884Y-65380194D01*
X139812181Y-66327898D01*
X139750858Y-66361383D01*
X139681167Y-66356399D01*
X139625233Y-66314527D01*
X139600816Y-66249063D01*
X139600500Y-66240217D01*
X139600500Y-63184500D01*
X139620185Y-63117461D01*
X139672989Y-63071706D01*
X139724500Y-63060500D01*
X140142919Y-63060500D01*
X140231993Y-63062757D01*
X140231993Y-63062756D01*
X140231998Y-63062757D01*
X140292388Y-63051932D01*
X140297047Y-63051280D01*
X140339242Y-63046988D01*
X140358073Y-63045074D01*
X140390862Y-63034786D01*
X140398475Y-63032918D01*
X140432288Y-63026858D01*
X140489256Y-63004101D01*
X140493688Y-63002524D01*
X140552223Y-62984159D01*
X140582262Y-62967484D01*
X140589343Y-62964122D01*
X140621252Y-62951377D01*
X140672489Y-62917608D01*
X140676486Y-62915187D01*
X140730137Y-62885409D01*
X140756203Y-62863030D01*
X140762478Y-62858300D01*
X140791154Y-62839402D01*
X140834520Y-62796034D01*
X140837978Y-62792830D01*
X140866606Y-62768252D01*
X140884530Y-62752866D01*
X140905563Y-62725691D01*
X140910741Y-62719813D01*
X141047219Y-62583336D01*
X141108542Y-62549853D01*
X141134899Y-62547019D01*
X141638012Y-62547019D01*
X141705051Y-62566704D01*
G37*
%TD.AperFunction*%
%TA.AperFunction,Conductor*%
G36*
X130822425Y-43762976D02*
G01*
X130878358Y-43804848D01*
X130891473Y-43826752D01*
X130905966Y-43857832D01*
X130916493Y-43872866D01*
X131041505Y-44051401D01*
X131208599Y-44218495D01*
X131297505Y-44280748D01*
X131402165Y-44354032D01*
X131402167Y-44354033D01*
X131402170Y-44354035D01*
X131616337Y-44453903D01*
X131616343Y-44453904D01*
X131616344Y-44453905D01*
X131647925Y-44462367D01*
X131844592Y-44515063D01*
X132021034Y-44530500D01*
X132079999Y-44535659D01*
X132080000Y-44535659D01*
X132080001Y-44535659D01*
X132138966Y-44530500D01*
X132315408Y-44515063D01*
X132469568Y-44473756D01*
X132539416Y-44475419D01*
X132561395Y-44484867D01*
X132572908Y-44491197D01*
X132585523Y-44494435D01*
X132592305Y-44496177D01*
X132610719Y-44502481D01*
X132629104Y-44510438D01*
X132675157Y-44517732D01*
X132680826Y-44518906D01*
X132725981Y-44530500D01*
X132746016Y-44530500D01*
X132765413Y-44532026D01*
X132785196Y-44535160D01*
X132831584Y-44530775D01*
X132837422Y-44530500D01*
X140097111Y-44530500D01*
X140164150Y-44550185D01*
X140184791Y-44566818D01*
X141647609Y-46029637D01*
X143109724Y-47491752D01*
X143119549Y-47504015D01*
X143119770Y-47503833D01*
X143124741Y-47509842D01*
X143134888Y-47519370D01*
X143175162Y-47557190D01*
X143196056Y-47578084D01*
X143201538Y-47582337D01*
X143205970Y-47586121D01*
X143239945Y-47618026D01*
X143257503Y-47627678D01*
X143273762Y-47638359D01*
X143289591Y-47650637D01*
X143332365Y-47669146D01*
X143337583Y-47671702D01*
X143378435Y-47694161D01*
X143397843Y-47699144D01*
X143416244Y-47705444D01*
X143434631Y-47713401D01*
X143478015Y-47720272D01*
X143480646Y-47720689D01*
X143486366Y-47721873D01*
X143531508Y-47733464D01*
X143551543Y-47733464D01*
X143570941Y-47734990D01*
X143590721Y-47738123D01*
X143590722Y-47738124D01*
X143590722Y-47738123D01*
X143590723Y-47738124D01*
X143637111Y-47733739D01*
X143642949Y-47733464D01*
X143752860Y-47733464D01*
X143819899Y-47753149D01*
X143827171Y-47758197D01*
X143851967Y-47776759D01*
X143851970Y-47776761D01*
X143974078Y-47822304D01*
X144030012Y-47864175D01*
X144054429Y-47929639D01*
X144039578Y-47997912D01*
X144028728Y-48014481D01*
X144022355Y-48022697D01*
X144022350Y-48022705D01*
X144003841Y-48065475D01*
X144001271Y-48070721D01*
X143978829Y-48111543D01*
X143973848Y-48130944D01*
X143967547Y-48149347D01*
X143959588Y-48167739D01*
X143959587Y-48167742D01*
X143952297Y-48213764D01*
X143951113Y-48219483D01*
X143939527Y-48264609D01*
X143939526Y-48264619D01*
X143939526Y-48284653D01*
X143937999Y-48304052D01*
X143934866Y-48323831D01*
X143934866Y-48323832D01*
X143939251Y-48370220D01*
X143939526Y-48376058D01*
X143939526Y-48446726D01*
X143919841Y-48513765D01*
X143898654Y-48538735D01*
X143818813Y-48610868D01*
X143818812Y-48610870D01*
X143698379Y-48774877D01*
X143698375Y-48774884D01*
X143613423Y-48959774D01*
X143613419Y-48959786D01*
X143567422Y-49157994D01*
X143562268Y-49361407D01*
X143598166Y-49561697D01*
X143598168Y-49561703D01*
X143635908Y-49656184D01*
X143669156Y-49739419D01*
X143673649Y-49750665D01*
X143673655Y-49750677D01*
X143785622Y-49920566D01*
X143785625Y-49920570D01*
X144344458Y-50479402D01*
X144377943Y-50540725D01*
X144380777Y-50567083D01*
X144380777Y-51187501D01*
X144380778Y-51187519D01*
X144391277Y-51290296D01*
X144391278Y-51290299D01*
X144446462Y-51456831D01*
X144446464Y-51456836D01*
X144454312Y-51469559D01*
X144538565Y-51606156D01*
X144662621Y-51730212D01*
X144665905Y-51732237D01*
X144665930Y-51732253D01*
X144667722Y-51734246D01*
X144668288Y-51734693D01*
X144668211Y-51734789D01*
X144712656Y-51784199D01*
X144723880Y-51853161D01*
X144696038Y-51917244D01*
X144665942Y-51943326D01*
X144662937Y-51945179D01*
X144662932Y-51945183D01*
X144538961Y-52069154D01*
X144446920Y-52218375D01*
X144446918Y-52218380D01*
X144391771Y-52384802D01*
X144391770Y-52384809D01*
X144381277Y-52487513D01*
X144381277Y-52625000D01*
X145732277Y-52625000D01*
X145799316Y-52644685D01*
X145845071Y-52697489D01*
X145856277Y-52749000D01*
X145856277Y-53962499D01*
X146131249Y-53962499D01*
X146131263Y-53962498D01*
X146233974Y-53952005D01*
X146400396Y-53896858D01*
X146400401Y-53896856D01*
X146549622Y-53804815D01*
X146673592Y-53680845D01*
X146765633Y-53531624D01*
X146765635Y-53531619D01*
X146820782Y-53365197D01*
X146820783Y-53365190D01*
X146831276Y-53262486D01*
X146831276Y-52970490D01*
X146850960Y-52903451D01*
X146903764Y-52857696D01*
X146967880Y-52847132D01*
X147060986Y-52856644D01*
X147335964Y-52856644D01*
X147835965Y-52856644D01*
X148110937Y-52856644D01*
X148110951Y-52856643D01*
X148213662Y-52846150D01*
X148380084Y-52791003D01*
X148380089Y-52791001D01*
X148529309Y-52698961D01*
X148557540Y-52670729D01*
X148618862Y-52637243D01*
X148688554Y-52642225D01*
X148710321Y-52652870D01*
X148785537Y-52699264D01*
X148785548Y-52699269D01*
X148951970Y-52754416D01*
X148951977Y-52754417D01*
X149054687Y-52764910D01*
X149329667Y-52764910D01*
X149329668Y-52764909D01*
X149329668Y-51927411D01*
X149829668Y-51927411D01*
X149829668Y-52764910D01*
X150104640Y-52764910D01*
X150104654Y-52764909D01*
X150207365Y-52754416D01*
X150373787Y-52699269D01*
X150373792Y-52699267D01*
X150529159Y-52603436D01*
X150530445Y-52605522D01*
X150584460Y-52583724D01*
X150653104Y-52596756D01*
X150684271Y-52619448D01*
X150688847Y-52624024D01*
X150838068Y-52716065D01*
X150838073Y-52716067D01*
X151004495Y-52771214D01*
X151004502Y-52771215D01*
X151107212Y-52781708D01*
X151382192Y-52781708D01*
X151382193Y-52781707D01*
X151382193Y-51944209D01*
X151882193Y-51944209D01*
X151882193Y-52781708D01*
X152157165Y-52781708D01*
X152157179Y-52781707D01*
X152259890Y-52771214D01*
X152426312Y-52716067D01*
X152426317Y-52716065D01*
X152575538Y-52624024D01*
X152699508Y-52500054D01*
X152791549Y-52350833D01*
X152791551Y-52350828D01*
X152846698Y-52184406D01*
X152846699Y-52184399D01*
X152857192Y-52081695D01*
X152857193Y-52081682D01*
X152857193Y-51944209D01*
X151882193Y-51944209D01*
X151382193Y-51944209D01*
X150435353Y-51944209D01*
X150378146Y-51927411D01*
X149829668Y-51927411D01*
X149329668Y-51927411D01*
X148850965Y-51927411D01*
X148837552Y-51940823D01*
X148831280Y-51962184D01*
X148778476Y-52007939D01*
X148726965Y-52019145D01*
X147835965Y-52019145D01*
X147835965Y-52856644D01*
X147335964Y-52856644D01*
X147335965Y-52856643D01*
X147335965Y-51643145D01*
X147355650Y-51576106D01*
X147408454Y-51530351D01*
X147459965Y-51519145D01*
X148314668Y-51519145D01*
X148328080Y-51505732D01*
X148334353Y-51484372D01*
X148387157Y-51438617D01*
X148438668Y-51427411D01*
X150776508Y-51427411D01*
X150833715Y-51444209D01*
X152857192Y-51444209D01*
X152857192Y-51306737D01*
X152857191Y-51306722D01*
X152846698Y-51204011D01*
X152789279Y-51030732D01*
X152790802Y-51030227D01*
X152781610Y-50969685D01*
X152810131Y-50905902D01*
X152868609Y-50867665D01*
X152904483Y-50862362D01*
X153476172Y-50862362D01*
X153543211Y-50882047D01*
X153588966Y-50934851D01*
X153599700Y-50975554D01*
X153604936Y-51035403D01*
X153604938Y-51035413D01*
X153666094Y-51263655D01*
X153666096Y-51263659D01*
X153666097Y-51263663D01*
X153745326Y-51433569D01*
X153765965Y-51477830D01*
X153765967Y-51477834D01*
X153901501Y-51671395D01*
X153901506Y-51671402D01*
X154068597Y-51838493D01*
X154068603Y-51838498D01*
X154254158Y-51968425D01*
X154297783Y-52023002D01*
X154304977Y-52092500D01*
X154273454Y-52154855D01*
X154254158Y-52171575D01*
X154068597Y-52301505D01*
X153901505Y-52468597D01*
X153765965Y-52662169D01*
X153765964Y-52662171D01*
X153666098Y-52876335D01*
X153666094Y-52876344D01*
X153604938Y-53104586D01*
X153604936Y-53104596D01*
X153584341Y-53339999D01*
X153584341Y-53340000D01*
X153604936Y-53575403D01*
X153604938Y-53575413D01*
X153666094Y-53803655D01*
X153666096Y-53803659D01*
X153666097Y-53803663D01*
X153765965Y-54017830D01*
X153765967Y-54017834D01*
X153901501Y-54211395D01*
X153901506Y-54211402D01*
X154068597Y-54378493D01*
X154068603Y-54378498D01*
X154254158Y-54508425D01*
X154297783Y-54563002D01*
X154304977Y-54632500D01*
X154273454Y-54694855D01*
X154254158Y-54711575D01*
X154068597Y-54841505D01*
X153901505Y-55008597D01*
X153765965Y-55202169D01*
X153765964Y-55202171D01*
X153666098Y-55416335D01*
X153666094Y-55416344D01*
X153604938Y-55644586D01*
X153604936Y-55644596D01*
X153584341Y-55879999D01*
X153584341Y-55880000D01*
X153604936Y-56115403D01*
X153604938Y-56115413D01*
X153631856Y-56215872D01*
X153630193Y-56285722D01*
X153599762Y-56335646D01*
X149875709Y-60059700D01*
X149814386Y-60093185D01*
X149788028Y-60096019D01*
X140449500Y-60096019D01*
X140382461Y-60076334D01*
X140336706Y-60023530D01*
X140325500Y-59972019D01*
X140325500Y-58730452D01*
X140345185Y-58663413D01*
X140361819Y-58642771D01*
X141477947Y-57526643D01*
X142623788Y-56380801D01*
X142636042Y-56370986D01*
X142635859Y-56370764D01*
X142641866Y-56365792D01*
X142641877Y-56365786D01*
X142672775Y-56332882D01*
X142689227Y-56315364D01*
X142699671Y-56304918D01*
X142710120Y-56294471D01*
X142714379Y-56288978D01*
X142718152Y-56284561D01*
X142750062Y-56250582D01*
X142759713Y-56233024D01*
X142770396Y-56216761D01*
X142782673Y-56200936D01*
X142801185Y-56158153D01*
X142803738Y-56152941D01*
X142826197Y-56112092D01*
X142831180Y-56092680D01*
X142837481Y-56074280D01*
X142845437Y-56055896D01*
X142852729Y-56009852D01*
X142853906Y-56004171D01*
X142865500Y-55959019D01*
X142865500Y-55938983D01*
X142867027Y-55919582D01*
X142870160Y-55899804D01*
X142865775Y-55853415D01*
X142865500Y-55847577D01*
X142865500Y-54851801D01*
X143861275Y-54851801D01*
X143881061Y-55040057D01*
X143881062Y-55040060D01*
X143939553Y-55220078D01*
X143939556Y-55220085D01*
X144034202Y-55384017D01*
X144087546Y-55443261D01*
X144160864Y-55524689D01*
X144314000Y-55635949D01*
X144314005Y-55635952D01*
X144486927Y-55712943D01*
X144486932Y-55712945D01*
X144672089Y-55752301D01*
X144672090Y-55752301D01*
X144861379Y-55752301D01*
X144861381Y-55752301D01*
X145046538Y-55712945D01*
X145219465Y-55635952D01*
X145372606Y-55524689D01*
X145499268Y-55384017D01*
X145593914Y-55220085D01*
X145652409Y-55040057D01*
X145672195Y-54851801D01*
X145652409Y-54663545D01*
X145593914Y-54483517D01*
X145499268Y-54319585D01*
X145372606Y-54178913D01*
X145355258Y-54166309D01*
X145312594Y-54110979D01*
X145306615Y-54041366D01*
X145339221Y-53979571D01*
X145340465Y-53978310D01*
X145356277Y-53962498D01*
X145356277Y-53125000D01*
X144381278Y-53125000D01*
X144381278Y-53262486D01*
X144391771Y-53365197D01*
X144446918Y-53531619D01*
X144446920Y-53531624D01*
X144538961Y-53680845D01*
X144623855Y-53765739D01*
X144657340Y-53827062D01*
X144652356Y-53896754D01*
X144610484Y-53952687D01*
X144561955Y-53974710D01*
X144486932Y-53990656D01*
X144486927Y-53990658D01*
X144314005Y-54067649D01*
X144314000Y-54067652D01*
X144160864Y-54178912D01*
X144034201Y-54319586D01*
X143939556Y-54483516D01*
X143939553Y-54483523D01*
X143891148Y-54632500D01*
X143881061Y-54663545D01*
X143861275Y-54851801D01*
X142865500Y-54851801D01*
X142865500Y-51111811D01*
X142885185Y-51044772D01*
X142916612Y-51011495D01*
X143008793Y-50944523D01*
X143135455Y-50803851D01*
X143230101Y-50639919D01*
X143288596Y-50459891D01*
X143308382Y-50271635D01*
X143288596Y-50083379D01*
X143230101Y-49903351D01*
X143135455Y-49739419D01*
X143008793Y-49598747D01*
X143008792Y-49598746D01*
X142855656Y-49487486D01*
X142855651Y-49487483D01*
X142682729Y-49410492D01*
X142682724Y-49410490D01*
X142510496Y-49373883D01*
X142497568Y-49371135D01*
X142308276Y-49371135D01*
X142295348Y-49373883D01*
X142123119Y-49410490D01*
X142123114Y-49410492D01*
X141950182Y-49487488D01*
X141948360Y-49488540D01*
X141947175Y-49488827D01*
X141944256Y-49490127D01*
X141944017Y-49489592D01*
X141880457Y-49504997D01*
X141831775Y-49492467D01*
X141821616Y-49487484D01*
X141652193Y-49404378D01*
X141455207Y-49353375D01*
X141455209Y-49353375D01*
X141319726Y-49346504D01*
X141251986Y-49343069D01*
X141251985Y-49343069D01*
X141251983Y-49343069D01*
X141050858Y-49373880D01*
X141050846Y-49373883D01*
X140860040Y-49444549D01*
X140860033Y-49444553D01*
X140687354Y-49552183D01*
X140687349Y-49552187D01*
X140539871Y-49692376D01*
X140539869Y-49692378D01*
X140539869Y-49692379D01*
X140507128Y-49739419D01*
X140423625Y-49859391D01*
X140423624Y-49859392D01*
X140396132Y-49923457D01*
X140351605Y-49977300D01*
X140285037Y-49998523D01*
X140217562Y-49980387D01*
X140170603Y-49928651D01*
X140158182Y-49874556D01*
X140158182Y-49658749D01*
X140158181Y-49658731D01*
X140147682Y-49555954D01*
X140147681Y-49555951D01*
X140125343Y-49488540D01*
X140092497Y-49389417D01*
X140000395Y-49240095D01*
X139969502Y-49209202D01*
X139936017Y-49147879D01*
X139933183Y-49121521D01*
X139933183Y-47147120D01*
X139935440Y-47058046D01*
X139935439Y-47058045D01*
X139935440Y-47058042D01*
X139924616Y-46997658D01*
X139923963Y-46992992D01*
X139919610Y-46950191D01*
X139917757Y-46931967D01*
X139907471Y-46899185D01*
X139905601Y-46891571D01*
X139899541Y-46857753D01*
X139876775Y-46800757D01*
X139875210Y-46796360D01*
X139856842Y-46737817D01*
X139845160Y-46716771D01*
X139840174Y-46707787D01*
X139836803Y-46700689D01*
X139824061Y-46668788D01*
X139790288Y-46617544D01*
X139787866Y-46613547D01*
X139758092Y-46559903D01*
X139735717Y-46533839D01*
X139730989Y-46527568D01*
X139712087Y-46498889D01*
X139712082Y-46498883D01*
X139690398Y-46477200D01*
X139668702Y-46455504D01*
X139665511Y-46452060D01*
X139625548Y-46405509D01*
X139598377Y-46384477D01*
X139592490Y-46379292D01*
X139321260Y-46108062D01*
X139203087Y-46011704D01*
X139022729Y-45917493D01*
X138994005Y-45909274D01*
X138841898Y-45865750D01*
X138827098Y-45861515D01*
X138827097Y-45861514D01*
X138827096Y-45861514D01*
X138624205Y-45846064D01*
X138624202Y-45846064D01*
X138422358Y-45871770D01*
X138422350Y-45871772D01*
X138229809Y-45937585D01*
X138229797Y-45937591D01*
X138054458Y-46040808D01*
X138054451Y-46040813D01*
X137903467Y-46177222D01*
X137903467Y-46177223D01*
X137783033Y-46341230D01*
X137783029Y-46341237D01*
X137698077Y-46526127D01*
X137698073Y-46526139D01*
X137652076Y-46724347D01*
X137646922Y-46927760D01*
X137682820Y-47128050D01*
X137682822Y-47128056D01*
X137707832Y-47190666D01*
X137747482Y-47289930D01*
X137753756Y-47305635D01*
X137760344Y-47375194D01*
X137728280Y-47437272D01*
X137667745Y-47472160D01*
X137597957Y-47468782D01*
X137588167Y-47464912D01*
X137439807Y-47398857D01*
X137439802Y-47398855D01*
X137271865Y-47363160D01*
X137254646Y-47359500D01*
X137065354Y-47359500D01*
X137048135Y-47363160D01*
X136880197Y-47398855D01*
X136880192Y-47398857D01*
X136707270Y-47475848D01*
X136707265Y-47475851D01*
X136554129Y-47587111D01*
X136427466Y-47727785D01*
X136332821Y-47891715D01*
X136332818Y-47891722D01*
X136289645Y-48024596D01*
X136274326Y-48071744D01*
X136254540Y-48260000D01*
X136274326Y-48448256D01*
X136274327Y-48448259D01*
X136332818Y-48628277D01*
X136332821Y-48628284D01*
X136415940Y-48772251D01*
X136432413Y-48840152D01*
X136409560Y-48906178D01*
X136354639Y-48949369D01*
X136308553Y-48958251D01*
X135867681Y-48958251D01*
X135867663Y-48958252D01*
X135764886Y-48968751D01*
X135764883Y-48968752D01*
X135598353Y-49023934D01*
X135598348Y-49023937D01*
X135576569Y-49037370D01*
X135533274Y-49053898D01*
X135530890Y-49054324D01*
X135526262Y-49054971D01*
X135465247Y-49061176D01*
X135432463Y-49071461D01*
X135424836Y-49073333D01*
X135391032Y-49079392D01*
X135334064Y-49102146D01*
X135329628Y-49103725D01*
X135271097Y-49122091D01*
X135271093Y-49122093D01*
X135241061Y-49138761D01*
X135233967Y-49142130D01*
X135202065Y-49154874D01*
X135202060Y-49154876D01*
X135150839Y-49188632D01*
X135146811Y-49191073D01*
X135093184Y-49220839D01*
X135067117Y-49243216D01*
X135060848Y-49247943D01*
X135032167Y-49266846D01*
X135032161Y-49266851D01*
X134988793Y-49310218D01*
X134985339Y-49313419D01*
X134938785Y-49353387D01*
X134917759Y-49380549D01*
X134912568Y-49386443D01*
X134269214Y-50029798D01*
X134204629Y-50091193D01*
X134169582Y-50141545D01*
X134166745Y-50145307D01*
X134127985Y-50192843D01*
X134127982Y-50192848D01*
X134112075Y-50223298D01*
X134108007Y-50230012D01*
X134088385Y-50258205D01*
X134064192Y-50314581D01*
X134062171Y-50318835D01*
X134033774Y-50373202D01*
X134033773Y-50373203D01*
X134024323Y-50406226D01*
X134021690Y-50413622D01*
X134008142Y-50445194D01*
X133995796Y-50505270D01*
X133994673Y-50509846D01*
X133977796Y-50568828D01*
X133977796Y-50568830D01*
X133975186Y-50603092D01*
X133974097Y-50610859D01*
X133968663Y-50637303D01*
X133967183Y-50644509D01*
X133967183Y-50705848D01*
X133967004Y-50710557D01*
X133962345Y-50771725D01*
X133963673Y-50782145D01*
X133966686Y-50805811D01*
X133967183Y-50813639D01*
X133967183Y-54516874D01*
X133964926Y-54605953D01*
X133964926Y-54605961D01*
X133975747Y-54666330D01*
X133976401Y-54670995D01*
X133982608Y-54732021D01*
X133982610Y-54732035D01*
X133992891Y-54764804D01*
X133994762Y-54772428D01*
X134000825Y-54806243D01*
X134000825Y-54806246D01*
X134023577Y-54863203D01*
X134025157Y-54867642D01*
X134043524Y-54926179D01*
X134043527Y-54926186D01*
X134060192Y-54956210D01*
X134063562Y-54963305D01*
X134076305Y-54995205D01*
X134076310Y-54995215D01*
X134110060Y-55046424D01*
X134112501Y-55050454D01*
X134142271Y-55104089D01*
X134142272Y-55104090D01*
X134142274Y-55104093D01*
X134164651Y-55130158D01*
X134169376Y-55136426D01*
X134181946Y-55155497D01*
X134188281Y-55165110D01*
X134231661Y-55208490D01*
X134234852Y-55211934D01*
X134274814Y-55258483D01*
X134274813Y-55258483D01*
X134301982Y-55279514D01*
X134307869Y-55284698D01*
X134869280Y-55846109D01*
X135416344Y-56393173D01*
X135449829Y-56454496D01*
X135451129Y-56463048D01*
X135452022Y-56468112D01*
X135508652Y-56679460D01*
X135508654Y-56679464D01*
X135508655Y-56679468D01*
X135554891Y-56778622D01*
X135601127Y-56877776D01*
X135601128Y-56877777D01*
X135726632Y-57057015D01*
X135881353Y-57211736D01*
X136060591Y-57337240D01*
X136258900Y-57429713D01*
X136470253Y-57486345D01*
X136653156Y-57502346D01*
X136688228Y-57505415D01*
X136688230Y-57505415D01*
X136688232Y-57505415D01*
X136716484Y-57502943D01*
X136906207Y-57486345D01*
X137117560Y-57429713D01*
X137315869Y-57337240D01*
X137404377Y-57275265D01*
X137470581Y-57252938D01*
X137538349Y-57269947D01*
X137586162Y-57320895D01*
X137599500Y-57376840D01*
X137599500Y-57437568D01*
X137597242Y-57526643D01*
X137597242Y-57526645D01*
X137597555Y-57528389D01*
X137599500Y-57550263D01*
X137599500Y-57561951D01*
X137599321Y-57566660D01*
X137594662Y-57627828D01*
X137596707Y-57643881D01*
X137599003Y-57661914D01*
X137599500Y-57669742D01*
X137599500Y-61398305D01*
X137579815Y-61465344D01*
X137527011Y-61511099D01*
X137457853Y-61521043D01*
X137425064Y-61511584D01*
X137279347Y-61446706D01*
X137279342Y-61446704D01*
X137113635Y-61411483D01*
X137094186Y-61407349D01*
X136904894Y-61407349D01*
X136885445Y-61411483D01*
X136719737Y-61446704D01*
X136719732Y-61446706D01*
X136546810Y-61523697D01*
X136546805Y-61523700D01*
X136393669Y-61634960D01*
X136267006Y-61775634D01*
X136172361Y-61939564D01*
X136172358Y-61939571D01*
X136113867Y-62119589D01*
X136113866Y-62119593D01*
X136094080Y-62307849D01*
X136113866Y-62496105D01*
X136113867Y-62496108D01*
X136172358Y-62676126D01*
X136172361Y-62676133D01*
X136267007Y-62840065D01*
X136380020Y-62965578D01*
X136393669Y-62980737D01*
X136546805Y-63091997D01*
X136546810Y-63092000D01*
X136719732Y-63168991D01*
X136719737Y-63168993D01*
X136904894Y-63208349D01*
X136958034Y-63208349D01*
X137025073Y-63228034D01*
X137070828Y-63280838D01*
X137082034Y-63332349D01*
X137082034Y-65155232D01*
X137062349Y-65222271D01*
X137009545Y-65268026D01*
X136940387Y-65277970D01*
X136876831Y-65248945D01*
X136870353Y-65242913D01*
X135658046Y-64030607D01*
X135596656Y-63966025D01*
X135596655Y-63966024D01*
X135596654Y-63966023D01*
X135568799Y-63946635D01*
X135546304Y-63930978D01*
X135542541Y-63928140D01*
X135495008Y-63889381D01*
X135495001Y-63889376D01*
X135464554Y-63873473D01*
X135457846Y-63869410D01*
X135429644Y-63849781D01*
X135429641Y-63849779D01*
X135429640Y-63849779D01*
X135429636Y-63849777D01*
X135373275Y-63825590D01*
X135369019Y-63823569D01*
X135314652Y-63795170D01*
X135314645Y-63795167D01*
X135314644Y-63795167D01*
X135308603Y-63793438D01*
X135281625Y-63785718D01*
X135274225Y-63783084D01*
X135242652Y-63769535D01*
X135242653Y-63769535D01*
X135182561Y-63757185D01*
X135177986Y-63756062D01*
X135119015Y-63739189D01*
X135119020Y-63739189D01*
X135084753Y-63736579D01*
X135076975Y-63735488D01*
X135043337Y-63728576D01*
X135043336Y-63728576D01*
X134981997Y-63728576D01*
X134977290Y-63728397D01*
X134971716Y-63727972D01*
X134916119Y-63723738D01*
X134896184Y-63726277D01*
X134882035Y-63728079D01*
X134874206Y-63728576D01*
X133550983Y-63728576D01*
X133483944Y-63708891D01*
X133438189Y-63656087D01*
X133427455Y-63593768D01*
X133427868Y-63589056D01*
X133435659Y-63500000D01*
X133415063Y-63264592D01*
X133353903Y-63036337D01*
X133254035Y-62822171D01*
X133238510Y-62799998D01*
X133118494Y-62628597D01*
X132951402Y-62461506D01*
X132951396Y-62461501D01*
X132765842Y-62331575D01*
X132722217Y-62276998D01*
X132715023Y-62207500D01*
X132746546Y-62145145D01*
X132765842Y-62128425D01*
X132824356Y-62087453D01*
X132951401Y-61998495D01*
X133118495Y-61831401D01*
X133254035Y-61637830D01*
X133353903Y-61423663D01*
X133415063Y-61195408D01*
X133435659Y-60960000D01*
X133415063Y-60724592D01*
X133360271Y-60520103D01*
X133353905Y-60496344D01*
X133353904Y-60496343D01*
X133353903Y-60496337D01*
X133254035Y-60282171D01*
X133227878Y-60244814D01*
X133118494Y-60088597D01*
X132951402Y-59921506D01*
X132951396Y-59921501D01*
X132765842Y-59791575D01*
X132722217Y-59736998D01*
X132715023Y-59667500D01*
X132746546Y-59605145D01*
X132765842Y-59588425D01*
X132788026Y-59572891D01*
X132951401Y-59458495D01*
X133118495Y-59291401D01*
X133254035Y-59097830D01*
X133353903Y-58883663D01*
X133415063Y-58655408D01*
X133435659Y-58420000D01*
X133415063Y-58184592D01*
X133353903Y-57956337D01*
X133254035Y-57742171D01*
X133131142Y-57566660D01*
X133118494Y-57548597D01*
X132951402Y-57381506D01*
X132951396Y-57381501D01*
X132765842Y-57251575D01*
X132722217Y-57196998D01*
X132715023Y-57127500D01*
X132746546Y-57065145D01*
X132765842Y-57048425D01*
X132788026Y-57032891D01*
X132951401Y-56918495D01*
X133118495Y-56751401D01*
X133254035Y-56557830D01*
X133353903Y-56343663D01*
X133415063Y-56115408D01*
X133435659Y-55880000D01*
X133415063Y-55644592D01*
X133353903Y-55416337D01*
X133254035Y-55202171D01*
X133228086Y-55165111D01*
X133118494Y-55008597D01*
X132951402Y-54841506D01*
X132951396Y-54841501D01*
X132765842Y-54711575D01*
X132722217Y-54656998D01*
X132715023Y-54587500D01*
X132746546Y-54525145D01*
X132765842Y-54508425D01*
X132801416Y-54483516D01*
X132951401Y-54378495D01*
X133118495Y-54211401D01*
X133254035Y-54017830D01*
X133353903Y-53803663D01*
X133415063Y-53575408D01*
X133435659Y-53340000D01*
X133415063Y-53104592D01*
X133353903Y-52876337D01*
X133254035Y-52662171D01*
X133247523Y-52652870D01*
X133118494Y-52468597D01*
X132951402Y-52301506D01*
X132951396Y-52301501D01*
X132765842Y-52171575D01*
X132722217Y-52116998D01*
X132715023Y-52047500D01*
X132746546Y-51985145D01*
X132765842Y-51968425D01*
X132838936Y-51917244D01*
X132951401Y-51838495D01*
X133118495Y-51671401D01*
X133254035Y-51477830D01*
X133353903Y-51263663D01*
X133415063Y-51035408D01*
X133435659Y-50800000D01*
X133415063Y-50564592D01*
X133353903Y-50336337D01*
X133254035Y-50122171D01*
X133232344Y-50091192D01*
X133118494Y-49928597D01*
X132951402Y-49761506D01*
X132951396Y-49761501D01*
X132765842Y-49631575D01*
X132722217Y-49576998D01*
X132715023Y-49507500D01*
X132746546Y-49445145D01*
X132765842Y-49428425D01*
X132791456Y-49410490D01*
X132951401Y-49298495D01*
X133118495Y-49131401D01*
X133254035Y-48937830D01*
X133353903Y-48723663D01*
X133415063Y-48495408D01*
X133435659Y-48260000D01*
X133415063Y-48024592D01*
X133353903Y-47796337D01*
X133254035Y-47582171D01*
X133251174Y-47578084D01*
X133118494Y-47388597D01*
X132951402Y-47221506D01*
X132951395Y-47221501D01*
X132928583Y-47205528D01*
X132885169Y-47175129D01*
X132757834Y-47085967D01*
X132757830Y-47085965D01*
X132719025Y-47067870D01*
X132543663Y-46986097D01*
X132543659Y-46986096D01*
X132543655Y-46986094D01*
X132315413Y-46924938D01*
X132315403Y-46924936D01*
X132080001Y-46904341D01*
X132079999Y-46904341D01*
X131844590Y-46924937D01*
X131844589Y-46924937D01*
X131744124Y-46951855D01*
X131674274Y-46950191D01*
X131624352Y-46919761D01*
X130478960Y-45774369D01*
X130445475Y-45713046D01*
X130443323Y-45699668D01*
X130425674Y-45531744D01*
X130367179Y-45351716D01*
X130272533Y-45187784D01*
X130145871Y-45047112D01*
X130145870Y-45047111D01*
X129992734Y-44935851D01*
X129992729Y-44935848D01*
X129849164Y-44871928D01*
X129795927Y-44826678D01*
X129775606Y-44759828D01*
X129794652Y-44692605D01*
X129811915Y-44670972D01*
X130691412Y-43791475D01*
X130752733Y-43757992D01*
X130822425Y-43762976D01*
G37*
%TD.AperFunction*%
%TA.AperFunction,Conductor*%
G36*
X136585722Y-51890936D02*
G01*
X136631477Y-51943740D01*
X136642683Y-51995251D01*
X136642683Y-53208750D01*
X136917655Y-53208750D01*
X136917669Y-53208749D01*
X137020380Y-53198256D01*
X137186802Y-53143109D01*
X137186807Y-53143107D01*
X137336028Y-53051066D01*
X137459998Y-52927096D01*
X137555832Y-52771726D01*
X137557885Y-52772992D01*
X137596467Y-52729169D01*
X137663660Y-52710013D01*
X137730542Y-52730225D01*
X137767558Y-52772944D01*
X137769534Y-52771726D01*
X137865367Y-52927096D01*
X137989337Y-53051066D01*
X138138558Y-53143107D01*
X138138563Y-53143109D01*
X138304985Y-53198256D01*
X138304992Y-53198257D01*
X138407702Y-53208750D01*
X138682682Y-53208750D01*
X138682683Y-53208749D01*
X138682683Y-51995251D01*
X138702368Y-51928212D01*
X138755172Y-51882457D01*
X138806683Y-51871251D01*
X139058683Y-51871251D01*
X139125722Y-51890936D01*
X139171477Y-51943740D01*
X139182683Y-51995251D01*
X139182683Y-53208750D01*
X139457655Y-53208750D01*
X139457669Y-53208749D01*
X139560380Y-53198256D01*
X139726802Y-53143109D01*
X139726807Y-53143107D01*
X139876028Y-53051066D01*
X139999998Y-52927096D01*
X140072883Y-52808932D01*
X140124831Y-52762208D01*
X140193794Y-52750985D01*
X140257876Y-52778829D01*
X140296732Y-52836898D01*
X140302422Y-52874029D01*
X140302422Y-52986294D01*
X140282737Y-53053333D01*
X140266103Y-53073975D01*
X137901532Y-55438547D01*
X137852824Y-55484847D01*
X137790673Y-55516768D01*
X137721130Y-55510020D01*
X137666274Y-55466745D01*
X137665816Y-55466095D01*
X137649828Y-55443261D01*
X137590582Y-55384015D01*
X137495107Y-55288540D01*
X137357208Y-55191982D01*
X137315868Y-55163035D01*
X137189461Y-55104091D01*
X137117560Y-55070563D01*
X137117557Y-55070562D01*
X137117555Y-55070561D01*
X136906210Y-55013931D01*
X136900879Y-55012992D01*
X136901164Y-55011372D01*
X136843068Y-54988645D01*
X136831266Y-54978253D01*
X136004502Y-54151489D01*
X135971017Y-54090166D01*
X135968183Y-54063808D01*
X135968183Y-53332750D01*
X135987868Y-53265711D01*
X136040672Y-53219956D01*
X136092183Y-53208750D01*
X136142683Y-53208750D01*
X136142683Y-51995251D01*
X136162368Y-51928212D01*
X136215172Y-51882457D01*
X136266683Y-51871251D01*
X136518683Y-51871251D01*
X136585722Y-51890936D01*
G37*
%TD.AperFunction*%
%TA.AperFunction,Conductor*%
G36*
X151830121Y-47097132D02*
G01*
X151850763Y-47113766D01*
X151881202Y-47144205D01*
X151914687Y-47205528D01*
X151917521Y-47231886D01*
X151917521Y-47428534D01*
X152135939Y-47428534D01*
X152202978Y-47448219D01*
X152211939Y-47454555D01*
X152214585Y-47456607D01*
X152257359Y-47475116D01*
X152262577Y-47477672D01*
X152303429Y-47500131D01*
X152322837Y-47505114D01*
X152341238Y-47511414D01*
X152359625Y-47519371D01*
X152403009Y-47526242D01*
X152405640Y-47526659D01*
X152411360Y-47527843D01*
X152456502Y-47539434D01*
X152476537Y-47539434D01*
X152495935Y-47540960D01*
X152515715Y-47544093D01*
X152515716Y-47544094D01*
X152515716Y-47544093D01*
X152515717Y-47544094D01*
X152562105Y-47539709D01*
X152567943Y-47539434D01*
X153591252Y-47539434D01*
X153658291Y-47559119D01*
X153704046Y-47611923D01*
X153713990Y-47681081D01*
X153703634Y-47715839D01*
X153666098Y-47796335D01*
X153666094Y-47796344D01*
X153604938Y-48024586D01*
X153604936Y-48024596D01*
X153584341Y-48259999D01*
X153584341Y-48260000D01*
X153604936Y-48495403D01*
X153604938Y-48495413D01*
X153666094Y-48723655D01*
X153666096Y-48723659D01*
X153666097Y-48723663D01*
X153711990Y-48822080D01*
X153765965Y-48937830D01*
X153765967Y-48937834D01*
X153901507Y-49131404D01*
X153901838Y-49131799D01*
X153901929Y-49132007D01*
X153904610Y-49135836D01*
X153903840Y-49136374D01*
X153929848Y-49195808D01*
X153918805Y-49264800D01*
X153894526Y-49299181D01*
X153618665Y-49575043D01*
X153557342Y-49608528D01*
X153530984Y-49611362D01*
X152981692Y-49611362D01*
X152914653Y-49591677D01*
X152868898Y-49538873D01*
X152857692Y-49487362D01*
X152857692Y-49231707D01*
X152857691Y-49231690D01*
X152847192Y-49128912D01*
X152847191Y-49128909D01*
X152838846Y-49103725D01*
X152792007Y-48962375D01*
X152699905Y-48813053D01*
X152632863Y-48746011D01*
X152599378Y-48684688D01*
X152604362Y-48614996D01*
X152615006Y-48593233D01*
X152689374Y-48472664D01*
X152689379Y-48472653D01*
X152744526Y-48306231D01*
X152744527Y-48306224D01*
X152755020Y-48203520D01*
X152755021Y-48203507D01*
X152755021Y-47928534D01*
X151541521Y-47928534D01*
X151474482Y-47908849D01*
X151428727Y-47856045D01*
X151417521Y-47804534D01*
X151417521Y-47201447D01*
X151437206Y-47134408D01*
X151490010Y-47088653D01*
X151541521Y-47077447D01*
X151763082Y-47077447D01*
X151830121Y-47097132D01*
G37*
%TD.AperFunction*%
%TA.AperFunction,Conductor*%
G36*
X146091493Y-45556388D02*
G01*
X146092610Y-45556652D01*
X146092612Y-45556652D01*
X146092617Y-45556654D01*
X146152227Y-45563063D01*
X146697972Y-45563062D01*
X146697978Y-45563061D01*
X146697982Y-45563061D01*
X146707741Y-45562012D01*
X146776501Y-45574416D01*
X146827639Y-45622025D01*
X146844999Y-45685300D01*
X146844999Y-45880831D01*
X146845000Y-45880838D01*
X146851408Y-45940446D01*
X146853191Y-45947991D01*
X146851938Y-45948286D01*
X146856354Y-46010036D01*
X146852364Y-46023623D01*
X146851900Y-46025587D01*
X146845499Y-46085118D01*
X146845499Y-46630807D01*
X146851901Y-46690340D01*
X146853686Y-46697896D01*
X146852251Y-46698234D01*
X146856620Y-46759321D01*
X146852135Y-46774598D01*
X146851900Y-46775591D01*
X146845499Y-46835119D01*
X146845499Y-47031182D01*
X146825814Y-47098221D01*
X146773010Y-47143976D01*
X146708245Y-47154472D01*
X146697930Y-47153363D01*
X146650100Y-47153363D01*
X146650100Y-47190666D01*
X146630415Y-47257705D01*
X146600414Y-47289930D01*
X146592558Y-47295810D01*
X146592549Y-47295820D01*
X146524364Y-47386903D01*
X146468430Y-47428774D01*
X146398739Y-47433758D01*
X146337416Y-47400272D01*
X146325832Y-47386903D01*
X146271317Y-47314083D01*
X146257644Y-47295817D01*
X146257641Y-47295815D01*
X146257637Y-47295810D01*
X146249786Y-47289933D01*
X146207917Y-47233998D01*
X146200100Y-47190669D01*
X146200100Y-47153363D01*
X146152255Y-47153363D01*
X146092724Y-47159764D01*
X146085173Y-47161549D01*
X146084784Y-47159906D01*
X146024440Y-47164215D01*
X146007724Y-47159306D01*
X146007577Y-47159271D01*
X145951182Y-47153208D01*
X145947971Y-47152863D01*
X145947961Y-47152863D01*
X145402227Y-47152863D01*
X145402206Y-47152865D01*
X145392445Y-47153914D01*
X145323687Y-47141505D01*
X145272552Y-47093891D01*
X145255198Y-47030624D01*
X145255198Y-46835093D01*
X145255197Y-46835087D01*
X145251510Y-46800780D01*
X145248790Y-46775481D01*
X145248789Y-46775479D01*
X145248789Y-46775476D01*
X145247007Y-46767933D01*
X145248471Y-46767586D01*
X145244109Y-46706607D01*
X145248518Y-46691594D01*
X145248788Y-46690451D01*
X145248787Y-46690451D01*
X145248790Y-46690446D01*
X145255199Y-46630836D01*
X145255198Y-46085091D01*
X145248790Y-46025480D01*
X145248789Y-46025478D01*
X145248789Y-46025475D01*
X145247007Y-46017932D01*
X145248471Y-46017585D01*
X145244109Y-45956606D01*
X145248518Y-45941593D01*
X145248788Y-45940450D01*
X145248787Y-45940450D01*
X145248790Y-45940445D01*
X145255199Y-45880835D01*
X145255198Y-45685300D01*
X145274882Y-45618262D01*
X145327686Y-45572507D01*
X145392454Y-45562012D01*
X145402225Y-45563063D01*
X145947970Y-45563062D01*
X146007581Y-45556654D01*
X146007587Y-45556651D01*
X146015123Y-45554871D01*
X146015469Y-45556338D01*
X146076441Y-45551970D01*
X146091493Y-45556388D01*
G37*
%TD.AperFunction*%
%TA.AperFunction,Conductor*%
G36*
X153536649Y-43346690D02*
G01*
X153590901Y-43390719D01*
X153608577Y-43428994D01*
X153666094Y-43643655D01*
X153666096Y-43643659D01*
X153666097Y-43643663D01*
X153719410Y-43757992D01*
X153765965Y-43857830D01*
X153765967Y-43857834D01*
X153901501Y-44051395D01*
X153901506Y-44051402D01*
X154068597Y-44218493D01*
X154068603Y-44218498D01*
X154254158Y-44348425D01*
X154297783Y-44403002D01*
X154304977Y-44472500D01*
X154273454Y-44534855D01*
X154254158Y-44551575D01*
X154068597Y-44681505D01*
X153901505Y-44848597D01*
X153765965Y-45042169D01*
X153765964Y-45042171D01*
X153666098Y-45256335D01*
X153666094Y-45256344D01*
X153604938Y-45484586D01*
X153604936Y-45484596D01*
X153584341Y-45719999D01*
X153584341Y-45720000D01*
X153604936Y-45955403D01*
X153604938Y-45955413D01*
X153652345Y-46132341D01*
X153650682Y-46202191D01*
X153611519Y-46260053D01*
X153547290Y-46287557D01*
X153532570Y-46288434D01*
X152897451Y-46288434D01*
X152830412Y-46268749D01*
X152784657Y-46215945D01*
X152774713Y-46146787D01*
X152779745Y-46125430D01*
X152811485Y-46029644D01*
X152811486Y-46029637D01*
X152821979Y-45926933D01*
X152821980Y-45926920D01*
X152821980Y-45651947D01*
X151984480Y-45651947D01*
X151984480Y-45702447D01*
X151964795Y-45769486D01*
X151911991Y-45815241D01*
X151860480Y-45826447D01*
X151608480Y-45826447D01*
X151541441Y-45806762D01*
X151495686Y-45753958D01*
X151484480Y-45702447D01*
X151484480Y-45275947D01*
X151504165Y-45208908D01*
X151556969Y-45163153D01*
X151608480Y-45151947D01*
X152821979Y-45151947D01*
X152821979Y-44876975D01*
X152821978Y-44876960D01*
X152811485Y-44774249D01*
X152756338Y-44607827D01*
X152756336Y-44607822D01*
X152664295Y-44458601D01*
X152570819Y-44365125D01*
X152537334Y-44303802D01*
X152542318Y-44234110D01*
X152584190Y-44178177D01*
X152621377Y-44159131D01*
X152796588Y-44104159D01*
X152974502Y-44005409D01*
X153128895Y-43872866D01*
X153253448Y-43711958D01*
X153343060Y-43529271D01*
X153368761Y-43430003D01*
X153404620Y-43370041D01*
X153467206Y-43338982D01*
X153536649Y-43346690D01*
G37*
%TD.AperFunction*%
%TA.AperFunction,Conductor*%
G36*
X152208554Y-41333591D02*
G01*
X152215033Y-41339624D01*
X152936783Y-42061374D01*
X152970268Y-42122697D01*
X152965284Y-42192389D01*
X152923412Y-42248322D01*
X152857948Y-42272739D01*
X152800202Y-42263006D01*
X152701058Y-42220460D01*
X152501741Y-42179500D01*
X151899625Y-42179500D01*
X151832586Y-42159815D01*
X151786831Y-42107011D01*
X151776887Y-42037853D01*
X151805912Y-41974297D01*
X151811944Y-41967819D01*
X151845668Y-41934094D01*
X151937709Y-41784873D01*
X151937711Y-41784868D01*
X151992858Y-41618446D01*
X151992859Y-41618439D01*
X152003352Y-41515735D01*
X152003352Y-41427306D01*
X152023036Y-41360267D01*
X152075839Y-41314511D01*
X152144998Y-41304567D01*
X152208554Y-41333591D01*
G37*
%TD.AperFunction*%
%TA.AperFunction,Conductor*%
G36*
X149616587Y-38745185D02*
G01*
X149637229Y-38761819D01*
X150704478Y-39829068D01*
X150737963Y-39890391D01*
X150732979Y-39960083D01*
X150691107Y-40016016D01*
X150625643Y-40040433D01*
X150616797Y-40040749D01*
X150253381Y-40040749D01*
X150253365Y-40040750D01*
X150150655Y-40051243D01*
X149984233Y-40106390D01*
X149984228Y-40106392D01*
X149836190Y-40197704D01*
X149768797Y-40216144D01*
X149702134Y-40195221D01*
X149691401Y-40186407D01*
X149691294Y-40186543D01*
X149685633Y-40182066D01*
X149536411Y-40090025D01*
X149536406Y-40090023D01*
X149369984Y-40034876D01*
X149369977Y-40034875D01*
X149267273Y-40024382D01*
X148992287Y-40024382D01*
X148992287Y-41237882D01*
X148972602Y-41304921D01*
X148919798Y-41350676D01*
X148868287Y-41361882D01*
X147492308Y-41361882D01*
X147485994Y-41365329D01*
X147416303Y-41360339D01*
X147371965Y-41331842D01*
X146902005Y-40861882D01*
X147517287Y-40861882D01*
X148492287Y-40861882D01*
X148492287Y-40024382D01*
X148217316Y-40024382D01*
X148217299Y-40024383D01*
X148114589Y-40034876D01*
X147948167Y-40090023D01*
X147948162Y-40090025D01*
X147798941Y-40182066D01*
X147674971Y-40306036D01*
X147582930Y-40455257D01*
X147582928Y-40455262D01*
X147527781Y-40621684D01*
X147527780Y-40621691D01*
X147517287Y-40724395D01*
X147517287Y-40861882D01*
X146902005Y-40861882D01*
X146346159Y-40306036D01*
X145243022Y-39202898D01*
X145209537Y-39141575D01*
X145207385Y-39128197D01*
X145189736Y-38960273D01*
X145166194Y-38887818D01*
X145164199Y-38817977D01*
X145200279Y-38758144D01*
X145262980Y-38727316D01*
X145284125Y-38725500D01*
X149549548Y-38725500D01*
X149616587Y-38745185D01*
G37*
%TD.AperFunction*%
%TA.AperFunction,Conductor*%
G36*
X167582539Y-27960185D02*
G01*
X167628294Y-28012989D01*
X167639500Y-28064500D01*
X167639500Y-78615500D01*
X167619815Y-78682539D01*
X167567011Y-78728294D01*
X167515500Y-78739500D01*
X119504500Y-78739500D01*
X119437461Y-78719815D01*
X119391706Y-78667011D01*
X119380500Y-78615500D01*
X119380500Y-73660000D01*
X120754422Y-73660000D01*
X120774722Y-74047339D01*
X120786811Y-74123664D01*
X120835398Y-74430433D01*
X120862452Y-74531402D01*
X120935788Y-74805094D01*
X121074787Y-75167197D01*
X121250877Y-75512793D01*
X121462122Y-75838082D01*
X121578684Y-75982024D01*
X121706219Y-76139516D01*
X121980484Y-76413781D01*
X122068485Y-76485043D01*
X122281917Y-76657877D01*
X122556654Y-76836293D01*
X122607211Y-76869125D01*
X122952806Y-77045214D01*
X123314913Y-77184214D01*
X123689567Y-77284602D01*
X124072662Y-77345278D01*
X124438576Y-77364455D01*
X124459999Y-77365578D01*
X124460000Y-77365578D01*
X124460001Y-77365578D01*
X124480301Y-77364514D01*
X124847338Y-77345278D01*
X125230433Y-77284602D01*
X125605087Y-77184214D01*
X125967194Y-77045214D01*
X126312789Y-76869125D01*
X126638084Y-76657876D01*
X126939516Y-76413781D01*
X127213781Y-76139516D01*
X127457876Y-75838084D01*
X127669125Y-75512789D01*
X127845214Y-75167194D01*
X127984214Y-74805087D01*
X128084602Y-74430433D01*
X128145278Y-74047338D01*
X128165578Y-73660000D01*
X128145278Y-73272662D01*
X128084602Y-72889567D01*
X127984214Y-72514913D01*
X127845214Y-72152806D01*
X127669125Y-71807211D01*
X127663033Y-71797830D01*
X127457877Y-71481917D01*
X127213784Y-71180488D01*
X127213781Y-71180484D01*
X126939516Y-70906219D01*
X126823026Y-70811887D01*
X126638082Y-70662122D01*
X126312793Y-70450877D01*
X125967197Y-70274787D01*
X125605094Y-70135788D01*
X125605087Y-70135786D01*
X125230433Y-70035398D01*
X125230429Y-70035397D01*
X125230428Y-70035397D01*
X124847339Y-69974722D01*
X124460001Y-69954422D01*
X124459999Y-69954422D01*
X124072660Y-69974722D01*
X123689572Y-70035397D01*
X123689570Y-70035397D01*
X123314905Y-70135788D01*
X122952802Y-70274787D01*
X122607206Y-70450877D01*
X122281917Y-70662122D01*
X121980488Y-70906215D01*
X121980480Y-70906222D01*
X121706222Y-71180480D01*
X121706215Y-71180488D01*
X121462122Y-71481917D01*
X121250877Y-71807206D01*
X121074787Y-72152802D01*
X120935788Y-72514905D01*
X120835397Y-72889570D01*
X120835397Y-72889572D01*
X120774722Y-73272660D01*
X120754422Y-73659999D01*
X120754422Y-73660000D01*
X119380500Y-73660000D01*
X119380500Y-44763494D01*
X128184840Y-44763494D01*
X128189225Y-44809882D01*
X128189500Y-44815720D01*
X128189500Y-60152255D01*
X128187775Y-60167872D01*
X128188061Y-60167899D01*
X128187326Y-60175665D01*
X128189500Y-60244814D01*
X128189500Y-60274343D01*
X128189501Y-60274360D01*
X128190368Y-60281231D01*
X128190826Y-60287050D01*
X128192290Y-60333624D01*
X128192291Y-60333627D01*
X128197880Y-60352867D01*
X128201824Y-60371911D01*
X128204336Y-60391792D01*
X128221490Y-60435119D01*
X128223382Y-60440647D01*
X128236381Y-60485388D01*
X128246580Y-60502634D01*
X128255138Y-60520103D01*
X128262514Y-60538732D01*
X128289898Y-60576423D01*
X128293106Y-60581307D01*
X128316827Y-60621416D01*
X128316833Y-60621424D01*
X128330990Y-60635580D01*
X128343628Y-60650376D01*
X128355405Y-60666586D01*
X128355406Y-60666587D01*
X128391309Y-60696288D01*
X128395620Y-60700210D01*
X130156910Y-62461501D01*
X130739761Y-63044352D01*
X130773246Y-63105675D01*
X130771855Y-63164124D01*
X130744937Y-63264589D01*
X130744937Y-63264590D01*
X130724341Y-63499999D01*
X130724341Y-63500000D01*
X130744936Y-63735403D01*
X130744938Y-63735413D01*
X130806094Y-63963655D01*
X130806096Y-63963659D01*
X130806097Y-63963663D01*
X130837314Y-64030607D01*
X130905965Y-64177830D01*
X130905967Y-64177834D01*
X131041501Y-64371395D01*
X131041506Y-64371402D01*
X131208597Y-64538493D01*
X131208603Y-64538498D01*
X131394158Y-64668425D01*
X131437783Y-64723002D01*
X131444977Y-64792500D01*
X131413454Y-64854855D01*
X131394158Y-64871575D01*
X131208597Y-65001505D01*
X131041505Y-65168597D01*
X130905965Y-65362169D01*
X130905964Y-65362171D01*
X130806098Y-65576335D01*
X130806094Y-65576344D01*
X130744938Y-65804586D01*
X130744936Y-65804596D01*
X130724341Y-66039999D01*
X130724341Y-66040000D01*
X130744936Y-66275403D01*
X130744938Y-66275413D01*
X130806094Y-66503655D01*
X130806096Y-66503659D01*
X130806097Y-66503663D01*
X130877988Y-66657834D01*
X130905965Y-66717830D01*
X130905967Y-66717834D01*
X131041501Y-66911395D01*
X131041506Y-66911402D01*
X131208597Y-67078493D01*
X131208603Y-67078498D01*
X131394158Y-67208425D01*
X131437783Y-67263002D01*
X131444977Y-67332500D01*
X131413454Y-67394855D01*
X131394158Y-67411575D01*
X131208597Y-67541505D01*
X131041505Y-67708597D01*
X130905965Y-67902169D01*
X130905964Y-67902171D01*
X130806098Y-68116335D01*
X130806094Y-68116344D01*
X130744938Y-68344586D01*
X130744936Y-68344596D01*
X130724341Y-68579999D01*
X130724341Y-68580000D01*
X130744936Y-68815403D01*
X130744938Y-68815413D01*
X130806094Y-69043655D01*
X130806096Y-69043659D01*
X130806097Y-69043663D01*
X130872646Y-69186377D01*
X130905965Y-69257830D01*
X130905967Y-69257834D01*
X130983099Y-69367989D01*
X131036344Y-69444031D01*
X131041501Y-69451395D01*
X131041506Y-69451402D01*
X131208597Y-69618493D01*
X131208603Y-69618498D01*
X131394158Y-69748425D01*
X131437783Y-69803002D01*
X131444977Y-69872500D01*
X131413454Y-69934855D01*
X131394158Y-69951575D01*
X131208597Y-70081505D01*
X131041505Y-70248597D01*
X130905965Y-70442169D01*
X130905964Y-70442171D01*
X130806098Y-70656335D01*
X130806094Y-70656344D01*
X130744938Y-70884586D01*
X130744936Y-70884596D01*
X130724341Y-71119999D01*
X130724341Y-71120000D01*
X130744936Y-71355403D01*
X130744938Y-71355413D01*
X130806094Y-71583655D01*
X130806096Y-71583659D01*
X130806097Y-71583663D01*
X130876694Y-71735059D01*
X130905965Y-71797830D01*
X130905967Y-71797834D01*
X131041501Y-71991395D01*
X131041506Y-71991402D01*
X131208597Y-72158493D01*
X131208603Y-72158498D01*
X131394158Y-72288425D01*
X131437783Y-72343002D01*
X131444977Y-72412500D01*
X131413454Y-72474855D01*
X131394158Y-72491575D01*
X131208597Y-72621505D01*
X131041505Y-72788597D01*
X130905965Y-72982169D01*
X130905964Y-72982171D01*
X130806098Y-73196335D01*
X130806094Y-73196344D01*
X130744938Y-73424586D01*
X130744936Y-73424596D01*
X130724341Y-73659999D01*
X130724341Y-73660000D01*
X130744936Y-73895403D01*
X130744938Y-73895413D01*
X130806094Y-74123655D01*
X130806096Y-74123659D01*
X130806097Y-74123663D01*
X130844408Y-74205820D01*
X130905965Y-74337830D01*
X130905967Y-74337834D01*
X131041501Y-74531395D01*
X131041506Y-74531402D01*
X131208597Y-74698493D01*
X131208603Y-74698498D01*
X131394158Y-74828425D01*
X131437783Y-74883002D01*
X131444977Y-74952500D01*
X131413454Y-75014855D01*
X131394158Y-75031575D01*
X131208597Y-75161505D01*
X131041505Y-75328597D01*
X130905965Y-75522169D01*
X130905964Y-75522171D01*
X130867213Y-75605274D01*
X130821041Y-75657713D01*
X130753847Y-75676865D01*
X130686966Y-75656649D01*
X130642449Y-75605274D01*
X130639282Y-75598483D01*
X130627102Y-75572362D01*
X130627100Y-75572359D01*
X130627099Y-75572357D01*
X130501599Y-75393124D01*
X130433583Y-75325108D01*
X130346877Y-75238402D01*
X130167639Y-75112898D01*
X130167640Y-75112898D01*
X130167638Y-75112897D01*
X130068484Y-75066661D01*
X129969330Y-75020425D01*
X129969326Y-75020424D01*
X129969322Y-75020422D01*
X129757977Y-74963793D01*
X129540002Y-74944723D01*
X129539998Y-74944723D01*
X129415226Y-74955639D01*
X129322023Y-74963793D01*
X129322020Y-74963793D01*
X129110677Y-75020422D01*
X129110670Y-75020424D01*
X129110670Y-75020425D01*
X129086759Y-75031575D01*
X128912361Y-75112898D01*
X128912357Y-75112900D01*
X128733121Y-75238402D01*
X128578402Y-75393121D01*
X128452900Y-75572357D01*
X128452898Y-75572361D01*
X128360426Y-75770668D01*
X128360422Y-75770677D01*
X128303793Y-75982020D01*
X128303793Y-75982024D01*
X128284723Y-76199997D01*
X128284723Y-76200002D01*
X128303793Y-76417975D01*
X128303793Y-76417979D01*
X128360422Y-76629322D01*
X128360424Y-76629326D01*
X128360425Y-76629330D01*
X128406661Y-76728484D01*
X128452897Y-76827638D01*
X128477998Y-76863486D01*
X128578402Y-77006877D01*
X128733123Y-77161598D01*
X128912361Y-77287102D01*
X129110670Y-77379575D01*
X129322023Y-77436207D01*
X129504926Y-77452208D01*
X129539998Y-77455277D01*
X129540000Y-77455277D01*
X129540002Y-77455277D01*
X129570212Y-77452633D01*
X129757977Y-77436207D01*
X129794221Y-77426495D01*
X129864069Y-77428156D01*
X129913997Y-77458588D01*
X130214197Y-77758788D01*
X130224022Y-77771051D01*
X130224243Y-77770869D01*
X130229214Y-77776878D01*
X130250043Y-77796437D01*
X130279635Y-77824226D01*
X130300529Y-77845120D01*
X130306011Y-77849373D01*
X130310443Y-77853157D01*
X130344418Y-77885062D01*
X130361976Y-77894714D01*
X130378233Y-77905393D01*
X130394064Y-77917673D01*
X130413737Y-77926186D01*
X130436833Y-77936182D01*
X130442077Y-77938750D01*
X130482908Y-77961197D01*
X130495523Y-77964435D01*
X130502305Y-77966177D01*
X130520719Y-77972481D01*
X130539104Y-77980438D01*
X130585157Y-77987732D01*
X130590826Y-77988906D01*
X130635981Y-78000500D01*
X130656016Y-78000500D01*
X130675413Y-78002026D01*
X130695196Y-78005160D01*
X130741584Y-78000775D01*
X130747422Y-78000500D01*
X133362257Y-78000500D01*
X133377877Y-78002224D01*
X133377904Y-78001939D01*
X133385660Y-78002671D01*
X133385667Y-78002673D01*
X133454814Y-78000500D01*
X133484350Y-78000500D01*
X133491228Y-77999630D01*
X133497041Y-77999172D01*
X133543627Y-77997709D01*
X133562869Y-77992117D01*
X133581912Y-77988174D01*
X133601792Y-77985664D01*
X133645122Y-77968507D01*
X133650646Y-77966617D01*
X133654396Y-77965527D01*
X133695390Y-77953618D01*
X133712629Y-77943422D01*
X133730103Y-77934862D01*
X133748727Y-77927488D01*
X133748727Y-77927487D01*
X133748732Y-77927486D01*
X133786449Y-77900082D01*
X133791305Y-77896892D01*
X133831420Y-77873170D01*
X133845589Y-77858999D01*
X133860379Y-77846368D01*
X133876587Y-77834594D01*
X133906299Y-77798676D01*
X133910212Y-77794376D01*
X134230205Y-77474383D01*
X134291526Y-77440900D01*
X134356887Y-77444359D01*
X134472949Y-77482819D01*
X134575737Y-77493320D01*
X135975754Y-77493319D01*
X136078543Y-77482819D01*
X136245080Y-77427634D01*
X136372112Y-77349280D01*
X136437207Y-77330820D01*
X136654285Y-77330820D01*
X136719379Y-77349280D01*
X136846412Y-77427634D01*
X137012949Y-77482819D01*
X137115737Y-77493320D01*
X138515754Y-77493319D01*
X138618543Y-77482819D01*
X138785080Y-77427634D01*
X138912112Y-77349280D01*
X138977207Y-77330820D01*
X139194285Y-77330820D01*
X139259379Y-77349280D01*
X139386412Y-77427634D01*
X139552949Y-77482819D01*
X139655737Y-77493320D01*
X141055754Y-77493319D01*
X141158543Y-77482819D01*
X141325080Y-77427634D01*
X141452112Y-77349280D01*
X141517207Y-77330820D01*
X141734285Y-77330820D01*
X141799379Y-77349280D01*
X141926412Y-77427634D01*
X142092949Y-77482819D01*
X142195737Y-77493320D01*
X142592463Y-77493319D01*
X142659502Y-77513003D01*
X142680144Y-77529638D01*
X143248974Y-78098468D01*
X143310367Y-78163053D01*
X143310370Y-78163055D01*
X143310373Y-78163058D01*
X143344479Y-78186795D01*
X143360729Y-78198106D01*
X143364470Y-78200926D01*
X143412019Y-78239698D01*
X143442471Y-78255604D01*
X143449184Y-78259672D01*
X143477377Y-78279295D01*
X143533755Y-78303489D01*
X143538004Y-78305507D01*
X143592377Y-78333909D01*
X143619915Y-78341788D01*
X143625400Y-78343358D01*
X143632794Y-78345990D01*
X143664368Y-78359540D01*
X143664371Y-78359540D01*
X143664372Y-78359541D01*
X143724448Y-78371887D01*
X143729026Y-78373010D01*
X143731130Y-78373612D01*
X143788008Y-78389887D01*
X143822265Y-78392495D01*
X143830040Y-78393586D01*
X143863681Y-78400500D01*
X143863685Y-78400500D01*
X143925024Y-78400500D01*
X143929730Y-78400678D01*
X143957021Y-78402757D01*
X143990901Y-78405337D01*
X143990901Y-78405336D01*
X143990902Y-78405337D01*
X144024985Y-78400996D01*
X144032815Y-78400500D01*
X145264340Y-78400500D01*
X145353414Y-78402757D01*
X145353414Y-78402756D01*
X145353419Y-78402757D01*
X145413809Y-78391932D01*
X145418468Y-78391280D01*
X145460663Y-78386988D01*
X145479494Y-78385074D01*
X145512283Y-78374786D01*
X145519896Y-78372918D01*
X145553709Y-78366858D01*
X145610677Y-78344101D01*
X145615109Y-78342524D01*
X145673644Y-78324159D01*
X145703683Y-78307484D01*
X145710764Y-78304122D01*
X145742673Y-78291377D01*
X145793910Y-78257608D01*
X145797907Y-78255187D01*
X145851558Y-78225409D01*
X145877624Y-78203030D01*
X145883899Y-78198300D01*
X145884201Y-78198101D01*
X145912575Y-78179402D01*
X145955941Y-78136034D01*
X145959399Y-78132830D01*
X145999425Y-78098468D01*
X146005951Y-78092866D01*
X146026984Y-78065691D01*
X146032154Y-78059821D01*
X146678468Y-77413507D01*
X146743053Y-77352115D01*
X146778099Y-77301762D01*
X146780938Y-77297997D01*
X146791860Y-77284602D01*
X146819698Y-77250463D01*
X146835601Y-77220016D01*
X146839674Y-77213295D01*
X146844489Y-77206376D01*
X146859295Y-77185105D01*
X146883492Y-77128716D01*
X146885498Y-77124491D01*
X146913909Y-77070105D01*
X146923360Y-77037071D01*
X146925991Y-77029684D01*
X146939540Y-76998114D01*
X146951893Y-76937996D01*
X146953006Y-76933468D01*
X146969887Y-76874474D01*
X146972495Y-76840211D01*
X146973587Y-76832432D01*
X146974573Y-76827639D01*
X146980500Y-76798797D01*
X146980500Y-76737457D01*
X146980679Y-76732748D01*
X146985337Y-76671582D01*
X146980997Y-76637498D01*
X146980500Y-76629659D01*
X146980500Y-73889342D01*
X146982757Y-73800285D01*
X146982756Y-73800284D01*
X146982757Y-73800281D01*
X146971933Y-73739893D01*
X146971280Y-73735231D01*
X146965074Y-73674207D01*
X146963076Y-73667839D01*
X146954784Y-73641412D01*
X146952917Y-73633799D01*
X146946858Y-73599991D01*
X146946857Y-73599989D01*
X146924102Y-73543023D01*
X146922521Y-73538582D01*
X146904157Y-73480051D01*
X146887488Y-73450022D01*
X146884117Y-73442922D01*
X146871378Y-73411030D01*
X146871377Y-73411027D01*
X146837620Y-73359807D01*
X146835180Y-73355778D01*
X146824379Y-73336319D01*
X146805409Y-73302142D01*
X146805407Y-73302139D01*
X146783033Y-73276078D01*
X146778302Y-73269803D01*
X146759402Y-73241125D01*
X146716012Y-73197735D01*
X146712822Y-73194292D01*
X146672867Y-73147750D01*
X146672863Y-73147746D01*
X146645698Y-73126718D01*
X146639811Y-73121534D01*
X144440724Y-70922448D01*
X144407240Y-70861126D01*
X144412224Y-70791434D01*
X144421019Y-70772768D01*
X144493080Y-70647955D01*
X144551575Y-70467927D01*
X144571361Y-70279671D01*
X144551575Y-70091415D01*
X144493080Y-69911387D01*
X144398434Y-69747455D01*
X144271772Y-69606783D01*
X144218652Y-69568189D01*
X144152075Y-69519818D01*
X144109409Y-69464488D01*
X144103430Y-69394875D01*
X144136036Y-69333080D01*
X144196874Y-69298723D01*
X144224960Y-69295500D01*
X150132284Y-69295500D01*
X150221358Y-69297757D01*
X150221358Y-69297756D01*
X150221363Y-69297757D01*
X150281753Y-69286932D01*
X150286412Y-69286280D01*
X150328607Y-69281988D01*
X150347438Y-69280074D01*
X150380227Y-69269786D01*
X150387840Y-69267918D01*
X150421653Y-69261858D01*
X150478621Y-69239101D01*
X150483053Y-69237524D01*
X150541588Y-69219159D01*
X150571627Y-69202484D01*
X150578708Y-69199122D01*
X150610617Y-69186377D01*
X150661854Y-69152608D01*
X150665851Y-69150187D01*
X150719502Y-69120409D01*
X150745568Y-69098030D01*
X150751843Y-69093300D01*
X150780519Y-69074402D01*
X150823892Y-69031027D01*
X150827350Y-69027823D01*
X150830613Y-69025020D01*
X150873895Y-68987866D01*
X150894928Y-68960691D01*
X150900098Y-68954821D01*
X151847809Y-68007109D01*
X151847814Y-68007106D01*
X151858017Y-67996902D01*
X151858019Y-67996902D01*
X152366771Y-67488148D01*
X152431355Y-67426757D01*
X152466401Y-67376404D01*
X152469240Y-67372639D01*
X152472914Y-67368133D01*
X152508000Y-67325105D01*
X152523903Y-67294658D01*
X152527976Y-67287937D01*
X152537109Y-67274815D01*
X152547597Y-67259747D01*
X152571794Y-67203358D01*
X152573800Y-67199133D01*
X152602211Y-67144747D01*
X152611659Y-67111720D01*
X152614290Y-67104331D01*
X152627842Y-67072756D01*
X152640197Y-67012628D01*
X152641301Y-67008127D01*
X152658188Y-66949116D01*
X152660796Y-66914855D01*
X152661887Y-66907087D01*
X152668802Y-66873441D01*
X152668802Y-66812096D01*
X152668981Y-66807386D01*
X152673639Y-66746222D01*
X152669299Y-66712140D01*
X152668802Y-66704301D01*
X152668802Y-62176531D01*
X152671059Y-62087457D01*
X152671058Y-62087456D01*
X152671059Y-62087453D01*
X152660235Y-62027065D01*
X152659582Y-62022403D01*
X152653376Y-61961379D01*
X152653376Y-61961378D01*
X152643086Y-61928584D01*
X152641219Y-61920971D01*
X152635160Y-61887164D01*
X152635160Y-61887163D01*
X152612397Y-61830177D01*
X152610829Y-61825771D01*
X152601669Y-61796576D01*
X152592463Y-61767232D01*
X152592462Y-61767230D01*
X152575794Y-61737201D01*
X152572426Y-61730111D01*
X152559680Y-61698199D01*
X152525914Y-61646966D01*
X152523485Y-61642958D01*
X152493711Y-61589314D01*
X152471336Y-61563250D01*
X152466608Y-61556979D01*
X152447706Y-61528300D01*
X152447701Y-61528294D01*
X152423996Y-61504590D01*
X152404321Y-61484915D01*
X152401130Y-61481471D01*
X152361167Y-61434920D01*
X152333996Y-61413888D01*
X152328109Y-61408703D01*
X151767457Y-60848051D01*
X151706064Y-60783466D01*
X151678209Y-60764078D01*
X151655714Y-60748421D01*
X151651951Y-60745583D01*
X151604418Y-60706824D01*
X151604411Y-60706819D01*
X151573964Y-60690916D01*
X151567256Y-60686853D01*
X151539054Y-60667224D01*
X151539051Y-60667222D01*
X151539050Y-60667222D01*
X151539046Y-60667220D01*
X151482685Y-60643033D01*
X151478429Y-60641012D01*
X151424062Y-60612613D01*
X151424055Y-60612610D01*
X151424054Y-60612610D01*
X151414590Y-60609902D01*
X151391034Y-60603161D01*
X151383633Y-60600526D01*
X151356232Y-60588767D01*
X151302389Y-60544239D01*
X151281167Y-60477671D01*
X151299303Y-60410196D01*
X151317449Y-60387140D01*
X153372660Y-58331930D01*
X153433983Y-58298445D01*
X153503675Y-58303429D01*
X153559608Y-58345301D01*
X153584025Y-58410765D01*
X153584341Y-58419611D01*
X153584341Y-58420000D01*
X153604936Y-58655403D01*
X153604938Y-58655413D01*
X153666094Y-58883655D01*
X153666096Y-58883659D01*
X153666097Y-58883663D01*
X153765965Y-59097830D01*
X153765967Y-59097834D01*
X153901501Y-59291395D01*
X153901506Y-59291402D01*
X154068597Y-59458493D01*
X154068603Y-59458498D01*
X154254158Y-59588425D01*
X154297783Y-59643002D01*
X154304977Y-59712500D01*
X154273454Y-59774855D01*
X154254158Y-59791575D01*
X154068597Y-59921505D01*
X153901505Y-60088597D01*
X153765965Y-60282169D01*
X153765964Y-60282171D01*
X153666098Y-60496335D01*
X153666094Y-60496344D01*
X153604938Y-60724586D01*
X153604936Y-60724596D01*
X153584341Y-60959999D01*
X153584341Y-60960000D01*
X153604936Y-61195403D01*
X153604938Y-61195413D01*
X153666094Y-61423655D01*
X153666096Y-61423659D01*
X153666097Y-61423663D01*
X153762624Y-61630666D01*
X153765965Y-61637830D01*
X153765967Y-61637834D01*
X153901501Y-61831395D01*
X153901506Y-61831402D01*
X154068597Y-61998493D01*
X154068603Y-61998498D01*
X154254158Y-62128425D01*
X154297783Y-62183002D01*
X154304977Y-62252500D01*
X154273454Y-62314855D01*
X154254158Y-62331575D01*
X154068597Y-62461505D01*
X153901505Y-62628597D01*
X153765965Y-62822169D01*
X153765964Y-62822171D01*
X153666098Y-63036335D01*
X153666094Y-63036344D01*
X153604938Y-63264586D01*
X153604936Y-63264596D01*
X153584341Y-63499999D01*
X153584341Y-63500000D01*
X153604936Y-63735403D01*
X153604938Y-63735413D01*
X153666094Y-63963655D01*
X153666096Y-63963659D01*
X153666097Y-63963663D01*
X153697314Y-64030607D01*
X153765965Y-64177830D01*
X153765967Y-64177834D01*
X153901501Y-64371395D01*
X153901506Y-64371402D01*
X154068597Y-64538493D01*
X154068603Y-64538498D01*
X154254158Y-64668425D01*
X154297783Y-64723002D01*
X154304977Y-64792500D01*
X154273454Y-64854855D01*
X154254158Y-64871575D01*
X154068597Y-65001505D01*
X153901505Y-65168597D01*
X153765965Y-65362169D01*
X153765964Y-65362171D01*
X153666098Y-65576335D01*
X153666094Y-65576344D01*
X153604938Y-65804586D01*
X153604936Y-65804596D01*
X153584341Y-66039999D01*
X153584341Y-66040000D01*
X153604936Y-66275403D01*
X153604938Y-66275413D01*
X153666094Y-66503655D01*
X153666096Y-66503659D01*
X153666097Y-66503663D01*
X153737988Y-66657834D01*
X153765965Y-66717830D01*
X153765967Y-66717834D01*
X153901501Y-66911395D01*
X153901506Y-66911402D01*
X154068597Y-67078493D01*
X154068603Y-67078498D01*
X154254158Y-67208425D01*
X154297783Y-67263002D01*
X154304977Y-67332500D01*
X154273454Y-67394855D01*
X154254158Y-67411575D01*
X154068597Y-67541505D01*
X153901505Y-67708597D01*
X153765965Y-67902169D01*
X153765964Y-67902171D01*
X153666098Y-68116335D01*
X153666094Y-68116344D01*
X153604938Y-68344586D01*
X153604936Y-68344596D01*
X153584341Y-68579999D01*
X153584341Y-68580000D01*
X153604936Y-68815403D01*
X153604938Y-68815413D01*
X153666094Y-69043655D01*
X153666096Y-69043659D01*
X153666097Y-69043663D01*
X153732646Y-69186377D01*
X153765965Y-69257830D01*
X153765967Y-69257834D01*
X153843099Y-69367989D01*
X153896344Y-69444031D01*
X153901501Y-69451395D01*
X153901506Y-69451402D01*
X154068597Y-69618493D01*
X154068603Y-69618498D01*
X154254158Y-69748425D01*
X154297783Y-69803002D01*
X154304977Y-69872500D01*
X154273454Y-69934855D01*
X154254158Y-69951575D01*
X154068597Y-70081505D01*
X153901505Y-70248597D01*
X153765965Y-70442169D01*
X153765964Y-70442171D01*
X153666098Y-70656335D01*
X153666094Y-70656344D01*
X153604938Y-70884586D01*
X153604936Y-70884596D01*
X153584341Y-71119999D01*
X153584341Y-71120000D01*
X153604936Y-71355403D01*
X153604938Y-71355413D01*
X153666094Y-71583655D01*
X153666096Y-71583659D01*
X153666097Y-71583663D01*
X153736694Y-71735059D01*
X153765965Y-71797830D01*
X153765967Y-71797834D01*
X153901501Y-71991395D01*
X153901506Y-71991402D01*
X154068597Y-72158493D01*
X154068603Y-72158498D01*
X154254158Y-72288425D01*
X154297783Y-72343002D01*
X154304977Y-72412500D01*
X154273454Y-72474855D01*
X154254158Y-72491575D01*
X154068597Y-72621505D01*
X153901505Y-72788597D01*
X153765965Y-72982169D01*
X153765964Y-72982171D01*
X153666098Y-73196335D01*
X153666094Y-73196344D01*
X153604938Y-73424586D01*
X153604936Y-73424596D01*
X153584341Y-73659999D01*
X153584341Y-73660000D01*
X153604936Y-73895403D01*
X153604938Y-73895413D01*
X153666094Y-74123655D01*
X153666096Y-74123659D01*
X153666097Y-74123663D01*
X153704408Y-74205820D01*
X153765965Y-74337830D01*
X153765967Y-74337834D01*
X153901501Y-74531395D01*
X153901506Y-74531402D01*
X154068597Y-74698493D01*
X154068603Y-74698498D01*
X154254158Y-74828425D01*
X154297783Y-74883002D01*
X154304977Y-74952500D01*
X154273454Y-75014855D01*
X154254158Y-75031575D01*
X154068597Y-75161505D01*
X153901505Y-75328597D01*
X153765965Y-75522169D01*
X153765964Y-75522171D01*
X153666098Y-75736335D01*
X153666094Y-75736344D01*
X153604938Y-75964586D01*
X153604936Y-75964596D01*
X153584341Y-76199999D01*
X153584341Y-76200000D01*
X153604936Y-76435403D01*
X153604938Y-76435413D01*
X153666094Y-76663655D01*
X153666096Y-76663659D01*
X153666097Y-76663663D01*
X153744796Y-76832432D01*
X153765965Y-76877830D01*
X153765967Y-76877834D01*
X153872294Y-77029684D01*
X153901505Y-77071401D01*
X154068599Y-77238495D01*
X154134447Y-77284602D01*
X154262165Y-77374032D01*
X154262167Y-77374033D01*
X154262170Y-77374035D01*
X154476337Y-77473903D01*
X154476343Y-77473904D01*
X154476344Y-77473905D01*
X154509612Y-77482819D01*
X154704592Y-77535063D01*
X154892918Y-77551539D01*
X154939999Y-77555659D01*
X154940000Y-77555659D01*
X154940001Y-77555659D01*
X154979234Y-77552226D01*
X155175408Y-77535063D01*
X155403663Y-77473903D01*
X155617830Y-77374035D01*
X155811401Y-77238495D01*
X155978495Y-77071401D01*
X156114035Y-76877830D01*
X156213903Y-76663663D01*
X156275063Y-76435408D01*
X156295659Y-76200000D01*
X156275063Y-75964592D01*
X156213903Y-75736337D01*
X156114035Y-75522171D01*
X156107469Y-75512793D01*
X155978494Y-75328597D01*
X155811402Y-75161506D01*
X155811396Y-75161501D01*
X155625842Y-75031575D01*
X155582217Y-74976998D01*
X155575023Y-74907500D01*
X155606546Y-74845145D01*
X155625842Y-74828425D01*
X155659172Y-74805087D01*
X155811401Y-74698495D01*
X155978495Y-74531401D01*
X156114035Y-74337830D01*
X156213903Y-74123663D01*
X156275063Y-73895408D01*
X156295659Y-73660000D01*
X158854422Y-73660000D01*
X158874722Y-74047339D01*
X158886811Y-74123664D01*
X158935398Y-74430433D01*
X158962452Y-74531402D01*
X159035788Y-74805094D01*
X159174787Y-75167197D01*
X159350877Y-75512793D01*
X159562122Y-75838082D01*
X159678684Y-75982024D01*
X159806219Y-76139516D01*
X160080484Y-76413781D01*
X160168485Y-76485043D01*
X160381917Y-76657877D01*
X160656654Y-76836293D01*
X160707211Y-76869125D01*
X161052806Y-77045214D01*
X161414913Y-77184214D01*
X161789567Y-77284602D01*
X162172662Y-77345278D01*
X162538576Y-77364455D01*
X162559999Y-77365578D01*
X162560000Y-77365578D01*
X162560001Y-77365578D01*
X162580301Y-77364514D01*
X162947338Y-77345278D01*
X163330433Y-77284602D01*
X163705087Y-77184214D01*
X164067194Y-77045214D01*
X164412789Y-76869125D01*
X164738084Y-76657876D01*
X165039516Y-76413781D01*
X165313781Y-76139516D01*
X165557876Y-75838084D01*
X165769125Y-75512789D01*
X165945214Y-75167194D01*
X166084214Y-74805087D01*
X166184602Y-74430433D01*
X166245278Y-74047338D01*
X166265578Y-73660000D01*
X166245278Y-73272662D01*
X166184602Y-72889567D01*
X166084214Y-72514913D01*
X165945214Y-72152806D01*
X165769125Y-71807211D01*
X165763033Y-71797830D01*
X165557877Y-71481917D01*
X165313784Y-71180488D01*
X165313781Y-71180484D01*
X165039516Y-70906219D01*
X164923026Y-70811887D01*
X164738082Y-70662122D01*
X164412793Y-70450877D01*
X164067197Y-70274787D01*
X163705094Y-70135788D01*
X163705087Y-70135786D01*
X163330433Y-70035398D01*
X163330429Y-70035397D01*
X163330428Y-70035397D01*
X162947339Y-69974722D01*
X162560001Y-69954422D01*
X162559999Y-69954422D01*
X162172660Y-69974722D01*
X161789572Y-70035397D01*
X161789570Y-70035397D01*
X161414905Y-70135788D01*
X161052802Y-70274787D01*
X160707206Y-70450877D01*
X160381917Y-70662122D01*
X160080488Y-70906215D01*
X160080480Y-70906222D01*
X159806222Y-71180480D01*
X159806215Y-71180488D01*
X159562122Y-71481917D01*
X159350877Y-71807206D01*
X159174787Y-72152802D01*
X159035788Y-72514905D01*
X158935397Y-72889570D01*
X158935397Y-72889572D01*
X158874722Y-73272660D01*
X158854422Y-73659999D01*
X158854422Y-73660000D01*
X156295659Y-73660000D01*
X156275063Y-73424592D01*
X156213903Y-73196337D01*
X156114035Y-72982171D01*
X156049196Y-72889570D01*
X155978494Y-72788597D01*
X155811402Y-72621506D01*
X155811396Y-72621501D01*
X155625842Y-72491575D01*
X155582217Y-72436998D01*
X155575023Y-72367500D01*
X155606546Y-72305145D01*
X155625842Y-72288425D01*
X155745242Y-72204820D01*
X155811401Y-72158495D01*
X155978495Y-71991401D01*
X156114035Y-71797830D01*
X156213903Y-71583663D01*
X156275063Y-71355408D01*
X156295659Y-71120000D01*
X156275063Y-70884592D01*
X156213903Y-70656337D01*
X156114035Y-70442171D01*
X155996832Y-70274786D01*
X155978494Y-70248597D01*
X155811402Y-70081506D01*
X155811396Y-70081501D01*
X155625842Y-69951575D01*
X155582217Y-69896998D01*
X155575023Y-69827500D01*
X155606546Y-69765145D01*
X155625842Y-69748425D01*
X155648026Y-69732891D01*
X155811401Y-69618495D01*
X155978495Y-69451401D01*
X156114035Y-69257830D01*
X156213903Y-69043663D01*
X156275063Y-68815408D01*
X156295659Y-68580000D01*
X156275063Y-68344592D01*
X156215096Y-68120790D01*
X156213905Y-68116344D01*
X156213904Y-68116343D01*
X156213903Y-68116337D01*
X156114035Y-67902171D01*
X155978495Y-67708599D01*
X155978494Y-67708597D01*
X155811402Y-67541506D01*
X155811396Y-67541501D01*
X155625842Y-67411575D01*
X155582217Y-67356998D01*
X155575023Y-67287500D01*
X155606546Y-67225145D01*
X155625842Y-67208425D01*
X155716783Y-67144747D01*
X155811401Y-67078495D01*
X155978495Y-66911401D01*
X156114035Y-66717830D01*
X156213903Y-66503663D01*
X156275063Y-66275408D01*
X156295659Y-66040000D01*
X156275063Y-65804592D01*
X156213903Y-65576337D01*
X156114035Y-65362171D01*
X156103506Y-65347133D01*
X155978494Y-65168597D01*
X155811402Y-65001506D01*
X155811396Y-65001501D01*
X155625842Y-64871575D01*
X155582217Y-64816998D01*
X155575023Y-64747500D01*
X155606546Y-64685145D01*
X155625842Y-64668425D01*
X155697363Y-64618345D01*
X155811401Y-64538495D01*
X155978495Y-64371401D01*
X156114035Y-64177830D01*
X156213903Y-63963663D01*
X156275063Y-63735408D01*
X156295659Y-63500000D01*
X156275063Y-63264592D01*
X156213903Y-63036337D01*
X156114035Y-62822171D01*
X156098510Y-62799998D01*
X155978494Y-62628597D01*
X155811402Y-62461506D01*
X155811396Y-62461501D01*
X155625842Y-62331575D01*
X155582217Y-62276998D01*
X155575023Y-62207500D01*
X155606546Y-62145145D01*
X155625842Y-62128425D01*
X155684356Y-62087453D01*
X155811401Y-61998495D01*
X155978495Y-61831401D01*
X156114035Y-61637830D01*
X156213903Y-61423663D01*
X156275063Y-61195408D01*
X156295659Y-60960000D01*
X156275063Y-60724592D01*
X156220271Y-60520103D01*
X156213905Y-60496344D01*
X156213904Y-60496343D01*
X156213903Y-60496337D01*
X156114035Y-60282171D01*
X156087878Y-60244814D01*
X155978494Y-60088597D01*
X155811402Y-59921506D01*
X155811396Y-59921501D01*
X155625842Y-59791575D01*
X155582217Y-59736998D01*
X155575023Y-59667500D01*
X155606546Y-59605145D01*
X155625842Y-59588425D01*
X155648026Y-59572891D01*
X155811401Y-59458495D01*
X155978495Y-59291401D01*
X156114035Y-59097830D01*
X156213903Y-58883663D01*
X156275063Y-58655408D01*
X156295659Y-58420000D01*
X156275063Y-58184592D01*
X156213903Y-57956337D01*
X156114035Y-57742171D01*
X155991142Y-57566660D01*
X155978494Y-57548597D01*
X155811402Y-57381506D01*
X155811396Y-57381501D01*
X155625842Y-57251575D01*
X155582217Y-57196998D01*
X155575023Y-57127500D01*
X155606546Y-57065145D01*
X155625842Y-57048425D01*
X155648026Y-57032891D01*
X155811401Y-56918495D01*
X155978495Y-56751401D01*
X156114035Y-56557830D01*
X156213903Y-56343663D01*
X156275063Y-56115408D01*
X156295659Y-55880000D01*
X156275063Y-55644592D01*
X156213903Y-55416337D01*
X156114035Y-55202171D01*
X156088086Y-55165111D01*
X155978494Y-55008597D01*
X155811402Y-54841506D01*
X155811396Y-54841501D01*
X155625842Y-54711575D01*
X155582217Y-54656998D01*
X155575023Y-54587500D01*
X155606546Y-54525145D01*
X155625842Y-54508425D01*
X155661416Y-54483516D01*
X155811401Y-54378495D01*
X155978495Y-54211401D01*
X156114035Y-54017830D01*
X156213903Y-53803663D01*
X156275063Y-53575408D01*
X156295659Y-53340000D01*
X156275063Y-53104592D01*
X156213903Y-52876337D01*
X156114035Y-52662171D01*
X156107523Y-52652870D01*
X155978494Y-52468597D01*
X155811402Y-52301506D01*
X155811396Y-52301501D01*
X155625842Y-52171575D01*
X155582217Y-52116998D01*
X155575023Y-52047500D01*
X155606546Y-51985145D01*
X155625842Y-51968425D01*
X155698936Y-51917244D01*
X155811401Y-51838495D01*
X155978495Y-51671401D01*
X156114035Y-51477830D01*
X156152788Y-51394722D01*
X156198957Y-51342287D01*
X156266151Y-51323135D01*
X156333032Y-51343350D01*
X156377549Y-51394725D01*
X156392895Y-51427633D01*
X156392898Y-51427639D01*
X156518402Y-51606877D01*
X156673123Y-51761598D01*
X156852361Y-51887102D01*
X157050670Y-51979575D01*
X157262023Y-52036207D01*
X157444926Y-52052208D01*
X157479998Y-52055277D01*
X157480000Y-52055277D01*
X157480002Y-52055277D01*
X157508254Y-52052805D01*
X157697977Y-52036207D01*
X157909330Y-51979575D01*
X158107639Y-51887102D01*
X158286877Y-51761598D01*
X158441598Y-51606877D01*
X158567102Y-51427639D01*
X158659575Y-51229330D01*
X158716207Y-51017977D01*
X158735277Y-50800000D01*
X158735275Y-50799980D01*
X158725492Y-50688159D01*
X158716207Y-50582023D01*
X158660254Y-50373203D01*
X158659577Y-50370677D01*
X158659576Y-50370676D01*
X158659575Y-50370670D01*
X158567102Y-50172362D01*
X158567100Y-50172359D01*
X158567099Y-50172357D01*
X158441599Y-49993124D01*
X158369041Y-49920566D01*
X158286877Y-49838402D01*
X158107639Y-49712898D01*
X158107640Y-49712898D01*
X158107638Y-49712897D01*
X157991477Y-49658731D01*
X157909330Y-49620425D01*
X157909326Y-49620424D01*
X157909322Y-49620422D01*
X157697977Y-49563793D01*
X157480002Y-49544723D01*
X157479998Y-49544723D01*
X157334682Y-49557436D01*
X157262023Y-49563793D01*
X157262021Y-49563793D01*
X157262017Y-49563794D01*
X157225775Y-49573505D01*
X157155925Y-49571842D01*
X157106002Y-49541411D01*
X156805803Y-49241212D01*
X156795980Y-49228950D01*
X156795759Y-49229134D01*
X156790786Y-49223123D01*
X156788354Y-49220839D01*
X156740364Y-49175773D01*
X156729919Y-49165328D01*
X156719475Y-49154883D01*
X156713986Y-49150625D01*
X156709561Y-49146847D01*
X156675582Y-49114938D01*
X156675580Y-49114936D01*
X156675577Y-49114935D01*
X156658029Y-49105288D01*
X156641763Y-49094604D01*
X156625933Y-49082325D01*
X156583168Y-49063818D01*
X156577922Y-49061248D01*
X156537093Y-49038803D01*
X156537092Y-49038802D01*
X156517693Y-49033822D01*
X156499281Y-49027518D01*
X156480898Y-49019562D01*
X156480892Y-49019560D01*
X156434874Y-49012272D01*
X156429152Y-49011087D01*
X156384021Y-48999500D01*
X156384019Y-48999500D01*
X156363984Y-48999500D01*
X156344586Y-48997973D01*
X156337162Y-48996797D01*
X156324805Y-48994840D01*
X156324804Y-48994840D01*
X156292061Y-48997935D01*
X156223466Y-48984646D01*
X156172946Y-48936382D01*
X156156538Y-48868466D01*
X156168010Y-48822080D01*
X156213903Y-48723663D01*
X156275063Y-48495408D01*
X156295659Y-48260000D01*
X156275063Y-48024592D01*
X156213903Y-47796337D01*
X156178684Y-47720811D01*
X156176366Y-47715839D01*
X156165874Y-47646761D01*
X156194394Y-47582977D01*
X156252870Y-47544738D01*
X156288748Y-47539434D01*
X158866851Y-47539434D01*
X158933890Y-47559119D01*
X158968423Y-47592308D01*
X159058402Y-47720811D01*
X159213123Y-47875532D01*
X159392361Y-48001036D01*
X159590670Y-48093509D01*
X159802023Y-48150141D01*
X159984926Y-48166142D01*
X160019998Y-48169211D01*
X160020000Y-48169211D01*
X160020002Y-48169211D01*
X160048254Y-48166739D01*
X160237977Y-48150141D01*
X160449330Y-48093509D01*
X160647639Y-48001036D01*
X160826877Y-47875532D01*
X160981598Y-47720811D01*
X161107102Y-47541573D01*
X161199575Y-47343264D01*
X161256207Y-47131911D01*
X161274067Y-46927765D01*
X161275277Y-46913936D01*
X161275277Y-46913931D01*
X161270362Y-46857753D01*
X161256207Y-46695957D01*
X161199575Y-46484604D01*
X161107102Y-46286296D01*
X161107100Y-46286293D01*
X161107099Y-46286291D01*
X160981599Y-46107058D01*
X160904285Y-46029744D01*
X160826877Y-45952336D01*
X160675105Y-45846064D01*
X160647638Y-45826831D01*
X160491360Y-45753958D01*
X160449330Y-45734359D01*
X160449326Y-45734358D01*
X160449322Y-45734356D01*
X160237977Y-45677727D01*
X160020002Y-45658657D01*
X160019998Y-45658657D01*
X159874682Y-45671370D01*
X159802023Y-45677727D01*
X159802020Y-45677727D01*
X159590677Y-45734356D01*
X159590668Y-45734360D01*
X159392361Y-45826832D01*
X159392357Y-45826834D01*
X159213121Y-45952336D01*
X159058402Y-46107055D01*
X158968425Y-46235557D01*
X158913848Y-46279182D01*
X158866850Y-46288434D01*
X156347430Y-46288434D01*
X156280391Y-46268749D01*
X156234636Y-46215945D01*
X156224692Y-46146787D01*
X156227655Y-46132341D01*
X156255172Y-46029644D01*
X156275063Y-45955408D01*
X156295659Y-45720000D01*
X156293878Y-45699649D01*
X156281928Y-45563061D01*
X156275063Y-45484592D01*
X156213903Y-45256337D01*
X156114035Y-45042171D01*
X156039590Y-44935851D01*
X155978494Y-44848597D01*
X155811402Y-44681506D01*
X155811396Y-44681501D01*
X155625842Y-44551575D01*
X155582217Y-44496998D01*
X155575023Y-44427500D01*
X155606546Y-44365145D01*
X155625842Y-44348425D01*
X155689570Y-44303802D01*
X155811401Y-44218495D01*
X155978495Y-44051401D01*
X156114035Y-43857830D01*
X156213903Y-43643663D01*
X156275063Y-43415408D01*
X156295659Y-43180000D01*
X156275063Y-42944592D01*
X156213903Y-42716337D01*
X156114035Y-42502171D01*
X156051770Y-42413246D01*
X155978494Y-42308597D01*
X155811402Y-42141506D01*
X155811396Y-42141501D01*
X155625842Y-42011575D01*
X155582217Y-41956998D01*
X155575023Y-41887500D01*
X155606546Y-41825145D01*
X155625842Y-41808425D01*
X155681897Y-41769175D01*
X155811401Y-41678495D01*
X155978495Y-41511401D01*
X156114035Y-41317830D01*
X156213903Y-41103663D01*
X156275063Y-40875408D01*
X156295659Y-40640000D01*
X156275063Y-40404592D01*
X156213903Y-40176337D01*
X156114035Y-39962171D01*
X156093386Y-39932680D01*
X155978494Y-39768597D01*
X155811402Y-39601506D01*
X155811396Y-39601501D01*
X155625842Y-39471575D01*
X155582217Y-39416998D01*
X155575023Y-39347500D01*
X155606546Y-39285145D01*
X155625842Y-39268425D01*
X155648026Y-39252891D01*
X155811401Y-39138495D01*
X155978495Y-38971401D01*
X156114035Y-38777830D01*
X156213903Y-38563663D01*
X156275063Y-38335408D01*
X156295659Y-38100000D01*
X156275063Y-37864592D01*
X156213903Y-37636337D01*
X156114035Y-37422171D01*
X156039590Y-37315851D01*
X155978494Y-37228597D01*
X155811402Y-37061506D01*
X155811396Y-37061501D01*
X155625842Y-36931575D01*
X155582217Y-36876998D01*
X155575023Y-36807500D01*
X155606546Y-36745145D01*
X155625842Y-36728425D01*
X155745553Y-36644602D01*
X155811401Y-36598495D01*
X155978495Y-36431401D01*
X156114035Y-36237830D01*
X156213903Y-36023663D01*
X156275063Y-35795408D01*
X156295659Y-35560000D01*
X156293878Y-35539649D01*
X156275063Y-35324596D01*
X156275063Y-35324592D01*
X156213903Y-35096337D01*
X156114035Y-34882171D01*
X156107469Y-34872793D01*
X155978494Y-34688597D01*
X155811402Y-34521506D01*
X155811396Y-34521501D01*
X155625842Y-34391575D01*
X155582217Y-34336998D01*
X155575023Y-34267500D01*
X155606546Y-34205145D01*
X155625842Y-34188425D01*
X155673763Y-34154870D01*
X155811401Y-34058495D01*
X155978495Y-33891401D01*
X156114035Y-33697830D01*
X156213903Y-33483663D01*
X156275063Y-33255408D01*
X156295659Y-33020000D01*
X158854422Y-33020000D01*
X158874722Y-33407339D01*
X158886811Y-33483664D01*
X158935398Y-33790433D01*
X158962452Y-33891402D01*
X159035788Y-34165094D01*
X159174787Y-34527197D01*
X159350877Y-34872793D01*
X159562122Y-35198082D01*
X159562124Y-35198084D01*
X159806219Y-35499516D01*
X160080484Y-35773781D01*
X160123855Y-35808902D01*
X160381917Y-36017877D01*
X160707206Y-36229122D01*
X160707211Y-36229125D01*
X161052806Y-36405214D01*
X161414913Y-36544214D01*
X161789567Y-36644602D01*
X162172662Y-36705278D01*
X162538576Y-36724455D01*
X162559999Y-36725578D01*
X162560000Y-36725578D01*
X162560001Y-36725578D01*
X162580301Y-36724514D01*
X162947338Y-36705278D01*
X163330433Y-36644602D01*
X163705087Y-36544214D01*
X164067194Y-36405214D01*
X164412789Y-36229125D01*
X164738084Y-36017876D01*
X165039516Y-35773781D01*
X165313781Y-35499516D01*
X165557876Y-35198084D01*
X165769125Y-34872789D01*
X165945214Y-34527194D01*
X166084214Y-34165087D01*
X166184602Y-33790433D01*
X166245278Y-33407338D01*
X166265578Y-33020000D01*
X166245278Y-32632662D01*
X166184602Y-32249567D01*
X166084214Y-31874913D01*
X165945214Y-31512806D01*
X165769125Y-31167211D01*
X165769122Y-31167206D01*
X165557877Y-30841917D01*
X165313784Y-30540488D01*
X165313781Y-30540484D01*
X165039516Y-30266219D01*
X164738084Y-30022124D01*
X164738082Y-30022122D01*
X164412793Y-29810877D01*
X164067197Y-29634787D01*
X163705094Y-29495788D01*
X163705087Y-29495786D01*
X163330433Y-29395398D01*
X163330429Y-29395397D01*
X163330428Y-29395397D01*
X162947339Y-29334722D01*
X162560001Y-29314422D01*
X162559999Y-29314422D01*
X162172660Y-29334722D01*
X161789572Y-29395397D01*
X161789570Y-29395397D01*
X161414905Y-29495788D01*
X161052802Y-29634787D01*
X160707206Y-29810877D01*
X160381917Y-30022122D01*
X160080488Y-30266215D01*
X160080480Y-30266222D01*
X159806222Y-30540480D01*
X159806215Y-30540488D01*
X159562122Y-30841917D01*
X159350877Y-31167206D01*
X159174787Y-31512802D01*
X159035788Y-31874905D01*
X158935397Y-32249570D01*
X158935397Y-32249572D01*
X158874722Y-32632660D01*
X158854422Y-33019999D01*
X158854422Y-33020000D01*
X156295659Y-33020000D01*
X156275063Y-32784592D01*
X156213903Y-32556337D01*
X156114035Y-32342171D01*
X156078463Y-32291369D01*
X155978496Y-32148600D01*
X155978495Y-32148599D01*
X155856567Y-32026671D01*
X155823084Y-31965351D01*
X155828068Y-31895659D01*
X155869939Y-31839725D01*
X155900915Y-31822810D01*
X156032331Y-31773796D01*
X156147546Y-31687546D01*
X156233796Y-31572331D01*
X156284091Y-31437483D01*
X156290500Y-31377873D01*
X156290499Y-29582128D01*
X156284091Y-29522517D01*
X156236678Y-29395397D01*
X156233797Y-29387671D01*
X156233793Y-29387664D01*
X156147547Y-29272455D01*
X156147544Y-29272452D01*
X156032335Y-29186206D01*
X156032328Y-29186202D01*
X155897482Y-29135908D01*
X155897483Y-29135908D01*
X155837883Y-29129501D01*
X155837881Y-29129500D01*
X155837873Y-29129500D01*
X155837864Y-29129500D01*
X154042129Y-29129500D01*
X154042123Y-29129501D01*
X153982516Y-29135908D01*
X153847671Y-29186202D01*
X153847664Y-29186206D01*
X153732455Y-29272452D01*
X153732452Y-29272455D01*
X153646206Y-29387664D01*
X153646202Y-29387671D01*
X153595908Y-29522517D01*
X153589501Y-29582116D01*
X153589501Y-29582123D01*
X153589500Y-29582135D01*
X153589500Y-31377870D01*
X153589501Y-31377876D01*
X153595908Y-31437483D01*
X153646202Y-31572328D01*
X153646206Y-31572335D01*
X153732452Y-31687544D01*
X153732455Y-31687547D01*
X153847664Y-31773793D01*
X153847671Y-31773797D01*
X153979081Y-31822810D01*
X154035015Y-31864681D01*
X154059432Y-31930145D01*
X154044580Y-31998418D01*
X154023430Y-32026673D01*
X153901503Y-32148600D01*
X153765965Y-32342169D01*
X153765964Y-32342171D01*
X153666098Y-32556335D01*
X153666094Y-32556344D01*
X153604938Y-32784586D01*
X153604936Y-32784596D01*
X153584341Y-33019999D01*
X153584341Y-33020000D01*
X153604936Y-33255403D01*
X153604938Y-33255413D01*
X153666094Y-33483655D01*
X153666096Y-33483659D01*
X153666097Y-33483663D01*
X153681156Y-33515956D01*
X153765965Y-33697830D01*
X153765967Y-33697834D01*
X153901501Y-33891395D01*
X153901506Y-33891402D01*
X154068597Y-34058493D01*
X154068603Y-34058498D01*
X154254158Y-34188425D01*
X154297783Y-34243002D01*
X154304977Y-34312500D01*
X154273454Y-34374855D01*
X154254158Y-34391575D01*
X154068597Y-34521505D01*
X153901505Y-34688597D01*
X153765965Y-34882169D01*
X153765964Y-34882171D01*
X153666098Y-35096335D01*
X153666094Y-35096344D01*
X153604938Y-35324586D01*
X153604936Y-35324596D01*
X153584341Y-35559999D01*
X153584341Y-35560000D01*
X153604936Y-35795403D01*
X153604938Y-35795413D01*
X153666094Y-36023655D01*
X153666096Y-36023659D01*
X153666097Y-36023663D01*
X153698063Y-36092214D01*
X153765965Y-36237830D01*
X153765967Y-36237834D01*
X153901501Y-36431395D01*
X153901506Y-36431402D01*
X154068597Y-36598493D01*
X154068603Y-36598498D01*
X154254158Y-36728425D01*
X154297783Y-36783002D01*
X154304977Y-36852500D01*
X154273454Y-36914855D01*
X154254158Y-36931575D01*
X154068597Y-37061505D01*
X153901505Y-37228597D01*
X153765965Y-37422169D01*
X153765964Y-37422171D01*
X153666098Y-37636335D01*
X153666094Y-37636344D01*
X153604938Y-37864586D01*
X153604936Y-37864596D01*
X153584341Y-38099999D01*
X153584341Y-38100388D01*
X153584292Y-38100553D01*
X153583869Y-38105394D01*
X153582896Y-38105308D01*
X153564656Y-38167427D01*
X153511852Y-38213182D01*
X153442694Y-38223126D01*
X153379138Y-38194101D01*
X153372660Y-38188069D01*
X152450803Y-37266212D01*
X152440980Y-37253950D01*
X152440759Y-37254134D01*
X152435786Y-37248123D01*
X152414993Y-37228597D01*
X152385364Y-37200773D01*
X152374919Y-37190328D01*
X152364475Y-37179883D01*
X152358986Y-37175625D01*
X152354561Y-37171847D01*
X152320582Y-37139938D01*
X152320580Y-37139936D01*
X152320577Y-37139935D01*
X152303029Y-37130288D01*
X152286763Y-37119604D01*
X152270933Y-37107325D01*
X152228168Y-37088818D01*
X152222922Y-37086248D01*
X152182093Y-37063803D01*
X152182092Y-37063802D01*
X152162693Y-37058822D01*
X152144281Y-37052518D01*
X152125898Y-37044562D01*
X152125892Y-37044560D01*
X152079874Y-37037272D01*
X152074152Y-37036087D01*
X152029021Y-37024500D01*
X152029019Y-37024500D01*
X152008984Y-37024500D01*
X151989586Y-37022973D01*
X151982162Y-37021797D01*
X151969805Y-37019840D01*
X151969804Y-37019840D01*
X151923416Y-37024225D01*
X151917578Y-37024500D01*
X142152949Y-37024500D01*
X142137332Y-37022776D01*
X142137305Y-37023062D01*
X142129543Y-37022327D01*
X142060415Y-37024500D01*
X142030862Y-37024500D01*
X142030141Y-37024590D01*
X142023969Y-37025369D01*
X142018157Y-37025826D01*
X141963787Y-37027536D01*
X141963715Y-37025266D01*
X141905789Y-37017778D01*
X141852339Y-36972779D01*
X141831703Y-36906026D01*
X141850431Y-36838714D01*
X141868005Y-36816584D01*
X142187772Y-36496819D01*
X142249095Y-36463334D01*
X142275453Y-36460500D01*
X142334644Y-36460500D01*
X142334646Y-36460500D01*
X142519803Y-36421144D01*
X142692730Y-36344151D01*
X142845871Y-36232888D01*
X142972533Y-36092216D01*
X143067179Y-35928284D01*
X143125674Y-35748256D01*
X143145460Y-35560000D01*
X143125674Y-35371744D01*
X143067179Y-35191716D01*
X142972533Y-35027784D01*
X142845871Y-34887112D01*
X142845870Y-34887111D01*
X142692734Y-34775851D01*
X142692729Y-34775848D01*
X142519807Y-34698857D01*
X142519802Y-34698855D01*
X142374001Y-34667865D01*
X142334646Y-34659500D01*
X142145354Y-34659500D01*
X142112897Y-34666398D01*
X141960197Y-34698855D01*
X141960192Y-34698857D01*
X141787270Y-34775848D01*
X141787265Y-34775851D01*
X141634129Y-34887111D01*
X141507466Y-35027785D01*
X141412821Y-35191715D01*
X141412818Y-35191722D01*
X141369645Y-35324596D01*
X141354326Y-35371744D01*
X141340897Y-35499516D01*
X141336679Y-35539649D01*
X141310094Y-35604263D01*
X141301039Y-35614368D01*
X139752228Y-37163181D01*
X139690905Y-37196666D01*
X139664547Y-37199500D01*
X139605354Y-37199500D01*
X139572897Y-37206398D01*
X139420197Y-37238855D01*
X139420192Y-37238857D01*
X139247270Y-37315848D01*
X139247265Y-37315851D01*
X139094129Y-37427111D01*
X138967466Y-37567785D01*
X138872821Y-37731715D01*
X138872818Y-37731722D01*
X138829645Y-37864596D01*
X138814326Y-37911744D01*
X138794540Y-38100000D01*
X138814326Y-38288256D01*
X138814327Y-38288259D01*
X138872818Y-38468277D01*
X138872821Y-38468284D01*
X138967467Y-38632216D01*
X139069185Y-38745185D01*
X139094129Y-38772888D01*
X139247265Y-38884148D01*
X139247270Y-38884151D01*
X139420192Y-38961142D01*
X139420193Y-38961142D01*
X139420197Y-38961144D01*
X139571453Y-38993294D01*
X139632935Y-39026486D01*
X139666712Y-39087649D01*
X139662060Y-39157363D01*
X139633354Y-39202265D01*
X139509076Y-39326543D01*
X139496819Y-39336364D01*
X139497002Y-39336585D01*
X139490991Y-39341557D01*
X139443640Y-39391980D01*
X139422757Y-39412863D01*
X139422745Y-39412876D01*
X139418489Y-39418361D01*
X139414705Y-39422791D01*
X139382805Y-39456762D01*
X139382804Y-39456764D01*
X139373152Y-39474320D01*
X139362478Y-39490570D01*
X139350197Y-39506405D01*
X139350192Y-39506412D01*
X139331683Y-39549182D01*
X139329113Y-39554428D01*
X139306671Y-39595250D01*
X139301690Y-39614651D01*
X139295389Y-39633054D01*
X139287430Y-39651446D01*
X139287429Y-39651449D01*
X139280139Y-39697471D01*
X139278955Y-39703190D01*
X139267369Y-39748316D01*
X139267368Y-39748326D01*
X139267368Y-39768360D01*
X139265841Y-39787759D01*
X139262708Y-39807538D01*
X139262708Y-39807539D01*
X139267093Y-39853927D01*
X139267368Y-39859765D01*
X139267368Y-40475736D01*
X139247683Y-40542775D01*
X139235518Y-40558708D01*
X139160334Y-40642208D01*
X139065689Y-40806139D01*
X139065686Y-40806146D01*
X139020900Y-40943984D01*
X139007194Y-40986168D01*
X138999700Y-41057475D01*
X138987408Y-41174424D01*
X138994567Y-41242539D01*
X138981997Y-41311269D01*
X138934265Y-41362292D01*
X138871246Y-41379500D01*
X133419919Y-41379500D01*
X133352880Y-41359815D01*
X133307125Y-41307011D01*
X133297181Y-41237853D01*
X133307537Y-41203095D01*
X133308619Y-41200773D01*
X133353903Y-41103663D01*
X133415063Y-40875408D01*
X133435659Y-40640000D01*
X133415063Y-40404592D01*
X133353903Y-40176337D01*
X133254035Y-39962171D01*
X133233386Y-39932680D01*
X133118494Y-39768597D01*
X132951402Y-39601506D01*
X132951396Y-39601501D01*
X132765842Y-39471575D01*
X132722217Y-39416998D01*
X132715023Y-39347500D01*
X132746546Y-39285145D01*
X132765842Y-39268425D01*
X132788026Y-39252891D01*
X132951401Y-39138495D01*
X133118495Y-38971401D01*
X133254035Y-38777830D01*
X133353903Y-38563663D01*
X133415063Y-38335408D01*
X133435659Y-38100000D01*
X133415063Y-37864592D01*
X133353903Y-37636337D01*
X133254035Y-37422171D01*
X133179590Y-37315851D01*
X133118494Y-37228597D01*
X132951402Y-37061506D01*
X132951396Y-37061501D01*
X132765842Y-36931575D01*
X132722217Y-36876998D01*
X132715023Y-36807500D01*
X132746546Y-36745145D01*
X132765842Y-36728425D01*
X132885553Y-36644602D01*
X132951401Y-36598495D01*
X133118495Y-36431401D01*
X133254035Y-36237830D01*
X133353903Y-36023663D01*
X133415063Y-35795408D01*
X133435659Y-35560000D01*
X133433878Y-35539649D01*
X133415063Y-35324596D01*
X133415063Y-35324592D01*
X133353903Y-35096337D01*
X133254035Y-34882171D01*
X133247469Y-34872793D01*
X133118494Y-34688597D01*
X132951402Y-34521506D01*
X132951396Y-34521501D01*
X132765842Y-34391575D01*
X132722217Y-34336998D01*
X132715023Y-34267500D01*
X132746546Y-34205145D01*
X132765842Y-34188425D01*
X132813763Y-34154870D01*
X132951401Y-34058495D01*
X133118495Y-33891401D01*
X133254035Y-33697830D01*
X133353903Y-33483663D01*
X133415063Y-33255408D01*
X133435659Y-33020000D01*
X133415063Y-32784592D01*
X133353903Y-32556337D01*
X133254035Y-32342171D01*
X133218463Y-32291369D01*
X133118496Y-32148600D01*
X133118495Y-32148599D01*
X132996567Y-32026671D01*
X132963084Y-31965351D01*
X132968068Y-31895659D01*
X133009939Y-31839725D01*
X133040915Y-31822810D01*
X133172331Y-31773796D01*
X133287546Y-31687546D01*
X133373796Y-31572331D01*
X133424091Y-31437483D01*
X133430500Y-31377873D01*
X133430499Y-29582128D01*
X133424091Y-29522517D01*
X133376678Y-29395397D01*
X133373797Y-29387671D01*
X133373793Y-29387664D01*
X133287547Y-29272455D01*
X133287544Y-29272452D01*
X133172335Y-29186206D01*
X133172328Y-29186202D01*
X133037482Y-29135908D01*
X133037483Y-29135908D01*
X132977883Y-29129501D01*
X132977881Y-29129500D01*
X132977873Y-29129500D01*
X132977864Y-29129500D01*
X131182129Y-29129500D01*
X131182123Y-29129501D01*
X131122516Y-29135908D01*
X130987671Y-29186202D01*
X130987664Y-29186206D01*
X130872455Y-29272452D01*
X130872452Y-29272455D01*
X130786206Y-29387664D01*
X130786202Y-29387671D01*
X130735908Y-29522517D01*
X130729501Y-29582116D01*
X130729501Y-29582123D01*
X130729500Y-29582135D01*
X130729500Y-31377870D01*
X130729501Y-31377876D01*
X130735908Y-31437483D01*
X130786202Y-31572328D01*
X130786206Y-31572335D01*
X130872452Y-31687544D01*
X130872455Y-31687547D01*
X130987664Y-31773793D01*
X130987671Y-31773797D01*
X131119081Y-31822810D01*
X131175015Y-31864681D01*
X131199432Y-31930145D01*
X131184580Y-31998418D01*
X131163430Y-32026673D01*
X131041503Y-32148600D01*
X130905965Y-32342169D01*
X130905964Y-32342171D01*
X130806098Y-32556335D01*
X130806094Y-32556344D01*
X130744938Y-32784586D01*
X130744936Y-32784596D01*
X130724341Y-33019999D01*
X130724341Y-33020000D01*
X130744936Y-33255403D01*
X130744938Y-33255413D01*
X130806094Y-33483655D01*
X130806096Y-33483659D01*
X130806097Y-33483663D01*
X130821156Y-33515956D01*
X130905965Y-33697830D01*
X130905967Y-33697834D01*
X131041501Y-33891395D01*
X131041506Y-33891402D01*
X131208597Y-34058493D01*
X131208603Y-34058498D01*
X131394158Y-34188425D01*
X131437783Y-34243002D01*
X131444977Y-34312500D01*
X131413454Y-34374855D01*
X131394158Y-34391575D01*
X131208597Y-34521505D01*
X131041505Y-34688597D01*
X130905965Y-34882169D01*
X130905964Y-34882171D01*
X130806098Y-35096335D01*
X130806094Y-35096344D01*
X130744938Y-35324586D01*
X130744936Y-35324596D01*
X130724341Y-35559999D01*
X130724341Y-35560000D01*
X130744936Y-35795403D01*
X130744938Y-35795413D01*
X130806094Y-36023655D01*
X130806096Y-36023659D01*
X130806097Y-36023663D01*
X130838063Y-36092214D01*
X130905965Y-36237830D01*
X130905967Y-36237834D01*
X131041501Y-36431395D01*
X131041506Y-36431402D01*
X131208597Y-36598493D01*
X131208603Y-36598498D01*
X131394158Y-36728425D01*
X131437783Y-36783002D01*
X131444977Y-36852500D01*
X131413454Y-36914855D01*
X131394158Y-36931575D01*
X131208597Y-37061505D01*
X131041505Y-37228597D01*
X130905965Y-37422169D01*
X130905964Y-37422171D01*
X130806098Y-37636335D01*
X130806094Y-37636344D01*
X130744938Y-37864586D01*
X130744936Y-37864596D01*
X130724341Y-38099999D01*
X130724341Y-38100000D01*
X130744936Y-38335403D01*
X130744938Y-38335413D01*
X130806094Y-38563655D01*
X130806096Y-38563659D01*
X130806097Y-38563663D01*
X130838063Y-38632214D01*
X130905965Y-38777830D01*
X130905967Y-38777834D01*
X131041501Y-38971395D01*
X131041506Y-38971402D01*
X131208597Y-39138493D01*
X131208603Y-39138498D01*
X131394158Y-39268425D01*
X131437783Y-39323002D01*
X131444977Y-39392500D01*
X131413454Y-39454855D01*
X131394158Y-39471575D01*
X131208597Y-39601505D01*
X131041505Y-39768597D01*
X130905965Y-39962169D01*
X130905964Y-39962171D01*
X130806098Y-40176335D01*
X130806094Y-40176344D01*
X130744938Y-40404586D01*
X130744936Y-40404596D01*
X130724341Y-40639999D01*
X130724341Y-40640000D01*
X130744936Y-40875403D01*
X130744938Y-40875413D01*
X130806094Y-41103655D01*
X130806096Y-41103659D01*
X130806097Y-41103663D01*
X130852463Y-41203095D01*
X130905965Y-41317830D01*
X130905967Y-41317834D01*
X131041507Y-41511404D01*
X131041838Y-41511799D01*
X131041929Y-41512007D01*
X131044610Y-41515836D01*
X131043840Y-41516374D01*
X131069848Y-41575808D01*
X131058805Y-41644800D01*
X131034526Y-41679181D01*
X128431208Y-44282498D01*
X128418951Y-44292319D01*
X128419134Y-44292540D01*
X128413123Y-44297512D01*
X128365772Y-44347935D01*
X128344889Y-44368818D01*
X128344877Y-44368831D01*
X128340621Y-44374316D01*
X128336837Y-44378746D01*
X128304937Y-44412717D01*
X128304936Y-44412719D01*
X128295284Y-44430275D01*
X128284610Y-44446525D01*
X128272329Y-44462360D01*
X128272324Y-44462367D01*
X128253815Y-44505137D01*
X128251245Y-44510383D01*
X128228803Y-44551205D01*
X128223822Y-44570606D01*
X128217521Y-44589009D01*
X128209562Y-44607401D01*
X128209561Y-44607404D01*
X128202271Y-44653426D01*
X128201087Y-44659145D01*
X128189501Y-44704271D01*
X128189500Y-44704281D01*
X128189500Y-44724315D01*
X128187973Y-44743714D01*
X128184840Y-44763493D01*
X128184840Y-44763494D01*
X119380500Y-44763494D01*
X119380500Y-33020000D01*
X120754922Y-33020000D01*
X120775219Y-33407287D01*
X120835886Y-33790323D01*
X120835887Y-33790330D01*
X120936262Y-34164936D01*
X121075244Y-34526994D01*
X121251310Y-34872543D01*
X121462531Y-35197793D01*
X121671095Y-35455350D01*
X121671096Y-35455350D01*
X123162266Y-33964180D01*
X123325130Y-34154870D01*
X123515819Y-34317733D01*
X122024648Y-35808903D01*
X122024649Y-35808904D01*
X122282206Y-36017468D01*
X122607456Y-36228689D01*
X122953005Y-36404755D01*
X123315063Y-36543737D01*
X123689669Y-36644112D01*
X123689676Y-36644113D01*
X124072712Y-36704780D01*
X124459999Y-36725078D01*
X124460001Y-36725078D01*
X124847287Y-36704780D01*
X125230323Y-36644113D01*
X125230330Y-36644112D01*
X125604936Y-36543737D01*
X125966994Y-36404755D01*
X126312543Y-36228689D01*
X126637783Y-36017476D01*
X126637785Y-36017475D01*
X126895349Y-35808902D01*
X125404180Y-34317733D01*
X125594870Y-34154870D01*
X125757733Y-33964180D01*
X127248902Y-35455349D01*
X127457475Y-35197785D01*
X127457476Y-35197783D01*
X127668689Y-34872543D01*
X127844755Y-34526994D01*
X127983737Y-34164936D01*
X128084112Y-33790330D01*
X128084113Y-33790323D01*
X128144780Y-33407287D01*
X128165078Y-33020000D01*
X128165078Y-33019999D01*
X128144780Y-32632712D01*
X128084113Y-32249676D01*
X128084112Y-32249669D01*
X127983737Y-31875063D01*
X127844755Y-31513005D01*
X127668689Y-31167456D01*
X127457468Y-30842206D01*
X127248904Y-30584649D01*
X127248903Y-30584648D01*
X125757732Y-32075818D01*
X125594870Y-31885130D01*
X125404180Y-31722266D01*
X126895350Y-30231096D01*
X126895350Y-30231095D01*
X126637793Y-30022531D01*
X126312543Y-29811310D01*
X125966994Y-29635244D01*
X125604936Y-29496262D01*
X125230330Y-29395887D01*
X125230323Y-29395886D01*
X124847287Y-29335219D01*
X124460001Y-29314922D01*
X124459999Y-29314922D01*
X124072712Y-29335219D01*
X123689676Y-29395886D01*
X123689669Y-29395887D01*
X123315063Y-29496262D01*
X122953005Y-29635244D01*
X122607456Y-29811310D01*
X122282206Y-30022531D01*
X122024648Y-30231095D01*
X122024648Y-30231096D01*
X123515819Y-31722266D01*
X123325130Y-31885130D01*
X123162266Y-32075818D01*
X121671096Y-30584648D01*
X121671095Y-30584648D01*
X121462531Y-30842206D01*
X121251310Y-31167456D01*
X121075244Y-31513005D01*
X120936262Y-31875063D01*
X120835887Y-32249669D01*
X120835886Y-32249676D01*
X120775219Y-32632712D01*
X120754922Y-33019999D01*
X120754922Y-33020000D01*
X119380500Y-33020000D01*
X119380500Y-28064500D01*
X119400185Y-27997461D01*
X119452989Y-27951706D01*
X119504500Y-27940500D01*
X167515500Y-27940500D01*
X167582539Y-27960185D01*
G37*
%TD.AperFunction*%
%TD*%
M02*
