%TF.GenerationSoftware,KiCad,Pcbnew,7.0.9-7.0.9~ubuntu22.04.1*%
%TF.CreationDate,2023-12-11T18:25:34-06:00*%
%TF.ProjectId,ultrasonic_microphone,756c7472-6173-46f6-9e69-635f6d696372,rev?*%
%TF.SameCoordinates,Original*%
%TF.FileFunction,Soldermask,Bot*%
%TF.FilePolarity,Negative*%
%FSLAX46Y46*%
G04 Gerber Fmt 4.6, Leading zero omitted, Abs format (unit mm)*
G04 Created by KiCad (PCBNEW 7.0.9-7.0.9~ubuntu22.04.1) date 2023-12-11 18:25:34*
%MOMM*%
%LPD*%
G01*
G04 APERTURE LIST*
G04 Aperture macros list*
%AMRoundRect*
0 Rectangle with rounded corners*
0 $1 Rounding radius*
0 $2 $3 $4 $5 $6 $7 $8 $9 X,Y pos of 4 corners*
0 Add a 4 corners polygon primitive as box body*
4,1,4,$2,$3,$4,$5,$6,$7,$8,$9,$2,$3,0*
0 Add four circle primitives for the rounded corners*
1,1,$1+$1,$2,$3*
1,1,$1+$1,$4,$5*
1,1,$1+$1,$6,$7*
1,1,$1+$1,$8,$9*
0 Add four rect primitives between the rounded corners*
20,1,$1+$1,$2,$3,$4,$5,0*
20,1,$1+$1,$4,$5,$6,$7,0*
20,1,$1+$1,$6,$7,$8,$9,0*
20,1,$1+$1,$8,$9,$2,$3,0*%
G04 Aperture macros list end*
%ADD10R,1.358900X0.431800*%
%ADD11R,0.654800X0.249200*%
%ADD12R,1.000000X1.600000*%
%ADD13RoundRect,0.250000X-0.650000X0.412500X-0.650000X-0.412500X0.650000X-0.412500X0.650000X0.412500X0*%
%ADD14C,1.600000*%
%ADD15RoundRect,0.250000X0.475000X-0.337500X0.475000X0.337500X-0.475000X0.337500X-0.475000X-0.337500X0*%
%ADD16RoundRect,0.250000X-0.475000X0.337500X-0.475000X-0.337500X0.475000X-0.337500X0.475000X0.337500X0*%
%ADD17R,1.700000X1.700000*%
%ADD18O,1.700000X1.700000*%
%ADD19RoundRect,0.250000X-0.412500X-0.650000X0.412500X-0.650000X0.412500X0.650000X-0.412500X0.650000X0*%
G04 APERTURE END LIST*
D10*
%TO.C,U3*%
X144468850Y-45720000D03*
X144468850Y-46369998D03*
X144468850Y-47020000D03*
X144468850Y-47669998D03*
X140011150Y-47669998D03*
X140011150Y-47020000D03*
X140011150Y-46369998D03*
X140011150Y-45720000D03*
%TD*%
D11*
%TO.C,U4*%
X142240000Y-35762502D03*
X142240000Y-36412501D03*
X142240000Y-37062500D03*
X140285200Y-37062500D03*
X140285200Y-36412501D03*
X140285200Y-35762502D03*
D12*
X141262600Y-36412501D03*
%TD*%
D13*
%TO.C,C6*%
X139700000Y-73075000D03*
X139700000Y-76200000D03*
%TD*%
D14*
%TO.C,C13*%
X139700000Y-53340000D03*
X134700000Y-53340000D03*
%TD*%
%TO.C,C14*%
X149780000Y-55880000D03*
X144780000Y-55880000D03*
%TD*%
D15*
%TO.C,R5*%
X142240000Y-68115000D03*
X142240000Y-66040000D03*
%TD*%
D16*
%TO.C,C12*%
X144780000Y-36025000D03*
X144780000Y-38100000D03*
%TD*%
D17*
%TO.C,J2*%
X129540000Y-30480000D03*
D18*
X129540000Y-33020000D03*
X129540000Y-35560000D03*
X129540000Y-38100000D03*
X129540000Y-40640000D03*
X129540000Y-43180000D03*
X129540000Y-45720000D03*
X129540000Y-48260000D03*
X129540000Y-50800000D03*
X129540000Y-53340000D03*
X129540000Y-55880000D03*
X129540000Y-58420000D03*
X129540000Y-60960000D03*
X129540000Y-63500000D03*
X129540000Y-66040000D03*
X129540000Y-68580000D03*
X129540000Y-71120000D03*
X129540000Y-73660000D03*
X129540000Y-76200000D03*
%TD*%
D13*
%TO.C,C10*%
X134620000Y-73075000D03*
X134620000Y-76200000D03*
%TD*%
D16*
%TO.C,C5*%
X137160000Y-46185000D03*
X137160000Y-48260000D03*
%TD*%
D17*
%TO.C,J3*%
X146045000Y-66745000D03*
D18*
X148585000Y-66745000D03*
%TD*%
D13*
%TO.C,C7*%
X142240000Y-73075000D03*
X142240000Y-76200000D03*
%TD*%
D15*
%TO.C,C16*%
X137160000Y-38100000D03*
X137160000Y-36025000D03*
%TD*%
D19*
%TO.C,C11*%
X146735000Y-63500000D03*
X149860000Y-63500000D03*
%TD*%
D17*
%TO.C,J1*%
X154940000Y-30480000D03*
D18*
X154940000Y-33020000D03*
X154940000Y-35560000D03*
X154940000Y-38100000D03*
X154940000Y-40640000D03*
X154940000Y-43180000D03*
X154940000Y-45720000D03*
X154940000Y-48260000D03*
X154940000Y-50800000D03*
X154940000Y-53340000D03*
X154940000Y-55880000D03*
X154940000Y-58420000D03*
X154940000Y-60960000D03*
X154940000Y-63500000D03*
X154940000Y-66040000D03*
X154940000Y-68580000D03*
X154940000Y-71120000D03*
X154940000Y-73660000D03*
X154940000Y-76200000D03*
%TD*%
D13*
%TO.C,C8*%
X134620000Y-67017500D03*
X134620000Y-70142500D03*
%TD*%
%TO.C,C1*%
X147320000Y-44157500D03*
X147320000Y-47282500D03*
%TD*%
%TO.C,C9*%
X137160000Y-73075000D03*
X137160000Y-76200000D03*
%TD*%
M02*
