%TF.GenerationSoftware,KiCad,Pcbnew,7.0.9-7.0.9~ubuntu22.04.1*%
%TF.CreationDate,2023-12-17T20:48:01-06:00*%
%TF.ProjectId,ultrasonic_microphone,756c7472-6173-46f6-9e69-635f6d696372,rev?*%
%TF.SameCoordinates,Original*%
%TF.FileFunction,Legend,Bot*%
%TF.FilePolarity,Positive*%
%FSLAX46Y46*%
G04 Gerber Fmt 4.6, Leading zero omitted, Abs format (unit mm)*
G04 Created by KiCad (PCBNEW 7.0.9-7.0.9~ubuntu22.04.1) date 2023-12-17 20:48:01*
%MOMM*%
%LPD*%
G01*
G04 APERTURE LIST*
%ADD10C,0.150000*%
%ADD11C,0.152400*%
%ADD12C,0.120000*%
G04 APERTURE END LIST*
D10*
X152809595Y-28965494D02*
G75*
G03*
X152809595Y-28965494I-440302J0D01*
G01*
X149414624Y-73368747D02*
X149367005Y-73273509D01*
X149367005Y-73273509D02*
X149367005Y-73130652D01*
X149367005Y-73130652D02*
X149414624Y-72987795D01*
X149414624Y-72987795D02*
X149509862Y-72892557D01*
X149509862Y-72892557D02*
X149605100Y-72844938D01*
X149605100Y-72844938D02*
X149795576Y-72797319D01*
X149795576Y-72797319D02*
X149938433Y-72797319D01*
X149938433Y-72797319D02*
X150128909Y-72844938D01*
X150128909Y-72844938D02*
X150224147Y-72892557D01*
X150224147Y-72892557D02*
X150319386Y-72987795D01*
X150319386Y-72987795D02*
X150367005Y-73130652D01*
X150367005Y-73130652D02*
X150367005Y-73225890D01*
X150367005Y-73225890D02*
X150319386Y-73368747D01*
X150319386Y-73368747D02*
X150271766Y-73416366D01*
X150271766Y-73416366D02*
X149938433Y-73416366D01*
X149938433Y-73416366D02*
X149938433Y-73225890D01*
X150367005Y-73844938D02*
X149367005Y-73844938D01*
X149367005Y-73844938D02*
X150367005Y-74416366D01*
X150367005Y-74416366D02*
X149367005Y-74416366D01*
X150367005Y-74892557D02*
X149367005Y-74892557D01*
X149367005Y-74892557D02*
X149367005Y-75130652D01*
X149367005Y-75130652D02*
X149414624Y-75273509D01*
X149414624Y-75273509D02*
X149509862Y-75368747D01*
X149509862Y-75368747D02*
X149605100Y-75416366D01*
X149605100Y-75416366D02*
X149795576Y-75463985D01*
X149795576Y-75463985D02*
X149938433Y-75463985D01*
X149938433Y-75463985D02*
X150128909Y-75416366D01*
X150128909Y-75416366D02*
X150224147Y-75368747D01*
X150224147Y-75368747D02*
X150319386Y-75273509D01*
X150319386Y-75273509D02*
X150367005Y-75130652D01*
X150367005Y-75130652D02*
X150367005Y-74892557D01*
X147738323Y-72280166D02*
X147785942Y-72423023D01*
X147785942Y-72423023D02*
X147785942Y-72661118D01*
X147785942Y-72661118D02*
X147738323Y-72756356D01*
X147738323Y-72756356D02*
X147690703Y-72803975D01*
X147690703Y-72803975D02*
X147595465Y-72851594D01*
X147595465Y-72851594D02*
X147500227Y-72851594D01*
X147500227Y-72851594D02*
X147404989Y-72803975D01*
X147404989Y-72803975D02*
X147357370Y-72756356D01*
X147357370Y-72756356D02*
X147309751Y-72661118D01*
X147309751Y-72661118D02*
X147262132Y-72470642D01*
X147262132Y-72470642D02*
X147214513Y-72375404D01*
X147214513Y-72375404D02*
X147166894Y-72327785D01*
X147166894Y-72327785D02*
X147071656Y-72280166D01*
X147071656Y-72280166D02*
X146976418Y-72280166D01*
X146976418Y-72280166D02*
X146881180Y-72327785D01*
X146881180Y-72327785D02*
X146833561Y-72375404D01*
X146833561Y-72375404D02*
X146785942Y-72470642D01*
X146785942Y-72470642D02*
X146785942Y-72708737D01*
X146785942Y-72708737D02*
X146833561Y-72851594D01*
X147785942Y-73280166D02*
X146785942Y-73280166D01*
X146833561Y-74280165D02*
X146785942Y-74184927D01*
X146785942Y-74184927D02*
X146785942Y-74042070D01*
X146785942Y-74042070D02*
X146833561Y-73899213D01*
X146833561Y-73899213D02*
X146928799Y-73803975D01*
X146928799Y-73803975D02*
X147024037Y-73756356D01*
X147024037Y-73756356D02*
X147214513Y-73708737D01*
X147214513Y-73708737D02*
X147357370Y-73708737D01*
X147357370Y-73708737D02*
X147547846Y-73756356D01*
X147547846Y-73756356D02*
X147643084Y-73803975D01*
X147643084Y-73803975D02*
X147738323Y-73899213D01*
X147738323Y-73899213D02*
X147785942Y-74042070D01*
X147785942Y-74042070D02*
X147785942Y-74137308D01*
X147785942Y-74137308D02*
X147738323Y-74280165D01*
X147738323Y-74280165D02*
X147690703Y-74327784D01*
X147690703Y-74327784D02*
X147357370Y-74327784D01*
X147357370Y-74327784D02*
X147357370Y-74137308D01*
X147785942Y-74756356D02*
X146785942Y-74756356D01*
X146785942Y-74756356D02*
X147785942Y-75327784D01*
X147785942Y-75327784D02*
X146785942Y-75327784D01*
X147500227Y-75756356D02*
X147500227Y-76232546D01*
X147785942Y-75661118D02*
X146785942Y-75994451D01*
X146785942Y-75994451D02*
X147785942Y-76327784D01*
X147785942Y-77137308D02*
X147785942Y-76661118D01*
X147785942Y-76661118D02*
X146785942Y-76661118D01*
X141694819Y-45596058D02*
X142504342Y-45596058D01*
X142504342Y-45596058D02*
X142599580Y-45643677D01*
X142599580Y-45643677D02*
X142647200Y-45691296D01*
X142647200Y-45691296D02*
X142694819Y-45786534D01*
X142694819Y-45786534D02*
X142694819Y-45977010D01*
X142694819Y-45977010D02*
X142647200Y-46072248D01*
X142647200Y-46072248D02*
X142599580Y-46119867D01*
X142599580Y-46119867D02*
X142504342Y-46167486D01*
X142504342Y-46167486D02*
X141694819Y-46167486D01*
X141694819Y-47119867D02*
X141694819Y-46643677D01*
X141694819Y-46643677D02*
X142171009Y-46596058D01*
X142171009Y-46596058D02*
X142123390Y-46643677D01*
X142123390Y-46643677D02*
X142075771Y-46738915D01*
X142075771Y-46738915D02*
X142075771Y-46977010D01*
X142075771Y-46977010D02*
X142123390Y-47072248D01*
X142123390Y-47072248D02*
X142171009Y-47119867D01*
X142171009Y-47119867D02*
X142266247Y-47167486D01*
X142266247Y-47167486D02*
X142504342Y-47167486D01*
X142504342Y-47167486D02*
X142599580Y-47119867D01*
X142599580Y-47119867D02*
X142647200Y-47072248D01*
X142647200Y-47072248D02*
X142694819Y-46977010D01*
X142694819Y-46977010D02*
X142694819Y-46738915D01*
X142694819Y-46738915D02*
X142647200Y-46643677D01*
X142647200Y-46643677D02*
X142599580Y-46596058D01*
X144004918Y-43767163D02*
X144243013Y-43767163D01*
X144147775Y-43529068D02*
X144243013Y-43767163D01*
X144243013Y-43767163D02*
X144147775Y-44005258D01*
X144433489Y-43624306D02*
X144243013Y-43767163D01*
X144243013Y-43767163D02*
X144433489Y-43910020D01*
X140154819Y-66910833D02*
X139678628Y-66577500D01*
X140154819Y-66339405D02*
X139154819Y-66339405D01*
X139154819Y-66339405D02*
X139154819Y-66720357D01*
X139154819Y-66720357D02*
X139202438Y-66815595D01*
X139202438Y-66815595D02*
X139250057Y-66863214D01*
X139250057Y-66863214D02*
X139345295Y-66910833D01*
X139345295Y-66910833D02*
X139488152Y-66910833D01*
X139488152Y-66910833D02*
X139583390Y-66863214D01*
X139583390Y-66863214D02*
X139631009Y-66815595D01*
X139631009Y-66815595D02*
X139678628Y-66720357D01*
X139678628Y-66720357D02*
X139678628Y-66339405D01*
X139154819Y-67815595D02*
X139154819Y-67339405D01*
X139154819Y-67339405D02*
X139631009Y-67291786D01*
X139631009Y-67291786D02*
X139583390Y-67339405D01*
X139583390Y-67339405D02*
X139535771Y-67434643D01*
X139535771Y-67434643D02*
X139535771Y-67672738D01*
X139535771Y-67672738D02*
X139583390Y-67767976D01*
X139583390Y-67767976D02*
X139631009Y-67815595D01*
X139631009Y-67815595D02*
X139726247Y-67863214D01*
X139726247Y-67863214D02*
X139964342Y-67863214D01*
X139964342Y-67863214D02*
X140059580Y-67815595D01*
X140059580Y-67815595D02*
X140107200Y-67767976D01*
X140107200Y-67767976D02*
X140154819Y-67672738D01*
X140154819Y-67672738D02*
X140154819Y-67434643D01*
X140154819Y-67434643D02*
X140107200Y-67339405D01*
X140107200Y-67339405D02*
X140059580Y-67291786D01*
X148188095Y-53528179D02*
X148235715Y-53480560D01*
X148235715Y-53480560D02*
X148283334Y-53337703D01*
X148283334Y-53337703D02*
X148283334Y-53242465D01*
X148283334Y-53242465D02*
X148235715Y-53099608D01*
X148235715Y-53099608D02*
X148140476Y-53004370D01*
X148140476Y-53004370D02*
X148045238Y-52956751D01*
X148045238Y-52956751D02*
X147854762Y-52909132D01*
X147854762Y-52909132D02*
X147711905Y-52909132D01*
X147711905Y-52909132D02*
X147521429Y-52956751D01*
X147521429Y-52956751D02*
X147426191Y-53004370D01*
X147426191Y-53004370D02*
X147330953Y-53099608D01*
X147330953Y-53099608D02*
X147283334Y-53242465D01*
X147283334Y-53242465D02*
X147283334Y-53337703D01*
X147283334Y-53337703D02*
X147330953Y-53480560D01*
X147330953Y-53480560D02*
X147378572Y-53528179D01*
X147378572Y-53909132D02*
X147330953Y-53956751D01*
X147330953Y-53956751D02*
X147283334Y-54051989D01*
X147283334Y-54051989D02*
X147283334Y-54290084D01*
X147283334Y-54290084D02*
X147330953Y-54385322D01*
X147330953Y-54385322D02*
X147378572Y-54432941D01*
X147378572Y-54432941D02*
X147473810Y-54480560D01*
X147473810Y-54480560D02*
X147569048Y-54480560D01*
X147569048Y-54480560D02*
X147711905Y-54432941D01*
X147711905Y-54432941D02*
X148283334Y-53861513D01*
X148283334Y-53861513D02*
X148283334Y-54480560D01*
X147283334Y-55337703D02*
X147283334Y-55147227D01*
X147283334Y-55147227D02*
X147330953Y-55051989D01*
X147330953Y-55051989D02*
X147378572Y-55004370D01*
X147378572Y-55004370D02*
X147521429Y-54909132D01*
X147521429Y-54909132D02*
X147711905Y-54861513D01*
X147711905Y-54861513D02*
X148092857Y-54861513D01*
X148092857Y-54861513D02*
X148188095Y-54909132D01*
X148188095Y-54909132D02*
X148235715Y-54956751D01*
X148235715Y-54956751D02*
X148283334Y-55051989D01*
X148283334Y-55051989D02*
X148283334Y-55242465D01*
X148283334Y-55242465D02*
X148235715Y-55337703D01*
X148235715Y-55337703D02*
X148188095Y-55385322D01*
X148188095Y-55385322D02*
X148092857Y-55432941D01*
X148092857Y-55432941D02*
X147854762Y-55432941D01*
X147854762Y-55432941D02*
X147759524Y-55385322D01*
X147759524Y-55385322D02*
X147711905Y-55337703D01*
X147711905Y-55337703D02*
X147664286Y-55242465D01*
X147664286Y-55242465D02*
X147664286Y-55051989D01*
X147664286Y-55051989D02*
X147711905Y-54956751D01*
X147711905Y-54956751D02*
X147759524Y-54909132D01*
X147759524Y-54909132D02*
X147854762Y-54861513D01*
X141302430Y-50349427D02*
X141350050Y-50301808D01*
X141350050Y-50301808D02*
X141397669Y-50158951D01*
X141397669Y-50158951D02*
X141397669Y-50063713D01*
X141397669Y-50063713D02*
X141350050Y-49920856D01*
X141350050Y-49920856D02*
X141254811Y-49825618D01*
X141254811Y-49825618D02*
X141159573Y-49777999D01*
X141159573Y-49777999D02*
X140969097Y-49730380D01*
X140969097Y-49730380D02*
X140826240Y-49730380D01*
X140826240Y-49730380D02*
X140635764Y-49777999D01*
X140635764Y-49777999D02*
X140540526Y-49825618D01*
X140540526Y-49825618D02*
X140445288Y-49920856D01*
X140445288Y-49920856D02*
X140397669Y-50063713D01*
X140397669Y-50063713D02*
X140397669Y-50158951D01*
X140397669Y-50158951D02*
X140445288Y-50301808D01*
X140445288Y-50301808D02*
X140492907Y-50349427D01*
X141397669Y-51301808D02*
X141397669Y-50730380D01*
X141397669Y-51016094D02*
X140397669Y-51016094D01*
X140397669Y-51016094D02*
X140540526Y-50920856D01*
X140540526Y-50920856D02*
X140635764Y-50825618D01*
X140635764Y-50825618D02*
X140683383Y-50730380D01*
X140397669Y-51920856D02*
X140397669Y-52016094D01*
X140397669Y-52016094D02*
X140445288Y-52111332D01*
X140445288Y-52111332D02*
X140492907Y-52158951D01*
X140492907Y-52158951D02*
X140588145Y-52206570D01*
X140588145Y-52206570D02*
X140778621Y-52254189D01*
X140778621Y-52254189D02*
X141016716Y-52254189D01*
X141016716Y-52254189D02*
X141207192Y-52206570D01*
X141207192Y-52206570D02*
X141302430Y-52158951D01*
X141302430Y-52158951D02*
X141350050Y-52111332D01*
X141350050Y-52111332D02*
X141397669Y-52016094D01*
X141397669Y-52016094D02*
X141397669Y-51920856D01*
X141397669Y-51920856D02*
X141350050Y-51825618D01*
X141350050Y-51825618D02*
X141302430Y-51777999D01*
X141302430Y-51777999D02*
X141207192Y-51730380D01*
X141207192Y-51730380D02*
X141016716Y-51682761D01*
X141016716Y-51682761D02*
X140778621Y-51682761D01*
X140778621Y-51682761D02*
X140588145Y-51730380D01*
X140588145Y-51730380D02*
X140492907Y-51777999D01*
X140492907Y-51777999D02*
X140445288Y-51825618D01*
X140445288Y-51825618D02*
X140397669Y-51920856D01*
X144285857Y-51194642D02*
X144333477Y-51147023D01*
X144333477Y-51147023D02*
X144381096Y-51004166D01*
X144381096Y-51004166D02*
X144381096Y-50908928D01*
X144381096Y-50908928D02*
X144333477Y-50766071D01*
X144333477Y-50766071D02*
X144238238Y-50670833D01*
X144238238Y-50670833D02*
X144143000Y-50623214D01*
X144143000Y-50623214D02*
X143952524Y-50575595D01*
X143952524Y-50575595D02*
X143809667Y-50575595D01*
X143809667Y-50575595D02*
X143619191Y-50623214D01*
X143619191Y-50623214D02*
X143523953Y-50670833D01*
X143523953Y-50670833D02*
X143428715Y-50766071D01*
X143428715Y-50766071D02*
X143381096Y-50908928D01*
X143381096Y-50908928D02*
X143381096Y-51004166D01*
X143381096Y-51004166D02*
X143428715Y-51147023D01*
X143428715Y-51147023D02*
X143476334Y-51194642D01*
X143476334Y-51575595D02*
X143428715Y-51623214D01*
X143428715Y-51623214D02*
X143381096Y-51718452D01*
X143381096Y-51718452D02*
X143381096Y-51956547D01*
X143381096Y-51956547D02*
X143428715Y-52051785D01*
X143428715Y-52051785D02*
X143476334Y-52099404D01*
X143476334Y-52099404D02*
X143571572Y-52147023D01*
X143571572Y-52147023D02*
X143666810Y-52147023D01*
X143666810Y-52147023D02*
X143809667Y-52099404D01*
X143809667Y-52099404D02*
X144381096Y-51527976D01*
X144381096Y-51527976D02*
X144381096Y-52147023D01*
X143809667Y-52718452D02*
X143762048Y-52623214D01*
X143762048Y-52623214D02*
X143714429Y-52575595D01*
X143714429Y-52575595D02*
X143619191Y-52527976D01*
X143619191Y-52527976D02*
X143571572Y-52527976D01*
X143571572Y-52527976D02*
X143476334Y-52575595D01*
X143476334Y-52575595D02*
X143428715Y-52623214D01*
X143428715Y-52623214D02*
X143381096Y-52718452D01*
X143381096Y-52718452D02*
X143381096Y-52908928D01*
X143381096Y-52908928D02*
X143428715Y-53004166D01*
X143428715Y-53004166D02*
X143476334Y-53051785D01*
X143476334Y-53051785D02*
X143571572Y-53099404D01*
X143571572Y-53099404D02*
X143619191Y-53099404D01*
X143619191Y-53099404D02*
X143714429Y-53051785D01*
X143714429Y-53051785D02*
X143762048Y-53004166D01*
X143762048Y-53004166D02*
X143809667Y-52908928D01*
X143809667Y-52908928D02*
X143809667Y-52718452D01*
X143809667Y-52718452D02*
X143857286Y-52623214D01*
X143857286Y-52623214D02*
X143904905Y-52575595D01*
X143904905Y-52575595D02*
X144000143Y-52527976D01*
X144000143Y-52527976D02*
X144190619Y-52527976D01*
X144190619Y-52527976D02*
X144285857Y-52575595D01*
X144285857Y-52575595D02*
X144333477Y-52623214D01*
X144333477Y-52623214D02*
X144381096Y-52718452D01*
X144381096Y-52718452D02*
X144381096Y-52908928D01*
X144381096Y-52908928D02*
X144333477Y-53004166D01*
X144333477Y-53004166D02*
X144285857Y-53051785D01*
X144285857Y-53051785D02*
X144190619Y-53099404D01*
X144190619Y-53099404D02*
X144000143Y-53099404D01*
X144000143Y-53099404D02*
X143904905Y-53051785D01*
X143904905Y-53051785D02*
X143857286Y-53004166D01*
X143857286Y-53004166D02*
X143809667Y-52908928D01*
X135469468Y-29837309D02*
X135469468Y-30551594D01*
X135469468Y-30551594D02*
X135517087Y-30694451D01*
X135517087Y-30694451D02*
X135612325Y-30789690D01*
X135612325Y-30789690D02*
X135755182Y-30837309D01*
X135755182Y-30837309D02*
X135850420Y-30837309D01*
X135040896Y-29932547D02*
X134993277Y-29884928D01*
X134993277Y-29884928D02*
X134898039Y-29837309D01*
X134898039Y-29837309D02*
X134659944Y-29837309D01*
X134659944Y-29837309D02*
X134564706Y-29884928D01*
X134564706Y-29884928D02*
X134517087Y-29932547D01*
X134517087Y-29932547D02*
X134469468Y-30027785D01*
X134469468Y-30027785D02*
X134469468Y-30123023D01*
X134469468Y-30123023D02*
X134517087Y-30265880D01*
X134517087Y-30265880D02*
X135088515Y-30837309D01*
X135088515Y-30837309D02*
X134469468Y-30837309D01*
X134851915Y-49483710D02*
X134899535Y-49436091D01*
X134899535Y-49436091D02*
X134947154Y-49293234D01*
X134947154Y-49293234D02*
X134947154Y-49197996D01*
X134947154Y-49197996D02*
X134899535Y-49055139D01*
X134899535Y-49055139D02*
X134804296Y-48959901D01*
X134804296Y-48959901D02*
X134709058Y-48912282D01*
X134709058Y-48912282D02*
X134518582Y-48864663D01*
X134518582Y-48864663D02*
X134375725Y-48864663D01*
X134375725Y-48864663D02*
X134185249Y-48912282D01*
X134185249Y-48912282D02*
X134090011Y-48959901D01*
X134090011Y-48959901D02*
X133994773Y-49055139D01*
X133994773Y-49055139D02*
X133947154Y-49197996D01*
X133947154Y-49197996D02*
X133947154Y-49293234D01*
X133947154Y-49293234D02*
X133994773Y-49436091D01*
X133994773Y-49436091D02*
X134042392Y-49483710D01*
X134947154Y-50436091D02*
X134947154Y-49864663D01*
X134947154Y-50150377D02*
X133947154Y-50150377D01*
X133947154Y-50150377D02*
X134090011Y-50055139D01*
X134090011Y-50055139D02*
X134185249Y-49959901D01*
X134185249Y-49959901D02*
X134232868Y-49864663D01*
X133947154Y-51293234D02*
X133947154Y-51102758D01*
X133947154Y-51102758D02*
X133994773Y-51007520D01*
X133994773Y-51007520D02*
X134042392Y-50959901D01*
X134042392Y-50959901D02*
X134185249Y-50864663D01*
X134185249Y-50864663D02*
X134375725Y-50817044D01*
X134375725Y-50817044D02*
X134756677Y-50817044D01*
X134756677Y-50817044D02*
X134851915Y-50864663D01*
X134851915Y-50864663D02*
X134899535Y-50912282D01*
X134899535Y-50912282D02*
X134947154Y-51007520D01*
X134947154Y-51007520D02*
X134947154Y-51197996D01*
X134947154Y-51197996D02*
X134899535Y-51293234D01*
X134899535Y-51293234D02*
X134851915Y-51340853D01*
X134851915Y-51340853D02*
X134756677Y-51388472D01*
X134756677Y-51388472D02*
X134518582Y-51388472D01*
X134518582Y-51388472D02*
X134423344Y-51340853D01*
X134423344Y-51340853D02*
X134375725Y-51293234D01*
X134375725Y-51293234D02*
X134328106Y-51197996D01*
X134328106Y-51197996D02*
X134328106Y-51007520D01*
X134328106Y-51007520D02*
X134375725Y-50912282D01*
X134375725Y-50912282D02*
X134423344Y-50864663D01*
X134423344Y-50864663D02*
X134518582Y-50817044D01*
X150062484Y-53419779D02*
X150110104Y-53372160D01*
X150110104Y-53372160D02*
X150157723Y-53229303D01*
X150157723Y-53229303D02*
X150157723Y-53134065D01*
X150157723Y-53134065D02*
X150110104Y-52991208D01*
X150110104Y-52991208D02*
X150014865Y-52895970D01*
X150014865Y-52895970D02*
X149919627Y-52848351D01*
X149919627Y-52848351D02*
X149729151Y-52800732D01*
X149729151Y-52800732D02*
X149586294Y-52800732D01*
X149586294Y-52800732D02*
X149395818Y-52848351D01*
X149395818Y-52848351D02*
X149300580Y-52895970D01*
X149300580Y-52895970D02*
X149205342Y-52991208D01*
X149205342Y-52991208D02*
X149157723Y-53134065D01*
X149157723Y-53134065D02*
X149157723Y-53229303D01*
X149157723Y-53229303D02*
X149205342Y-53372160D01*
X149205342Y-53372160D02*
X149252961Y-53419779D01*
X149252961Y-53800732D02*
X149205342Y-53848351D01*
X149205342Y-53848351D02*
X149157723Y-53943589D01*
X149157723Y-53943589D02*
X149157723Y-54181684D01*
X149157723Y-54181684D02*
X149205342Y-54276922D01*
X149205342Y-54276922D02*
X149252961Y-54324541D01*
X149252961Y-54324541D02*
X149348199Y-54372160D01*
X149348199Y-54372160D02*
X149443437Y-54372160D01*
X149443437Y-54372160D02*
X149586294Y-54324541D01*
X149586294Y-54324541D02*
X150157723Y-53753113D01*
X150157723Y-53753113D02*
X150157723Y-54372160D01*
X149157723Y-54705494D02*
X149157723Y-55372160D01*
X149157723Y-55372160D02*
X150157723Y-54943589D01*
X158574526Y-45875212D02*
X158622145Y-45922832D01*
X158622145Y-45922832D02*
X158765002Y-45970451D01*
X158765002Y-45970451D02*
X158860240Y-45970451D01*
X158860240Y-45970451D02*
X159003097Y-45922832D01*
X159003097Y-45922832D02*
X159098335Y-45827593D01*
X159098335Y-45827593D02*
X159145954Y-45732355D01*
X159145954Y-45732355D02*
X159193573Y-45541879D01*
X159193573Y-45541879D02*
X159193573Y-45399022D01*
X159193573Y-45399022D02*
X159145954Y-45208546D01*
X159145954Y-45208546D02*
X159098335Y-45113308D01*
X159098335Y-45113308D02*
X159003097Y-45018070D01*
X159003097Y-45018070D02*
X158860240Y-44970451D01*
X158860240Y-44970451D02*
X158765002Y-44970451D01*
X158765002Y-44970451D02*
X158622145Y-45018070D01*
X158622145Y-45018070D02*
X158574526Y-45065689D01*
X158193573Y-45065689D02*
X158145954Y-45018070D01*
X158145954Y-45018070D02*
X158050716Y-44970451D01*
X158050716Y-44970451D02*
X157812621Y-44970451D01*
X157812621Y-44970451D02*
X157717383Y-45018070D01*
X157717383Y-45018070D02*
X157669764Y-45065689D01*
X157669764Y-45065689D02*
X157622145Y-45160927D01*
X157622145Y-45160927D02*
X157622145Y-45256165D01*
X157622145Y-45256165D02*
X157669764Y-45399022D01*
X157669764Y-45399022D02*
X158241192Y-45970451D01*
X158241192Y-45970451D02*
X157622145Y-45970451D01*
X156717383Y-44970451D02*
X157193573Y-44970451D01*
X157193573Y-44970451D02*
X157241192Y-45446641D01*
X157241192Y-45446641D02*
X157193573Y-45399022D01*
X157193573Y-45399022D02*
X157098335Y-45351403D01*
X157098335Y-45351403D02*
X156860240Y-45351403D01*
X156860240Y-45351403D02*
X156765002Y-45399022D01*
X156765002Y-45399022D02*
X156717383Y-45446641D01*
X156717383Y-45446641D02*
X156669764Y-45541879D01*
X156669764Y-45541879D02*
X156669764Y-45779974D01*
X156669764Y-45779974D02*
X156717383Y-45875212D01*
X156717383Y-45875212D02*
X156765002Y-45922832D01*
X156765002Y-45922832D02*
X156860240Y-45970451D01*
X156860240Y-45970451D02*
X157098335Y-45970451D01*
X157098335Y-45970451D02*
X157193573Y-45922832D01*
X157193573Y-45922832D02*
X157241192Y-45875212D01*
X135949134Y-78391764D02*
X135996753Y-78439384D01*
X135996753Y-78439384D02*
X136139610Y-78487003D01*
X136139610Y-78487003D02*
X136234848Y-78487003D01*
X136234848Y-78487003D02*
X136377705Y-78439384D01*
X136377705Y-78439384D02*
X136472943Y-78344145D01*
X136472943Y-78344145D02*
X136520562Y-78248907D01*
X136520562Y-78248907D02*
X136568181Y-78058431D01*
X136568181Y-78058431D02*
X136568181Y-77915574D01*
X136568181Y-77915574D02*
X136520562Y-77725098D01*
X136520562Y-77725098D02*
X136472943Y-77629860D01*
X136472943Y-77629860D02*
X136377705Y-77534622D01*
X136377705Y-77534622D02*
X136234848Y-77487003D01*
X136234848Y-77487003D02*
X136139610Y-77487003D01*
X136139610Y-77487003D02*
X135996753Y-77534622D01*
X135996753Y-77534622D02*
X135949134Y-77582241D01*
X134996753Y-78487003D02*
X135568181Y-78487003D01*
X135282467Y-78487003D02*
X135282467Y-77487003D01*
X135282467Y-77487003D02*
X135377705Y-77629860D01*
X135377705Y-77629860D02*
X135472943Y-77725098D01*
X135472943Y-77725098D02*
X135568181Y-77772717D01*
X134091991Y-77487003D02*
X134568181Y-77487003D01*
X134568181Y-77487003D02*
X134615800Y-77963193D01*
X134615800Y-77963193D02*
X134568181Y-77915574D01*
X134568181Y-77915574D02*
X134472943Y-77867955D01*
X134472943Y-77867955D02*
X134234848Y-77867955D01*
X134234848Y-77867955D02*
X134139610Y-77915574D01*
X134139610Y-77915574D02*
X134091991Y-77963193D01*
X134091991Y-77963193D02*
X134044372Y-78058431D01*
X134044372Y-78058431D02*
X134044372Y-78296526D01*
X134044372Y-78296526D02*
X134091991Y-78391764D01*
X134091991Y-78391764D02*
X134139610Y-78439384D01*
X134139610Y-78439384D02*
X134234848Y-78487003D01*
X134234848Y-78487003D02*
X134472943Y-78487003D01*
X134472943Y-78487003D02*
X134568181Y-78439384D01*
X134568181Y-78439384D02*
X134615800Y-78391764D01*
X147241133Y-41401612D02*
X147288753Y-41353993D01*
X147288753Y-41353993D02*
X147336372Y-41211136D01*
X147336372Y-41211136D02*
X147336372Y-41115898D01*
X147336372Y-41115898D02*
X147288753Y-40973041D01*
X147288753Y-40973041D02*
X147193514Y-40877803D01*
X147193514Y-40877803D02*
X147098276Y-40830184D01*
X147098276Y-40830184D02*
X146907800Y-40782565D01*
X146907800Y-40782565D02*
X146764943Y-40782565D01*
X146764943Y-40782565D02*
X146574467Y-40830184D01*
X146574467Y-40830184D02*
X146479229Y-40877803D01*
X146479229Y-40877803D02*
X146383991Y-40973041D01*
X146383991Y-40973041D02*
X146336372Y-41115898D01*
X146336372Y-41115898D02*
X146336372Y-41211136D01*
X146336372Y-41211136D02*
X146383991Y-41353993D01*
X146383991Y-41353993D02*
X146431610Y-41401612D01*
X146431610Y-41782565D02*
X146383991Y-41830184D01*
X146383991Y-41830184D02*
X146336372Y-41925422D01*
X146336372Y-41925422D02*
X146336372Y-42163517D01*
X146336372Y-42163517D02*
X146383991Y-42258755D01*
X146383991Y-42258755D02*
X146431610Y-42306374D01*
X146431610Y-42306374D02*
X146526848Y-42353993D01*
X146526848Y-42353993D02*
X146622086Y-42353993D01*
X146622086Y-42353993D02*
X146764943Y-42306374D01*
X146764943Y-42306374D02*
X147336372Y-41734946D01*
X147336372Y-41734946D02*
X147336372Y-42353993D01*
X146431610Y-42734946D02*
X146383991Y-42782565D01*
X146383991Y-42782565D02*
X146336372Y-42877803D01*
X146336372Y-42877803D02*
X146336372Y-43115898D01*
X146336372Y-43115898D02*
X146383991Y-43211136D01*
X146383991Y-43211136D02*
X146431610Y-43258755D01*
X146431610Y-43258755D02*
X146526848Y-43306374D01*
X146526848Y-43306374D02*
X146622086Y-43306374D01*
X146622086Y-43306374D02*
X146764943Y-43258755D01*
X146764943Y-43258755D02*
X147336372Y-42687327D01*
X147336372Y-42687327D02*
X147336372Y-43306374D01*
X158493809Y-48034383D02*
X158541428Y-48082003D01*
X158541428Y-48082003D02*
X158684285Y-48129622D01*
X158684285Y-48129622D02*
X158779523Y-48129622D01*
X158779523Y-48129622D02*
X158922380Y-48082003D01*
X158922380Y-48082003D02*
X159017618Y-47986764D01*
X159017618Y-47986764D02*
X159065237Y-47891526D01*
X159065237Y-47891526D02*
X159112856Y-47701050D01*
X159112856Y-47701050D02*
X159112856Y-47558193D01*
X159112856Y-47558193D02*
X159065237Y-47367717D01*
X159065237Y-47367717D02*
X159017618Y-47272479D01*
X159017618Y-47272479D02*
X158922380Y-47177241D01*
X158922380Y-47177241D02*
X158779523Y-47129622D01*
X158779523Y-47129622D02*
X158684285Y-47129622D01*
X158684285Y-47129622D02*
X158541428Y-47177241D01*
X158541428Y-47177241D02*
X158493809Y-47224860D01*
X158112856Y-47224860D02*
X158065237Y-47177241D01*
X158065237Y-47177241D02*
X157969999Y-47129622D01*
X157969999Y-47129622D02*
X157731904Y-47129622D01*
X157731904Y-47129622D02*
X157636666Y-47177241D01*
X157636666Y-47177241D02*
X157589047Y-47224860D01*
X157589047Y-47224860D02*
X157541428Y-47320098D01*
X157541428Y-47320098D02*
X157541428Y-47415336D01*
X157541428Y-47415336D02*
X157589047Y-47558193D01*
X157589047Y-47558193D02*
X158160475Y-48129622D01*
X158160475Y-48129622D02*
X157541428Y-48129622D01*
X156684285Y-47462955D02*
X156684285Y-48129622D01*
X156922380Y-47082003D02*
X157160475Y-47796288D01*
X157160475Y-47796288D02*
X156541428Y-47796288D01*
X150748437Y-70136747D02*
X151462722Y-70136747D01*
X151462722Y-70136747D02*
X151605579Y-70089128D01*
X151605579Y-70089128D02*
X151700818Y-69993890D01*
X151700818Y-69993890D02*
X151748437Y-69851033D01*
X151748437Y-69851033D02*
X151748437Y-69755795D01*
X150748437Y-70517700D02*
X150748437Y-71136747D01*
X150748437Y-71136747D02*
X151129389Y-70803414D01*
X151129389Y-70803414D02*
X151129389Y-70946271D01*
X151129389Y-70946271D02*
X151177008Y-71041509D01*
X151177008Y-71041509D02*
X151224627Y-71089128D01*
X151224627Y-71089128D02*
X151319865Y-71136747D01*
X151319865Y-71136747D02*
X151557960Y-71136747D01*
X151557960Y-71136747D02*
X151653198Y-71089128D01*
X151653198Y-71089128D02*
X151700818Y-71041509D01*
X151700818Y-71041509D02*
X151748437Y-70946271D01*
X151748437Y-70946271D02*
X151748437Y-70660557D01*
X151748437Y-70660557D02*
X151700818Y-70565319D01*
X151700818Y-70565319D02*
X151653198Y-70517700D01*
X143214974Y-70176083D02*
X143262594Y-70128464D01*
X143262594Y-70128464D02*
X143310213Y-69985607D01*
X143310213Y-69985607D02*
X143310213Y-69890369D01*
X143310213Y-69890369D02*
X143262594Y-69747512D01*
X143262594Y-69747512D02*
X143167355Y-69652274D01*
X143167355Y-69652274D02*
X143072117Y-69604655D01*
X143072117Y-69604655D02*
X142881641Y-69557036D01*
X142881641Y-69557036D02*
X142738784Y-69557036D01*
X142738784Y-69557036D02*
X142548308Y-69604655D01*
X142548308Y-69604655D02*
X142453070Y-69652274D01*
X142453070Y-69652274D02*
X142357832Y-69747512D01*
X142357832Y-69747512D02*
X142310213Y-69890369D01*
X142310213Y-69890369D02*
X142310213Y-69985607D01*
X142310213Y-69985607D02*
X142357832Y-70128464D01*
X142357832Y-70128464D02*
X142405451Y-70176083D01*
X143310213Y-71128464D02*
X143310213Y-70557036D01*
X143310213Y-70842750D02*
X142310213Y-70842750D01*
X142310213Y-70842750D02*
X142453070Y-70747512D01*
X142453070Y-70747512D02*
X142548308Y-70652274D01*
X142548308Y-70652274D02*
X142595927Y-70557036D01*
X142405451Y-71509417D02*
X142357832Y-71557036D01*
X142357832Y-71557036D02*
X142310213Y-71652274D01*
X142310213Y-71652274D02*
X142310213Y-71890369D01*
X142310213Y-71890369D02*
X142357832Y-71985607D01*
X142357832Y-71985607D02*
X142405451Y-72033226D01*
X142405451Y-72033226D02*
X142500689Y-72080845D01*
X142500689Y-72080845D02*
X142595927Y-72080845D01*
X142595927Y-72080845D02*
X142738784Y-72033226D01*
X142738784Y-72033226D02*
X143310213Y-71461798D01*
X143310213Y-71461798D02*
X143310213Y-72080845D01*
X148940357Y-61319580D02*
X148987976Y-61367200D01*
X148987976Y-61367200D02*
X149130833Y-61414819D01*
X149130833Y-61414819D02*
X149226071Y-61414819D01*
X149226071Y-61414819D02*
X149368928Y-61367200D01*
X149368928Y-61367200D02*
X149464166Y-61271961D01*
X149464166Y-61271961D02*
X149511785Y-61176723D01*
X149511785Y-61176723D02*
X149559404Y-60986247D01*
X149559404Y-60986247D02*
X149559404Y-60843390D01*
X149559404Y-60843390D02*
X149511785Y-60652914D01*
X149511785Y-60652914D02*
X149464166Y-60557676D01*
X149464166Y-60557676D02*
X149368928Y-60462438D01*
X149368928Y-60462438D02*
X149226071Y-60414819D01*
X149226071Y-60414819D02*
X149130833Y-60414819D01*
X149130833Y-60414819D02*
X148987976Y-60462438D01*
X148987976Y-60462438D02*
X148940357Y-60510057D01*
X147987976Y-61414819D02*
X148559404Y-61414819D01*
X148273690Y-61414819D02*
X148273690Y-60414819D01*
X148273690Y-60414819D02*
X148368928Y-60557676D01*
X148368928Y-60557676D02*
X148464166Y-60652914D01*
X148464166Y-60652914D02*
X148559404Y-60700533D01*
X147654642Y-60414819D02*
X146987976Y-60414819D01*
X146987976Y-60414819D02*
X147416547Y-61414819D01*
X152390496Y-30108770D02*
X152390496Y-30823055D01*
X152390496Y-30823055D02*
X152438115Y-30965912D01*
X152438115Y-30965912D02*
X152533353Y-31061151D01*
X152533353Y-31061151D02*
X152676210Y-31108770D01*
X152676210Y-31108770D02*
X152771448Y-31108770D01*
X151390496Y-31108770D02*
X151961924Y-31108770D01*
X151676210Y-31108770D02*
X151676210Y-30108770D01*
X151676210Y-30108770D02*
X151771448Y-30251627D01*
X151771448Y-30251627D02*
X151866686Y-30346865D01*
X151866686Y-30346865D02*
X151961924Y-30394484D01*
X137263792Y-69290129D02*
X137311411Y-69337749D01*
X137311411Y-69337749D02*
X137454268Y-69385368D01*
X137454268Y-69385368D02*
X137549506Y-69385368D01*
X137549506Y-69385368D02*
X137692363Y-69337749D01*
X137692363Y-69337749D02*
X137787601Y-69242510D01*
X137787601Y-69242510D02*
X137835220Y-69147272D01*
X137835220Y-69147272D02*
X137882839Y-68956796D01*
X137882839Y-68956796D02*
X137882839Y-68813939D01*
X137882839Y-68813939D02*
X137835220Y-68623463D01*
X137835220Y-68623463D02*
X137787601Y-68528225D01*
X137787601Y-68528225D02*
X137692363Y-68432987D01*
X137692363Y-68432987D02*
X137549506Y-68385368D01*
X137549506Y-68385368D02*
X137454268Y-68385368D01*
X137454268Y-68385368D02*
X137311411Y-68432987D01*
X137311411Y-68432987D02*
X137263792Y-68480606D01*
X136311411Y-69385368D02*
X136882839Y-69385368D01*
X136597125Y-69385368D02*
X136597125Y-68385368D01*
X136597125Y-68385368D02*
X136692363Y-68528225D01*
X136692363Y-68528225D02*
X136787601Y-68623463D01*
X136787601Y-68623463D02*
X136882839Y-68671082D01*
X135978077Y-68385368D02*
X135359030Y-68385368D01*
X135359030Y-68385368D02*
X135692363Y-68766320D01*
X135692363Y-68766320D02*
X135549506Y-68766320D01*
X135549506Y-68766320D02*
X135454268Y-68813939D01*
X135454268Y-68813939D02*
X135406649Y-68861558D01*
X135406649Y-68861558D02*
X135359030Y-68956796D01*
X135359030Y-68956796D02*
X135359030Y-69194891D01*
X135359030Y-69194891D02*
X135406649Y-69290129D01*
X135406649Y-69290129D02*
X135454268Y-69337749D01*
X135454268Y-69337749D02*
X135549506Y-69385368D01*
X135549506Y-69385368D02*
X135835220Y-69385368D01*
X135835220Y-69385368D02*
X135930458Y-69337749D01*
X135930458Y-69337749D02*
X135978077Y-69290129D01*
X140876474Y-70172833D02*
X140924094Y-70125214D01*
X140924094Y-70125214D02*
X140971713Y-69982357D01*
X140971713Y-69982357D02*
X140971713Y-69887119D01*
X140971713Y-69887119D02*
X140924094Y-69744262D01*
X140924094Y-69744262D02*
X140828855Y-69649024D01*
X140828855Y-69649024D02*
X140733617Y-69601405D01*
X140733617Y-69601405D02*
X140543141Y-69553786D01*
X140543141Y-69553786D02*
X140400284Y-69553786D01*
X140400284Y-69553786D02*
X140209808Y-69601405D01*
X140209808Y-69601405D02*
X140114570Y-69649024D01*
X140114570Y-69649024D02*
X140019332Y-69744262D01*
X140019332Y-69744262D02*
X139971713Y-69887119D01*
X139971713Y-69887119D02*
X139971713Y-69982357D01*
X139971713Y-69982357D02*
X140019332Y-70125214D01*
X140019332Y-70125214D02*
X140066951Y-70172833D01*
X140971713Y-71125214D02*
X140971713Y-70553786D01*
X140971713Y-70839500D02*
X139971713Y-70839500D01*
X139971713Y-70839500D02*
X140114570Y-70744262D01*
X140114570Y-70744262D02*
X140209808Y-70649024D01*
X140209808Y-70649024D02*
X140257427Y-70553786D01*
X140971713Y-72077595D02*
X140971713Y-71506167D01*
X140971713Y-71791881D02*
X139971713Y-71791881D01*
X139971713Y-71791881D02*
X140114570Y-71696643D01*
X140114570Y-71696643D02*
X140209808Y-71601405D01*
X140209808Y-71601405D02*
X140257427Y-71506167D01*
X152817933Y-41522891D02*
X152865553Y-41475272D01*
X152865553Y-41475272D02*
X152913172Y-41332415D01*
X152913172Y-41332415D02*
X152913172Y-41237177D01*
X152913172Y-41237177D02*
X152865553Y-41094320D01*
X152865553Y-41094320D02*
X152770314Y-40999082D01*
X152770314Y-40999082D02*
X152675076Y-40951463D01*
X152675076Y-40951463D02*
X152484600Y-40903844D01*
X152484600Y-40903844D02*
X152341743Y-40903844D01*
X152341743Y-40903844D02*
X152151267Y-40951463D01*
X152151267Y-40951463D02*
X152056029Y-40999082D01*
X152056029Y-40999082D02*
X151960791Y-41094320D01*
X151960791Y-41094320D02*
X151913172Y-41237177D01*
X151913172Y-41237177D02*
X151913172Y-41332415D01*
X151913172Y-41332415D02*
X151960791Y-41475272D01*
X151960791Y-41475272D02*
X152008410Y-41522891D01*
X152913172Y-42475272D02*
X152913172Y-41903844D01*
X152913172Y-42189558D02*
X151913172Y-42189558D01*
X151913172Y-42189558D02*
X152056029Y-42094320D01*
X152056029Y-42094320D02*
X152151267Y-41999082D01*
X152151267Y-41999082D02*
X152198886Y-41903844D01*
X152913172Y-42951463D02*
X152913172Y-43141939D01*
X152913172Y-43141939D02*
X152865553Y-43237177D01*
X152865553Y-43237177D02*
X152817933Y-43284796D01*
X152817933Y-43284796D02*
X152675076Y-43380034D01*
X152675076Y-43380034D02*
X152484600Y-43427653D01*
X152484600Y-43427653D02*
X152103648Y-43427653D01*
X152103648Y-43427653D02*
X152008410Y-43380034D01*
X152008410Y-43380034D02*
X151960791Y-43332415D01*
X151960791Y-43332415D02*
X151913172Y-43237177D01*
X151913172Y-43237177D02*
X151913172Y-43046701D01*
X151913172Y-43046701D02*
X151960791Y-42951463D01*
X151960791Y-42951463D02*
X152008410Y-42903844D01*
X152008410Y-42903844D02*
X152103648Y-42856225D01*
X152103648Y-42856225D02*
X152341743Y-42856225D01*
X152341743Y-42856225D02*
X152436981Y-42903844D01*
X152436981Y-42903844D02*
X152484600Y-42951463D01*
X152484600Y-42951463D02*
X152532219Y-43046701D01*
X152532219Y-43046701D02*
X152532219Y-43237177D01*
X152532219Y-43237177D02*
X152484600Y-43332415D01*
X152484600Y-43332415D02*
X152436981Y-43380034D01*
X152436981Y-43380034D02*
X152341743Y-43427653D01*
X152136140Y-53451198D02*
X152183760Y-53403579D01*
X152183760Y-53403579D02*
X152231379Y-53260722D01*
X152231379Y-53260722D02*
X152231379Y-53165484D01*
X152231379Y-53165484D02*
X152183760Y-53022627D01*
X152183760Y-53022627D02*
X152088521Y-52927389D01*
X152088521Y-52927389D02*
X151993283Y-52879770D01*
X151993283Y-52879770D02*
X151802807Y-52832151D01*
X151802807Y-52832151D02*
X151659950Y-52832151D01*
X151659950Y-52832151D02*
X151469474Y-52879770D01*
X151469474Y-52879770D02*
X151374236Y-52927389D01*
X151374236Y-52927389D02*
X151278998Y-53022627D01*
X151278998Y-53022627D02*
X151231379Y-53165484D01*
X151231379Y-53165484D02*
X151231379Y-53260722D01*
X151231379Y-53260722D02*
X151278998Y-53403579D01*
X151278998Y-53403579D02*
X151326617Y-53451198D01*
X151326617Y-53832151D02*
X151278998Y-53879770D01*
X151278998Y-53879770D02*
X151231379Y-53975008D01*
X151231379Y-53975008D02*
X151231379Y-54213103D01*
X151231379Y-54213103D02*
X151278998Y-54308341D01*
X151278998Y-54308341D02*
X151326617Y-54355960D01*
X151326617Y-54355960D02*
X151421855Y-54403579D01*
X151421855Y-54403579D02*
X151517093Y-54403579D01*
X151517093Y-54403579D02*
X151659950Y-54355960D01*
X151659950Y-54355960D02*
X152231379Y-53784532D01*
X152231379Y-53784532D02*
X152231379Y-54403579D01*
X152231379Y-54879770D02*
X152231379Y-55070246D01*
X152231379Y-55070246D02*
X152183760Y-55165484D01*
X152183760Y-55165484D02*
X152136140Y-55213103D01*
X152136140Y-55213103D02*
X151993283Y-55308341D01*
X151993283Y-55308341D02*
X151802807Y-55355960D01*
X151802807Y-55355960D02*
X151421855Y-55355960D01*
X151421855Y-55355960D02*
X151326617Y-55308341D01*
X151326617Y-55308341D02*
X151278998Y-55260722D01*
X151278998Y-55260722D02*
X151231379Y-55165484D01*
X151231379Y-55165484D02*
X151231379Y-54975008D01*
X151231379Y-54975008D02*
X151278998Y-54879770D01*
X151278998Y-54879770D02*
X151326617Y-54832151D01*
X151326617Y-54832151D02*
X151421855Y-54784532D01*
X151421855Y-54784532D02*
X151659950Y-54784532D01*
X151659950Y-54784532D02*
X151755188Y-54832151D01*
X151755188Y-54832151D02*
X151802807Y-54879770D01*
X151802807Y-54879770D02*
X151850426Y-54975008D01*
X151850426Y-54975008D02*
X151850426Y-55165484D01*
X151850426Y-55165484D02*
X151802807Y-55260722D01*
X151802807Y-55260722D02*
X151755188Y-55308341D01*
X151755188Y-55308341D02*
X151659950Y-55355960D01*
X139248131Y-78423183D02*
X139295750Y-78470803D01*
X139295750Y-78470803D02*
X139438607Y-78518422D01*
X139438607Y-78518422D02*
X139533845Y-78518422D01*
X139533845Y-78518422D02*
X139676702Y-78470803D01*
X139676702Y-78470803D02*
X139771940Y-78375564D01*
X139771940Y-78375564D02*
X139819559Y-78280326D01*
X139819559Y-78280326D02*
X139867178Y-78089850D01*
X139867178Y-78089850D02*
X139867178Y-77946993D01*
X139867178Y-77946993D02*
X139819559Y-77756517D01*
X139819559Y-77756517D02*
X139771940Y-77661279D01*
X139771940Y-77661279D02*
X139676702Y-77566041D01*
X139676702Y-77566041D02*
X139533845Y-77518422D01*
X139533845Y-77518422D02*
X139438607Y-77518422D01*
X139438607Y-77518422D02*
X139295750Y-77566041D01*
X139295750Y-77566041D02*
X139248131Y-77613660D01*
X138295750Y-78518422D02*
X138867178Y-78518422D01*
X138581464Y-78518422D02*
X138581464Y-77518422D01*
X138581464Y-77518422D02*
X138676702Y-77661279D01*
X138676702Y-77661279D02*
X138771940Y-77756517D01*
X138771940Y-77756517D02*
X138867178Y-77804136D01*
X137438607Y-77851755D02*
X137438607Y-78518422D01*
X137676702Y-77470803D02*
X137914797Y-78185088D01*
X137914797Y-78185088D02*
X137295750Y-78185088D01*
%TO.C,U5*%
G36*
X145865598Y-48821763D02*
G01*
X145484598Y-48821763D01*
X145484598Y-48567763D01*
X145865598Y-48567763D01*
X145865598Y-48821763D01*
G37*
D11*
X148221799Y-44186263D02*
X148221799Y-45129776D01*
X148221799Y-48529663D02*
X147653284Y-48529663D01*
X143878399Y-48529663D02*
X143878399Y-47586150D01*
X143878399Y-44186263D02*
X144446914Y-44186263D01*
X147653284Y-44186263D02*
X148221799Y-44186263D01*
X148221799Y-47586150D02*
X148221799Y-48529663D01*
X144446914Y-48529663D02*
X143878399Y-48529663D01*
X143878399Y-45129776D02*
X143878399Y-44186263D01*
D12*
%TO.C,R5*%
X141505000Y-67338752D02*
X141505000Y-66816248D01*
X142975000Y-67338752D02*
X142975000Y-66816248D01*
%TO.C,C26*%
X148320965Y-50470393D02*
X148320965Y-50992897D01*
X146850965Y-50470393D02*
X146850965Y-50992897D01*
%TO.C,C10*%
X139667683Y-50822499D02*
X139667683Y-51345003D01*
X138197683Y-50822499D02*
X138197683Y-51345003D01*
%TO.C,C28*%
X146341277Y-51576248D02*
X146341277Y-52098752D01*
X144871277Y-51576248D02*
X144871277Y-52098752D01*
%TO.C,J2*%
X130750000Y-29150000D02*
X130750000Y-30480000D01*
X130750000Y-31750000D02*
X130750000Y-77530000D01*
X132080000Y-29150000D02*
X130750000Y-29150000D01*
X133410000Y-31750000D02*
X130750000Y-31750000D01*
X133410000Y-31750000D02*
X133410000Y-77530000D01*
X133410000Y-77530000D02*
X130750000Y-77530000D01*
%TO.C,C16*%
X137127683Y-50822499D02*
X137127683Y-51345003D01*
X135657683Y-50822499D02*
X135657683Y-51345003D01*
%TO.C,C27*%
X150314668Y-50378659D02*
X150314668Y-50901163D01*
X148844668Y-50378659D02*
X148844668Y-50901163D01*
%TO.C,C25*%
X150435728Y-44666947D02*
X150958232Y-44666947D01*
X150435728Y-46136947D02*
X150958232Y-46136947D01*
%TO.C,C15*%
X136185746Y-74056568D02*
X136185746Y-75479072D01*
X134365746Y-74056568D02*
X134365746Y-75479072D01*
%TO.C,C22*%
X148007287Y-42410634D02*
X148007287Y-41888130D01*
X149477287Y-42410634D02*
X149477287Y-41888130D01*
%TO.C,C24*%
X150368769Y-46943534D02*
X150891273Y-46943534D01*
X150368769Y-48413534D02*
X150891273Y-48413534D01*
%TO.C,J3*%
X146045000Y-65475000D02*
X144775000Y-65475000D01*
X144775000Y-65475000D02*
X144775000Y-66745000D01*
X148965000Y-67787929D02*
X148965000Y-68185000D01*
X148205000Y-67787929D02*
X148205000Y-68185000D01*
X146425000Y-67855000D02*
X146425000Y-68185000D01*
X145665000Y-67855000D02*
X145665000Y-68185000D01*
X149915000Y-68185000D02*
X149915000Y-70845000D01*
X147315000Y-68185000D02*
X147315000Y-70845000D01*
X144715000Y-68185000D02*
X149915000Y-68185000D01*
X149915000Y-70845000D02*
X144715000Y-70845000D01*
X148205000Y-70845000D02*
X148205000Y-76845000D01*
X146325000Y-70845000D02*
X146325000Y-76845000D01*
X146205000Y-70845000D02*
X146205000Y-76845000D01*
X146085000Y-70845000D02*
X146085000Y-76845000D01*
X145965000Y-70845000D02*
X145965000Y-76845000D01*
X145845000Y-70845000D02*
X145845000Y-76845000D01*
X145725000Y-70845000D02*
X145725000Y-76845000D01*
X145665000Y-70845000D02*
X145665000Y-76845000D01*
X144715000Y-70845000D02*
X144715000Y-68185000D01*
X148965000Y-76845000D02*
X148965000Y-70845000D01*
X148205000Y-76845000D02*
X148965000Y-76845000D01*
X146425000Y-76845000D02*
X146425000Y-70845000D01*
X145665000Y-76845000D02*
X146425000Y-76845000D01*
%TO.C,C12*%
X143805746Y-74056568D02*
X143805746Y-75479072D01*
X141985746Y-74056568D02*
X141985746Y-75479072D01*
%TO.C,C17*%
X147586248Y-62590000D02*
X149008752Y-62590000D01*
X147586248Y-64410000D02*
X149008752Y-64410000D01*
%TO.C,J1*%
X156270000Y-77530000D02*
X153610000Y-77530000D01*
X156270000Y-31750000D02*
X156270000Y-77530000D01*
X156270000Y-31750000D02*
X153610000Y-31750000D01*
X154940000Y-29150000D02*
X153610000Y-29150000D01*
X153610000Y-31750000D02*
X153610000Y-77530000D01*
X153610000Y-29150000D02*
X153610000Y-30480000D01*
%TO.C,C13*%
X135903278Y-71720900D02*
X137325782Y-71720900D01*
X135903278Y-69900900D02*
X137325782Y-69900900D01*
%TO.C,C11*%
X141265746Y-74056568D02*
X141265746Y-75479072D01*
X139445746Y-74056568D02*
X139445746Y-75479072D01*
%TO.C,C19*%
X150043353Y-42427001D02*
X150043353Y-41904497D01*
X151513353Y-42427001D02*
X151513353Y-41904497D01*
%TO.C,C29*%
X152367193Y-50395457D02*
X152367193Y-50917961D01*
X150897193Y-50395457D02*
X150897193Y-50917961D01*
%TO.C,C14*%
X138725746Y-74056568D02*
X138725746Y-75479072D01*
X136905746Y-74056568D02*
X136905746Y-75479072D01*
%TD*%
M02*
