%TF.GenerationSoftware,KiCad,Pcbnew,7.0.9-7.0.9~ubuntu22.04.1*%
%TF.CreationDate,2023-12-11T18:25:33-06:00*%
%TF.ProjectId,ultrasonic_microphone,756c7472-6173-46f6-9e69-635f6d696372,rev?*%
%TF.SameCoordinates,Original*%
%TF.FileFunction,Paste,Top*%
%TF.FilePolarity,Positive*%
%FSLAX46Y46*%
G04 Gerber Fmt 4.6, Leading zero omitted, Abs format (unit mm)*
G04 Created by KiCad (PCBNEW 7.0.9-7.0.9~ubuntu22.04.1) date 2023-12-11 18:25:33*
%MOMM*%
%LPD*%
G01*
G04 APERTURE LIST*
G04 Aperture macros list*
%AMRoundRect*
0 Rectangle with rounded corners*
0 $1 Rounding radius*
0 $2 $3 $4 $5 $6 $7 $8 $9 X,Y pos of 4 corners*
0 Add a 4 corners polygon primitive as box body*
4,1,4,$2,$3,$4,$5,$6,$7,$8,$9,$2,$3,0*
0 Add four circle primitives for the rounded corners*
1,1,$1+$1,$2,$3*
1,1,$1+$1,$4,$5*
1,1,$1+$1,$6,$7*
1,1,$1+$1,$8,$9*
0 Add four rect primitives between the rounded corners*
20,1,$1+$1,$2,$3,$4,$5,0*
20,1,$1+$1,$4,$5,$6,$7,0*
20,1,$1+$1,$6,$7,$8,$9,0*
20,1,$1+$1,$8,$9,$2,$3,0*%
G04 Aperture macros list end*
%ADD10R,1.050000X1.050000*%
%ADD11R,0.700000X0.250000*%
%ADD12R,1.524000X0.431800*%
%ADD13R,0.876300X0.406400*%
%ADD14RoundRect,0.250000X0.337500X0.475000X-0.337500X0.475000X-0.337500X-0.475000X0.337500X-0.475000X0*%
%ADD15RoundRect,0.250000X0.650000X-0.412500X0.650000X0.412500X-0.650000X0.412500X-0.650000X-0.412500X0*%
%ADD16RoundRect,0.250000X-0.450000X0.350000X-0.450000X-0.350000X0.450000X-0.350000X0.450000X0.350000X0*%
%ADD17RoundRect,0.250000X0.450000X-0.350000X0.450000X0.350000X-0.450000X0.350000X-0.450000X-0.350000X0*%
%ADD18RoundRect,0.250000X0.350000X0.450000X-0.350000X0.450000X-0.350000X-0.450000X0.350000X-0.450000X0*%
%ADD19RoundRect,0.250000X-0.475000X0.337500X-0.475000X-0.337500X0.475000X-0.337500X0.475000X0.337500X0*%
%ADD20RoundRect,0.250000X0.475000X-0.337500X0.475000X0.337500X-0.475000X0.337500X-0.475000X-0.337500X0*%
%ADD21RoundRect,0.250000X-0.650000X0.412500X-0.650000X-0.412500X0.650000X-0.412500X0.650000X0.412500X0*%
G04 APERTURE END LIST*
D10*
%TO.C,U5*%
X141580000Y-40620000D03*
X142900000Y-40620000D03*
X142900000Y-45740000D03*
X141580000Y-45740000D03*
X141580000Y-41900000D03*
X141580000Y-43180000D03*
X142900000Y-41900000D03*
X142900000Y-43180000D03*
X141580000Y-44460000D03*
X142900000Y-44460000D03*
D11*
X140340000Y-40430000D03*
X140340000Y-40930000D03*
X140340000Y-41430000D03*
X140340000Y-41930000D03*
X140340000Y-42430000D03*
X140340000Y-42930000D03*
X140340000Y-43430000D03*
X140340000Y-43930000D03*
X140340000Y-44430000D03*
X140340000Y-44930000D03*
X140340000Y-45430000D03*
X140340000Y-45930000D03*
X144140000Y-45930000D03*
X144140000Y-45430000D03*
X144140000Y-44930000D03*
X144140000Y-44430000D03*
X144140000Y-43930000D03*
X144140000Y-43430000D03*
X144140000Y-42930000D03*
X144140000Y-42430000D03*
X144140000Y-41930000D03*
X144140000Y-41430000D03*
X144140000Y-40930000D03*
X144140000Y-40430000D03*
%TD*%
D12*
%TO.C,U2*%
X137528300Y-72685001D03*
X137528300Y-73334999D03*
X137528300Y-73985001D03*
X137528300Y-74634999D03*
X141871700Y-74634999D03*
X141871700Y-73985001D03*
X141871700Y-73334999D03*
X141871700Y-72685001D03*
%TD*%
D13*
%TO.C,U1*%
X137160000Y-63500000D03*
X137160000Y-64149998D03*
X137160000Y-64800000D03*
X137160000Y-65449998D03*
X134531100Y-65449998D03*
X134531100Y-64800000D03*
X134531100Y-64149998D03*
X134531100Y-63500000D03*
%TD*%
D14*
%TO.C,C15*%
X135657500Y-40640000D03*
X133582500Y-40640000D03*
%TD*%
D15*
%TO.C,C3*%
X142240000Y-70142500D03*
X142240000Y-67017500D03*
%TD*%
D16*
%TO.C,R1*%
X134620000Y-71120000D03*
X134620000Y-69120000D03*
%TD*%
%TO.C,R2*%
X134620000Y-74200000D03*
X134620000Y-76200000D03*
%TD*%
D17*
%TO.C,R7*%
X137160000Y-60420000D03*
X137160000Y-58420000D03*
%TD*%
D18*
%TO.C,R4*%
X149320000Y-76200000D03*
X147320000Y-76200000D03*
%TD*%
D17*
%TO.C,R6*%
X134620000Y-60960000D03*
X134620000Y-58960000D03*
%TD*%
D19*
%TO.C,C4*%
X149860000Y-71585000D03*
X149860000Y-73660000D03*
%TD*%
D20*
%TO.C,C17*%
X147320000Y-40640000D03*
X147320000Y-38565000D03*
%TD*%
D14*
%TO.C,C18*%
X136695000Y-45720000D03*
X134620000Y-45720000D03*
%TD*%
D21*
%TO.C,C2*%
X139700000Y-64477500D03*
X139700000Y-67602500D03*
%TD*%
D17*
%TO.C,R3*%
X147320000Y-73120000D03*
X147320000Y-71120000D03*
%TD*%
M02*
