M48
; DRILL file {KiCad 7.0.9-7.0.9~ubuntu22.04.1} date Sun 17 Dec 2023 08:47:59 PM CST
; FORMAT={-:-/ absolute / inch / decimal}
; #@! TF.CreationDate,2023-12-17T20:47:59-06:00
; #@! TF.GenerationSoftware,Kicad,Pcbnew,7.0.9-7.0.9~ubuntu22.04.1
; #@! TF.FileFunction,Plated,1,4,PTH
FMAT,2
INCH
; #@! TA.AperFunction,Plated,PTH,ViaDrill
T1C0.0157
; #@! TA.AperFunction,Plated,PTH,ComponentDrill
T2C0.0276
; #@! TA.AperFunction,Plated,PTH,ComponentDrill
T3C0.0394
; #@! TA.AperFunction,Plated,PTH,ComponentDrill
T4C0.1260
%
G90
G05
T1
X5.1Y-1.8
X5.2503Y-2.5484
X5.2972Y-2.6161
X5.3543Y-2.7134
X5.3891Y-2.6248
X5.3937Y-2.4531
X5.4Y-1.9
X5.4016Y-1.8521
X5.4101Y-2.1297
X5.4586Y-1.8445
X5.5Y-1.5
X5.5Y-2.4
X5.5076Y-1.621
X5.5167Y-1.677
X5.564Y-1.9822
X5.5713Y-1.6016
X5.5828Y-1.5582
X5.6Y-1.4
X5.6Y-2.5
X5.6064Y-1.9792
X5.6561Y-2.7669
X5.6791Y-1.7259
X5.6813Y-1.5413
X5.6915Y-1.9404
X5.6995Y-2.1595
X5.7Y-2.5
X5.7Y-3.0
X5.7101Y-1.6385
X5.7222Y-2.8014
X5.7988Y-2.1194
X5.9469Y-2.4231
X5.9915Y-1.6446
X5.9977Y-2.1626
X6.0Y-1.7
X6.0163Y-1.8161
X6.0381Y-1.9493
T2
X5.1Y-3.0
X5.3814Y-2.2146
X6.2Y-2.0
X6.3Y-1.847
T3
X5.2Y-1.2
X5.2Y-1.3
X5.2Y-1.4
X5.2Y-1.5
X5.2Y-1.6
X5.2Y-1.7
X5.2Y-1.8
X5.2Y-1.9
X5.2Y-2.0
X5.2Y-2.1
X5.2Y-2.2
X5.2Y-2.3
X5.2Y-2.4
X5.2Y-2.5
X5.2Y-2.6
X5.2Y-2.7
X5.2Y-2.8
X5.2Y-2.9
X5.2Y-3.0
X5.7498Y-2.6278
X5.8498Y-2.6278
X6.1Y-1.2
X6.1Y-1.3
X6.1Y-1.4
X6.1Y-1.5
X6.1Y-1.6
X6.1Y-1.7
X6.1Y-1.8
X6.1Y-1.9
X6.1Y-2.0
X6.1Y-2.1
X6.1Y-2.2
X6.1Y-2.3
X6.1Y-2.4
X6.1Y-2.5
X6.1Y-2.6
X6.1Y-2.7
X6.1Y-2.8
X6.1Y-2.9
X6.1Y-3.0
T4
X4.9Y-1.3
X4.9Y-2.9
X6.4Y-1.3
X6.4Y-2.9
T0
M30
