%TF.GenerationSoftware,KiCad,Pcbnew,7.0.9-7.0.9~ubuntu22.04.1*%
%TF.CreationDate,2023-12-17T20:48:01-06:00*%
%TF.ProjectId,ultrasonic_microphone,756c7472-6173-46f6-9e69-635f6d696372,rev?*%
%TF.SameCoordinates,Original*%
%TF.FileFunction,Paste,Bot*%
%TF.FilePolarity,Positive*%
%FSLAX46Y46*%
G04 Gerber Fmt 4.6, Leading zero omitted, Abs format (unit mm)*
G04 Created by KiCad (PCBNEW 7.0.9-7.0.9~ubuntu22.04.1) date 2023-12-17 20:48:01*
%MOMM*%
%LPD*%
G01*
G04 APERTURE LIST*
G04 Aperture macros list*
%AMRoundRect*
0 Rectangle with rounded corners*
0 $1 Rounding radius*
0 $2 $3 $4 $5 $6 $7 $8 $9 X,Y pos of 4 corners*
0 Add a 4 corners polygon primitive as box body*
4,1,4,$2,$3,$4,$5,$6,$7,$8,$9,$2,$3,0*
0 Add four circle primitives for the rounded corners*
1,1,$1+$1,$2,$3*
1,1,$1+$1,$4,$5*
1,1,$1+$1,$6,$7*
1,1,$1+$1,$8,$9*
0 Add four rect primitives between the rounded corners*
20,1,$1+$1,$2,$3,$4,$5,0*
20,1,$1+$1,$4,$5,$6,$7,0*
20,1,$1+$1,$6,$7,$8,$9,0*
20,1,$1+$1,$8,$9,$2,$3,0*%
G04 Aperture macros list end*
%ADD10R,0.450000X0.660400*%
%ADD11R,0.660400X0.450000*%
%ADD12RoundRect,0.250000X0.475000X-0.337500X0.475000X0.337500X-0.475000X0.337500X-0.475000X-0.337500X0*%
%ADD13RoundRect,0.250000X-0.475000X0.337500X-0.475000X-0.337500X0.475000X-0.337500X0.475000X0.337500X0*%
%ADD14RoundRect,0.250000X-0.337500X-0.475000X0.337500X-0.475000X0.337500X0.475000X-0.337500X0.475000X0*%
%ADD15RoundRect,0.250000X-0.650000X0.412500X-0.650000X-0.412500X0.650000X-0.412500X0.650000X0.412500X0*%
%ADD16RoundRect,0.250000X-0.412500X-0.650000X0.412500X-0.650000X0.412500X0.650000X-0.412500X0.650000X0*%
G04 APERTURE END LIST*
D10*
%TO.C,U5*%
X144925100Y-44732363D03*
X145675098Y-44732363D03*
X146425100Y-44732363D03*
X147175098Y-44732363D03*
D11*
X147675699Y-45607962D03*
X147675699Y-46357963D03*
X147675699Y-47107964D03*
D10*
X147175098Y-47983563D03*
X146425100Y-47983563D03*
X145675098Y-47983563D03*
X144925100Y-47983563D03*
D11*
X144424499Y-47107964D03*
X144424499Y-46357963D03*
X144424499Y-45607962D03*
%TD*%
D12*
%TO.C,R5*%
X142240000Y-68115000D03*
X142240000Y-66040000D03*
%TD*%
D13*
%TO.C,C26*%
X147585965Y-49694145D03*
X147585965Y-51769145D03*
%TD*%
%TO.C,C10*%
X138932683Y-50046251D03*
X138932683Y-52121251D03*
%TD*%
%TO.C,C28*%
X145606277Y-50800000D03*
X145606277Y-52875000D03*
%TD*%
%TO.C,C16*%
X136392683Y-50046251D03*
X136392683Y-52121251D03*
%TD*%
%TO.C,C27*%
X149579668Y-49602411D03*
X149579668Y-51677411D03*
%TD*%
D14*
%TO.C,C25*%
X149659480Y-45401947D03*
X151734480Y-45401947D03*
%TD*%
D15*
%TO.C,C15*%
X135275746Y-73205320D03*
X135275746Y-76330320D03*
%TD*%
D12*
%TO.C,C22*%
X148742287Y-43186882D03*
X148742287Y-41111882D03*
%TD*%
D14*
%TO.C,C24*%
X149592521Y-47678534D03*
X151667521Y-47678534D03*
%TD*%
D15*
%TO.C,C12*%
X142895746Y-73205320D03*
X142895746Y-76330320D03*
%TD*%
D16*
%TO.C,C17*%
X146735000Y-63500000D03*
X149860000Y-63500000D03*
%TD*%
%TO.C,C13*%
X138177030Y-70810900D03*
X135052030Y-70810900D03*
%TD*%
D15*
%TO.C,C11*%
X140355746Y-73205320D03*
X140355746Y-76330320D03*
%TD*%
D12*
%TO.C,C19*%
X150778353Y-43203249D03*
X150778353Y-41128249D03*
%TD*%
D13*
%TO.C,C29*%
X151632193Y-49619209D03*
X151632193Y-51694209D03*
%TD*%
D15*
%TO.C,C14*%
X137815746Y-73205320D03*
X137815746Y-76330320D03*
%TD*%
M02*
