%TF.GenerationSoftware,KiCad,Pcbnew,7.0.9-7.0.9~ubuntu22.04.1*%
%TF.CreationDate,2023-12-11T18:25:33-06:00*%
%TF.ProjectId,ultrasonic_microphone,756c7472-6173-46f6-9e69-635f6d696372,rev?*%
%TF.SameCoordinates,Original*%
%TF.FileFunction,Legend,Bot*%
%TF.FilePolarity,Positive*%
%FSLAX46Y46*%
G04 Gerber Fmt 4.6, Leading zero omitted, Abs format (unit mm)*
G04 Created by KiCad (PCBNEW 7.0.9-7.0.9~ubuntu22.04.1) date 2023-12-11 18:25:33*
%MOMM*%
%LPD*%
G01*
G04 APERTURE LIST*
%ADD10C,0.150000*%
%ADD11C,0.152400*%
%ADD12C,0.120000*%
G04 APERTURE END LIST*
D10*
X147738323Y-72280166D02*
X147785942Y-72423023D01*
X147785942Y-72423023D02*
X147785942Y-72661118D01*
X147785942Y-72661118D02*
X147738323Y-72756356D01*
X147738323Y-72756356D02*
X147690703Y-72803975D01*
X147690703Y-72803975D02*
X147595465Y-72851594D01*
X147595465Y-72851594D02*
X147500227Y-72851594D01*
X147500227Y-72851594D02*
X147404989Y-72803975D01*
X147404989Y-72803975D02*
X147357370Y-72756356D01*
X147357370Y-72756356D02*
X147309751Y-72661118D01*
X147309751Y-72661118D02*
X147262132Y-72470642D01*
X147262132Y-72470642D02*
X147214513Y-72375404D01*
X147214513Y-72375404D02*
X147166894Y-72327785D01*
X147166894Y-72327785D02*
X147071656Y-72280166D01*
X147071656Y-72280166D02*
X146976418Y-72280166D01*
X146976418Y-72280166D02*
X146881180Y-72327785D01*
X146881180Y-72327785D02*
X146833561Y-72375404D01*
X146833561Y-72375404D02*
X146785942Y-72470642D01*
X146785942Y-72470642D02*
X146785942Y-72708737D01*
X146785942Y-72708737D02*
X146833561Y-72851594D01*
X147785942Y-73280166D02*
X146785942Y-73280166D01*
X146833561Y-74280165D02*
X146785942Y-74184927D01*
X146785942Y-74184927D02*
X146785942Y-74042070D01*
X146785942Y-74042070D02*
X146833561Y-73899213D01*
X146833561Y-73899213D02*
X146928799Y-73803975D01*
X146928799Y-73803975D02*
X147024037Y-73756356D01*
X147024037Y-73756356D02*
X147214513Y-73708737D01*
X147214513Y-73708737D02*
X147357370Y-73708737D01*
X147357370Y-73708737D02*
X147547846Y-73756356D01*
X147547846Y-73756356D02*
X147643084Y-73803975D01*
X147643084Y-73803975D02*
X147738323Y-73899213D01*
X147738323Y-73899213D02*
X147785942Y-74042070D01*
X147785942Y-74042070D02*
X147785942Y-74137308D01*
X147785942Y-74137308D02*
X147738323Y-74280165D01*
X147738323Y-74280165D02*
X147690703Y-74327784D01*
X147690703Y-74327784D02*
X147357370Y-74327784D01*
X147357370Y-74327784D02*
X147357370Y-74137308D01*
X147785942Y-74756356D02*
X146785942Y-74756356D01*
X146785942Y-74756356D02*
X147785942Y-75327784D01*
X147785942Y-75327784D02*
X146785942Y-75327784D01*
X147500227Y-75756356D02*
X147500227Y-76232546D01*
X147785942Y-75661118D02*
X146785942Y-75994451D01*
X146785942Y-75994451D02*
X147785942Y-76327784D01*
X147785942Y-77137308D02*
X147785942Y-76661118D01*
X147785942Y-76661118D02*
X146785942Y-76661118D01*
X149414624Y-73368747D02*
X149367005Y-73273509D01*
X149367005Y-73273509D02*
X149367005Y-73130652D01*
X149367005Y-73130652D02*
X149414624Y-72987795D01*
X149414624Y-72987795D02*
X149509862Y-72892557D01*
X149509862Y-72892557D02*
X149605100Y-72844938D01*
X149605100Y-72844938D02*
X149795576Y-72797319D01*
X149795576Y-72797319D02*
X149938433Y-72797319D01*
X149938433Y-72797319D02*
X150128909Y-72844938D01*
X150128909Y-72844938D02*
X150224147Y-72892557D01*
X150224147Y-72892557D02*
X150319386Y-72987795D01*
X150319386Y-72987795D02*
X150367005Y-73130652D01*
X150367005Y-73130652D02*
X150367005Y-73225890D01*
X150367005Y-73225890D02*
X150319386Y-73368747D01*
X150319386Y-73368747D02*
X150271766Y-73416366D01*
X150271766Y-73416366D02*
X149938433Y-73416366D01*
X149938433Y-73416366D02*
X149938433Y-73225890D01*
X150367005Y-73844938D02*
X149367005Y-73844938D01*
X149367005Y-73844938D02*
X150367005Y-74416366D01*
X150367005Y-74416366D02*
X149367005Y-74416366D01*
X150367005Y-74892557D02*
X149367005Y-74892557D01*
X149367005Y-74892557D02*
X149367005Y-75130652D01*
X149367005Y-75130652D02*
X149414624Y-75273509D01*
X149414624Y-75273509D02*
X149509862Y-75368747D01*
X149509862Y-75368747D02*
X149605100Y-75416366D01*
X149605100Y-75416366D02*
X149795576Y-75463985D01*
X149795576Y-75463985D02*
X149938433Y-75463985D01*
X149938433Y-75463985D02*
X150128909Y-75416366D01*
X150128909Y-75416366D02*
X150224147Y-75368747D01*
X150224147Y-75368747D02*
X150319386Y-75273509D01*
X150319386Y-75273509D02*
X150367005Y-75130652D01*
X150367005Y-75130652D02*
X150367005Y-74892557D01*
X152809595Y-28965494D02*
G75*
G03*
X152809595Y-28965494I-440302J0D01*
G01*
X142979900Y-43576400D02*
X142979900Y-44385923D01*
X142979900Y-44385923D02*
X142932281Y-44481161D01*
X142932281Y-44481161D02*
X142884662Y-44528781D01*
X142884662Y-44528781D02*
X142789424Y-44576400D01*
X142789424Y-44576400D02*
X142598948Y-44576400D01*
X142598948Y-44576400D02*
X142503710Y-44528781D01*
X142503710Y-44528781D02*
X142456091Y-44481161D01*
X142456091Y-44481161D02*
X142408472Y-44385923D01*
X142408472Y-44385923D02*
X142408472Y-43576400D01*
X142027519Y-43576400D02*
X141408472Y-43576400D01*
X141408472Y-43576400D02*
X141741805Y-43957352D01*
X141741805Y-43957352D02*
X141598948Y-43957352D01*
X141598948Y-43957352D02*
X141503710Y-44004971D01*
X141503710Y-44004971D02*
X141456091Y-44052590D01*
X141456091Y-44052590D02*
X141408472Y-44147828D01*
X141408472Y-44147828D02*
X141408472Y-44385923D01*
X141408472Y-44385923D02*
X141456091Y-44481161D01*
X141456091Y-44481161D02*
X141503710Y-44528781D01*
X141503710Y-44528781D02*
X141598948Y-44576400D01*
X141598948Y-44576400D02*
X141884662Y-44576400D01*
X141884662Y-44576400D02*
X141979900Y-44528781D01*
X141979900Y-44528781D02*
X142027519Y-44481161D01*
X144711981Y-44233906D02*
X144711981Y-44472001D01*
X144950076Y-44376763D02*
X144711981Y-44472001D01*
X144711981Y-44472001D02*
X144473886Y-44376763D01*
X144854838Y-44662477D02*
X144711981Y-44472001D01*
X144711981Y-44472001D02*
X144569124Y-44662477D01*
X142015645Y-33835843D02*
X142015645Y-34645366D01*
X142015645Y-34645366D02*
X141968026Y-34740604D01*
X141968026Y-34740604D02*
X141920407Y-34788224D01*
X141920407Y-34788224D02*
X141825169Y-34835843D01*
X141825169Y-34835843D02*
X141634693Y-34835843D01*
X141634693Y-34835843D02*
X141539455Y-34788224D01*
X141539455Y-34788224D02*
X141491836Y-34740604D01*
X141491836Y-34740604D02*
X141444217Y-34645366D01*
X141444217Y-34645366D02*
X141444217Y-33835843D01*
X140539455Y-34169176D02*
X140539455Y-34835843D01*
X140777550Y-33788224D02*
X141015645Y-34502509D01*
X141015645Y-34502509D02*
X140396598Y-34502509D01*
X140059580Y-70953333D02*
X140107200Y-70905714D01*
X140107200Y-70905714D02*
X140154819Y-70762857D01*
X140154819Y-70762857D02*
X140154819Y-70667619D01*
X140154819Y-70667619D02*
X140107200Y-70524762D01*
X140107200Y-70524762D02*
X140011961Y-70429524D01*
X140011961Y-70429524D02*
X139916723Y-70381905D01*
X139916723Y-70381905D02*
X139726247Y-70334286D01*
X139726247Y-70334286D02*
X139583390Y-70334286D01*
X139583390Y-70334286D02*
X139392914Y-70381905D01*
X139392914Y-70381905D02*
X139297676Y-70429524D01*
X139297676Y-70429524D02*
X139202438Y-70524762D01*
X139202438Y-70524762D02*
X139154819Y-70667619D01*
X139154819Y-70667619D02*
X139154819Y-70762857D01*
X139154819Y-70762857D02*
X139202438Y-70905714D01*
X139202438Y-70905714D02*
X139250057Y-70953333D01*
X139154819Y-71810476D02*
X139154819Y-71620000D01*
X139154819Y-71620000D02*
X139202438Y-71524762D01*
X139202438Y-71524762D02*
X139250057Y-71477143D01*
X139250057Y-71477143D02*
X139392914Y-71381905D01*
X139392914Y-71381905D02*
X139583390Y-71334286D01*
X139583390Y-71334286D02*
X139964342Y-71334286D01*
X139964342Y-71334286D02*
X140059580Y-71381905D01*
X140059580Y-71381905D02*
X140107200Y-71429524D01*
X140107200Y-71429524D02*
X140154819Y-71524762D01*
X140154819Y-71524762D02*
X140154819Y-71715238D01*
X140154819Y-71715238D02*
X140107200Y-71810476D01*
X140107200Y-71810476D02*
X140059580Y-71858095D01*
X140059580Y-71858095D02*
X139964342Y-71905714D01*
X139964342Y-71905714D02*
X139726247Y-71905714D01*
X139726247Y-71905714D02*
X139631009Y-71858095D01*
X139631009Y-71858095D02*
X139583390Y-71810476D01*
X139583390Y-71810476D02*
X139535771Y-71715238D01*
X139535771Y-71715238D02*
X139535771Y-71524762D01*
X139535771Y-71524762D02*
X139583390Y-71429524D01*
X139583390Y-71429524D02*
X139631009Y-71381905D01*
X139631009Y-71381905D02*
X139726247Y-71334286D01*
X140154819Y-66910833D02*
X139678628Y-66577500D01*
X140154819Y-66339405D02*
X139154819Y-66339405D01*
X139154819Y-66339405D02*
X139154819Y-66720357D01*
X139154819Y-66720357D02*
X139202438Y-66815595D01*
X139202438Y-66815595D02*
X139250057Y-66863214D01*
X139250057Y-66863214D02*
X139345295Y-66910833D01*
X139345295Y-66910833D02*
X139488152Y-66910833D01*
X139488152Y-66910833D02*
X139583390Y-66863214D01*
X139583390Y-66863214D02*
X139631009Y-66815595D01*
X139631009Y-66815595D02*
X139678628Y-66720357D01*
X139678628Y-66720357D02*
X139678628Y-66339405D01*
X139154819Y-67815595D02*
X139154819Y-67339405D01*
X139154819Y-67339405D02*
X139631009Y-67291786D01*
X139631009Y-67291786D02*
X139583390Y-67339405D01*
X139583390Y-67339405D02*
X139535771Y-67434643D01*
X139535771Y-67434643D02*
X139535771Y-67672738D01*
X139535771Y-67672738D02*
X139583390Y-67767976D01*
X139583390Y-67767976D02*
X139631009Y-67815595D01*
X139631009Y-67815595D02*
X139726247Y-67863214D01*
X139726247Y-67863214D02*
X139964342Y-67863214D01*
X139964342Y-67863214D02*
X140059580Y-67815595D01*
X140059580Y-67815595D02*
X140107200Y-67767976D01*
X140107200Y-67767976D02*
X140154819Y-67672738D01*
X140154819Y-67672738D02*
X140154819Y-67434643D01*
X140154819Y-67434643D02*
X140107200Y-67339405D01*
X140107200Y-67339405D02*
X140059580Y-67291786D01*
X147679580Y-34917142D02*
X147727200Y-34869523D01*
X147727200Y-34869523D02*
X147774819Y-34726666D01*
X147774819Y-34726666D02*
X147774819Y-34631428D01*
X147774819Y-34631428D02*
X147727200Y-34488571D01*
X147727200Y-34488571D02*
X147631961Y-34393333D01*
X147631961Y-34393333D02*
X147536723Y-34345714D01*
X147536723Y-34345714D02*
X147346247Y-34298095D01*
X147346247Y-34298095D02*
X147203390Y-34298095D01*
X147203390Y-34298095D02*
X147012914Y-34345714D01*
X147012914Y-34345714D02*
X146917676Y-34393333D01*
X146917676Y-34393333D02*
X146822438Y-34488571D01*
X146822438Y-34488571D02*
X146774819Y-34631428D01*
X146774819Y-34631428D02*
X146774819Y-34726666D01*
X146774819Y-34726666D02*
X146822438Y-34869523D01*
X146822438Y-34869523D02*
X146870057Y-34917142D01*
X147774819Y-35869523D02*
X147774819Y-35298095D01*
X147774819Y-35583809D02*
X146774819Y-35583809D01*
X146774819Y-35583809D02*
X146917676Y-35488571D01*
X146917676Y-35488571D02*
X147012914Y-35393333D01*
X147012914Y-35393333D02*
X147060533Y-35298095D01*
X146870057Y-36250476D02*
X146822438Y-36298095D01*
X146822438Y-36298095D02*
X146774819Y-36393333D01*
X146774819Y-36393333D02*
X146774819Y-36631428D01*
X146774819Y-36631428D02*
X146822438Y-36726666D01*
X146822438Y-36726666D02*
X146870057Y-36774285D01*
X146870057Y-36774285D02*
X146965295Y-36821904D01*
X146965295Y-36821904D02*
X147060533Y-36821904D01*
X147060533Y-36821904D02*
X147203390Y-36774285D01*
X147203390Y-36774285D02*
X147774819Y-36202857D01*
X147774819Y-36202857D02*
X147774819Y-36821904D01*
X132413333Y-32474819D02*
X132413333Y-33189104D01*
X132413333Y-33189104D02*
X132460952Y-33331961D01*
X132460952Y-33331961D02*
X132556190Y-33427200D01*
X132556190Y-33427200D02*
X132699047Y-33474819D01*
X132699047Y-33474819D02*
X132794285Y-33474819D01*
X131984761Y-32570057D02*
X131937142Y-32522438D01*
X131937142Y-32522438D02*
X131841904Y-32474819D01*
X131841904Y-32474819D02*
X131603809Y-32474819D01*
X131603809Y-32474819D02*
X131508571Y-32522438D01*
X131508571Y-32522438D02*
X131460952Y-32570057D01*
X131460952Y-32570057D02*
X131413333Y-32665295D01*
X131413333Y-32665295D02*
X131413333Y-32760533D01*
X131413333Y-32760533D02*
X131460952Y-32903390D01*
X131460952Y-32903390D02*
X132032380Y-33474819D01*
X132032380Y-33474819D02*
X131413333Y-33474819D01*
X133129580Y-73994642D02*
X133177200Y-73947023D01*
X133177200Y-73947023D02*
X133224819Y-73804166D01*
X133224819Y-73804166D02*
X133224819Y-73708928D01*
X133224819Y-73708928D02*
X133177200Y-73566071D01*
X133177200Y-73566071D02*
X133081961Y-73470833D01*
X133081961Y-73470833D02*
X132986723Y-73423214D01*
X132986723Y-73423214D02*
X132796247Y-73375595D01*
X132796247Y-73375595D02*
X132653390Y-73375595D01*
X132653390Y-73375595D02*
X132462914Y-73423214D01*
X132462914Y-73423214D02*
X132367676Y-73470833D01*
X132367676Y-73470833D02*
X132272438Y-73566071D01*
X132272438Y-73566071D02*
X132224819Y-73708928D01*
X132224819Y-73708928D02*
X132224819Y-73804166D01*
X132224819Y-73804166D02*
X132272438Y-73947023D01*
X132272438Y-73947023D02*
X132320057Y-73994642D01*
X133224819Y-74947023D02*
X133224819Y-74375595D01*
X133224819Y-74661309D02*
X132224819Y-74661309D01*
X132224819Y-74661309D02*
X132367676Y-74566071D01*
X132367676Y-74566071D02*
X132462914Y-74470833D01*
X132462914Y-74470833D02*
X132510533Y-74375595D01*
X132224819Y-75566071D02*
X132224819Y-75661309D01*
X132224819Y-75661309D02*
X132272438Y-75756547D01*
X132272438Y-75756547D02*
X132320057Y-75804166D01*
X132320057Y-75804166D02*
X132415295Y-75851785D01*
X132415295Y-75851785D02*
X132605771Y-75899404D01*
X132605771Y-75899404D02*
X132843866Y-75899404D01*
X132843866Y-75899404D02*
X133034342Y-75851785D01*
X133034342Y-75851785D02*
X133129580Y-75804166D01*
X133129580Y-75804166D02*
X133177200Y-75756547D01*
X133177200Y-75756547D02*
X133224819Y-75661309D01*
X133224819Y-75661309D02*
X133224819Y-75566071D01*
X133224819Y-75566071D02*
X133177200Y-75470833D01*
X133177200Y-75470833D02*
X133129580Y-75423214D01*
X133129580Y-75423214D02*
X133034342Y-75375595D01*
X133034342Y-75375595D02*
X132843866Y-75327976D01*
X132843866Y-75327976D02*
X132605771Y-75327976D01*
X132605771Y-75327976D02*
X132415295Y-75375595D01*
X132415295Y-75375595D02*
X132320057Y-75423214D01*
X132320057Y-75423214D02*
X132272438Y-75470833D01*
X132272438Y-75470833D02*
X132224819Y-75566071D01*
X135839580Y-47055833D02*
X135887200Y-47008214D01*
X135887200Y-47008214D02*
X135934819Y-46865357D01*
X135934819Y-46865357D02*
X135934819Y-46770119D01*
X135934819Y-46770119D02*
X135887200Y-46627262D01*
X135887200Y-46627262D02*
X135791961Y-46532024D01*
X135791961Y-46532024D02*
X135696723Y-46484405D01*
X135696723Y-46484405D02*
X135506247Y-46436786D01*
X135506247Y-46436786D02*
X135363390Y-46436786D01*
X135363390Y-46436786D02*
X135172914Y-46484405D01*
X135172914Y-46484405D02*
X135077676Y-46532024D01*
X135077676Y-46532024D02*
X134982438Y-46627262D01*
X134982438Y-46627262D02*
X134934819Y-46770119D01*
X134934819Y-46770119D02*
X134934819Y-46865357D01*
X134934819Y-46865357D02*
X134982438Y-47008214D01*
X134982438Y-47008214D02*
X135030057Y-47055833D01*
X134934819Y-47960595D02*
X134934819Y-47484405D01*
X134934819Y-47484405D02*
X135411009Y-47436786D01*
X135411009Y-47436786D02*
X135363390Y-47484405D01*
X135363390Y-47484405D02*
X135315771Y-47579643D01*
X135315771Y-47579643D02*
X135315771Y-47817738D01*
X135315771Y-47817738D02*
X135363390Y-47912976D01*
X135363390Y-47912976D02*
X135411009Y-47960595D01*
X135411009Y-47960595D02*
X135506247Y-48008214D01*
X135506247Y-48008214D02*
X135744342Y-48008214D01*
X135744342Y-48008214D02*
X135839580Y-47960595D01*
X135839580Y-47960595D02*
X135887200Y-47912976D01*
X135887200Y-47912976D02*
X135934819Y-47817738D01*
X135934819Y-47817738D02*
X135934819Y-47579643D01*
X135934819Y-47579643D02*
X135887200Y-47484405D01*
X135887200Y-47484405D02*
X135839580Y-47436786D01*
X143229819Y-70796666D02*
X143944104Y-70796666D01*
X143944104Y-70796666D02*
X144086961Y-70749047D01*
X144086961Y-70749047D02*
X144182200Y-70653809D01*
X144182200Y-70653809D02*
X144229819Y-70510952D01*
X144229819Y-70510952D02*
X144229819Y-70415714D01*
X143229819Y-71177619D02*
X143229819Y-71796666D01*
X143229819Y-71796666D02*
X143610771Y-71463333D01*
X143610771Y-71463333D02*
X143610771Y-71606190D01*
X143610771Y-71606190D02*
X143658390Y-71701428D01*
X143658390Y-71701428D02*
X143706009Y-71749047D01*
X143706009Y-71749047D02*
X143801247Y-71796666D01*
X143801247Y-71796666D02*
X144039342Y-71796666D01*
X144039342Y-71796666D02*
X144134580Y-71749047D01*
X144134580Y-71749047D02*
X144182200Y-71701428D01*
X144182200Y-71701428D02*
X144229819Y-71606190D01*
X144229819Y-71606190D02*
X144229819Y-71320476D01*
X144229819Y-71320476D02*
X144182200Y-71225238D01*
X144182200Y-71225238D02*
X144134580Y-71177619D01*
X142599580Y-70953333D02*
X142647200Y-70905714D01*
X142647200Y-70905714D02*
X142694819Y-70762857D01*
X142694819Y-70762857D02*
X142694819Y-70667619D01*
X142694819Y-70667619D02*
X142647200Y-70524762D01*
X142647200Y-70524762D02*
X142551961Y-70429524D01*
X142551961Y-70429524D02*
X142456723Y-70381905D01*
X142456723Y-70381905D02*
X142266247Y-70334286D01*
X142266247Y-70334286D02*
X142123390Y-70334286D01*
X142123390Y-70334286D02*
X141932914Y-70381905D01*
X141932914Y-70381905D02*
X141837676Y-70429524D01*
X141837676Y-70429524D02*
X141742438Y-70524762D01*
X141742438Y-70524762D02*
X141694819Y-70667619D01*
X141694819Y-70667619D02*
X141694819Y-70762857D01*
X141694819Y-70762857D02*
X141742438Y-70905714D01*
X141742438Y-70905714D02*
X141790057Y-70953333D01*
X141694819Y-71286667D02*
X141694819Y-71953333D01*
X141694819Y-71953333D02*
X142694819Y-71524762D01*
X134979580Y-36419642D02*
X135027200Y-36372023D01*
X135027200Y-36372023D02*
X135074819Y-36229166D01*
X135074819Y-36229166D02*
X135074819Y-36133928D01*
X135074819Y-36133928D02*
X135027200Y-35991071D01*
X135027200Y-35991071D02*
X134931961Y-35895833D01*
X134931961Y-35895833D02*
X134836723Y-35848214D01*
X134836723Y-35848214D02*
X134646247Y-35800595D01*
X134646247Y-35800595D02*
X134503390Y-35800595D01*
X134503390Y-35800595D02*
X134312914Y-35848214D01*
X134312914Y-35848214D02*
X134217676Y-35895833D01*
X134217676Y-35895833D02*
X134122438Y-35991071D01*
X134122438Y-35991071D02*
X134074819Y-36133928D01*
X134074819Y-36133928D02*
X134074819Y-36229166D01*
X134074819Y-36229166D02*
X134122438Y-36372023D01*
X134122438Y-36372023D02*
X134170057Y-36419642D01*
X135074819Y-37372023D02*
X135074819Y-36800595D01*
X135074819Y-37086309D02*
X134074819Y-37086309D01*
X134074819Y-37086309D02*
X134217676Y-36991071D01*
X134217676Y-36991071D02*
X134312914Y-36895833D01*
X134312914Y-36895833D02*
X134360533Y-36800595D01*
X134074819Y-38229166D02*
X134074819Y-38038690D01*
X134074819Y-38038690D02*
X134122438Y-37943452D01*
X134122438Y-37943452D02*
X134170057Y-37895833D01*
X134170057Y-37895833D02*
X134312914Y-37800595D01*
X134312914Y-37800595D02*
X134503390Y-37752976D01*
X134503390Y-37752976D02*
X134884342Y-37752976D01*
X134884342Y-37752976D02*
X134979580Y-37800595D01*
X134979580Y-37800595D02*
X135027200Y-37848214D01*
X135027200Y-37848214D02*
X135074819Y-37943452D01*
X135074819Y-37943452D02*
X135074819Y-38133928D01*
X135074819Y-38133928D02*
X135027200Y-38229166D01*
X135027200Y-38229166D02*
X134979580Y-38276785D01*
X134979580Y-38276785D02*
X134884342Y-38324404D01*
X134884342Y-38324404D02*
X134646247Y-38324404D01*
X134646247Y-38324404D02*
X134551009Y-38276785D01*
X134551009Y-38276785D02*
X134503390Y-38229166D01*
X134503390Y-38229166D02*
X134455771Y-38133928D01*
X134455771Y-38133928D02*
X134455771Y-37943452D01*
X134455771Y-37943452D02*
X134503390Y-37848214D01*
X134503390Y-37848214D02*
X134551009Y-37800595D01*
X134551009Y-37800595D02*
X134646247Y-37752976D01*
X148940357Y-61319580D02*
X148987976Y-61367200D01*
X148987976Y-61367200D02*
X149130833Y-61414819D01*
X149130833Y-61414819D02*
X149226071Y-61414819D01*
X149226071Y-61414819D02*
X149368928Y-61367200D01*
X149368928Y-61367200D02*
X149464166Y-61271961D01*
X149464166Y-61271961D02*
X149511785Y-61176723D01*
X149511785Y-61176723D02*
X149559404Y-60986247D01*
X149559404Y-60986247D02*
X149559404Y-60843390D01*
X149559404Y-60843390D02*
X149511785Y-60652914D01*
X149511785Y-60652914D02*
X149464166Y-60557676D01*
X149464166Y-60557676D02*
X149368928Y-60462438D01*
X149368928Y-60462438D02*
X149226071Y-60414819D01*
X149226071Y-60414819D02*
X149130833Y-60414819D01*
X149130833Y-60414819D02*
X148987976Y-60462438D01*
X148987976Y-60462438D02*
X148940357Y-60510057D01*
X147987976Y-61414819D02*
X148559404Y-61414819D01*
X148273690Y-61414819D02*
X148273690Y-60414819D01*
X148273690Y-60414819D02*
X148368928Y-60557676D01*
X148368928Y-60557676D02*
X148464166Y-60652914D01*
X148464166Y-60652914D02*
X148559404Y-60700533D01*
X147035595Y-61414819D02*
X147607023Y-61414819D01*
X147321309Y-61414819D02*
X147321309Y-60414819D01*
X147321309Y-60414819D02*
X147416547Y-60557676D01*
X147416547Y-60557676D02*
X147511785Y-60652914D01*
X147511785Y-60652914D02*
X147607023Y-60700533D01*
X152733333Y-29934819D02*
X152733333Y-30649104D01*
X152733333Y-30649104D02*
X152780952Y-30791961D01*
X152780952Y-30791961D02*
X152876190Y-30887200D01*
X152876190Y-30887200D02*
X153019047Y-30934819D01*
X153019047Y-30934819D02*
X153114285Y-30934819D01*
X151733333Y-30934819D02*
X152304761Y-30934819D01*
X152019047Y-30934819D02*
X152019047Y-29934819D01*
X152019047Y-29934819D02*
X152114285Y-30077676D01*
X152114285Y-30077676D02*
X152209523Y-30172914D01*
X152209523Y-30172914D02*
X152304761Y-30220533D01*
X133129580Y-68413333D02*
X133177200Y-68365714D01*
X133177200Y-68365714D02*
X133224819Y-68222857D01*
X133224819Y-68222857D02*
X133224819Y-68127619D01*
X133224819Y-68127619D02*
X133177200Y-67984762D01*
X133177200Y-67984762D02*
X133081961Y-67889524D01*
X133081961Y-67889524D02*
X132986723Y-67841905D01*
X132986723Y-67841905D02*
X132796247Y-67794286D01*
X132796247Y-67794286D02*
X132653390Y-67794286D01*
X132653390Y-67794286D02*
X132462914Y-67841905D01*
X132462914Y-67841905D02*
X132367676Y-67889524D01*
X132367676Y-67889524D02*
X132272438Y-67984762D01*
X132272438Y-67984762D02*
X132224819Y-68127619D01*
X132224819Y-68127619D02*
X132224819Y-68222857D01*
X132224819Y-68222857D02*
X132272438Y-68365714D01*
X132272438Y-68365714D02*
X132320057Y-68413333D01*
X132653390Y-68984762D02*
X132605771Y-68889524D01*
X132605771Y-68889524D02*
X132558152Y-68841905D01*
X132558152Y-68841905D02*
X132462914Y-68794286D01*
X132462914Y-68794286D02*
X132415295Y-68794286D01*
X132415295Y-68794286D02*
X132320057Y-68841905D01*
X132320057Y-68841905D02*
X132272438Y-68889524D01*
X132272438Y-68889524D02*
X132224819Y-68984762D01*
X132224819Y-68984762D02*
X132224819Y-69175238D01*
X132224819Y-69175238D02*
X132272438Y-69270476D01*
X132272438Y-69270476D02*
X132320057Y-69318095D01*
X132320057Y-69318095D02*
X132415295Y-69365714D01*
X132415295Y-69365714D02*
X132462914Y-69365714D01*
X132462914Y-69365714D02*
X132558152Y-69318095D01*
X132558152Y-69318095D02*
X132605771Y-69270476D01*
X132605771Y-69270476D02*
X132653390Y-69175238D01*
X132653390Y-69175238D02*
X132653390Y-68984762D01*
X132653390Y-68984762D02*
X132701009Y-68889524D01*
X132701009Y-68889524D02*
X132748628Y-68841905D01*
X132748628Y-68841905D02*
X132843866Y-68794286D01*
X132843866Y-68794286D02*
X133034342Y-68794286D01*
X133034342Y-68794286D02*
X133129580Y-68841905D01*
X133129580Y-68841905D02*
X133177200Y-68889524D01*
X133177200Y-68889524D02*
X133224819Y-68984762D01*
X133224819Y-68984762D02*
X133224819Y-69175238D01*
X133224819Y-69175238D02*
X133177200Y-69270476D01*
X133177200Y-69270476D02*
X133129580Y-69318095D01*
X133129580Y-69318095D02*
X133034342Y-69365714D01*
X133034342Y-69365714D02*
X132843866Y-69365714D01*
X132843866Y-69365714D02*
X132748628Y-69318095D01*
X132748628Y-69318095D02*
X132701009Y-69270476D01*
X132701009Y-69270476D02*
X132653390Y-69175238D01*
X150219580Y-45553333D02*
X150267200Y-45505714D01*
X150267200Y-45505714D02*
X150314819Y-45362857D01*
X150314819Y-45362857D02*
X150314819Y-45267619D01*
X150314819Y-45267619D02*
X150267200Y-45124762D01*
X150267200Y-45124762D02*
X150171961Y-45029524D01*
X150171961Y-45029524D02*
X150076723Y-44981905D01*
X150076723Y-44981905D02*
X149886247Y-44934286D01*
X149886247Y-44934286D02*
X149743390Y-44934286D01*
X149743390Y-44934286D02*
X149552914Y-44981905D01*
X149552914Y-44981905D02*
X149457676Y-45029524D01*
X149457676Y-45029524D02*
X149362438Y-45124762D01*
X149362438Y-45124762D02*
X149314819Y-45267619D01*
X149314819Y-45267619D02*
X149314819Y-45362857D01*
X149314819Y-45362857D02*
X149362438Y-45505714D01*
X149362438Y-45505714D02*
X149410057Y-45553333D01*
X150314819Y-46505714D02*
X150314819Y-45934286D01*
X150314819Y-46220000D02*
X149314819Y-46220000D01*
X149314819Y-46220000D02*
X149457676Y-46124762D01*
X149457676Y-46124762D02*
X149552914Y-46029524D01*
X149552914Y-46029524D02*
X149600533Y-45934286D01*
X137519580Y-70953333D02*
X137567200Y-70905714D01*
X137567200Y-70905714D02*
X137614819Y-70762857D01*
X137614819Y-70762857D02*
X137614819Y-70667619D01*
X137614819Y-70667619D02*
X137567200Y-70524762D01*
X137567200Y-70524762D02*
X137471961Y-70429524D01*
X137471961Y-70429524D02*
X137376723Y-70381905D01*
X137376723Y-70381905D02*
X137186247Y-70334286D01*
X137186247Y-70334286D02*
X137043390Y-70334286D01*
X137043390Y-70334286D02*
X136852914Y-70381905D01*
X136852914Y-70381905D02*
X136757676Y-70429524D01*
X136757676Y-70429524D02*
X136662438Y-70524762D01*
X136662438Y-70524762D02*
X136614819Y-70667619D01*
X136614819Y-70667619D02*
X136614819Y-70762857D01*
X136614819Y-70762857D02*
X136662438Y-70905714D01*
X136662438Y-70905714D02*
X136710057Y-70953333D01*
X137614819Y-71429524D02*
X137614819Y-71620000D01*
X137614819Y-71620000D02*
X137567200Y-71715238D01*
X137567200Y-71715238D02*
X137519580Y-71762857D01*
X137519580Y-71762857D02*
X137376723Y-71858095D01*
X137376723Y-71858095D02*
X137186247Y-71905714D01*
X137186247Y-71905714D02*
X136805295Y-71905714D01*
X136805295Y-71905714D02*
X136710057Y-71858095D01*
X136710057Y-71858095D02*
X136662438Y-71810476D01*
X136662438Y-71810476D02*
X136614819Y-71715238D01*
X136614819Y-71715238D02*
X136614819Y-71524762D01*
X136614819Y-71524762D02*
X136662438Y-71429524D01*
X136662438Y-71429524D02*
X136710057Y-71381905D01*
X136710057Y-71381905D02*
X136805295Y-71334286D01*
X136805295Y-71334286D02*
X137043390Y-71334286D01*
X137043390Y-71334286D02*
X137138628Y-71381905D01*
X137138628Y-71381905D02*
X137186247Y-71429524D01*
X137186247Y-71429524D02*
X137233866Y-71524762D01*
X137233866Y-71524762D02*
X137233866Y-71715238D01*
X137233866Y-71715238D02*
X137186247Y-71810476D01*
X137186247Y-71810476D02*
X137138628Y-71858095D01*
X137138628Y-71858095D02*
X137043390Y-71905714D01*
D11*
%TO.C,U3*%
X143916400Y-48371399D02*
X140563600Y-48371399D01*
X140563600Y-48371399D02*
X140563600Y-48218638D01*
X140563600Y-45018599D02*
X143916400Y-45018599D01*
X143916400Y-45018599D02*
X143916400Y-45171360D01*
X143916400Y-48218638D02*
X143916400Y-48371399D01*
X140563600Y-45171360D02*
X140563600Y-45018599D01*
%TO.C,U4*%
X143187976Y-34829143D02*
G75*
G03*
X143187976Y-34829143I-76200J0D01*
G01*
X142389600Y-37539501D02*
X141824138Y-37539501D01*
X140135600Y-35285501D02*
X140701062Y-35285501D01*
X140701062Y-37539501D02*
X140135600Y-37539501D01*
X141824138Y-35285501D02*
X142389600Y-35285501D01*
D12*
%TO.C,C6*%
X140610000Y-73926248D02*
X140610000Y-75348752D01*
X138790000Y-73926248D02*
X138790000Y-75348752D01*
%TO.C,R5*%
X141505000Y-67338752D02*
X141505000Y-66816248D01*
X142975000Y-67338752D02*
X142975000Y-66816248D01*
%TO.C,C12*%
X145515000Y-36801248D02*
X145515000Y-37323752D01*
X144045000Y-36801248D02*
X144045000Y-37323752D01*
%TO.C,J2*%
X130870000Y-77530000D02*
X128210000Y-77530000D01*
X130870000Y-31750000D02*
X130870000Y-77530000D01*
X130870000Y-31750000D02*
X128210000Y-31750000D01*
X129540000Y-29150000D02*
X128210000Y-29150000D01*
X128210000Y-31750000D02*
X128210000Y-77530000D01*
X128210000Y-29150000D02*
X128210000Y-30480000D01*
%TO.C,C10*%
X135530000Y-73926248D02*
X135530000Y-75348752D01*
X133710000Y-73926248D02*
X133710000Y-75348752D01*
%TO.C,C5*%
X137895000Y-46961248D02*
X137895000Y-47483752D01*
X136425000Y-46961248D02*
X136425000Y-47483752D01*
%TO.C,J3*%
X146045000Y-65475000D02*
X144775000Y-65475000D01*
X144775000Y-65475000D02*
X144775000Y-66745000D01*
X148965000Y-67787929D02*
X148965000Y-68185000D01*
X148205000Y-67787929D02*
X148205000Y-68185000D01*
X146425000Y-67855000D02*
X146425000Y-68185000D01*
X145665000Y-67855000D02*
X145665000Y-68185000D01*
X149915000Y-68185000D02*
X149915000Y-70845000D01*
X147315000Y-68185000D02*
X147315000Y-70845000D01*
X144715000Y-68185000D02*
X149915000Y-68185000D01*
X149915000Y-70845000D02*
X144715000Y-70845000D01*
X148205000Y-70845000D02*
X148205000Y-76845000D01*
X146325000Y-70845000D02*
X146325000Y-76845000D01*
X146205000Y-70845000D02*
X146205000Y-76845000D01*
X146085000Y-70845000D02*
X146085000Y-76845000D01*
X145965000Y-70845000D02*
X145965000Y-76845000D01*
X145845000Y-70845000D02*
X145845000Y-76845000D01*
X145725000Y-70845000D02*
X145725000Y-76845000D01*
X145665000Y-70845000D02*
X145665000Y-76845000D01*
X144715000Y-70845000D02*
X144715000Y-68185000D01*
X148965000Y-76845000D02*
X148965000Y-70845000D01*
X148205000Y-76845000D02*
X148965000Y-76845000D01*
X146425000Y-76845000D02*
X146425000Y-70845000D01*
X145665000Y-76845000D02*
X146425000Y-76845000D01*
%TO.C,C7*%
X143150000Y-73926248D02*
X143150000Y-75348752D01*
X141330000Y-73926248D02*
X141330000Y-75348752D01*
%TO.C,C16*%
X136425000Y-37323752D02*
X136425000Y-36801248D01*
X137895000Y-37323752D02*
X137895000Y-36801248D01*
%TO.C,C11*%
X147586248Y-62590000D02*
X149008752Y-62590000D01*
X147586248Y-64410000D02*
X149008752Y-64410000D01*
%TO.C,J1*%
X156270000Y-77530000D02*
X153610000Y-77530000D01*
X156270000Y-31750000D02*
X156270000Y-77530000D01*
X156270000Y-31750000D02*
X153610000Y-31750000D01*
X154940000Y-29150000D02*
X153610000Y-29150000D01*
X153610000Y-31750000D02*
X153610000Y-77530000D01*
X153610000Y-29150000D02*
X153610000Y-30480000D01*
%TO.C,C8*%
X135530000Y-67868748D02*
X135530000Y-69291252D01*
X133710000Y-67868748D02*
X133710000Y-69291252D01*
%TO.C,C1*%
X148230000Y-45008748D02*
X148230000Y-46431252D01*
X146410000Y-45008748D02*
X146410000Y-46431252D01*
%TO.C,C9*%
X138070000Y-73926248D02*
X138070000Y-75348752D01*
X136250000Y-73926248D02*
X136250000Y-75348752D01*
%TD*%
M02*
