M48
; DRILL file {KiCad 7.0.9-7.0.9~ubuntu22.04.1} date Mon 11 Dec 2023 06:23:56 PM CST
; FORMAT={-:-/ absolute / inch / decimal}
; #@! TF.CreationDate,2023-12-11T18:23:56-06:00
; #@! TF.GenerationSoftware,Kicad,Pcbnew,7.0.9-7.0.9~ubuntu22.04.1
; #@! TF.FileFunction,Plated,1,4,PTH
FMAT,2
INCH
; #@! TA.AperFunction,Plated,PTH,ViaDrill
T1C0.0157
; #@! TA.AperFunction,Plated,PTH,ComponentDrill
T2C0.0315
; #@! TA.AperFunction,Plated,PTH,ComponentDrill
T3C0.0394
%
G90
G05
T1
X5.2Y-2.6
X5.2Y-2.9
X5.2Y-3.0
X5.3Y-1.5
X5.4Y-1.6
X5.6Y-1.5
X5.6Y-2.0
X5.6Y-2.5
X5.7Y-3.0
X5.8Y-1.4
X5.9Y-1.5
X5.9Y-1.8
X6.0Y-1.5
X6.0Y-2.7
T2
X5.3031Y-2.1
X5.5Y-2.1
X5.7Y-2.2
X5.8969Y-2.2
T3
X5.1Y-1.2
X5.1Y-1.3
X5.1Y-1.4
X5.1Y-1.5
X5.1Y-1.6
X5.1Y-1.7
X5.1Y-1.8
X5.1Y-1.9
X5.1Y-2.0
X5.1Y-2.1
X5.1Y-2.2
X5.1Y-2.3
X5.1Y-2.4
X5.1Y-2.5
X5.1Y-2.6
X5.1Y-2.7
X5.1Y-2.8
X5.1Y-2.9
X5.1Y-3.0
X5.7498Y-2.6278
X5.8498Y-2.6278
X6.1Y-1.2
X6.1Y-1.3
X6.1Y-1.4
X6.1Y-1.5
X6.1Y-1.6
X6.1Y-1.7
X6.1Y-1.8
X6.1Y-1.9
X6.1Y-2.0
X6.1Y-2.1
X6.1Y-2.2
X6.1Y-2.3
X6.1Y-2.4
X6.1Y-2.5
X6.1Y-2.6
X6.1Y-2.7
X6.1Y-2.8
X6.1Y-2.9
X6.1Y-3.0
T0
M30
