%TF.GenerationSoftware,KiCad,Pcbnew,7.0.9-7.0.9~ubuntu22.04.1*%
%TF.CreationDate,2023-12-11T18:25:33-06:00*%
%TF.ProjectId,ultrasonic_microphone,756c7472-6173-46f6-9e69-635f6d696372,rev?*%
%TF.SameCoordinates,Original*%
%TF.FileFunction,Copper,L1,Top*%
%TF.FilePolarity,Positive*%
%FSLAX46Y46*%
G04 Gerber Fmt 4.6, Leading zero omitted, Abs format (unit mm)*
G04 Created by KiCad (PCBNEW 7.0.9-7.0.9~ubuntu22.04.1) date 2023-12-11 18:25:33*
%MOMM*%
%LPD*%
G01*
G04 APERTURE LIST*
G04 Aperture macros list*
%AMRoundRect*
0 Rectangle with rounded corners*
0 $1 Rounding radius*
0 $2 $3 $4 $5 $6 $7 $8 $9 X,Y pos of 4 corners*
0 Add a 4 corners polygon primitive as box body*
4,1,4,$2,$3,$4,$5,$6,$7,$8,$9,$2,$3,0*
0 Add four circle primitives for the rounded corners*
1,1,$1+$1,$2,$3*
1,1,$1+$1,$4,$5*
1,1,$1+$1,$6,$7*
1,1,$1+$1,$8,$9*
0 Add four rect primitives between the rounded corners*
20,1,$1+$1,$2,$3,$4,$5,0*
20,1,$1+$1,$4,$5,$6,$7,0*
20,1,$1+$1,$6,$7,$8,$9,0*
20,1,$1+$1,$8,$9,$2,$3,0*%
G04 Aperture macros list end*
%TA.AperFunction,SMDPad,CuDef*%
%ADD10R,0.700000X0.250000*%
%TD*%
%TA.AperFunction,SMDPad,CuDef*%
%ADD11R,2.640000X6.440000*%
%TD*%
%TA.AperFunction,SMDPad,CuDef*%
%ADD12R,1.524000X0.431800*%
%TD*%
%TA.AperFunction,SMDPad,CuDef*%
%ADD13R,0.876300X0.406400*%
%TD*%
%TA.AperFunction,ComponentPad*%
%ADD14C,1.600000*%
%TD*%
%TA.AperFunction,SMDPad,CuDef*%
%ADD15RoundRect,0.250000X0.337500X0.475000X-0.337500X0.475000X-0.337500X-0.475000X0.337500X-0.475000X0*%
%TD*%
%TA.AperFunction,SMDPad,CuDef*%
%ADD16RoundRect,0.250000X0.650000X-0.412500X0.650000X0.412500X-0.650000X0.412500X-0.650000X-0.412500X0*%
%TD*%
%TA.AperFunction,SMDPad,CuDef*%
%ADD17RoundRect,0.250000X-0.450000X0.350000X-0.450000X-0.350000X0.450000X-0.350000X0.450000X0.350000X0*%
%TD*%
%TA.AperFunction,SMDPad,CuDef*%
%ADD18RoundRect,0.250000X0.450000X-0.350000X0.450000X0.350000X-0.450000X0.350000X-0.450000X-0.350000X0*%
%TD*%
%TA.AperFunction,SMDPad,CuDef*%
%ADD19RoundRect,0.250000X0.350000X0.450000X-0.350000X0.450000X-0.350000X-0.450000X0.350000X-0.450000X0*%
%TD*%
%TA.AperFunction,SMDPad,CuDef*%
%ADD20RoundRect,0.250000X-0.475000X0.337500X-0.475000X-0.337500X0.475000X-0.337500X0.475000X0.337500X0*%
%TD*%
%TA.AperFunction,SMDPad,CuDef*%
%ADD21RoundRect,0.250000X0.475000X-0.337500X0.475000X0.337500X-0.475000X0.337500X-0.475000X-0.337500X0*%
%TD*%
%TA.AperFunction,SMDPad,CuDef*%
%ADD22RoundRect,0.250000X-0.650000X0.412500X-0.650000X-0.412500X0.650000X-0.412500X0.650000X0.412500X0*%
%TD*%
%TA.AperFunction,ComponentPad*%
%ADD23R,1.700000X1.700000*%
%TD*%
%TA.AperFunction,ComponentPad*%
%ADD24O,1.700000X1.700000*%
%TD*%
%TA.AperFunction,ViaPad*%
%ADD25C,0.800000*%
%TD*%
%TA.AperFunction,Conductor*%
%ADD26C,0.250000*%
%TD*%
%TA.AperFunction,Conductor*%
%ADD27C,1.000000*%
%TD*%
%TA.AperFunction,Conductor*%
%ADD28C,0.500000*%
%TD*%
%TA.AperFunction,Conductor*%
%ADD29C,0.750000*%
%TD*%
G04 APERTURE END LIST*
D10*
%TO.P,U5,1,RDLA*%
%TO.N,GND*%
X140340000Y-40430000D03*
%TO.P,U5,2,RDLB*%
%TO.N,+3.3V*%
X140340000Y-40930000D03*
%TO.P,U5,3,VDD*%
%TO.N,+2V5*%
X140340000Y-41430000D03*
%TO.P,U5,4,GND*%
%TO.N,GND*%
X140340000Y-41930000D03*
%TO.P,U5,5,IN+*%
%TO.N,Net-(U5-IN+)*%
X140340000Y-42430000D03*
%TO.P,U5,6,IN-*%
%TO.N,Net-(U5-IN-)*%
X140340000Y-42930000D03*
%TO.P,U5,7,GND*%
%TO.N,GND*%
X140340000Y-43430000D03*
%TO.P,U5,8,REF*%
%TO.N,REF*%
X140340000Y-43930000D03*
%TO.P,U5,9,REF*%
X140340000Y-44430000D03*
%TO.P,U5,10,REF*%
X140340000Y-44930000D03*
%TO.P,U5,11,SEL0*%
%TO.N,SEL0*%
X140340000Y-45430000D03*
%TO.P,U5,12,SEL1*%
%TO.N,SEL1*%
X140340000Y-45930000D03*
%TO.P,U5,13,MCLK*%
%TO.N,MCLK*%
X144140000Y-45930000D03*
%TO.P,U5,14,SYNC*%
%TO.N,SYNC*%
X144140000Y-45430000D03*
%TO.P,U5,15,DRL*%
%TO.N,DRL*%
X144140000Y-44930000D03*
%TO.P,U5,16,GND*%
%TO.N,GND*%
X144140000Y-44430000D03*
%TO.P,U5,17,SDOA*%
%TO.N,SDOA*%
X144140000Y-43930000D03*
%TO.P,U5,18,SCKA*%
%TO.N,SCKA*%
X144140000Y-43430000D03*
%TO.P,U5,19,SCKB*%
%TO.N,unconnected-(U5-SCKB-Pad19)*%
X144140000Y-42930000D03*
%TO.P,U5,20,SDOB*%
%TO.N,unconnected-(U5-SDOB-Pad20)*%
X144140000Y-42430000D03*
%TO.P,U5,21,BUSY*%
%TO.N,BUSY*%
X144140000Y-41930000D03*
%TO.P,U5,22,OVDD*%
%TO.N,+3.3V*%
X144140000Y-41430000D03*
%TO.P,U5,23,GND*%
%TO.N,GND*%
X144140000Y-40930000D03*
%TO.P,U5,24,GND*%
X144140000Y-40430000D03*
D11*
%TO.P,U5,25,EPAD*%
X142240000Y-43180000D03*
%TD*%
D12*
%TO.P,U2,1,OUTA*%
%TO.N,VGND*%
X137528300Y-72685001D03*
%TO.P,U2,2,INA-*%
X137528300Y-73334999D03*
%TO.P,U2,3,INA+*%
%TO.N,Net-(U2-INA+)*%
X137528300Y-73985001D03*
%TO.P,U2,4,V-*%
%TO.N,GND*%
X137528300Y-74634999D03*
%TO.P,U2,5,INB+*%
%TO.N,VGND*%
X141871700Y-74634999D03*
%TO.P,U2,6,INB-*%
%TO.N,Net-(U2-INB-)*%
X141871700Y-73985001D03*
%TO.P,U2,7,OUTB*%
%TO.N,Net-(U1-IN)*%
X141871700Y-73334999D03*
%TO.P,U2,8,V+*%
%TO.N,+3.3V*%
X141871700Y-72685001D03*
%TD*%
D13*
%TO.P,U1,8,V+*%
%TO.N,+3.3V*%
X137160000Y-63500000D03*
%TO.P,U1,7,G2*%
%TO.N,G2*%
X137160000Y-64149998D03*
%TO.P,U1,6,G1*%
%TO.N,G1*%
X137160000Y-64800000D03*
%TO.P,U1,5,G0*%
%TO.N,G0*%
X137160000Y-65449998D03*
%TO.P,U1,4,V-*%
%TO.N,GND*%
X134531100Y-65449998D03*
%TO.P,U1,3,IN*%
%TO.N,Net-(U1-IN)*%
X134531100Y-64800000D03*
%TO.P,U1,2,AGND*%
%TO.N,VGND*%
X134531100Y-64149998D03*
%TO.P,U1,1,OUT*%
%TO.N,AMP_OUT*%
X134531100Y-63500000D03*
%TD*%
D14*
%TO.P,C13,1*%
%TO.N,GND*%
X139700000Y-53340000D03*
%TO.P,C13,2*%
%TO.N,Net-(U5-IN+)*%
X134700000Y-53340000D03*
%TD*%
%TO.P,C14,1*%
%TO.N,GND*%
X149780000Y-55880000D03*
%TO.P,C14,2*%
%TO.N,Net-(U5-IN-)*%
X144780000Y-55880000D03*
%TD*%
D15*
%TO.P,C15,1*%
%TO.N,+2V5*%
X135657500Y-40640000D03*
%TO.P,C15,2*%
%TO.N,GND*%
X133582500Y-40640000D03*
%TD*%
D16*
%TO.P,C3,1*%
%TO.N,+3.3V*%
X142240000Y-70142500D03*
%TO.P,C3,2*%
%TO.N,GND*%
X142240000Y-67017500D03*
%TD*%
D17*
%TO.P,R1,2*%
%TO.N,Net-(U2-INA+)*%
X134620000Y-71120000D03*
%TO.P,R1,1*%
%TO.N,REF*%
X134620000Y-69120000D03*
%TD*%
%TO.P,R2,1*%
%TO.N,Net-(U2-INA+)*%
X134620000Y-74200000D03*
%TO.P,R2,2*%
%TO.N,GND*%
X134620000Y-76200000D03*
%TD*%
D18*
%TO.P,R7,1*%
%TO.N,VGND*%
X137160000Y-60420000D03*
%TO.P,R7,2*%
%TO.N,Net-(U5-IN-)*%
X137160000Y-58420000D03*
%TD*%
D19*
%TO.P,R4,1*%
%TO.N,Net-(U2-INB-)*%
X149320000Y-76200000D03*
%TO.P,R4,2*%
%TO.N,Net-(C10-Pad1)*%
X147320000Y-76200000D03*
%TD*%
D18*
%TO.P,R6,1*%
%TO.N,AMP_OUT*%
X134620000Y-60960000D03*
%TO.P,R6,2*%
%TO.N,Net-(U5-IN+)*%
X134620000Y-58960000D03*
%TD*%
D20*
%TO.P,C4,1*%
%TO.N,Net-(U1-IN)*%
X149860000Y-71585000D03*
%TO.P,C4,2*%
%TO.N,Net-(U2-INB-)*%
X149860000Y-73660000D03*
%TD*%
D21*
%TO.P,C17,1*%
%TO.N,+3.3V*%
X147320000Y-40640000D03*
%TO.P,C17,2*%
%TO.N,GND*%
X147320000Y-38565000D03*
%TD*%
D15*
%TO.P,C18,1*%
%TO.N,REF*%
X136695000Y-45720000D03*
%TO.P,C18,2*%
%TO.N,GND*%
X134620000Y-45720000D03*
%TD*%
D22*
%TO.P,C2,1*%
%TO.N,+3.3V*%
X139700000Y-64477500D03*
%TO.P,C2,2*%
%TO.N,GND*%
X139700000Y-67602500D03*
%TD*%
D18*
%TO.P,R3,1*%
%TO.N,Net-(U2-INB-)*%
X147320000Y-73120000D03*
%TO.P,R3,2*%
%TO.N,Net-(U1-IN)*%
X147320000Y-71120000D03*
%TD*%
D23*
%TO.P,J2,1,GND*%
%TO.N,unconnected-(J2-GND-Pad1)*%
X129540000Y-30480000D03*
D24*
%TO.P,J2,2,P23*%
%TO.N,unconnected-(J2-P23-Pad2)*%
X129540000Y-33020000D03*
%TO.P,J2,3,P22*%
%TO.N,unconnected-(J2-P22-Pad3)*%
X129540000Y-35560000D03*
%TO.P,J2,4,TX*%
%TO.N,unconnected-(J2-TX-Pad4)*%
X129540000Y-38100000D03*
%TO.P,J2,5,RX*%
%TO.N,unconnected-(J2-RX-Pad5)*%
X129540000Y-40640000D03*
%TO.P,J2,6,P21*%
%TO.N,unconnected-(J2-P21-Pad6)*%
X129540000Y-43180000D03*
%TO.P,J2,7,GND*%
%TO.N,GND*%
X129540000Y-45720000D03*
%TO.P,J2,8,P19*%
%TO.N,SDOA*%
X129540000Y-48260000D03*
%TO.P,J2,9,P18*%
%TO.N,SCKA*%
X129540000Y-50800000D03*
%TO.P,J2,10,P5*%
%TO.N,unconnected-(J2-P5-Pad10)*%
X129540000Y-53340000D03*
%TO.P,J2,11,P17*%
%TO.N,unconnected-(J2-P17-Pad11)*%
X129540000Y-55880000D03*
%TO.P,J2,12,P16*%
%TO.N,unconnected-(J2-P16-Pad12)*%
X129540000Y-58420000D03*
%TO.P,J2,13,P4*%
%TO.N,+2V5*%
X129540000Y-60960000D03*
%TO.P,J2,14,P0*%
%TO.N,MCLK*%
X129540000Y-63500000D03*
%TO.P,J2,15,P2*%
%TO.N,unconnected-(J2-P2-Pad15)*%
X129540000Y-66040000D03*
%TO.P,J2,16,P15*%
%TO.N,unconnected-(J2-P15-Pad16)*%
X129540000Y-68580000D03*
%TO.P,J2,17,SD1*%
%TO.N,unconnected-(J2-SD1-Pad17)*%
X129540000Y-71120000D03*
%TO.P,J2,18,SD0*%
%TO.N,unconnected-(J2-SD0-Pad18)*%
X129540000Y-73660000D03*
%TO.P,J2,19,CLK*%
%TO.N,unconnected-(J2-CLK-Pad19)*%
X129540000Y-76200000D03*
%TD*%
D23*
%TO.P,J3,1,Output*%
%TO.N,Net-(J3-Output)*%
X146045000Y-66745000D03*
D24*
%TO.P,J3,2,GND*%
%TO.N,GND*%
X148585000Y-66745000D03*
%TD*%
D23*
%TO.P,J1,1,3.3V*%
%TO.N,+3.3V*%
X154940000Y-30480000D03*
D24*
%TO.P,J1,2,EN*%
%TO.N,unconnected-(J1-EN-Pad2)*%
X154940000Y-33020000D03*
%TO.P,J1,3,SVP*%
%TO.N,BUSY*%
X154940000Y-35560000D03*
%TO.P,J1,4,SVN*%
%TO.N,DRL*%
X154940000Y-38100000D03*
%TO.P,J1,5,P34*%
%TO.N,SYNC*%
X154940000Y-40640000D03*
%TO.P,J1,6,P35*%
%TO.N,SEL1*%
X154940000Y-43180000D03*
%TO.P,J1,7,P32*%
%TO.N,SEL0*%
X154940000Y-45720000D03*
%TO.P,J1,8,P33*%
%TO.N,REF*%
X154940000Y-48260000D03*
%TO.P,J1,9,P25*%
%TO.N,unconnected-(J1-P25-Pad9)*%
X154940000Y-50800000D03*
%TO.P,J1,10,P26*%
%TO.N,AMP_OUT*%
X154940000Y-53340000D03*
%TO.P,J1,11,P27*%
%TO.N,VGND*%
X154940000Y-55880000D03*
%TO.P,J1,12,P14*%
%TO.N,G2*%
X154940000Y-58420000D03*
%TO.P,J1,13,P12*%
%TO.N,G1*%
X154940000Y-60960000D03*
%TO.P,J1,14,GND*%
%TO.N,unconnected-(J1-GND-Pad14)*%
X154940000Y-63500000D03*
%TO.P,J1,15,P13*%
%TO.N,G0*%
X154940000Y-66040000D03*
%TO.P,J1,16,SD2*%
%TO.N,unconnected-(J1-SD2-Pad16)*%
X154940000Y-68580000D03*
%TO.P,J1,17,SD3*%
%TO.N,unconnected-(J1-SD3-Pad17)*%
X154940000Y-71120000D03*
%TO.P,J1,18,CMD*%
%TO.N,unconnected-(J1-CMD-Pad18)*%
X154940000Y-73660000D03*
%TO.P,J1,19,5V*%
%TO.N,+5V*%
X154940000Y-76200000D03*
%TD*%
D25*
%TO.N,+5V*%
X147320000Y-35560000D03*
X134620000Y-38100000D03*
%TO.N,+3.3V*%
X142240000Y-63500000D03*
X152400000Y-68580000D03*
%TO.N,REF*%
X132080000Y-73660000D03*
%TO.N,+2V5*%
X137160000Y-40640000D03*
%TO.N,Net-(C10-Pad1)*%
X144780000Y-76200000D03*
%TO.N,REF*%
X142240000Y-50800000D03*
%TO.N,MCLK*%
X149860000Y-45720000D03*
%TO.N,SDOA*%
X152400000Y-38100000D03*
%TO.N,SCKA*%
X149860000Y-38100000D03*
%TO.N,GND*%
X132080000Y-76200000D03*
X142240000Y-38100000D03*
X132080000Y-66040000D03*
%TD*%
D26*
%TO.N,+2V5*%
X135657500Y-40640000D02*
X135657500Y-40769226D01*
X135657500Y-40769226D02*
X132080000Y-44346726D01*
X132080000Y-44346726D02*
X132080000Y-58420000D01*
X132080000Y-58420000D02*
X129540000Y-60960000D01*
D27*
%TO.N,GND*%
X139700000Y-53340000D02*
X134620000Y-48260000D01*
X134620000Y-48260000D02*
X134620000Y-45720000D01*
D28*
%TO.N,+3.3V*%
X148495000Y-36925000D02*
X142212918Y-36925000D01*
X142212918Y-36925000D02*
X139540000Y-39597918D01*
X139540000Y-39597918D02*
X139540000Y-40755000D01*
X139540000Y-40755000D02*
X139640000Y-40855000D01*
X154940000Y-30480000D02*
X148495000Y-36925000D01*
X148495000Y-36925000D02*
X148495000Y-39465000D01*
X148495000Y-39465000D02*
X147320000Y-40640000D01*
D27*
X139700000Y-64477500D02*
X140600000Y-64477500D01*
X140600000Y-64477500D02*
X141577500Y-63500000D01*
X141577500Y-63500000D02*
X142240000Y-63500000D01*
%TO.N,GND*%
X142240000Y-67017500D02*
X141655000Y-67602500D01*
X141655000Y-67602500D02*
X139700000Y-67602500D01*
%TO.N,+3.3V*%
X143802500Y-70142500D02*
X143214999Y-70730001D01*
X143214999Y-70730001D02*
X143214999Y-72509999D01*
X152400000Y-68580000D02*
X145365000Y-68580000D01*
X145365000Y-68580000D02*
X143802500Y-70142500D01*
%TO.N,GND*%
X132080000Y-76200000D02*
X134620000Y-76200000D01*
D26*
X136185001Y-74634999D02*
X134620000Y-76200000D01*
D27*
%TO.N,REF*%
X132080000Y-73660000D02*
X132080000Y-70960000D01*
X132080000Y-70960000D02*
X133920000Y-69120000D01*
X133920000Y-69120000D02*
X134620000Y-69120000D01*
D26*
%TO.N,GND*%
X147410000Y-65570000D02*
X148585000Y-66745000D01*
X143687500Y-65570000D02*
X147410000Y-65570000D01*
X142240000Y-67017500D02*
X143687500Y-65570000D01*
D27*
X133582500Y-40640000D02*
X133582500Y-41677500D01*
X133582500Y-41677500D02*
X129540000Y-45720000D01*
D28*
%TO.N,Net-(U5-IN+)*%
X134700000Y-53340000D02*
X133582500Y-52222500D01*
X133582500Y-52222500D02*
X133582500Y-44217500D01*
X133582500Y-44217500D02*
X135370000Y-42430000D01*
X134620000Y-58960000D02*
X134620000Y-53420000D01*
X134620000Y-53420000D02*
X134700000Y-53340000D01*
D26*
%TO.N,AMP_OUT*%
X134620000Y-60960000D02*
X136235000Y-59345000D01*
X136235000Y-59345000D02*
X148935000Y-59345000D01*
X148935000Y-59345000D02*
X154940000Y-53340000D01*
D28*
%TO.N,Net-(U5-IN-)*%
X144780000Y-55880000D02*
X135657500Y-46757500D01*
X135657500Y-46757500D02*
X135657500Y-44757500D01*
X135657500Y-44757500D02*
X137410000Y-43005000D01*
X137160000Y-58420000D02*
X142240000Y-58420000D01*
X142240000Y-58420000D02*
X144780000Y-55880000D01*
%TO.N,VGND*%
X137160000Y-60420000D02*
X137645000Y-59935000D01*
X137645000Y-59935000D02*
X150885000Y-59935000D01*
X150885000Y-59935000D02*
X154940000Y-55880000D01*
D29*
X140024398Y-74634999D02*
X140024398Y-71444398D01*
X140024398Y-71444398D02*
X135696850Y-67116850D01*
X135696850Y-67116850D02*
X135696850Y-61883150D01*
X135696850Y-61883150D02*
X137160000Y-60420000D01*
D26*
%TO.N,+2V5*%
X135657500Y-40640000D02*
X137160000Y-40640000D01*
%TO.N,G1*%
X137160000Y-64800000D02*
X137848150Y-64800000D01*
X137848150Y-64800000D02*
X139078150Y-66030000D01*
X139078150Y-66030000D02*
X140584595Y-66030000D01*
X140584595Y-66030000D02*
X141944595Y-64670000D01*
X141944595Y-64670000D02*
X147320000Y-64670000D01*
X147320000Y-64670000D02*
X151030000Y-60960000D01*
X151030000Y-60960000D02*
X154940000Y-60960000D01*
%TO.N,Net-(C10-Pad1)*%
X144780000Y-76200000D02*
X147320000Y-76200000D01*
%TO.N,SDOA*%
X146935392Y-43930000D02*
X152400000Y-38465392D01*
X152400000Y-38465392D02*
X152400000Y-38100000D01*
%TO.N,Net-(U1-IN)*%
X149915100Y-77225000D02*
X130865000Y-77225000D01*
X130865000Y-77225000D02*
X130715000Y-77075000D01*
X130715000Y-77075000D02*
X130715000Y-66379695D01*
X130715000Y-66379695D02*
X132294695Y-64800000D01*
X132294695Y-64800000D02*
X134531100Y-64800000D01*
X150910000Y-76230100D02*
X149915100Y-77225000D01*
X150910000Y-72635000D02*
X150910000Y-76230100D01*
X149860000Y-71585000D02*
X150910000Y-72635000D01*
%TO.N,REF*%
X136695000Y-45720000D02*
X136695000Y-46445000D01*
X136695000Y-46445000D02*
X141050000Y-50800000D01*
X141050000Y-50800000D02*
X142240000Y-50800000D01*
%TO.N,MCLK*%
X144140000Y-45930000D02*
X149650000Y-45930000D01*
X149650000Y-45930000D02*
X149860000Y-45720000D01*
%TO.N,SYNC*%
X144140000Y-45430000D02*
X148246396Y-45430000D01*
X148246396Y-45430000D02*
X153036396Y-40640000D01*
X153036396Y-40640000D02*
X154940000Y-40640000D01*
%TO.N,SDOA*%
X144140000Y-43930000D02*
X146935392Y-43930000D01*
%TO.N,SCKA*%
X144140000Y-43430000D02*
X146798996Y-43430000D01*
X146798996Y-43430000D02*
X149860000Y-40368996D01*
X149860000Y-40368996D02*
X149860000Y-38100000D01*
%TO.N,BUSY*%
X147662600Y-41930000D02*
X149135000Y-40457600D01*
X149135000Y-40457600D02*
X149135000Y-37799695D01*
X149135000Y-37799695D02*
X151374695Y-35560000D01*
X151374695Y-35560000D02*
X154940000Y-35560000D01*
%TO.N,G2*%
X137160000Y-64149998D02*
X136518648Y-64149998D01*
X136518648Y-64149998D02*
X136396850Y-64028200D01*
X136396850Y-64028200D02*
X136396850Y-62971800D01*
X136396850Y-62971800D02*
X140228200Y-62971800D01*
X140228200Y-62971800D02*
X142690000Y-60510000D01*
X142690000Y-60510000D02*
X152850000Y-60510000D01*
X152850000Y-60510000D02*
X154940000Y-58420000D01*
%TO.N,SEL0*%
X140340000Y-45430000D02*
X139715000Y-45430000D01*
X139715000Y-45430000D02*
X139665000Y-45480000D01*
X151950000Y-48710000D02*
X154940000Y-45720000D01*
X139665000Y-45480000D02*
X139665000Y-48225000D01*
X139665000Y-48225000D02*
X140150000Y-48710000D01*
X140150000Y-48710000D02*
X151950000Y-48710000D01*
%TO.N,SEL1*%
X140340000Y-45930000D02*
X140340000Y-46470000D01*
X140340000Y-46470000D02*
X142130000Y-48260000D01*
X142130000Y-48260000D02*
X149860000Y-48260000D01*
X149860000Y-48260000D02*
X154940000Y-43180000D01*
%TO.N,+3.3V*%
X140340000Y-40930000D02*
X139715000Y-40930000D01*
X139715000Y-40930000D02*
X139665000Y-40880000D01*
%TO.N,DRL*%
X144140000Y-44930000D02*
X148110000Y-44930000D01*
X148110000Y-44930000D02*
X154940000Y-38100000D01*
%TO.N,G0*%
X140770991Y-66480000D02*
X142130991Y-65120000D01*
X142130991Y-65120000D02*
X154020000Y-65120000D01*
X154020000Y-65120000D02*
X154940000Y-66040000D01*
%TO.N,GND*%
X140340000Y-40430000D02*
X140965000Y-40430000D01*
X140965000Y-40430000D02*
X142240000Y-41705000D01*
X142240000Y-41705000D02*
X142240000Y-43180000D01*
%TO.N,BUSY*%
X144140000Y-41930000D02*
X147662600Y-41930000D01*
%TO.N,GND*%
X142240000Y-38100000D02*
X142240000Y-43180000D01*
X147320000Y-38565000D02*
X146005000Y-38565000D01*
X146005000Y-38565000D02*
X144140000Y-40430000D01*
X132080000Y-66040000D02*
X132670002Y-65449998D01*
X132670002Y-65449998D02*
X134531100Y-65449998D01*
X137528300Y-74634999D02*
X136185001Y-74634999D01*
%TO.N,VGND*%
X135269998Y-64149998D02*
X134531100Y-64149998D01*
%TO.N,G0*%
X137160000Y-65449998D02*
X138190002Y-66480000D01*
X138190002Y-66480000D02*
X140770991Y-66480000D01*
%TO.N,REF*%
X154940000Y-48896396D02*
X154940000Y-48260000D01*
%TO.N,+2V5*%
X140340000Y-41430000D02*
X136447500Y-41430000D01*
X136447500Y-41430000D02*
X135657500Y-40640000D01*
%TO.N,Net-(U5-IN-)*%
X137410000Y-42930000D02*
X140340000Y-42930000D01*
%TO.N,Net-(U5-IN+)*%
X135370000Y-42430000D02*
X140340000Y-42430000D01*
%TO.N,GND*%
X142450000Y-40430000D02*
X142240000Y-40640000D01*
X144140000Y-40430000D02*
X142450000Y-40430000D01*
X144140000Y-44430000D02*
X143490000Y-44430000D01*
X143490000Y-44430000D02*
X142240000Y-43180000D01*
X142240000Y-43180000D02*
X142240000Y-42205000D01*
X142240000Y-42205000D02*
X143515000Y-40930000D01*
X143515000Y-40930000D02*
X144140000Y-40930000D01*
X142240000Y-43180000D02*
X141990000Y-43430000D01*
X141990000Y-43430000D02*
X140340000Y-43430000D01*
X142240000Y-43180000D02*
X140990000Y-41930000D01*
X140990000Y-41930000D02*
X140340000Y-41930000D01*
%TO.N,REF*%
X140340000Y-43930000D02*
X140340000Y-44430000D01*
X140340000Y-44430000D02*
X140340000Y-44930000D01*
X136695000Y-45720000D02*
X137485000Y-44930000D01*
X137485000Y-44930000D02*
X140340000Y-44930000D01*
%TO.N,+3.3V*%
X141871700Y-72685001D02*
X143214999Y-72685001D01*
X143802500Y-70142500D02*
X142240000Y-70142500D01*
%TO.N,VGND*%
X139374699Y-73985301D02*
X140024398Y-74634999D01*
X138074400Y-72685001D02*
X139374699Y-73985301D01*
X139374699Y-73985301D02*
X138724397Y-73334999D01*
X138724397Y-73334999D02*
X137528300Y-73334999D01*
%TO.N,+3.3V*%
X147320000Y-40640000D02*
X146530000Y-41430000D01*
X146530000Y-41430000D02*
X144140000Y-41430000D01*
%TO.N,Net-(U2-INB-)*%
X149860000Y-73660000D02*
X149860000Y-75660000D01*
X149860000Y-75660000D02*
X149320000Y-76200000D01*
X147320000Y-73120000D02*
X149320000Y-73120000D01*
X149320000Y-73120000D02*
X149860000Y-73660000D01*
X147320000Y-73120000D02*
X146454999Y-73985001D01*
X146454999Y-73985001D02*
X141871700Y-73985001D01*
%TO.N,Net-(U1-IN)*%
X147320000Y-71120000D02*
X149395000Y-71120000D01*
X149395000Y-71120000D02*
X149860000Y-71585000D01*
X141871700Y-73334999D02*
X145105001Y-73334999D01*
X145105001Y-73334999D02*
X147320000Y-71120000D01*
%TO.N,VGND*%
X137528300Y-72685001D02*
X138074400Y-72685001D01*
X140024398Y-74634999D02*
X141871700Y-74634999D01*
%TO.N,Net-(U2-INA+)*%
X134620000Y-71120000D02*
X134620000Y-74200000D01*
X134620000Y-74200000D02*
X134834999Y-73985001D01*
X134834999Y-73985001D02*
X137528300Y-73985001D01*
%TO.N,+3.3V*%
X141871700Y-72685001D02*
X142112399Y-72685001D01*
X142112399Y-72685001D02*
X142240000Y-72557400D01*
X139700000Y-64477500D02*
X138722500Y-63500000D01*
X138722500Y-63500000D02*
X137160000Y-63500000D01*
%TO.N,AMP_OUT*%
X134620000Y-60960000D02*
X134620000Y-63500000D01*
X134620000Y-63500000D02*
X134531100Y-63500000D01*
%TD*%
%TA.AperFunction,Conductor*%
%TO.N,GND*%
G36*
X133338833Y-71218599D02*
G01*
X133394767Y-71260470D01*
X133419184Y-71325934D01*
X133419500Y-71334780D01*
X133419500Y-71520000D01*
X133419501Y-71520019D01*
X133430000Y-71622796D01*
X133430001Y-71622799D01*
X133470661Y-71745500D01*
X133485186Y-71789334D01*
X133577288Y-71938656D01*
X133701344Y-72062712D01*
X133836957Y-72146358D01*
X133850668Y-72154815D01*
X133871110Y-72161588D01*
X133909502Y-72174310D01*
X133966947Y-72214081D01*
X133993772Y-72278596D01*
X133994500Y-72292016D01*
X133994500Y-73027983D01*
X133974815Y-73095022D01*
X133922011Y-73140777D01*
X133909510Y-73145686D01*
X133850666Y-73165186D01*
X133850663Y-73165187D01*
X133701342Y-73257289D01*
X133577289Y-73381342D01*
X133485187Y-73530663D01*
X133485186Y-73530666D01*
X133430001Y-73697203D01*
X133430001Y-73697204D01*
X133430000Y-73697204D01*
X133419500Y-73799983D01*
X133419500Y-74600001D01*
X133419501Y-74600019D01*
X133430000Y-74702796D01*
X133430001Y-74702799D01*
X133485185Y-74869331D01*
X133485187Y-74869336D01*
X133503338Y-74898763D01*
X133551593Y-74976998D01*
X133577289Y-75018657D01*
X133671304Y-75112672D01*
X133704789Y-75173995D01*
X133699805Y-75243687D01*
X133671305Y-75288034D01*
X133577682Y-75381657D01*
X133485643Y-75530875D01*
X133485641Y-75530880D01*
X133430494Y-75697302D01*
X133430493Y-75697309D01*
X133420000Y-75800013D01*
X133420000Y-75950000D01*
X135819999Y-75950000D01*
X135819999Y-75800028D01*
X135819998Y-75800013D01*
X135809505Y-75697302D01*
X135754358Y-75530880D01*
X135754356Y-75530875D01*
X135662315Y-75381654D01*
X135568695Y-75288034D01*
X135535210Y-75226711D01*
X135540194Y-75157019D01*
X135568691Y-75112676D01*
X135662712Y-75018656D01*
X135754814Y-74869334D01*
X135809999Y-74702797D01*
X135809999Y-74702795D01*
X135812128Y-74696371D01*
X135814872Y-74697280D01*
X135842041Y-74647120D01*
X135903249Y-74613426D01*
X135930021Y-74610501D01*
X136142300Y-74610501D01*
X136209339Y-74630186D01*
X136255094Y-74682990D01*
X136266300Y-74734501D01*
X136266300Y-74898743D01*
X136272701Y-74958271D01*
X136272703Y-74958278D01*
X136322945Y-75092985D01*
X136322949Y-75092992D01*
X136409109Y-75208086D01*
X136409112Y-75208089D01*
X136524206Y-75294249D01*
X136524213Y-75294253D01*
X136658920Y-75344495D01*
X136658927Y-75344497D01*
X136718455Y-75350898D01*
X136718472Y-75350899D01*
X137312400Y-75350899D01*
X137312400Y-74825400D01*
X137332085Y-74758361D01*
X137384889Y-74712606D01*
X137436397Y-74701400D01*
X137620201Y-74701400D01*
X137687239Y-74721085D01*
X137732994Y-74773889D01*
X137744200Y-74825400D01*
X137744200Y-75350899D01*
X138338128Y-75350899D01*
X138338144Y-75350898D01*
X138397672Y-75344497D01*
X138397679Y-75344495D01*
X138532386Y-75294253D01*
X138532393Y-75294249D01*
X138647487Y-75208089D01*
X138647490Y-75208086D01*
X138733650Y-75092992D01*
X138733654Y-75092985D01*
X138783896Y-74958278D01*
X138783898Y-74958271D01*
X138790299Y-74898743D01*
X138790300Y-74898726D01*
X138790300Y-74850899D01*
X138629738Y-74850899D01*
X138562699Y-74831214D01*
X138516944Y-74778410D01*
X138507000Y-74709252D01*
X138536025Y-74645696D01*
X138555426Y-74627633D01*
X138576008Y-74612225D01*
X138647846Y-74558447D01*
X138714966Y-74468787D01*
X138770900Y-74426917D01*
X138804409Y-74420871D01*
X138830741Y-74406492D01*
X138900433Y-74411474D01*
X138944780Y-74439972D01*
X139036203Y-74531395D01*
X139113344Y-74608536D01*
X139146828Y-74669859D01*
X139148935Y-74682810D01*
X139163245Y-74814382D01*
X139164325Y-74824315D01*
X139223352Y-74999500D01*
X139225132Y-75004781D01*
X139261476Y-75065185D01*
X139323309Y-75167953D01*
X139438917Y-75289999D01*
X139454270Y-75306207D01*
X139611891Y-75413076D01*
X139788791Y-75483560D01*
X139788795Y-75483560D01*
X139788796Y-75483561D01*
X139976720Y-75514369D01*
X140166873Y-75504060D01*
X140350365Y-75453113D01*
X140518614Y-75363913D01*
X140605642Y-75289990D01*
X140669480Y-75261593D01*
X140685918Y-75260499D01*
X140780417Y-75260499D01*
X140847456Y-75280184D01*
X140854728Y-75285232D01*
X140866773Y-75294249D01*
X140867368Y-75294694D01*
X140867371Y-75294696D01*
X141002217Y-75344990D01*
X141002216Y-75344990D01*
X141009144Y-75345734D01*
X141061827Y-75351399D01*
X142681572Y-75351398D01*
X142741183Y-75344990D01*
X142876031Y-75294695D01*
X142991246Y-75208445D01*
X143077496Y-75093230D01*
X143127791Y-74958382D01*
X143134200Y-74898772D01*
X143134199Y-74734500D01*
X143153883Y-74667462D01*
X143206687Y-74621707D01*
X143258199Y-74610501D01*
X146372256Y-74610501D01*
X146387876Y-74612225D01*
X146387903Y-74611940D01*
X146395659Y-74612672D01*
X146395666Y-74612674D01*
X146464813Y-74610501D01*
X146494349Y-74610501D01*
X146501227Y-74609631D01*
X146507040Y-74609173D01*
X146553626Y-74607710D01*
X146572868Y-74602118D01*
X146591911Y-74598175D01*
X146611791Y-74595665D01*
X146655121Y-74578508D01*
X146660645Y-74576618D01*
X146664395Y-74575528D01*
X146705389Y-74563619D01*
X146722628Y-74553423D01*
X146740102Y-74544863D01*
X146758726Y-74537489D01*
X146758726Y-74537488D01*
X146758731Y-74537487D01*
X146796448Y-74510083D01*
X146801304Y-74506893D01*
X146841419Y-74483171D01*
X146855588Y-74469000D01*
X146870378Y-74456369D01*
X146886586Y-74444595D01*
X146916298Y-74408677D01*
X146920211Y-74404377D01*
X147067773Y-74256815D01*
X147129094Y-74223333D01*
X147155452Y-74220499D01*
X147820002Y-74220499D01*
X147820008Y-74220499D01*
X147922797Y-74209999D01*
X148089334Y-74154814D01*
X148238656Y-74062712D01*
X148362712Y-73938656D01*
X148404962Y-73870156D01*
X148456910Y-73823432D01*
X148525872Y-73812209D01*
X148589954Y-73840052D01*
X148628811Y-73898121D01*
X148634501Y-73935253D01*
X148634501Y-74047518D01*
X148645000Y-74150296D01*
X148645001Y-74150299D01*
X148680298Y-74256817D01*
X148700186Y-74316834D01*
X148792288Y-74466156D01*
X148916344Y-74590212D01*
X149065666Y-74682314D01*
X149149505Y-74710095D01*
X149206948Y-74749866D01*
X149233772Y-74814382D01*
X149234500Y-74827800D01*
X149234500Y-74875500D01*
X149214815Y-74942539D01*
X149162011Y-74988294D01*
X149110501Y-74999500D01*
X148919999Y-74999500D01*
X148919980Y-74999501D01*
X148817203Y-75010000D01*
X148817200Y-75010001D01*
X148650668Y-75065185D01*
X148650663Y-75065187D01*
X148501342Y-75157289D01*
X148407681Y-75250951D01*
X148346358Y-75284436D01*
X148276666Y-75279452D01*
X148232319Y-75250951D01*
X148138657Y-75157289D01*
X148138656Y-75157288D01*
X147989334Y-75065186D01*
X147822797Y-75010001D01*
X147822795Y-75010000D01*
X147720010Y-74999500D01*
X146919998Y-74999500D01*
X146919980Y-74999501D01*
X146817203Y-75010000D01*
X146817200Y-75010001D01*
X146650668Y-75065185D01*
X146650663Y-75065187D01*
X146501342Y-75157289D01*
X146377289Y-75281342D01*
X146285187Y-75430663D01*
X146285186Y-75430666D01*
X146267659Y-75483561D01*
X146265689Y-75489505D01*
X146225916Y-75546949D01*
X146161400Y-75573772D01*
X146147983Y-75574500D01*
X145483748Y-75574500D01*
X145416709Y-75554815D01*
X145391600Y-75533474D01*
X145385873Y-75527114D01*
X145385869Y-75527110D01*
X145232734Y-75415851D01*
X145232729Y-75415848D01*
X145059807Y-75338857D01*
X145059802Y-75338855D01*
X144906200Y-75306207D01*
X144874646Y-75299500D01*
X144685354Y-75299500D01*
X144653800Y-75306207D01*
X144500197Y-75338855D01*
X144500192Y-75338857D01*
X144327270Y-75415848D01*
X144327265Y-75415851D01*
X144174129Y-75527111D01*
X144047466Y-75667785D01*
X143952821Y-75831715D01*
X143952818Y-75831722D01*
X143909645Y-75964596D01*
X143894326Y-76011744D01*
X143874540Y-76200000D01*
X143894326Y-76388256D01*
X143894327Y-76388259D01*
X143910223Y-76437182D01*
X143912218Y-76507023D01*
X143876138Y-76566856D01*
X143813437Y-76597684D01*
X143792292Y-76599500D01*
X135944000Y-76599500D01*
X135876961Y-76579815D01*
X135831206Y-76527011D01*
X135820000Y-76475500D01*
X135820000Y-76450000D01*
X133420001Y-76450000D01*
X133420001Y-76475500D01*
X133400316Y-76542539D01*
X133347512Y-76588294D01*
X133296001Y-76599500D01*
X131464500Y-76599500D01*
X131397461Y-76579815D01*
X131351706Y-76527011D01*
X131340500Y-76475500D01*
X131340500Y-74605589D01*
X131360185Y-74538550D01*
X131412989Y-74492795D01*
X131482147Y-74482851D01*
X131540403Y-74507535D01*
X131548042Y-74513448D01*
X131730729Y-74603060D01*
X131927715Y-74654063D01*
X132130936Y-74664369D01*
X132332071Y-74633556D01*
X132522887Y-74562886D01*
X132695571Y-74455252D01*
X132843053Y-74315059D01*
X132959295Y-74148049D01*
X133039540Y-73961058D01*
X133080500Y-73761741D01*
X133080500Y-71425782D01*
X133100185Y-71358743D01*
X133116813Y-71338106D01*
X133207822Y-71247097D01*
X133269141Y-71213615D01*
X133338833Y-71218599D01*
G37*
%TD.AperFunction*%
%TA.AperFunction,Conductor*%
G36*
X144637539Y-65765185D02*
G01*
X144683294Y-65817989D01*
X144694500Y-65869500D01*
X144694500Y-67642870D01*
X144694501Y-67642876D01*
X144700908Y-67702481D01*
X144707125Y-67719150D01*
X144712106Y-67788842D01*
X144678618Y-67850164D01*
X144671715Y-67856562D01*
X144636103Y-67887135D01*
X144615076Y-67914300D01*
X144609884Y-67920194D01*
X143449098Y-69080981D01*
X143387775Y-69114466D01*
X143318083Y-69109482D01*
X143296321Y-69098839D01*
X143209340Y-69045189D01*
X143209335Y-69045187D01*
X143209334Y-69045186D01*
X143042797Y-68990001D01*
X143042795Y-68990000D01*
X142940010Y-68979500D01*
X141539998Y-68979500D01*
X141539981Y-68979501D01*
X141437203Y-68990000D01*
X141437200Y-68990001D01*
X141270668Y-69045185D01*
X141270663Y-69045187D01*
X141121342Y-69137289D01*
X140997289Y-69261342D01*
X140905187Y-69410663D01*
X140905186Y-69410666D01*
X140850001Y-69577203D01*
X140850001Y-69577204D01*
X140850000Y-69577204D01*
X140839500Y-69679983D01*
X140839500Y-70605001D01*
X140839501Y-70605019D01*
X140850000Y-70707796D01*
X140850229Y-70708862D01*
X140850178Y-70709535D01*
X140850689Y-70714532D01*
X140849797Y-70714623D01*
X140845011Y-70778536D01*
X140802953Y-70834329D01*
X140737407Y-70858527D01*
X140669184Y-70843447D01*
X140638953Y-70820090D01*
X140594526Y-70773190D01*
X140594524Y-70773189D01*
X140594368Y-70773083D01*
X140576275Y-70758131D01*
X138781016Y-68962872D01*
X138747531Y-68901549D01*
X138752515Y-68831857D01*
X138794387Y-68775924D01*
X138859851Y-68751507D01*
X138894663Y-68753940D01*
X138897308Y-68754506D01*
X139000019Y-68764999D01*
X139449999Y-68764999D01*
X139450000Y-68764998D01*
X139450000Y-67852500D01*
X138300001Y-67852500D01*
X138300001Y-68064986D01*
X138310494Y-68167701D01*
X138311061Y-68170348D01*
X138310935Y-68172020D01*
X138311182Y-68174431D01*
X138310752Y-68174474D01*
X138305845Y-68240023D01*
X138263787Y-68295816D01*
X138198242Y-68320015D01*
X138130019Y-68304935D01*
X138102127Y-68283983D01*
X136608669Y-66790525D01*
X136575184Y-66729202D01*
X136572350Y-66702844D01*
X136572350Y-66277697D01*
X136592035Y-66210658D01*
X136644839Y-66164903D01*
X136696345Y-66153697D01*
X136927747Y-66153697D01*
X136994786Y-66173382D01*
X137015428Y-66190016D01*
X137689196Y-66863784D01*
X137699021Y-66876048D01*
X137699242Y-66875866D01*
X137704212Y-66881873D01*
X137704215Y-66881876D01*
X137704216Y-66881877D01*
X137754653Y-66929241D01*
X137775531Y-66950119D01*
X137781006Y-66954366D01*
X137785448Y-66958160D01*
X137819417Y-66990060D01*
X137819419Y-66990061D01*
X137819420Y-66990062D01*
X137836978Y-66999714D01*
X137853239Y-67010396D01*
X137869066Y-67022673D01*
X137911825Y-67041176D01*
X137917075Y-67043748D01*
X137957906Y-67066195D01*
X137957910Y-67066197D01*
X137957914Y-67066198D01*
X137977313Y-67071179D01*
X137995724Y-67077483D01*
X138014099Y-67085435D01*
X138014102Y-67085435D01*
X138014107Y-67085438D01*
X138060151Y-67092729D01*
X138065834Y-67093906D01*
X138110983Y-67105500D01*
X138131018Y-67105500D01*
X138150415Y-67107026D01*
X138170198Y-67110160D01*
X138170205Y-67110159D01*
X138177995Y-67110405D01*
X138177902Y-67113348D01*
X138232897Y-67123988D01*
X138283430Y-67172239D01*
X138300000Y-67234164D01*
X138300000Y-67352500D01*
X139826000Y-67352500D01*
X139893039Y-67372185D01*
X139938794Y-67424989D01*
X139950000Y-67476500D01*
X139950000Y-68764999D01*
X140399972Y-68764999D01*
X140399986Y-68764998D01*
X140502697Y-68754505D01*
X140669119Y-68699358D01*
X140669124Y-68699356D01*
X140818345Y-68607315D01*
X140942315Y-68483345D01*
X141034356Y-68334124D01*
X141034358Y-68334119D01*
X141085632Y-68179385D01*
X141125404Y-68121940D01*
X141189920Y-68095117D01*
X141258696Y-68107432D01*
X141268441Y-68112854D01*
X141270876Y-68114356D01*
X141270880Y-68114358D01*
X141437302Y-68169505D01*
X141437309Y-68169506D01*
X141540019Y-68179999D01*
X141989999Y-68179999D01*
X141990000Y-68179998D01*
X141990000Y-67267500D01*
X142490000Y-67267500D01*
X142490000Y-68179999D01*
X142939972Y-68179999D01*
X142939986Y-68179998D01*
X143042697Y-68169505D01*
X143209119Y-68114358D01*
X143209124Y-68114356D01*
X143358345Y-68022315D01*
X143482315Y-67898345D01*
X143574356Y-67749124D01*
X143574358Y-67749119D01*
X143629505Y-67582697D01*
X143629506Y-67582690D01*
X143639999Y-67479986D01*
X143640000Y-67479973D01*
X143640000Y-67267500D01*
X142490000Y-67267500D01*
X141990000Y-67267500D01*
X141990000Y-66891500D01*
X142009685Y-66824461D01*
X142062489Y-66778706D01*
X142114000Y-66767500D01*
X143639999Y-66767500D01*
X143639999Y-66555028D01*
X143639998Y-66555013D01*
X143629505Y-66452302D01*
X143574358Y-66285880D01*
X143574356Y-66285875D01*
X143482315Y-66136654D01*
X143358344Y-66012683D01*
X143358340Y-66012680D01*
X143297313Y-65975038D01*
X143250588Y-65923090D01*
X143239367Y-65854128D01*
X143267210Y-65790046D01*
X143325279Y-65751190D01*
X143362410Y-65745500D01*
X144570500Y-65745500D01*
X144637539Y-65765185D01*
G37*
%TD.AperFunction*%
%TA.AperFunction,Conductor*%
G36*
X133535989Y-65445185D02*
G01*
X133581744Y-65497989D01*
X133592950Y-65549500D01*
X133592950Y-65701042D01*
X133599351Y-65760570D01*
X133599353Y-65760577D01*
X133649595Y-65895284D01*
X133649599Y-65895291D01*
X133735759Y-66010385D01*
X133735762Y-66010388D01*
X133850856Y-66096548D01*
X133850863Y-66096552D01*
X133985570Y-66146794D01*
X133985577Y-66146796D01*
X134045105Y-66153197D01*
X134045122Y-66153198D01*
X134327900Y-66153198D01*
X134327900Y-65627699D01*
X134347585Y-65560660D01*
X134400389Y-65514905D01*
X134451897Y-65503699D01*
X134610300Y-65503699D01*
X134677339Y-65523384D01*
X134723094Y-65576188D01*
X134734300Y-65627699D01*
X134734300Y-66153198D01*
X134749660Y-66168558D01*
X134764389Y-66172883D01*
X134810144Y-66225687D01*
X134821350Y-66277198D01*
X134821350Y-67078747D01*
X134821145Y-67083781D01*
X134816510Y-67140693D01*
X134827764Y-67223291D01*
X134836777Y-67306166D01*
X134836779Y-67306177D01*
X134836840Y-67306356D01*
X134842190Y-67329181D01*
X134842216Y-67329375D01*
X134842219Y-67329386D01*
X134870969Y-67407644D01*
X134897580Y-67486624D01*
X134897584Y-67486632D01*
X134897682Y-67486795D01*
X134907819Y-67507949D01*
X134907886Y-67508133D01*
X134907888Y-67508136D01*
X134952789Y-67578385D01*
X134955384Y-67582697D01*
X134995761Y-67649804D01*
X134995892Y-67649942D01*
X135010345Y-67668429D01*
X135010452Y-67668597D01*
X135042561Y-67700705D01*
X135069402Y-67727546D01*
X135126721Y-67788057D01*
X135126878Y-67788164D01*
X135144971Y-67803115D01*
X135149675Y-67807819D01*
X135183160Y-67869142D01*
X135178176Y-67938834D01*
X135136304Y-67994767D01*
X135070840Y-68019184D01*
X135061994Y-68019500D01*
X134119998Y-68019500D01*
X134119980Y-68019501D01*
X134017203Y-68030000D01*
X134017200Y-68030001D01*
X133850662Y-68085187D01*
X133804605Y-68113594D01*
X133752063Y-68131416D01*
X133717563Y-68134925D01*
X133717562Y-68134926D01*
X133684780Y-68145210D01*
X133677156Y-68147081D01*
X133669308Y-68148488D01*
X133643349Y-68153141D01*
X133586381Y-68175895D01*
X133581945Y-68177474D01*
X133523414Y-68195840D01*
X133523410Y-68195842D01*
X133493378Y-68212510D01*
X133486284Y-68215879D01*
X133454382Y-68228623D01*
X133454377Y-68228625D01*
X133403156Y-68262381D01*
X133399128Y-68264822D01*
X133345501Y-68294588D01*
X133319434Y-68316965D01*
X133313165Y-68321692D01*
X133284484Y-68340595D01*
X133284478Y-68340600D01*
X133241109Y-68383968D01*
X133237655Y-68387169D01*
X133191102Y-68427136D01*
X133170076Y-68454298D01*
X133164885Y-68460192D01*
X131552181Y-70072897D01*
X131490858Y-70106382D01*
X131421166Y-70101398D01*
X131365233Y-70059526D01*
X131340816Y-69994062D01*
X131340500Y-69985216D01*
X131340500Y-66690147D01*
X131360185Y-66623108D01*
X131376819Y-66602466D01*
X132517467Y-65461819D01*
X132578790Y-65428334D01*
X132605148Y-65425500D01*
X133468950Y-65425500D01*
X133535989Y-65445185D01*
G37*
%TD.AperFunction*%
%TA.AperFunction,Conductor*%
G36*
X153541824Y-65765185D02*
G01*
X153587579Y-65817989D01*
X153598312Y-65880306D01*
X153597002Y-65895291D01*
X153584341Y-66039999D01*
X153584341Y-66040000D01*
X153604936Y-66275403D01*
X153604938Y-66275413D01*
X153666094Y-66503655D01*
X153666096Y-66503659D01*
X153666097Y-66503663D01*
X153729106Y-66638785D01*
X153765965Y-66717830D01*
X153765967Y-66717834D01*
X153901501Y-66911395D01*
X153901506Y-66911402D01*
X154068597Y-67078493D01*
X154068603Y-67078498D01*
X154254158Y-67208425D01*
X154297783Y-67263002D01*
X154304977Y-67332500D01*
X154273454Y-67394855D01*
X154254158Y-67411575D01*
X154068597Y-67541505D01*
X153901505Y-67708597D01*
X153765965Y-67902169D01*
X153765964Y-67902171D01*
X153666098Y-68116335D01*
X153666094Y-68116344D01*
X153611196Y-68321232D01*
X153574831Y-68380893D01*
X153511984Y-68411422D01*
X153442609Y-68403127D01*
X153388731Y-68358642D01*
X153375140Y-68332205D01*
X153302888Y-68137118D01*
X153302887Y-68137117D01*
X153302886Y-68137113D01*
X153195252Y-67964429D01*
X153055059Y-67816947D01*
X152899391Y-67708599D01*
X152888050Y-67700705D01*
X152701056Y-67620459D01*
X152501741Y-67579500D01*
X149880068Y-67579500D01*
X149813029Y-67559815D01*
X149767274Y-67507011D01*
X149757330Y-67437853D01*
X149767686Y-67403096D01*
X149858428Y-67208497D01*
X149858432Y-67208486D01*
X149915636Y-66995000D01*
X149018686Y-66995000D01*
X149044493Y-66954844D01*
X149085000Y-66816889D01*
X149085000Y-66673111D01*
X149044493Y-66535156D01*
X149018686Y-66495000D01*
X149915636Y-66495000D01*
X149915635Y-66494999D01*
X149858432Y-66281513D01*
X149858429Y-66281507D01*
X149758600Y-66067422D01*
X149758599Y-66067420D01*
X149669815Y-65940623D01*
X149647488Y-65874417D01*
X149664498Y-65806650D01*
X149715446Y-65758837D01*
X149771390Y-65745500D01*
X153474785Y-65745500D01*
X153541824Y-65765185D01*
G37*
%TD.AperFunction*%
%TA.AperFunction,Conductor*%
G36*
X153503675Y-48143428D02*
G01*
X153559608Y-48185300D01*
X153584025Y-48250764D01*
X153584341Y-48259610D01*
X153584341Y-48260000D01*
X153604936Y-48495403D01*
X153604938Y-48495413D01*
X153666094Y-48723655D01*
X153666096Y-48723659D01*
X153666097Y-48723663D01*
X153765965Y-48937830D01*
X153765967Y-48937834D01*
X153874281Y-49092521D01*
X153900079Y-49129365D01*
X153901501Y-49131395D01*
X153901506Y-49131402D01*
X154068597Y-49298493D01*
X154068603Y-49298498D01*
X154254158Y-49428425D01*
X154297783Y-49483002D01*
X154304977Y-49552500D01*
X154273454Y-49614855D01*
X154254158Y-49631575D01*
X154068597Y-49761505D01*
X153901505Y-49928597D01*
X153765965Y-50122169D01*
X153765964Y-50122171D01*
X153666098Y-50336335D01*
X153666094Y-50336344D01*
X153604938Y-50564586D01*
X153604936Y-50564596D01*
X153584341Y-50799999D01*
X153584341Y-50800000D01*
X153604936Y-51035403D01*
X153604938Y-51035413D01*
X153666094Y-51263655D01*
X153666096Y-51263659D01*
X153666097Y-51263663D01*
X153698063Y-51332214D01*
X153765965Y-51477830D01*
X153765967Y-51477834D01*
X153901501Y-51671395D01*
X153901506Y-51671402D01*
X154068597Y-51838493D01*
X154068603Y-51838498D01*
X154254158Y-51968425D01*
X154297783Y-52023002D01*
X154304977Y-52092500D01*
X154273454Y-52154855D01*
X154254158Y-52171575D01*
X154068597Y-52301505D01*
X153901505Y-52468597D01*
X153765965Y-52662169D01*
X153765964Y-52662171D01*
X153666098Y-52876335D01*
X153666094Y-52876344D01*
X153604938Y-53104586D01*
X153604936Y-53104596D01*
X153584341Y-53339999D01*
X153584341Y-53340000D01*
X153604937Y-53575408D01*
X153631855Y-53675873D01*
X153630192Y-53745723D01*
X153599761Y-53795646D01*
X151284598Y-56110808D01*
X151223275Y-56144293D01*
X151153583Y-56139309D01*
X151097650Y-56097437D01*
X151073233Y-56031973D01*
X151073389Y-56012319D01*
X151084966Y-55880000D01*
X151084966Y-55879997D01*
X151065141Y-55653400D01*
X151065139Y-55653389D01*
X151006269Y-55433682D01*
X151006265Y-55433673D01*
X150910133Y-55227516D01*
X150910131Y-55227512D01*
X150859026Y-55154526D01*
X150859025Y-55154526D01*
X150177953Y-55835598D01*
X150165165Y-55754852D01*
X150107641Y-55641955D01*
X150018045Y-55552359D01*
X149905148Y-55494835D01*
X149824400Y-55482046D01*
X150505472Y-54800974D01*
X150505471Y-54800973D01*
X150432483Y-54749866D01*
X150432481Y-54749865D01*
X150226326Y-54653734D01*
X150226317Y-54653730D01*
X150006610Y-54594860D01*
X150006599Y-54594858D01*
X149780002Y-54575034D01*
X149779998Y-54575034D01*
X149553400Y-54594858D01*
X149553389Y-54594860D01*
X149333682Y-54653730D01*
X149333673Y-54653734D01*
X149127513Y-54749868D01*
X149054527Y-54800972D01*
X149054526Y-54800973D01*
X149735600Y-55482046D01*
X149654852Y-55494835D01*
X149541955Y-55552359D01*
X149452359Y-55641955D01*
X149394835Y-55754852D01*
X149382046Y-55835599D01*
X148700973Y-55154526D01*
X148700972Y-55154527D01*
X148649868Y-55227513D01*
X148553734Y-55433673D01*
X148553730Y-55433682D01*
X148494860Y-55653389D01*
X148494858Y-55653400D01*
X148475034Y-55879997D01*
X148475034Y-55880002D01*
X148494858Y-56106599D01*
X148494860Y-56106610D01*
X148553730Y-56326317D01*
X148553734Y-56326326D01*
X148649865Y-56532481D01*
X148649866Y-56532483D01*
X148700973Y-56605471D01*
X148700974Y-56605472D01*
X149382046Y-55924399D01*
X149394835Y-56005148D01*
X149452359Y-56118045D01*
X149541955Y-56207641D01*
X149654852Y-56265165D01*
X149735599Y-56277953D01*
X149054526Y-56959025D01*
X149054526Y-56959026D01*
X149127512Y-57010131D01*
X149127516Y-57010133D01*
X149333673Y-57106265D01*
X149333682Y-57106269D01*
X149553389Y-57165139D01*
X149553400Y-57165141D01*
X149779998Y-57184966D01*
X149780001Y-57184966D01*
X149912319Y-57173389D01*
X149980819Y-57187155D01*
X150031002Y-57235770D01*
X150046936Y-57303799D01*
X150023561Y-57369643D01*
X150010808Y-57384598D01*
X148712228Y-58683181D01*
X148650905Y-58716666D01*
X148624547Y-58719500D01*
X143301230Y-58719500D01*
X143234191Y-58699815D01*
X143188436Y-58647011D01*
X143178492Y-58577853D01*
X143207517Y-58514297D01*
X143213549Y-58507819D01*
X143536782Y-58184586D01*
X144514652Y-57206714D01*
X144575973Y-57173231D01*
X144613135Y-57170869D01*
X144756366Y-57183400D01*
X144779999Y-57185468D01*
X144780000Y-57185468D01*
X144780002Y-57185468D01*
X144836673Y-57180509D01*
X145006692Y-57165635D01*
X145226496Y-57106739D01*
X145432734Y-57010568D01*
X145619139Y-56880047D01*
X145780047Y-56719139D01*
X145910568Y-56532734D01*
X146006739Y-56326496D01*
X146065635Y-56106692D01*
X146085468Y-55880000D01*
X146065635Y-55653308D01*
X146006739Y-55433504D01*
X145910568Y-55227266D01*
X145780047Y-55040861D01*
X145780045Y-55040858D01*
X145619141Y-54879954D01*
X145432734Y-54749432D01*
X145432732Y-54749431D01*
X145226497Y-54653261D01*
X145226488Y-54653258D01*
X145006697Y-54594366D01*
X145006693Y-54594365D01*
X145006692Y-54594365D01*
X145006691Y-54594364D01*
X145006686Y-54594364D01*
X144780002Y-54574532D01*
X144779997Y-54574532D01*
X144613137Y-54589129D01*
X144544637Y-54575362D01*
X144514650Y-54553282D01*
X141824590Y-51863222D01*
X141791105Y-51801899D01*
X141796089Y-51732207D01*
X141837961Y-51676274D01*
X141903425Y-51651857D01*
X141953520Y-51660650D01*
X141954013Y-51659135D01*
X141960197Y-51661144D01*
X142145354Y-51700500D01*
X142145355Y-51700500D01*
X142334644Y-51700500D01*
X142334646Y-51700500D01*
X142519803Y-51661144D01*
X142692730Y-51584151D01*
X142845871Y-51472888D01*
X142972533Y-51332216D01*
X143067179Y-51168284D01*
X143125674Y-50988256D01*
X143145460Y-50800000D01*
X143125674Y-50611744D01*
X143067179Y-50431716D01*
X142972533Y-50267784D01*
X142845871Y-50127112D01*
X142845870Y-50127111D01*
X142692734Y-50015851D01*
X142692729Y-50015848D01*
X142519807Y-49938857D01*
X142519802Y-49938855D01*
X142374001Y-49907865D01*
X142334646Y-49899500D01*
X142145354Y-49899500D01*
X142112897Y-49906398D01*
X141960197Y-49938855D01*
X141960192Y-49938857D01*
X141787270Y-50015848D01*
X141787265Y-50015851D01*
X141634130Y-50127110D01*
X141634126Y-50127114D01*
X141628400Y-50133474D01*
X141568913Y-50170121D01*
X141536252Y-50174500D01*
X141360452Y-50174500D01*
X141293413Y-50154815D01*
X141272771Y-50138181D01*
X140681771Y-49547181D01*
X140648286Y-49485858D01*
X140653270Y-49416166D01*
X140695142Y-49360233D01*
X140760606Y-49335816D01*
X140769452Y-49335500D01*
X151867257Y-49335500D01*
X151882877Y-49337224D01*
X151882904Y-49336939D01*
X151890660Y-49337671D01*
X151890667Y-49337673D01*
X151959814Y-49335500D01*
X151989350Y-49335500D01*
X151996228Y-49334630D01*
X152002041Y-49334172D01*
X152048627Y-49332709D01*
X152067869Y-49327117D01*
X152086912Y-49323174D01*
X152106792Y-49320664D01*
X152150122Y-49303507D01*
X152155646Y-49301617D01*
X152159396Y-49300527D01*
X152200390Y-49288618D01*
X152217629Y-49278422D01*
X152235103Y-49269862D01*
X152253727Y-49262488D01*
X152253727Y-49262487D01*
X152253732Y-49262486D01*
X152291449Y-49235082D01*
X152296305Y-49231892D01*
X152336420Y-49208170D01*
X152350589Y-49193999D01*
X152365379Y-49181368D01*
X152381587Y-49169594D01*
X152411299Y-49133676D01*
X152415212Y-49129376D01*
X153372660Y-48171929D01*
X153433983Y-48138444D01*
X153503675Y-48143428D01*
G37*
%TD.AperFunction*%
%TA.AperFunction,Conductor*%
G36*
X136065809Y-43075185D02*
G01*
X136111564Y-43127989D01*
X136121508Y-43197147D01*
X136092483Y-43260703D01*
X136086451Y-43267181D01*
X135171858Y-44181772D01*
X135158229Y-44193551D01*
X135138968Y-44207890D01*
X135105398Y-44247897D01*
X135101753Y-44251876D01*
X135095909Y-44257722D01*
X135075559Y-44283459D01*
X135026195Y-44342289D01*
X135022229Y-44348319D01*
X135022182Y-44348288D01*
X135018130Y-44354647D01*
X135018179Y-44354677D01*
X135014389Y-44360821D01*
X134985204Y-44423407D01*
X134939031Y-44475845D01*
X134872823Y-44495000D01*
X134870000Y-44495000D01*
X134870000Y-46944999D01*
X134882696Y-46957695D01*
X134906497Y-46964684D01*
X134952252Y-47017488D01*
X134957163Y-47029993D01*
X134972682Y-47076826D01*
X134975736Y-47083374D01*
X134975682Y-47083398D01*
X134978970Y-47090188D01*
X134979021Y-47090163D01*
X134982261Y-47096613D01*
X134982262Y-47096614D01*
X134982263Y-47096617D01*
X134992171Y-47111681D01*
X135024465Y-47160783D01*
X135064787Y-47226155D01*
X135069266Y-47231819D01*
X135069219Y-47231856D01*
X135073982Y-47237702D01*
X135074028Y-47237664D01*
X135078673Y-47243200D01*
X135134518Y-47295886D01*
X139671661Y-51833029D01*
X139705146Y-51894352D01*
X139700162Y-51964044D01*
X139658290Y-52019977D01*
X139594788Y-52044238D01*
X139473399Y-52054858D01*
X139473389Y-52054860D01*
X139253682Y-52113730D01*
X139253673Y-52113734D01*
X139047513Y-52209868D01*
X138974526Y-52260973D01*
X139655599Y-52942046D01*
X139574852Y-52954835D01*
X139461955Y-53012359D01*
X139372359Y-53101955D01*
X139314835Y-53214852D01*
X139302046Y-53295599D01*
X138620973Y-52614526D01*
X138620972Y-52614527D01*
X138569868Y-52687513D01*
X138473734Y-52893673D01*
X138473730Y-52893682D01*
X138414860Y-53113389D01*
X138414858Y-53113400D01*
X138395034Y-53339997D01*
X138395034Y-53340002D01*
X138414858Y-53566599D01*
X138414860Y-53566610D01*
X138473730Y-53786317D01*
X138473734Y-53786326D01*
X138569865Y-53992481D01*
X138569866Y-53992483D01*
X138620973Y-54065471D01*
X138620974Y-54065472D01*
X139302046Y-53384399D01*
X139314835Y-53465148D01*
X139372359Y-53578045D01*
X139461955Y-53667641D01*
X139574852Y-53725165D01*
X139655599Y-53737953D01*
X138974526Y-54419025D01*
X138974526Y-54419026D01*
X139047512Y-54470131D01*
X139047516Y-54470133D01*
X139253673Y-54566265D01*
X139253682Y-54566269D01*
X139473389Y-54625139D01*
X139473400Y-54625141D01*
X139699998Y-54644966D01*
X139700002Y-54644966D01*
X139926599Y-54625141D01*
X139926610Y-54625139D01*
X140146317Y-54566269D01*
X140146331Y-54566264D01*
X140352478Y-54470136D01*
X140425472Y-54419025D01*
X139744401Y-53737953D01*
X139825148Y-53725165D01*
X139938045Y-53667641D01*
X140027641Y-53578045D01*
X140085165Y-53465148D01*
X140097953Y-53384400D01*
X140779025Y-54065472D01*
X140830136Y-53992478D01*
X140926264Y-53786331D01*
X140926269Y-53786317D01*
X140985139Y-53566610D01*
X140985141Y-53566599D01*
X140995761Y-53445212D01*
X141021213Y-53380143D01*
X141077804Y-53339164D01*
X141147566Y-53335286D01*
X141206970Y-53368338D01*
X143453282Y-55614650D01*
X143486767Y-55675973D01*
X143489129Y-55713137D01*
X143474532Y-55879996D01*
X143474532Y-55880003D01*
X143489129Y-56046861D01*
X143475362Y-56115360D01*
X143453282Y-56145348D01*
X141965451Y-57633181D01*
X141904128Y-57666666D01*
X141877770Y-57669500D01*
X138313958Y-57669500D01*
X138246919Y-57649815D01*
X138208420Y-57610598D01*
X138202712Y-57601344D01*
X138078657Y-57477289D01*
X138078656Y-57477288D01*
X137929334Y-57385186D01*
X137762797Y-57330001D01*
X137762795Y-57330000D01*
X137660010Y-57319500D01*
X136659998Y-57319500D01*
X136659980Y-57319501D01*
X136557203Y-57330000D01*
X136557200Y-57330001D01*
X136390668Y-57385185D01*
X136390663Y-57385187D01*
X136241342Y-57477289D01*
X136117289Y-57601342D01*
X136025187Y-57750663D01*
X136025186Y-57750666D01*
X135970001Y-57917203D01*
X135970001Y-57917204D01*
X135970000Y-57917204D01*
X135959500Y-58019983D01*
X135959500Y-58185276D01*
X135939815Y-58252315D01*
X135887011Y-58298070D01*
X135817853Y-58308014D01*
X135754297Y-58278989D01*
X135729961Y-58250373D01*
X135662712Y-58141344D01*
X135538656Y-58017288D01*
X135429402Y-57949900D01*
X135382679Y-57897953D01*
X135370500Y-57844362D01*
X135370500Y-54522678D01*
X135390185Y-54455639D01*
X135423375Y-54421104D01*
X135539139Y-54340047D01*
X135700047Y-54179139D01*
X135830568Y-53992734D01*
X135926739Y-53786496D01*
X135985635Y-53566692D01*
X136005468Y-53340000D01*
X135985635Y-53113308D01*
X135926739Y-52893504D01*
X135830568Y-52687266D01*
X135700047Y-52500861D01*
X135700045Y-52500858D01*
X135539141Y-52339954D01*
X135352734Y-52209432D01*
X135352732Y-52209431D01*
X135146497Y-52113261D01*
X135146488Y-52113258D01*
X134926697Y-52054366D01*
X134926693Y-52054365D01*
X134926692Y-52054365D01*
X134926691Y-52054364D01*
X134926686Y-52054364D01*
X134700002Y-52034532D01*
X134699997Y-52034532D01*
X134533137Y-52049129D01*
X134464637Y-52035362D01*
X134434650Y-52013282D01*
X134369319Y-51947951D01*
X134335834Y-51886628D01*
X134333000Y-51860270D01*
X134333000Y-47033361D01*
X134352685Y-46966322D01*
X134369319Y-46945680D01*
X134370000Y-46944999D01*
X134370000Y-44542729D01*
X134389685Y-44475690D01*
X134406314Y-44455053D01*
X135769549Y-43091819D01*
X135830872Y-43058334D01*
X135857230Y-43055500D01*
X135998770Y-43055500D01*
X136065809Y-43075185D01*
G37*
%TD.AperFunction*%
%TA.AperFunction,Conductor*%
G36*
X146149147Y-37695185D02*
G01*
X146194902Y-37747989D01*
X146204846Y-37817147D01*
X146187647Y-37864597D01*
X146160643Y-37908375D01*
X146160641Y-37908380D01*
X146105494Y-38074802D01*
X146105493Y-38074809D01*
X146095000Y-38177513D01*
X146095000Y-38315000D01*
X147446000Y-38315000D01*
X147513039Y-38334685D01*
X147558794Y-38387489D01*
X147570000Y-38439000D01*
X147570000Y-38691000D01*
X147550315Y-38758039D01*
X147497511Y-38803794D01*
X147446000Y-38815000D01*
X146095001Y-38815000D01*
X146095001Y-38952486D01*
X146105494Y-39055197D01*
X146160641Y-39221619D01*
X146160643Y-39221624D01*
X146252684Y-39370845D01*
X146376655Y-39494816D01*
X146376659Y-39494819D01*
X146379656Y-39496668D01*
X146381279Y-39498472D01*
X146382323Y-39499298D01*
X146382181Y-39499476D01*
X146426381Y-39548616D01*
X146437602Y-39617579D01*
X146409759Y-39681661D01*
X146379661Y-39707741D01*
X146376349Y-39709783D01*
X146376343Y-39709788D01*
X146252289Y-39833842D01*
X146160187Y-39983163D01*
X146160186Y-39983166D01*
X146105001Y-40149703D01*
X146105001Y-40149704D01*
X146105000Y-40149704D01*
X146094500Y-40252483D01*
X146094500Y-40252491D01*
X146094500Y-40482511D01*
X146094501Y-40680500D01*
X146074817Y-40747539D01*
X146022013Y-40793294D01*
X145970501Y-40804500D01*
X145106471Y-40804500D01*
X145039432Y-40784815D01*
X144993677Y-40732011D01*
X144983188Y-40693815D01*
X144983134Y-40693315D01*
X144983128Y-40666743D01*
X144989999Y-40602841D01*
X144990000Y-40602827D01*
X144990000Y-40555000D01*
X144139000Y-40555000D01*
X144071961Y-40535315D01*
X144026206Y-40482511D01*
X144015000Y-40431000D01*
X144015000Y-39812347D01*
X144017011Y-39805498D01*
X144264501Y-39805498D01*
X144265000Y-39809467D01*
X144265000Y-40305000D01*
X144990000Y-40305000D01*
X144990000Y-40257172D01*
X144989999Y-40257155D01*
X144983598Y-40197627D01*
X144983596Y-40197620D01*
X144933354Y-40062913D01*
X144933350Y-40062906D01*
X144847190Y-39947812D01*
X144847187Y-39947809D01*
X144732093Y-39861649D01*
X144732086Y-39861645D01*
X144597379Y-39811403D01*
X144597372Y-39811401D01*
X144537844Y-39805000D01*
X144265000Y-39805000D01*
X144264501Y-39805498D01*
X144017011Y-39805498D01*
X144025384Y-39776980D01*
X144003354Y-39717913D01*
X144003350Y-39717906D01*
X143917190Y-39602812D01*
X143917187Y-39602809D01*
X143802093Y-39516649D01*
X143802086Y-39516645D01*
X143667379Y-39466403D01*
X143667372Y-39466401D01*
X143607844Y-39460000D01*
X142490000Y-39460000D01*
X142490000Y-46900000D01*
X143607828Y-46900000D01*
X143607844Y-46899999D01*
X143667372Y-46893598D01*
X143667379Y-46893596D01*
X143802086Y-46843354D01*
X143802093Y-46843350D01*
X143917187Y-46757190D01*
X143917190Y-46757187D01*
X144003350Y-46642093D01*
X144003355Y-46642084D01*
X144005562Y-46636168D01*
X144047432Y-46580234D01*
X144112896Y-46555816D01*
X144121744Y-46555500D01*
X149496242Y-46555500D01*
X149546677Y-46566220D01*
X149580197Y-46581144D01*
X149765354Y-46620500D01*
X149765355Y-46620500D01*
X149954644Y-46620500D01*
X149954646Y-46620500D01*
X150139803Y-46581144D01*
X150312730Y-46504151D01*
X150465871Y-46392888D01*
X150592533Y-46252216D01*
X150687179Y-46088284D01*
X150745674Y-45908256D01*
X150765460Y-45720000D01*
X150745674Y-45531744D01*
X150687179Y-45351716D01*
X150592533Y-45187784D01*
X150465871Y-45047112D01*
X150459413Y-45042420D01*
X150312734Y-44935851D01*
X150312729Y-44935848D01*
X150139807Y-44858857D01*
X150139802Y-44858855D01*
X150002239Y-44829616D01*
X149940757Y-44796424D01*
X149906981Y-44735261D01*
X149911633Y-44665546D01*
X149940337Y-44620648D01*
X153259168Y-41301819D01*
X153320491Y-41268334D01*
X153346849Y-41265500D01*
X153664773Y-41265500D01*
X153731812Y-41285185D01*
X153766348Y-41318377D01*
X153901501Y-41511396D01*
X153901506Y-41511402D01*
X154068597Y-41678493D01*
X154068603Y-41678498D01*
X154254158Y-41808425D01*
X154297783Y-41863002D01*
X154304977Y-41932500D01*
X154273454Y-41994855D01*
X154254158Y-42011575D01*
X154068597Y-42141505D01*
X153901505Y-42308597D01*
X153765965Y-42502169D01*
X153765964Y-42502171D01*
X153666098Y-42716335D01*
X153666094Y-42716344D01*
X153604938Y-42944586D01*
X153604936Y-42944596D01*
X153584341Y-43179999D01*
X153584341Y-43180000D01*
X153604936Y-43415403D01*
X153604938Y-43415413D01*
X153631856Y-43515872D01*
X153630193Y-43585722D01*
X153599762Y-43635646D01*
X149637228Y-47598181D01*
X149575905Y-47631666D01*
X149549547Y-47634500D01*
X142440453Y-47634500D01*
X142373414Y-47614815D01*
X142352772Y-47598181D01*
X141866272Y-47111681D01*
X141832787Y-47050358D01*
X141837771Y-46980666D01*
X141879643Y-46924733D01*
X141945107Y-46900316D01*
X141953953Y-46900000D01*
X141990000Y-46900000D01*
X141990000Y-39460000D01*
X141038647Y-39460000D01*
X140971608Y-39440315D01*
X140925853Y-39387511D01*
X140915909Y-39318353D01*
X140944934Y-39254797D01*
X140950952Y-39248333D01*
X142487467Y-37711819D01*
X142548790Y-37678334D01*
X142575148Y-37675500D01*
X146082108Y-37675500D01*
X146149147Y-37695185D01*
G37*
%TD.AperFunction*%
%TA.AperFunction,Conductor*%
G36*
X157422539Y-27960185D02*
G01*
X157468294Y-28012989D01*
X157479500Y-28064500D01*
X157479500Y-78615500D01*
X157459815Y-78682539D01*
X157407011Y-78728294D01*
X157355500Y-78739500D01*
X127124500Y-78739500D01*
X127057461Y-78719815D01*
X127011706Y-78667011D01*
X127000500Y-78615500D01*
X127000500Y-76200000D01*
X128184341Y-76200000D01*
X128204936Y-76435403D01*
X128204938Y-76435413D01*
X128266094Y-76663655D01*
X128266096Y-76663659D01*
X128266097Y-76663663D01*
X128292874Y-76721086D01*
X128365965Y-76877830D01*
X128365967Y-76877834D01*
X128474281Y-77032521D01*
X128501505Y-77071401D01*
X128668599Y-77238495D01*
X128765384Y-77306265D01*
X128862165Y-77374032D01*
X128862167Y-77374033D01*
X128862170Y-77374035D01*
X129076337Y-77473903D01*
X129304592Y-77535063D01*
X129492918Y-77551539D01*
X129539999Y-77555659D01*
X129540000Y-77555659D01*
X129540001Y-77555659D01*
X129579234Y-77552226D01*
X129775408Y-77535063D01*
X130003663Y-77473903D01*
X130078861Y-77438836D01*
X130147938Y-77428345D01*
X130211722Y-77456864D01*
X130218944Y-77463534D01*
X130230994Y-77475584D01*
X130243628Y-77490376D01*
X130255405Y-77506586D01*
X130255406Y-77506587D01*
X130291302Y-77536282D01*
X130295625Y-77540215D01*
X130364200Y-77608791D01*
X130374021Y-77621051D01*
X130374243Y-77620868D01*
X130379213Y-77626876D01*
X130429637Y-77674228D01*
X130450523Y-77695115D01*
X130450527Y-77695118D01*
X130450529Y-77695120D01*
X130456011Y-77699373D01*
X130460443Y-77703157D01*
X130494418Y-77735062D01*
X130511976Y-77744714D01*
X130528233Y-77755393D01*
X130544064Y-77767673D01*
X130563737Y-77776186D01*
X130586833Y-77786182D01*
X130592077Y-77788750D01*
X130632908Y-77811197D01*
X130645523Y-77814435D01*
X130652305Y-77816177D01*
X130670719Y-77822481D01*
X130689104Y-77830438D01*
X130735157Y-77837732D01*
X130740826Y-77838906D01*
X130785981Y-77850500D01*
X130806016Y-77850500D01*
X130825413Y-77852026D01*
X130845196Y-77855160D01*
X130891584Y-77850775D01*
X130897422Y-77850500D01*
X149832357Y-77850500D01*
X149847977Y-77852224D01*
X149848004Y-77851939D01*
X149855760Y-77852671D01*
X149855767Y-77852673D01*
X149924914Y-77850500D01*
X149954450Y-77850500D01*
X149961328Y-77849630D01*
X149967141Y-77849172D01*
X150013727Y-77847709D01*
X150032969Y-77842117D01*
X150052012Y-77838174D01*
X150071892Y-77835664D01*
X150115222Y-77818507D01*
X150120746Y-77816617D01*
X150124496Y-77815527D01*
X150165490Y-77803618D01*
X150182729Y-77793422D01*
X150200203Y-77784862D01*
X150218827Y-77777488D01*
X150218827Y-77777487D01*
X150218832Y-77777486D01*
X150256549Y-77750082D01*
X150261405Y-77746892D01*
X150301520Y-77723170D01*
X150315689Y-77708999D01*
X150330479Y-77696368D01*
X150346687Y-77684594D01*
X150376399Y-77648676D01*
X150380312Y-77644376D01*
X151293787Y-76730902D01*
X151306042Y-76721086D01*
X151305859Y-76720864D01*
X151311866Y-76715892D01*
X151311877Y-76715886D01*
X151342775Y-76682982D01*
X151359227Y-76665464D01*
X151369671Y-76655018D01*
X151380120Y-76644571D01*
X151384379Y-76639078D01*
X151388152Y-76634661D01*
X151420062Y-76600682D01*
X151429715Y-76583120D01*
X151440389Y-76566870D01*
X151452673Y-76551036D01*
X151471180Y-76508267D01*
X151473749Y-76503024D01*
X151475953Y-76499013D01*
X151496197Y-76462192D01*
X151501177Y-76442791D01*
X151507478Y-76424388D01*
X151515438Y-76405996D01*
X151522730Y-76359949D01*
X151523911Y-76354252D01*
X151535500Y-76309119D01*
X151535500Y-76289083D01*
X151537027Y-76269682D01*
X151540160Y-76249904D01*
X151535775Y-76203515D01*
X151535500Y-76197677D01*
X151535500Y-72717737D01*
X151537224Y-72702123D01*
X151536938Y-72702096D01*
X151537672Y-72694333D01*
X151535500Y-72625203D01*
X151535500Y-72595651D01*
X151535500Y-72595650D01*
X151534629Y-72588759D01*
X151534172Y-72582945D01*
X151532709Y-72536372D01*
X151527122Y-72517144D01*
X151523174Y-72498084D01*
X151520664Y-72478208D01*
X151503507Y-72434875D01*
X151501619Y-72429359D01*
X151488619Y-72384612D01*
X151478418Y-72367363D01*
X151469860Y-72349894D01*
X151462486Y-72331268D01*
X151462483Y-72331264D01*
X151462483Y-72331263D01*
X151435098Y-72293571D01*
X151431890Y-72288687D01*
X151408172Y-72248582D01*
X151408163Y-72248571D01*
X151394005Y-72234413D01*
X151381370Y-72219620D01*
X151369593Y-72203412D01*
X151333693Y-72173713D01*
X151329381Y-72169790D01*
X151121818Y-71962227D01*
X151088333Y-71900904D01*
X151085499Y-71874546D01*
X151085499Y-71197498D01*
X151085498Y-71197481D01*
X151074999Y-71094703D01*
X151074998Y-71094700D01*
X151061216Y-71053110D01*
X151019814Y-70928166D01*
X150927712Y-70778844D01*
X150803656Y-70654788D01*
X150654334Y-70562686D01*
X150487797Y-70507501D01*
X150487795Y-70507500D01*
X150385016Y-70497000D01*
X150385009Y-70497000D01*
X149499420Y-70497000D01*
X149481846Y-70494780D01*
X149481759Y-70495477D01*
X149474021Y-70494500D01*
X149474019Y-70494500D01*
X149453984Y-70494500D01*
X149434586Y-70492973D01*
X149427162Y-70491797D01*
X149414805Y-70489840D01*
X149414804Y-70489840D01*
X149368416Y-70494225D01*
X149362578Y-70494500D01*
X148551058Y-70494500D01*
X148484019Y-70474815D01*
X148445519Y-70435597D01*
X148362712Y-70301344D01*
X148238656Y-70177288D01*
X148145777Y-70120000D01*
X148089336Y-70085187D01*
X148089331Y-70085185D01*
X148087862Y-70084698D01*
X147922797Y-70030001D01*
X147922795Y-70030000D01*
X147820010Y-70019500D01*
X146819998Y-70019500D01*
X146819980Y-70019501D01*
X146717203Y-70030000D01*
X146717200Y-70030001D01*
X146550668Y-70085185D01*
X146550663Y-70085187D01*
X146401342Y-70177289D01*
X146277289Y-70301342D01*
X146185187Y-70450663D01*
X146185186Y-70450666D01*
X146130001Y-70617203D01*
X146130001Y-70617204D01*
X146130000Y-70617204D01*
X146119500Y-70719983D01*
X146119500Y-71384546D01*
X146099815Y-71451585D01*
X146083181Y-71472227D01*
X144882229Y-72673180D01*
X144820906Y-72706665D01*
X144794548Y-72709499D01*
X144339499Y-72709499D01*
X144272460Y-72689814D01*
X144226705Y-72637010D01*
X144215499Y-72585499D01*
X144215499Y-71195782D01*
X144235184Y-71128743D01*
X144251814Y-71108105D01*
X144427809Y-70932109D01*
X144427814Y-70932106D01*
X144438017Y-70921902D01*
X144438019Y-70921902D01*
X145743102Y-69616819D01*
X145804425Y-69583334D01*
X145830783Y-69580500D01*
X152450743Y-69580500D01*
X152602439Y-69565074D01*
X152796579Y-69504162D01*
X152796580Y-69504161D01*
X152796588Y-69504159D01*
X152974502Y-69405409D01*
X153128895Y-69272866D01*
X153253448Y-69111958D01*
X153343060Y-68929271D01*
X153368761Y-68830003D01*
X153404620Y-68770041D01*
X153467206Y-68738982D01*
X153536649Y-68746690D01*
X153590901Y-68790719D01*
X153608577Y-68828994D01*
X153666094Y-69043655D01*
X153666096Y-69043659D01*
X153666097Y-69043663D01*
X153699113Y-69114466D01*
X153765965Y-69257830D01*
X153765967Y-69257834D01*
X153901501Y-69451395D01*
X153901506Y-69451402D01*
X154068597Y-69618493D01*
X154068603Y-69618498D01*
X154254158Y-69748425D01*
X154297783Y-69803002D01*
X154304977Y-69872500D01*
X154273454Y-69934855D01*
X154254158Y-69951575D01*
X154068597Y-70081505D01*
X153901505Y-70248597D01*
X153765965Y-70442169D01*
X153765964Y-70442171D01*
X153666098Y-70656335D01*
X153666094Y-70656344D01*
X153604938Y-70884586D01*
X153604936Y-70884596D01*
X153584341Y-71119999D01*
X153584341Y-71120000D01*
X153604936Y-71355403D01*
X153604938Y-71355413D01*
X153666094Y-71583655D01*
X153666096Y-71583659D01*
X153666097Y-71583663D01*
X153741563Y-71745500D01*
X153765965Y-71797830D01*
X153765967Y-71797834D01*
X153901501Y-71991395D01*
X153901506Y-71991402D01*
X154068597Y-72158493D01*
X154068603Y-72158498D01*
X154254158Y-72288425D01*
X154297783Y-72343002D01*
X154304977Y-72412500D01*
X154273454Y-72474855D01*
X154254158Y-72491575D01*
X154068597Y-72621505D01*
X153901505Y-72788597D01*
X153765965Y-72982169D01*
X153765964Y-72982171D01*
X153666098Y-73196335D01*
X153666094Y-73196344D01*
X153604938Y-73424586D01*
X153604936Y-73424596D01*
X153584341Y-73659999D01*
X153584341Y-73660000D01*
X153604936Y-73895403D01*
X153604938Y-73895413D01*
X153666094Y-74123655D01*
X153666096Y-74123659D01*
X153666097Y-74123663D01*
X153712574Y-74223333D01*
X153765965Y-74337830D01*
X153765967Y-74337834D01*
X153857662Y-74468787D01*
X153884341Y-74506889D01*
X153901501Y-74531395D01*
X153901506Y-74531402D01*
X154068597Y-74698493D01*
X154068603Y-74698498D01*
X154254158Y-74828425D01*
X154297783Y-74883002D01*
X154304977Y-74952500D01*
X154273454Y-75014855D01*
X154254158Y-75031575D01*
X154068597Y-75161505D01*
X153901505Y-75328597D01*
X153765965Y-75522169D01*
X153765964Y-75522171D01*
X153666098Y-75736335D01*
X153666094Y-75736344D01*
X153604938Y-75964586D01*
X153604936Y-75964596D01*
X153584341Y-76199999D01*
X153584341Y-76200000D01*
X153604936Y-76435403D01*
X153604938Y-76435413D01*
X153666094Y-76663655D01*
X153666096Y-76663659D01*
X153666097Y-76663663D01*
X153692874Y-76721086D01*
X153765965Y-76877830D01*
X153765967Y-76877834D01*
X153874281Y-77032521D01*
X153901505Y-77071401D01*
X154068599Y-77238495D01*
X154165384Y-77306265D01*
X154262165Y-77374032D01*
X154262167Y-77374033D01*
X154262170Y-77374035D01*
X154476337Y-77473903D01*
X154704592Y-77535063D01*
X154892918Y-77551539D01*
X154939999Y-77555659D01*
X154940000Y-77555659D01*
X154940001Y-77555659D01*
X154979234Y-77552226D01*
X155175408Y-77535063D01*
X155403663Y-77473903D01*
X155617830Y-77374035D01*
X155811401Y-77238495D01*
X155978495Y-77071401D01*
X156114035Y-76877830D01*
X156213903Y-76663663D01*
X156275063Y-76435408D01*
X156295659Y-76200000D01*
X156275063Y-75964592D01*
X156213903Y-75736337D01*
X156114035Y-75522171D01*
X156108572Y-75514368D01*
X155978494Y-75328597D01*
X155811402Y-75161506D01*
X155811396Y-75161501D01*
X155625842Y-75031575D01*
X155582217Y-74976998D01*
X155575023Y-74907500D01*
X155606546Y-74845145D01*
X155625842Y-74828425D01*
X155648026Y-74812891D01*
X155811401Y-74698495D01*
X155978495Y-74531401D01*
X156114035Y-74337830D01*
X156213903Y-74123663D01*
X156275063Y-73895408D01*
X156295659Y-73660000D01*
X156275063Y-73424592D01*
X156213903Y-73196337D01*
X156114035Y-72982171D01*
X156090649Y-72948771D01*
X155978494Y-72788597D01*
X155811402Y-72621506D01*
X155811396Y-72621501D01*
X155625842Y-72491575D01*
X155582217Y-72436998D01*
X155575023Y-72367500D01*
X155606546Y-72305145D01*
X155625842Y-72288425D01*
X155648026Y-72272891D01*
X155811401Y-72158495D01*
X155978495Y-71991401D01*
X156114035Y-71797830D01*
X156213903Y-71583663D01*
X156275063Y-71355408D01*
X156295659Y-71120000D01*
X156293445Y-71094700D01*
X156287230Y-71023656D01*
X156275063Y-70884592D01*
X156227977Y-70708862D01*
X156213905Y-70656344D01*
X156213904Y-70656343D01*
X156213903Y-70656337D01*
X156114035Y-70442171D01*
X156015428Y-70301344D01*
X155978494Y-70248597D01*
X155811402Y-70081506D01*
X155811396Y-70081501D01*
X155625842Y-69951575D01*
X155582217Y-69896998D01*
X155575023Y-69827500D01*
X155606546Y-69765145D01*
X155625842Y-69748425D01*
X155648026Y-69732891D01*
X155811401Y-69618495D01*
X155978495Y-69451401D01*
X156114035Y-69257830D01*
X156213903Y-69043663D01*
X156275063Y-68815408D01*
X156295659Y-68580000D01*
X156275063Y-68344592D01*
X156223765Y-68153142D01*
X156213905Y-68116344D01*
X156213904Y-68116343D01*
X156213903Y-68116337D01*
X156114035Y-67902171D01*
X156082100Y-67856562D01*
X155978494Y-67708597D01*
X155811402Y-67541506D01*
X155811396Y-67541501D01*
X155625842Y-67411575D01*
X155582217Y-67356998D01*
X155575023Y-67287500D01*
X155606546Y-67225145D01*
X155625842Y-67208425D01*
X155746430Y-67123988D01*
X155811401Y-67078495D01*
X155978495Y-66911401D01*
X156114035Y-66717830D01*
X156213903Y-66503663D01*
X156275063Y-66275408D01*
X156295659Y-66040000D01*
X156275063Y-65804592D01*
X156213903Y-65576337D01*
X156114035Y-65362171D01*
X155978495Y-65168599D01*
X155978494Y-65168597D01*
X155811402Y-65001506D01*
X155811396Y-65001501D01*
X155625842Y-64871575D01*
X155582217Y-64816998D01*
X155575023Y-64747500D01*
X155606546Y-64685145D01*
X155625842Y-64668425D01*
X155648026Y-64652891D01*
X155811401Y-64538495D01*
X155978495Y-64371401D01*
X156114035Y-64177830D01*
X156213903Y-63963663D01*
X156275063Y-63735408D01*
X156295659Y-63500000D01*
X156275063Y-63264592D01*
X156213903Y-63036337D01*
X156114035Y-62822171D01*
X156054363Y-62736949D01*
X155978494Y-62628597D01*
X155811402Y-62461506D01*
X155811396Y-62461501D01*
X155625842Y-62331575D01*
X155582217Y-62276998D01*
X155575023Y-62207500D01*
X155606546Y-62145145D01*
X155625842Y-62128425D01*
X155788816Y-62014309D01*
X155811401Y-61998495D01*
X155978495Y-61831401D01*
X156114035Y-61637830D01*
X156213903Y-61423663D01*
X156275063Y-61195408D01*
X156295659Y-60960000D01*
X156275063Y-60724592D01*
X156213903Y-60496337D01*
X156114035Y-60282171D01*
X156015428Y-60141344D01*
X155978494Y-60088597D01*
X155811402Y-59921506D01*
X155811396Y-59921501D01*
X155625842Y-59791575D01*
X155582217Y-59736998D01*
X155575023Y-59667500D01*
X155606546Y-59605145D01*
X155625842Y-59588425D01*
X155805254Y-59462799D01*
X155811401Y-59458495D01*
X155978495Y-59291401D01*
X156114035Y-59097830D01*
X156213903Y-58883663D01*
X156275063Y-58655408D01*
X156295659Y-58420000D01*
X156275063Y-58184592D01*
X156213903Y-57956337D01*
X156114035Y-57742171D01*
X156063151Y-57669500D01*
X155978494Y-57548597D01*
X155811402Y-57381506D01*
X155811396Y-57381501D01*
X155625842Y-57251575D01*
X155582217Y-57196998D01*
X155575023Y-57127500D01*
X155606546Y-57065145D01*
X155625842Y-57048425D01*
X155680531Y-57010131D01*
X155811401Y-56918495D01*
X155978495Y-56751401D01*
X156114035Y-56557830D01*
X156213903Y-56343663D01*
X156275063Y-56115408D01*
X156295659Y-55880000D01*
X156275063Y-55644592D01*
X156213903Y-55416337D01*
X156114035Y-55202171D01*
X156080675Y-55154527D01*
X155978494Y-55008597D01*
X155811402Y-54841506D01*
X155811396Y-54841501D01*
X155625842Y-54711575D01*
X155582217Y-54656998D01*
X155575023Y-54587500D01*
X155606546Y-54525145D01*
X155625842Y-54508425D01*
X155750552Y-54421102D01*
X155811401Y-54378495D01*
X155978495Y-54211401D01*
X156114035Y-54017830D01*
X156213903Y-53803663D01*
X156275063Y-53575408D01*
X156295659Y-53340000D01*
X156275063Y-53104592D01*
X156213903Y-52876337D01*
X156114035Y-52662171D01*
X156080675Y-52614527D01*
X155978494Y-52468597D01*
X155811402Y-52301506D01*
X155811396Y-52301501D01*
X155625842Y-52171575D01*
X155582217Y-52116998D01*
X155575023Y-52047500D01*
X155606546Y-51985145D01*
X155625842Y-51968425D01*
X155655082Y-51947951D01*
X155811401Y-51838495D01*
X155978495Y-51671401D01*
X156114035Y-51477830D01*
X156213903Y-51263663D01*
X156275063Y-51035408D01*
X156295659Y-50800000D01*
X156275063Y-50564592D01*
X156213903Y-50336337D01*
X156114035Y-50122171D01*
X156039590Y-50015851D01*
X155978494Y-49928597D01*
X155811402Y-49761506D01*
X155811396Y-49761501D01*
X155625842Y-49631575D01*
X155582217Y-49576998D01*
X155575023Y-49507500D01*
X155606546Y-49445145D01*
X155625842Y-49428425D01*
X155758552Y-49335500D01*
X155811401Y-49298495D01*
X155978495Y-49131401D01*
X156114035Y-48937830D01*
X156213903Y-48723663D01*
X156275063Y-48495408D01*
X156295659Y-48260000D01*
X156275063Y-48024592D01*
X156213903Y-47796337D01*
X156114035Y-47582171D01*
X156082696Y-47537413D01*
X155978494Y-47388597D01*
X155811402Y-47221506D01*
X155811396Y-47221501D01*
X155625842Y-47091575D01*
X155582217Y-47036998D01*
X155575023Y-46967500D01*
X155606546Y-46905145D01*
X155625842Y-46888425D01*
X155690210Y-46843354D01*
X155811401Y-46758495D01*
X155978495Y-46591401D01*
X156114035Y-46397830D01*
X156213903Y-46183663D01*
X156275063Y-45955408D01*
X156295659Y-45720000D01*
X156275063Y-45484592D01*
X156213903Y-45256337D01*
X156114035Y-45042171D01*
X156039590Y-44935851D01*
X155978494Y-44848597D01*
X155811402Y-44681506D01*
X155811396Y-44681501D01*
X155625842Y-44551575D01*
X155582217Y-44496998D01*
X155575023Y-44427500D01*
X155606546Y-44365145D01*
X155625842Y-44348425D01*
X155684589Y-44307290D01*
X155811401Y-44218495D01*
X155978495Y-44051401D01*
X156114035Y-43857830D01*
X156213903Y-43643663D01*
X156275063Y-43415408D01*
X156295659Y-43180000D01*
X156275063Y-42944592D01*
X156213903Y-42716337D01*
X156114035Y-42502171D01*
X155978495Y-42308599D01*
X155978494Y-42308597D01*
X155811402Y-42141506D01*
X155811396Y-42141501D01*
X155625842Y-42011575D01*
X155582217Y-41956998D01*
X155575023Y-41887500D01*
X155606546Y-41825145D01*
X155625842Y-41808425D01*
X155699103Y-41757127D01*
X155811401Y-41678495D01*
X155978495Y-41511401D01*
X156114035Y-41317830D01*
X156213903Y-41103663D01*
X156275063Y-40875408D01*
X156295659Y-40640000D01*
X156275063Y-40404592D01*
X156213903Y-40176337D01*
X156114035Y-39962171D01*
X156049462Y-39869950D01*
X155978494Y-39768597D01*
X155811402Y-39601506D01*
X155811396Y-39601501D01*
X155625842Y-39471575D01*
X155582217Y-39416998D01*
X155575023Y-39347500D01*
X155606546Y-39285145D01*
X155625842Y-39268425D01*
X155654556Y-39248319D01*
X155811401Y-39138495D01*
X155978495Y-38971401D01*
X156114035Y-38777830D01*
X156213903Y-38563663D01*
X156275063Y-38335408D01*
X156295659Y-38100000D01*
X156275063Y-37864592D01*
X156213903Y-37636337D01*
X156114035Y-37422171D01*
X156107465Y-37412787D01*
X155978494Y-37228597D01*
X155811402Y-37061506D01*
X155811396Y-37061501D01*
X155625842Y-36931575D01*
X155582217Y-36876998D01*
X155575023Y-36807500D01*
X155606546Y-36745145D01*
X155625842Y-36728425D01*
X155648026Y-36712891D01*
X155811401Y-36598495D01*
X155978495Y-36431401D01*
X156114035Y-36237830D01*
X156213903Y-36023663D01*
X156275063Y-35795408D01*
X156295659Y-35560000D01*
X156275063Y-35324592D01*
X156213903Y-35096337D01*
X156114035Y-34882171D01*
X156113652Y-34881623D01*
X155978494Y-34688597D01*
X155811402Y-34521506D01*
X155811396Y-34521501D01*
X155625842Y-34391575D01*
X155582217Y-34336998D01*
X155575023Y-34267500D01*
X155606546Y-34205145D01*
X155625842Y-34188425D01*
X155648026Y-34172891D01*
X155811401Y-34058495D01*
X155978495Y-33891401D01*
X156114035Y-33697830D01*
X156213903Y-33483663D01*
X156275063Y-33255408D01*
X156295659Y-33020000D01*
X156275063Y-32784592D01*
X156213903Y-32556337D01*
X156114035Y-32342171D01*
X155978495Y-32148599D01*
X155856567Y-32026671D01*
X155823084Y-31965351D01*
X155828068Y-31895659D01*
X155869939Y-31839725D01*
X155900915Y-31822810D01*
X156032331Y-31773796D01*
X156147546Y-31687546D01*
X156233796Y-31572331D01*
X156284091Y-31437483D01*
X156290500Y-31377873D01*
X156290499Y-29582128D01*
X156284091Y-29522517D01*
X156233796Y-29387669D01*
X156233795Y-29387668D01*
X156233793Y-29387664D01*
X156147547Y-29272455D01*
X156147544Y-29272452D01*
X156032335Y-29186206D01*
X156032328Y-29186202D01*
X155897482Y-29135908D01*
X155897483Y-29135908D01*
X155837883Y-29129501D01*
X155837881Y-29129500D01*
X155837873Y-29129500D01*
X155837864Y-29129500D01*
X154042129Y-29129500D01*
X154042123Y-29129501D01*
X153982516Y-29135908D01*
X153847671Y-29186202D01*
X153847664Y-29186206D01*
X153732455Y-29272452D01*
X153732452Y-29272455D01*
X153646206Y-29387664D01*
X153646202Y-29387671D01*
X153595908Y-29522517D01*
X153589501Y-29582116D01*
X153589501Y-29582123D01*
X153589500Y-29582135D01*
X153589500Y-30717770D01*
X153569815Y-30784809D01*
X153553181Y-30805451D01*
X148376106Y-35982525D01*
X148314783Y-36016010D01*
X148245091Y-36011026D01*
X148189158Y-35969154D01*
X148164741Y-35903690D01*
X148170493Y-35856530D01*
X148205674Y-35748256D01*
X148225460Y-35560000D01*
X148205674Y-35371744D01*
X148147179Y-35191716D01*
X148052533Y-35027784D01*
X147925871Y-34887112D01*
X147925870Y-34887111D01*
X147772734Y-34775851D01*
X147772729Y-34775848D01*
X147599807Y-34698857D01*
X147599802Y-34698855D01*
X147454001Y-34667865D01*
X147414646Y-34659500D01*
X147225354Y-34659500D01*
X147192897Y-34666398D01*
X147040197Y-34698855D01*
X147040192Y-34698857D01*
X146867270Y-34775848D01*
X146867265Y-34775851D01*
X146714129Y-34887111D01*
X146587466Y-35027785D01*
X146492821Y-35191715D01*
X146492818Y-35191722D01*
X146449645Y-35324596D01*
X146434326Y-35371744D01*
X146414540Y-35560000D01*
X146434326Y-35748256D01*
X146434327Y-35748259D01*
X146492818Y-35928277D01*
X146492821Y-35928284D01*
X146527587Y-35988500D01*
X146544060Y-36056400D01*
X146521207Y-36122427D01*
X146466286Y-36165618D01*
X146420200Y-36174500D01*
X142276623Y-36174500D01*
X142258653Y-36173191D01*
X142234890Y-36169710D01*
X142189451Y-36173686D01*
X142182849Y-36174264D01*
X142177448Y-36174500D01*
X142169207Y-36174500D01*
X142147497Y-36177037D01*
X142136642Y-36178306D01*
X142121337Y-36179645D01*
X142060117Y-36185001D01*
X142053050Y-36186460D01*
X142053038Y-36186404D01*
X142045681Y-36188035D01*
X142045695Y-36188092D01*
X142038661Y-36189759D01*
X141966493Y-36216025D01*
X141893593Y-36240181D01*
X141887044Y-36243236D01*
X141887019Y-36243183D01*
X141880226Y-36246471D01*
X141880252Y-36246523D01*
X141873798Y-36249764D01*
X141809626Y-36291971D01*
X141744265Y-36332285D01*
X141738601Y-36336765D01*
X141738565Y-36336719D01*
X141732716Y-36341484D01*
X141732753Y-36341528D01*
X141727228Y-36346164D01*
X141674515Y-36402035D01*
X139054358Y-39022190D01*
X139040729Y-39033969D01*
X139021468Y-39048308D01*
X138987898Y-39088315D01*
X138984253Y-39092294D01*
X138978409Y-39098140D01*
X138958059Y-39123877D01*
X138908695Y-39182707D01*
X138904729Y-39188737D01*
X138904682Y-39188706D01*
X138900630Y-39195065D01*
X138900679Y-39195095D01*
X138896889Y-39201239D01*
X138864424Y-39270859D01*
X138829960Y-39339484D01*
X138827488Y-39346275D01*
X138827432Y-39346254D01*
X138824960Y-39353368D01*
X138825015Y-39353387D01*
X138822742Y-39360245D01*
X138814975Y-39397864D01*
X138807207Y-39435483D01*
X138796613Y-39480185D01*
X138789498Y-39510204D01*
X138788661Y-39517372D01*
X138788601Y-39517365D01*
X138787835Y-39524863D01*
X138787895Y-39524869D01*
X138787265Y-39532058D01*
X138789500Y-39608834D01*
X138789500Y-40680500D01*
X138769815Y-40747539D01*
X138717011Y-40793294D01*
X138665500Y-40804500D01*
X138185886Y-40804500D01*
X138118847Y-40784815D01*
X138073092Y-40732011D01*
X138062565Y-40667540D01*
X138065460Y-40640000D01*
X138045674Y-40451744D01*
X137987179Y-40271716D01*
X137892533Y-40107784D01*
X137765871Y-39967112D01*
X137765870Y-39967111D01*
X137612734Y-39855851D01*
X137612729Y-39855848D01*
X137439807Y-39778857D01*
X137439802Y-39778855D01*
X137287028Y-39746383D01*
X137254646Y-39739500D01*
X137065354Y-39739500D01*
X137032972Y-39746383D01*
X136880199Y-39778855D01*
X136880197Y-39778856D01*
X136811445Y-39809467D01*
X136789710Y-39819144D01*
X136720460Y-39828428D01*
X136657183Y-39798800D01*
X136633735Y-39770960D01*
X136587712Y-39696344D01*
X136463657Y-39572289D01*
X136463656Y-39572288D01*
X136341056Y-39496668D01*
X136314336Y-39480187D01*
X136314331Y-39480185D01*
X136312862Y-39479698D01*
X136147797Y-39425001D01*
X136147795Y-39425000D01*
X136045010Y-39414500D01*
X135269998Y-39414500D01*
X135269980Y-39414501D01*
X135167203Y-39425000D01*
X135167200Y-39425001D01*
X135000668Y-39480185D01*
X135000663Y-39480187D01*
X134851342Y-39572289D01*
X134727288Y-39696343D01*
X134727283Y-39696349D01*
X134725241Y-39699661D01*
X134723247Y-39701453D01*
X134722807Y-39702011D01*
X134722711Y-39701935D01*
X134673291Y-39746383D01*
X134604328Y-39757602D01*
X134540247Y-39729755D01*
X134514168Y-39699656D01*
X134512319Y-39696659D01*
X134512316Y-39696655D01*
X134388345Y-39572684D01*
X134239124Y-39480643D01*
X134239119Y-39480641D01*
X134072697Y-39425494D01*
X134072690Y-39425493D01*
X133969986Y-39415000D01*
X133832500Y-39415000D01*
X133832500Y-40766000D01*
X133812815Y-40833039D01*
X133760011Y-40878794D01*
X133708500Y-40890000D01*
X132495001Y-40890000D01*
X132495001Y-41164986D01*
X132505494Y-41267697D01*
X132560641Y-41434119D01*
X132560643Y-41434124D01*
X132652684Y-41583345D01*
X132776654Y-41707315D01*
X132925875Y-41799356D01*
X132925880Y-41799358D01*
X133092302Y-41854505D01*
X133092309Y-41854506D01*
X133195019Y-41864999D01*
X133377770Y-41864999D01*
X133444810Y-41884683D01*
X133490565Y-41937487D01*
X133500509Y-42006645D01*
X133471484Y-42070201D01*
X133465452Y-42076680D01*
X131696207Y-43845926D01*
X131683951Y-43855746D01*
X131684134Y-43855967D01*
X131678123Y-43860939D01*
X131630772Y-43911362D01*
X131609889Y-43932245D01*
X131609877Y-43932258D01*
X131605621Y-43937743D01*
X131601837Y-43942173D01*
X131569937Y-43976144D01*
X131569936Y-43976146D01*
X131560284Y-43993702D01*
X131549610Y-44009952D01*
X131537329Y-44025787D01*
X131537324Y-44025794D01*
X131518815Y-44068564D01*
X131516245Y-44073810D01*
X131493803Y-44114632D01*
X131488822Y-44134033D01*
X131482521Y-44152436D01*
X131474562Y-44170828D01*
X131474561Y-44170831D01*
X131467271Y-44216853D01*
X131466087Y-44222572D01*
X131454501Y-44267698D01*
X131454500Y-44267708D01*
X131454500Y-44287742D01*
X131452973Y-44307141D01*
X131449840Y-44326920D01*
X131449840Y-44326921D01*
X131454225Y-44373309D01*
X131454500Y-44379147D01*
X131454500Y-58109546D01*
X131434815Y-58176585D01*
X131418181Y-58197227D01*
X131107340Y-58508068D01*
X131046017Y-58541553D01*
X130976325Y-58536569D01*
X130920392Y-58494697D01*
X130895975Y-58429233D01*
X130895659Y-58420387D01*
X130895659Y-58419999D01*
X130876168Y-58197227D01*
X130875063Y-58184592D01*
X130813903Y-57956337D01*
X130714035Y-57742171D01*
X130663151Y-57669500D01*
X130578494Y-57548597D01*
X130411402Y-57381506D01*
X130411396Y-57381501D01*
X130225842Y-57251575D01*
X130182217Y-57196998D01*
X130175023Y-57127500D01*
X130206546Y-57065145D01*
X130225842Y-57048425D01*
X130280531Y-57010131D01*
X130411401Y-56918495D01*
X130578495Y-56751401D01*
X130714035Y-56557830D01*
X130813903Y-56343663D01*
X130875063Y-56115408D01*
X130895659Y-55880000D01*
X130875063Y-55644592D01*
X130813903Y-55416337D01*
X130714035Y-55202171D01*
X130680675Y-55154527D01*
X130578494Y-55008597D01*
X130411402Y-54841506D01*
X130411396Y-54841501D01*
X130225842Y-54711575D01*
X130182217Y-54656998D01*
X130175023Y-54587500D01*
X130206546Y-54525145D01*
X130225842Y-54508425D01*
X130350552Y-54421102D01*
X130411401Y-54378495D01*
X130578495Y-54211401D01*
X130714035Y-54017830D01*
X130813903Y-53803663D01*
X130875063Y-53575408D01*
X130895659Y-53340000D01*
X130875063Y-53104592D01*
X130813903Y-52876337D01*
X130714035Y-52662171D01*
X130680675Y-52614527D01*
X130578494Y-52468597D01*
X130411402Y-52301506D01*
X130411396Y-52301501D01*
X130225842Y-52171575D01*
X130182217Y-52116998D01*
X130175023Y-52047500D01*
X130206546Y-51985145D01*
X130225842Y-51968425D01*
X130255082Y-51947951D01*
X130411401Y-51838495D01*
X130578495Y-51671401D01*
X130714035Y-51477830D01*
X130813903Y-51263663D01*
X130875063Y-51035408D01*
X130895659Y-50800000D01*
X130875063Y-50564592D01*
X130813903Y-50336337D01*
X130714035Y-50122171D01*
X130639590Y-50015851D01*
X130578494Y-49928597D01*
X130411402Y-49761506D01*
X130411396Y-49761501D01*
X130225842Y-49631575D01*
X130182217Y-49576998D01*
X130175023Y-49507500D01*
X130206546Y-49445145D01*
X130225842Y-49428425D01*
X130358552Y-49335500D01*
X130411401Y-49298495D01*
X130578495Y-49131401D01*
X130714035Y-48937830D01*
X130813903Y-48723663D01*
X130875063Y-48495408D01*
X130895659Y-48260000D01*
X130875063Y-48024592D01*
X130813903Y-47796337D01*
X130714035Y-47582171D01*
X130682696Y-47537413D01*
X130578494Y-47388597D01*
X130411402Y-47221506D01*
X130411401Y-47221505D01*
X130225405Y-47091269D01*
X130181781Y-47036692D01*
X130174588Y-46967193D01*
X130206110Y-46904839D01*
X130225405Y-46888119D01*
X130411082Y-46758105D01*
X130578105Y-46591082D01*
X130713600Y-46397578D01*
X130813429Y-46183492D01*
X130813432Y-46183486D01*
X130870636Y-45970000D01*
X129973686Y-45970000D01*
X129999493Y-45929844D01*
X130040000Y-45791889D01*
X130040000Y-45648111D01*
X129999493Y-45510156D01*
X129973686Y-45470000D01*
X130870636Y-45470000D01*
X130870635Y-45469999D01*
X130813432Y-45256513D01*
X130813429Y-45256507D01*
X130713600Y-45042422D01*
X130713599Y-45042420D01*
X130578113Y-44848926D01*
X130578108Y-44848920D01*
X130411078Y-44681890D01*
X130225405Y-44551879D01*
X130181780Y-44497302D01*
X130174588Y-44427804D01*
X130206110Y-44365449D01*
X130225406Y-44348730D01*
X130225993Y-44348319D01*
X130411401Y-44218495D01*
X130578495Y-44051401D01*
X130714035Y-43857830D01*
X130813903Y-43643663D01*
X130875063Y-43415408D01*
X130895659Y-43180000D01*
X130875063Y-42944592D01*
X130813903Y-42716337D01*
X130714035Y-42502171D01*
X130578495Y-42308599D01*
X130578494Y-42308597D01*
X130411402Y-42141506D01*
X130411396Y-42141501D01*
X130225842Y-42011575D01*
X130182217Y-41956998D01*
X130175023Y-41887500D01*
X130206546Y-41825145D01*
X130225842Y-41808425D01*
X130299103Y-41757127D01*
X130411401Y-41678495D01*
X130578495Y-41511401D01*
X130714035Y-41317830D01*
X130813903Y-41103663D01*
X130875063Y-40875408D01*
X130895659Y-40640000D01*
X130875063Y-40404592D01*
X130871153Y-40390000D01*
X132495000Y-40390000D01*
X133332500Y-40390000D01*
X133332500Y-39415000D01*
X133195027Y-39415000D01*
X133195012Y-39415001D01*
X133092302Y-39425494D01*
X132925880Y-39480641D01*
X132925875Y-39480643D01*
X132776654Y-39572684D01*
X132652684Y-39696654D01*
X132560643Y-39845875D01*
X132560641Y-39845880D01*
X132505494Y-40012302D01*
X132505493Y-40012309D01*
X132495000Y-40115013D01*
X132495000Y-40390000D01*
X130871153Y-40390000D01*
X130813903Y-40176337D01*
X130714035Y-39962171D01*
X130649462Y-39869950D01*
X130578494Y-39768597D01*
X130411402Y-39601506D01*
X130411396Y-39601501D01*
X130225842Y-39471575D01*
X130182217Y-39416998D01*
X130175023Y-39347500D01*
X130206546Y-39285145D01*
X130225842Y-39268425D01*
X130254556Y-39248319D01*
X130411401Y-39138495D01*
X130578495Y-38971401D01*
X130714035Y-38777830D01*
X130813903Y-38563663D01*
X130875063Y-38335408D01*
X130895659Y-38100000D01*
X133714540Y-38100000D01*
X133734326Y-38288256D01*
X133734327Y-38288259D01*
X133792818Y-38468277D01*
X133792821Y-38468284D01*
X133887467Y-38632216D01*
X133940397Y-38691000D01*
X134014129Y-38772888D01*
X134167265Y-38884148D01*
X134167270Y-38884151D01*
X134340192Y-38961142D01*
X134340197Y-38961144D01*
X134525354Y-39000500D01*
X134525355Y-39000500D01*
X134714644Y-39000500D01*
X134714646Y-39000500D01*
X134899803Y-38961144D01*
X135072730Y-38884151D01*
X135225871Y-38772888D01*
X135352533Y-38632216D01*
X135447179Y-38468284D01*
X135505674Y-38288256D01*
X135525460Y-38100000D01*
X135505674Y-37911744D01*
X135447179Y-37731716D01*
X135352533Y-37567784D01*
X135225871Y-37427112D01*
X135225870Y-37427111D01*
X135072734Y-37315851D01*
X135072729Y-37315848D01*
X134899807Y-37238857D01*
X134899802Y-37238855D01*
X134754001Y-37207865D01*
X134714646Y-37199500D01*
X134525354Y-37199500D01*
X134492897Y-37206398D01*
X134340197Y-37238855D01*
X134340192Y-37238857D01*
X134167270Y-37315848D01*
X134167265Y-37315851D01*
X134014129Y-37427111D01*
X133887466Y-37567785D01*
X133792821Y-37731715D01*
X133792818Y-37731722D01*
X133735419Y-37908380D01*
X133734326Y-37911744D01*
X133714540Y-38100000D01*
X130895659Y-38100000D01*
X130875063Y-37864592D01*
X130813903Y-37636337D01*
X130714035Y-37422171D01*
X130707465Y-37412787D01*
X130578494Y-37228597D01*
X130411402Y-37061506D01*
X130411396Y-37061501D01*
X130225842Y-36931575D01*
X130182217Y-36876998D01*
X130175023Y-36807500D01*
X130206546Y-36745145D01*
X130225842Y-36728425D01*
X130248026Y-36712891D01*
X130411401Y-36598495D01*
X130578495Y-36431401D01*
X130714035Y-36237830D01*
X130813903Y-36023663D01*
X130875063Y-35795408D01*
X130895659Y-35560000D01*
X130875063Y-35324592D01*
X130813903Y-35096337D01*
X130714035Y-34882171D01*
X130713652Y-34881623D01*
X130578494Y-34688597D01*
X130411402Y-34521506D01*
X130411396Y-34521501D01*
X130225842Y-34391575D01*
X130182217Y-34336998D01*
X130175023Y-34267500D01*
X130206546Y-34205145D01*
X130225842Y-34188425D01*
X130248026Y-34172891D01*
X130411401Y-34058495D01*
X130578495Y-33891401D01*
X130714035Y-33697830D01*
X130813903Y-33483663D01*
X130875063Y-33255408D01*
X130895659Y-33020000D01*
X130875063Y-32784592D01*
X130813903Y-32556337D01*
X130714035Y-32342171D01*
X130578495Y-32148599D01*
X130456567Y-32026671D01*
X130423084Y-31965351D01*
X130428068Y-31895659D01*
X130469939Y-31839725D01*
X130500915Y-31822810D01*
X130632331Y-31773796D01*
X130747546Y-31687546D01*
X130833796Y-31572331D01*
X130884091Y-31437483D01*
X130890500Y-31377873D01*
X130890499Y-29582128D01*
X130884091Y-29522517D01*
X130833796Y-29387669D01*
X130833795Y-29387668D01*
X130833793Y-29387664D01*
X130747547Y-29272455D01*
X130747544Y-29272452D01*
X130632335Y-29186206D01*
X130632328Y-29186202D01*
X130497482Y-29135908D01*
X130497483Y-29135908D01*
X130437883Y-29129501D01*
X130437881Y-29129500D01*
X130437873Y-29129500D01*
X130437864Y-29129500D01*
X128642129Y-29129500D01*
X128642123Y-29129501D01*
X128582516Y-29135908D01*
X128447671Y-29186202D01*
X128447664Y-29186206D01*
X128332455Y-29272452D01*
X128332452Y-29272455D01*
X128246206Y-29387664D01*
X128246202Y-29387671D01*
X128195908Y-29522517D01*
X128189501Y-29582116D01*
X128189501Y-29582123D01*
X128189500Y-29582135D01*
X128189500Y-31377870D01*
X128189501Y-31377876D01*
X128195908Y-31437483D01*
X128246202Y-31572328D01*
X128246206Y-31572335D01*
X128332452Y-31687544D01*
X128332455Y-31687547D01*
X128447664Y-31773793D01*
X128447671Y-31773797D01*
X128579081Y-31822810D01*
X128635015Y-31864681D01*
X128659432Y-31930145D01*
X128644580Y-31998418D01*
X128623430Y-32026673D01*
X128501503Y-32148600D01*
X128365965Y-32342169D01*
X128365964Y-32342171D01*
X128266098Y-32556335D01*
X128266094Y-32556344D01*
X128204938Y-32784586D01*
X128204936Y-32784596D01*
X128184341Y-33019999D01*
X128184341Y-33020000D01*
X128204936Y-33255403D01*
X128204938Y-33255413D01*
X128266094Y-33483655D01*
X128266096Y-33483659D01*
X128266097Y-33483663D01*
X128365965Y-33697830D01*
X128365967Y-33697834D01*
X128501501Y-33891395D01*
X128501506Y-33891402D01*
X128668597Y-34058493D01*
X128668603Y-34058498D01*
X128854158Y-34188425D01*
X128897783Y-34243002D01*
X128904977Y-34312500D01*
X128873454Y-34374855D01*
X128854158Y-34391575D01*
X128668597Y-34521505D01*
X128501505Y-34688597D01*
X128365965Y-34882169D01*
X128365964Y-34882171D01*
X128266098Y-35096335D01*
X128266094Y-35096344D01*
X128204938Y-35324586D01*
X128204936Y-35324596D01*
X128184341Y-35559999D01*
X128184341Y-35560000D01*
X128204936Y-35795403D01*
X128204938Y-35795413D01*
X128266094Y-36023655D01*
X128266096Y-36023659D01*
X128266097Y-36023663D01*
X128341330Y-36185001D01*
X128365965Y-36237830D01*
X128365967Y-36237834D01*
X128474281Y-36392521D01*
X128501501Y-36431396D01*
X128501506Y-36431402D01*
X128668597Y-36598493D01*
X128668603Y-36598498D01*
X128854158Y-36728425D01*
X128897783Y-36783002D01*
X128904977Y-36852500D01*
X128873454Y-36914855D01*
X128854158Y-36931575D01*
X128668597Y-37061505D01*
X128501505Y-37228597D01*
X128365965Y-37422169D01*
X128365964Y-37422171D01*
X128266098Y-37636335D01*
X128266094Y-37636344D01*
X128204938Y-37864586D01*
X128204936Y-37864596D01*
X128184341Y-38099999D01*
X128184341Y-38100000D01*
X128204936Y-38335403D01*
X128204938Y-38335413D01*
X128266094Y-38563655D01*
X128266096Y-38563659D01*
X128266097Y-38563663D01*
X128356736Y-38758039D01*
X128365965Y-38777830D01*
X128365967Y-38777834D01*
X128474281Y-38932521D01*
X128487340Y-38951172D01*
X128501501Y-38971395D01*
X128501506Y-38971402D01*
X128668597Y-39138493D01*
X128668603Y-39138498D01*
X128854158Y-39268425D01*
X128897783Y-39323002D01*
X128904977Y-39392500D01*
X128873454Y-39454855D01*
X128854158Y-39471575D01*
X128668597Y-39601505D01*
X128501505Y-39768597D01*
X128365965Y-39962169D01*
X128365964Y-39962171D01*
X128266098Y-40176335D01*
X128266094Y-40176344D01*
X128204938Y-40404586D01*
X128204936Y-40404596D01*
X128184341Y-40639999D01*
X128184341Y-40640000D01*
X128204936Y-40875403D01*
X128204938Y-40875413D01*
X128266094Y-41103655D01*
X128266096Y-41103659D01*
X128266097Y-41103663D01*
X128301694Y-41180000D01*
X128365965Y-41317830D01*
X128365967Y-41317834D01*
X128447395Y-41434124D01*
X128501501Y-41511396D01*
X128501506Y-41511402D01*
X128668597Y-41678493D01*
X128668603Y-41678498D01*
X128854158Y-41808425D01*
X128897783Y-41863002D01*
X128904977Y-41932500D01*
X128873454Y-41994855D01*
X128854158Y-42011575D01*
X128668597Y-42141505D01*
X128501505Y-42308597D01*
X128365965Y-42502169D01*
X128365964Y-42502171D01*
X128266098Y-42716335D01*
X128266094Y-42716344D01*
X128204938Y-42944586D01*
X128204936Y-42944596D01*
X128184341Y-43179999D01*
X128184341Y-43180000D01*
X128204936Y-43415403D01*
X128204938Y-43415413D01*
X128266094Y-43643655D01*
X128266096Y-43643659D01*
X128266097Y-43643663D01*
X128319007Y-43757128D01*
X128365965Y-43857830D01*
X128365967Y-43857834D01*
X128501501Y-44051395D01*
X128501506Y-44051402D01*
X128668597Y-44218493D01*
X128668603Y-44218498D01*
X128724621Y-44257722D01*
X128853962Y-44348288D01*
X128854594Y-44348730D01*
X128898219Y-44403307D01*
X128905413Y-44472805D01*
X128873890Y-44535160D01*
X128854595Y-44551880D01*
X128668922Y-44681890D01*
X128668920Y-44681891D01*
X128501891Y-44848920D01*
X128501886Y-44848926D01*
X128366400Y-45042420D01*
X128366399Y-45042422D01*
X128266570Y-45256507D01*
X128266567Y-45256513D01*
X128209364Y-45469999D01*
X128209364Y-45470000D01*
X129106314Y-45470000D01*
X129080507Y-45510156D01*
X129040000Y-45648111D01*
X129040000Y-45791889D01*
X129080507Y-45929844D01*
X129106314Y-45970000D01*
X128209364Y-45970000D01*
X128266567Y-46183486D01*
X128266570Y-46183492D01*
X128366399Y-46397578D01*
X128501894Y-46591082D01*
X128668917Y-46758105D01*
X128854595Y-46888119D01*
X128898219Y-46942696D01*
X128905412Y-47012195D01*
X128873890Y-47074549D01*
X128854595Y-47091269D01*
X128668594Y-47221508D01*
X128501505Y-47388597D01*
X128365965Y-47582169D01*
X128365964Y-47582171D01*
X128266098Y-47796335D01*
X128266094Y-47796344D01*
X128204938Y-48024586D01*
X128204936Y-48024596D01*
X128184341Y-48259999D01*
X128184341Y-48260000D01*
X128204936Y-48495403D01*
X128204938Y-48495413D01*
X128266094Y-48723655D01*
X128266096Y-48723659D01*
X128266097Y-48723663D01*
X128365965Y-48937830D01*
X128365967Y-48937834D01*
X128474281Y-49092521D01*
X128500079Y-49129365D01*
X128501501Y-49131395D01*
X128501506Y-49131402D01*
X128668597Y-49298493D01*
X128668603Y-49298498D01*
X128854158Y-49428425D01*
X128897783Y-49483002D01*
X128904977Y-49552500D01*
X128873454Y-49614855D01*
X128854158Y-49631575D01*
X128668597Y-49761505D01*
X128501505Y-49928597D01*
X128365965Y-50122169D01*
X128365964Y-50122171D01*
X128266098Y-50336335D01*
X128266094Y-50336344D01*
X128204938Y-50564586D01*
X128204936Y-50564596D01*
X128184341Y-50799999D01*
X128184341Y-50800000D01*
X128204936Y-51035403D01*
X128204938Y-51035413D01*
X128266094Y-51263655D01*
X128266096Y-51263659D01*
X128266097Y-51263663D01*
X128298063Y-51332214D01*
X128365965Y-51477830D01*
X128365967Y-51477834D01*
X128501501Y-51671395D01*
X128501506Y-51671402D01*
X128668597Y-51838493D01*
X128668603Y-51838498D01*
X128854158Y-51968425D01*
X128897783Y-52023002D01*
X128904977Y-52092500D01*
X128873454Y-52154855D01*
X128854158Y-52171575D01*
X128668597Y-52301505D01*
X128501505Y-52468597D01*
X128365965Y-52662169D01*
X128365964Y-52662171D01*
X128266098Y-52876335D01*
X128266094Y-52876344D01*
X128204938Y-53104586D01*
X128204936Y-53104596D01*
X128184341Y-53339999D01*
X128184341Y-53340000D01*
X128204936Y-53575403D01*
X128204938Y-53575413D01*
X128266094Y-53803655D01*
X128266096Y-53803659D01*
X128266097Y-53803663D01*
X128354262Y-53992732D01*
X128365965Y-54017830D01*
X128365967Y-54017834D01*
X128501501Y-54211395D01*
X128501506Y-54211402D01*
X128668597Y-54378493D01*
X128668603Y-54378498D01*
X128854158Y-54508425D01*
X128897783Y-54563002D01*
X128904977Y-54632500D01*
X128873454Y-54694855D01*
X128854158Y-54711575D01*
X128668597Y-54841505D01*
X128501505Y-55008597D01*
X128365965Y-55202169D01*
X128365964Y-55202171D01*
X128266098Y-55416335D01*
X128266094Y-55416344D01*
X128204938Y-55644586D01*
X128204936Y-55644596D01*
X128184341Y-55879999D01*
X128184341Y-55880000D01*
X128204936Y-56115403D01*
X128204938Y-56115413D01*
X128266094Y-56343655D01*
X128266096Y-56343659D01*
X128266097Y-56343663D01*
X128354262Y-56532732D01*
X128365965Y-56557830D01*
X128365967Y-56557834D01*
X128501501Y-56751395D01*
X128501506Y-56751402D01*
X128668597Y-56918493D01*
X128668603Y-56918498D01*
X128854158Y-57048425D01*
X128897783Y-57103002D01*
X128904977Y-57172500D01*
X128873454Y-57234855D01*
X128854158Y-57251575D01*
X128668597Y-57381505D01*
X128501505Y-57548597D01*
X128365965Y-57742169D01*
X128365964Y-57742171D01*
X128266098Y-57956335D01*
X128266094Y-57956344D01*
X128204938Y-58184586D01*
X128204936Y-58184596D01*
X128184341Y-58419999D01*
X128184341Y-58420000D01*
X128204936Y-58655403D01*
X128204938Y-58655413D01*
X128266094Y-58883655D01*
X128266096Y-58883659D01*
X128266097Y-58883663D01*
X128310692Y-58979297D01*
X128365965Y-59097830D01*
X128365967Y-59097834D01*
X128501501Y-59291395D01*
X128501506Y-59291402D01*
X128668597Y-59458493D01*
X128668603Y-59458498D01*
X128854158Y-59588425D01*
X128897783Y-59643002D01*
X128904977Y-59712500D01*
X128873454Y-59774855D01*
X128854158Y-59791575D01*
X128668597Y-59921505D01*
X128501505Y-60088597D01*
X128365965Y-60282169D01*
X128365964Y-60282171D01*
X128266098Y-60496335D01*
X128266094Y-60496344D01*
X128204938Y-60724586D01*
X128204936Y-60724596D01*
X128184341Y-60959999D01*
X128184341Y-60960000D01*
X128204936Y-61195403D01*
X128204938Y-61195413D01*
X128266094Y-61423655D01*
X128266096Y-61423659D01*
X128266097Y-61423663D01*
X128341563Y-61585500D01*
X128365965Y-61637830D01*
X128365967Y-61637834D01*
X128464573Y-61778657D01*
X128501501Y-61831396D01*
X128501506Y-61831402D01*
X128668597Y-61998493D01*
X128668603Y-61998498D01*
X128854158Y-62128425D01*
X128897783Y-62183002D01*
X128904977Y-62252500D01*
X128873454Y-62314855D01*
X128854158Y-62331575D01*
X128668597Y-62461505D01*
X128501505Y-62628597D01*
X128365965Y-62822169D01*
X128365964Y-62822171D01*
X128266098Y-63036335D01*
X128266094Y-63036344D01*
X128204938Y-63264586D01*
X128204936Y-63264596D01*
X128184341Y-63499999D01*
X128184341Y-63500000D01*
X128204936Y-63735403D01*
X128204938Y-63735413D01*
X128266094Y-63963655D01*
X128266096Y-63963659D01*
X128266097Y-63963663D01*
X128337851Y-64117539D01*
X128365965Y-64177830D01*
X128365967Y-64177834D01*
X128501501Y-64371395D01*
X128501506Y-64371402D01*
X128668597Y-64538493D01*
X128668603Y-64538498D01*
X128854158Y-64668425D01*
X128897783Y-64723002D01*
X128904977Y-64792500D01*
X128873454Y-64854855D01*
X128854158Y-64871575D01*
X128668597Y-65001505D01*
X128501505Y-65168597D01*
X128365965Y-65362169D01*
X128365964Y-65362171D01*
X128278611Y-65549500D01*
X128266167Y-65576188D01*
X128266098Y-65576335D01*
X128266094Y-65576344D01*
X128204938Y-65804586D01*
X128204936Y-65804596D01*
X128184341Y-66039999D01*
X128184341Y-66040000D01*
X128204936Y-66275403D01*
X128204938Y-66275413D01*
X128266094Y-66503655D01*
X128266096Y-66503659D01*
X128266097Y-66503663D01*
X128329106Y-66638785D01*
X128365965Y-66717830D01*
X128365967Y-66717834D01*
X128501501Y-66911395D01*
X128501506Y-66911402D01*
X128668597Y-67078493D01*
X128668603Y-67078498D01*
X128854158Y-67208425D01*
X128897783Y-67263002D01*
X128904977Y-67332500D01*
X128873454Y-67394855D01*
X128854158Y-67411575D01*
X128668597Y-67541505D01*
X128501505Y-67708597D01*
X128365965Y-67902169D01*
X128365964Y-67902171D01*
X128266098Y-68116335D01*
X128266094Y-68116344D01*
X128204938Y-68344586D01*
X128204936Y-68344596D01*
X128184341Y-68579999D01*
X128184341Y-68580000D01*
X128204936Y-68815403D01*
X128204938Y-68815413D01*
X128266094Y-69043655D01*
X128266096Y-69043659D01*
X128266097Y-69043663D01*
X128299113Y-69114466D01*
X128365965Y-69257830D01*
X128365967Y-69257834D01*
X128501501Y-69451395D01*
X128501506Y-69451402D01*
X128668597Y-69618493D01*
X128668603Y-69618498D01*
X128854158Y-69748425D01*
X128897783Y-69803002D01*
X128904977Y-69872500D01*
X128873454Y-69934855D01*
X128854158Y-69951575D01*
X128668597Y-70081505D01*
X128501505Y-70248597D01*
X128365965Y-70442169D01*
X128365964Y-70442171D01*
X128266098Y-70656335D01*
X128266094Y-70656344D01*
X128204938Y-70884586D01*
X128204936Y-70884596D01*
X128184341Y-71119999D01*
X128184341Y-71120000D01*
X128204936Y-71355403D01*
X128204938Y-71355413D01*
X128266094Y-71583655D01*
X128266096Y-71583659D01*
X128266097Y-71583663D01*
X128341563Y-71745500D01*
X128365965Y-71797830D01*
X128365967Y-71797834D01*
X128501501Y-71991395D01*
X128501506Y-71991402D01*
X128668597Y-72158493D01*
X128668603Y-72158498D01*
X128854158Y-72288425D01*
X128897783Y-72343002D01*
X128904977Y-72412500D01*
X128873454Y-72474855D01*
X128854158Y-72491575D01*
X128668597Y-72621505D01*
X128501505Y-72788597D01*
X128365965Y-72982169D01*
X128365964Y-72982171D01*
X128266098Y-73196335D01*
X128266094Y-73196344D01*
X128204938Y-73424586D01*
X128204936Y-73424596D01*
X128184341Y-73659999D01*
X128184341Y-73660000D01*
X128204936Y-73895403D01*
X128204938Y-73895413D01*
X128266094Y-74123655D01*
X128266096Y-74123659D01*
X128266097Y-74123663D01*
X128312574Y-74223333D01*
X128365965Y-74337830D01*
X128365967Y-74337834D01*
X128457662Y-74468787D01*
X128484341Y-74506889D01*
X128501501Y-74531395D01*
X128501506Y-74531402D01*
X128668597Y-74698493D01*
X128668603Y-74698498D01*
X128854158Y-74828425D01*
X128897783Y-74883002D01*
X128904977Y-74952500D01*
X128873454Y-75014855D01*
X128854158Y-75031575D01*
X128668597Y-75161505D01*
X128501505Y-75328597D01*
X128365965Y-75522169D01*
X128365964Y-75522171D01*
X128266098Y-75736335D01*
X128266094Y-75736344D01*
X128204938Y-75964586D01*
X128204936Y-75964596D01*
X128184341Y-76199999D01*
X128184341Y-76200000D01*
X127000500Y-76200000D01*
X127000500Y-28064500D01*
X127020185Y-27997461D01*
X127072989Y-27951706D01*
X127124500Y-27940500D01*
X157355500Y-27940500D01*
X157422539Y-27960185D01*
G37*
%TD.AperFunction*%
%TD*%
M02*
